<svg width="160" height="160" fill="none" xmlns="http://www.w3.org/2000/svg"><path fill-rule="evenodd" clip-rule="evenodd" d="M62.732 33.063a49.764 49.764 0 0 0-9.232 4.53l-17.917-5.1a2.5 2.5 0 0 0-3.09 3.087l5.097 17.915a48.662 48.662 0 0 0-4.517 9.23L5 80l28.062 17.269a49.716 49.716 0 0 0 4.528 9.231l-5.098 17.92a2.503 2.503 0 0 0 .638 2.45c.64.643 1.58.88 2.453.637l17.917-5.099a49.775 49.775 0 0 0 9.232 4.529L80.002 155l17.27-28.065a49.696 49.696 0 0 0 9.225-4.527l17.918 5.099a2.501 2.501 0 0 0 3.09-3.087l-5.097-17.92a49.787 49.787 0 0 0 4.53-9.232L154.999 80l-28.063-17.27a49.765 49.765 0 0 0-4.528-9.23l5.097-17.92a2.503 2.503 0 0 0-3.09-3.087l-17.918 5.1a49.718 49.718 0 0 0-9.225-4.528L80.002 5l-17.27 28.063ZM54.28 62.287l-1.498 2.983a2.644 2.644 0 0 0-.142 2.035l4.92 14.702c.13.393.352.753.647 1.045l9.71 9.673c.503.5 1.185.782 1.898.782h4.03c.217 0 .437-.027.65-.08l9.425-2.347c.76-.188 1.4-.7 1.75-1.397l1.9-3.786c.185-.37.282-.78.282-1.195v-4.385c0-.287-.047-.572-.137-.844l-1.988-5.936a2.689 2.689 0 0 0-2.547-1.827h-9.01v2.725l1.87 3.727a2.662 2.662 0 0 1-.503 3.085 2.691 2.691 0 0 1-3.097.5l-2.94-1.465a2.669 2.669 0 0 1-1.2-1.194l-1.838-3.663a2.665 2.665 0 0 1-.145-2.04l2.033-6.075a2.672 2.672 0 0 1 1.345-1.545l9.777-4.87c.115-.058.233-.105.353-.145l5.812-1.93a2.686 2.686 0 0 1 3.25 1.34l1.295 2.58c.26.517.68.938 1.2 1.195l3.45 1.718a2.677 2.677 0 0 1 1.448 1.952l2.285 13.652a2.667 2.667 0 0 1-.75 2.33l-1.625 1.618a2.71 2.71 0 0 0-.25.288l-7.643 10.15a2.675 2.675 0 0 1-1.15.877l-12.877 5.13a4.43 4.43 0 0 0-.203.09l-5.107 2.545a2.69 2.69 0 0 1-.55.203l-3.618.9c-2.417.602-2.78 3.875-.55 4.985l8.725 4.345a2.688 2.688 0 0 0 2.4 0l3.705-1.845a2.697 2.697 0 0 1 1.2-.283h4.403c.29 0 .577-.047.85-.137l7.192-2.388c.395-.13.755-.352 1.05-.645l4.835-4.817c.125-.125.263-.238.41-.335l7.165-4.758c.53-.353.918-.88 1.093-1.49l4.972-17.337a2.677 2.677 0 0 0-.035-1.58l-5.072-15.155a2.744 2.744 0 0 0-.4-.758l-7.443-9.885a2.687 2.687 0 0 0-1.297-.932L83.95 47.708a2.696 2.696 0 0 0-2.748.645l-.195.194a2.692 2.692 0 0 1-3.097.5l-2.54-1.264a2.685 2.685 0 0 0-2.4 0l-8.748 4.357a2.673 2.673 0 0 0-1.345 1.545l-1.772 5.297a2.689 2.689 0 0 1-2.548 1.828H56.68a2.687 2.687 0 0 0-2.4 1.477ZM80 125a44.822 44.822 0 0 1-24.15-7.022 2.516 2.516 0 0 0-2.528-.718l-14.79 4.21 4.208-14.79c.245-.86-.015-1.757-.625-2.388C37.458 97.047 35 88.66 35 80c0-8.552 2.487-17.102 7.015-24.148a2.5 2.5 0 0 0 .722-2.532L38.53 38.528l14.79 4.21c.862.245 1.76-.013 2.388-.626C62.953 37.459 71.34 35 80 35c8.603 0 16.94 2.428 24.152 7.023a2.505 2.505 0 0 0 2.528.714l14.79-4.21-4.208 14.793c-.247.862.015 1.76.625 2.388C122.542 62.953 125 71.34 125 80c0 8.603-2.427 16.94-7.022 24.152a2.503 2.503 0 0 0-.716 2.528l4.208 14.79-14.79-4.21c-.865-.245-1.763.02-2.39.627C97.047 122.542 88.657 125 80 125Z" fill="#fff"/></svg>
