<svg width="160" height="160" viewBox="0 0 160 160" xmlns="http://www.w3.org/2000/svg" fill="none"><path fill-rule="evenodd" clip-rule="evenodd" d="M68.13 27.162c.235.364.791 1.227 1.24 1.915l5.028 7.724 1.09 1.683c.162.285.252.604.264.931v102.735c0 .823-.383.942-.849.264l-4.155-6.031c-.577-.809-1.215-1.574-1.907-2.287l-.528-.528-1.512-1.511c-.274-.305-.447-.686-.496-1.093-.026-.35-.119-1.308-.208-2.126l-5.638-51.896c-.087-.818-.219-2.158-.29-2.978l-.143-1.628c-.107-.987-.319-1.96-.633-2.902l-1.931-5.379-.411-1.142-.309-.86c-.12-.384-.12-.795 0-1.179l.744-1.992 2.815-7.505c.333-.936.58-1.9.739-2.881.133-1.344.106-2.699-.082-4.036-.625-5.068-3.226-5.938-4.081-6.223-5.143-1.675-10.512-2.555-15.921-2.609-4.588 0-7.197.799-8.109 1.546-2.205 1.804-1.952 9.605-.807 14.182 1.05 4.202.649 5.851.649 5.851-.195.81-.535 2.111-.76 2.902l-1.538 5.49c-.222.794-.715.844-1.092.113l-2.638-5.063-1.374-2.657-17.087-32.976-1.374-2.657-1.67-3.221c-.383-.731-.024-1.237.791-1.124l3.593.491 2.963.406 52.163 7.173 2.261.311c.484.094.914.367 1.206.765zm80.116-8.249l2.962-.406 3.609-.485c.815-.113 1.171.393.791 1.124l-1.667 3.221-1.377 2.657-17.087 32.976-1.374 2.657-2.638 5.063c-.378.731-.868.678-1.09-.113l-1.54-5.49c-.233-.791-.565-2.11-.76-2.902 0 0-.406-1.649.649-5.851 1.145-4.577 1.398-12.378-.807-14.182-.913-.755-3.522-1.546-8.107-1.546-5.41.054-10.78.934-15.924 2.609-.841.28-3.406 1.14-4.06 6.083-.206 1.383-.24 2.785-.1 4.176.158.98.404 1.945.736 2.881l2.815 7.505.552 1.474.194.518c.119.384.119.795 0 1.179l-.155.427c-.156.426-.377 1.031-.562 1.575l-1.931 5.379c-.316.942-.529 1.915-.636 2.902l-.142 1.628c-.072.821-.201 2.161-.291 2.978l-5.637 51.896c-.09.808-.182 1.776-.206 2.127-.051.406-.225.787-.499 1.092l-1.512 1.511-.528.528c-.691.714-1.328 1.479-1.905 2.287l-4.158 6.031c-.467.678-.849.559-.849-.264v-102.74c.01-.327.101-.647.264-.931l1.087-1.683 5.012-7.724 1.24-1.915c.292-.398.724-.672 1.208-.765l2.258-.311 52.163-7.173z" fill="#fff"/></svg>