<svg width="160" height="160" viewBox="0 0 160 160" xmlns="http://www.w3.org/2000/svg" fill="#fff"><path d="M85.103 155.57c.09.468.074.914-.049 1.328-.067.31-.175.601-.327.862-.293.502-.899.628-1.168 1.122-.338.198-.701.255-1.079.236l-.163.053-.09.022c-.132.107-.261.225-.41.262-.902.225-1.9.207-2.893-.003-.241.008-.459-.072-.672-.171-2.151-.645-4.162-2.153-4.965-4l-.017-.103-.113-.106c-.102-.246-.289-.457-.322-.733l.002-.245c-.096-.31-.15-.633-.295-.926l-.002-.009c-.17-.186-.14-.436-.207-.655-.09-.291-.212-.507-.558-.275l-.18.382-.117-.004-.1.119-.16.098c-.027.269-.067.533-.326.688l-.028.018-.067.071-1.599 1.765-.343.106-.294.242c-.238.249-.588.308-.858.503-.285.103-.575.193-.84.347l-.228.134-.052.111-.629.131-.502.105-.481.1c-.161.039-.321.085-.475.147-.241.095-.521.104-.745.27l-.283.094c-1.157.196-2.275-.046-3.395-.245-.186.012-.371.017-.537-.091l-.316-.046-.108-.037-.026.037c-.083.041-.162.034-.238-.02-1.694-.539-3.223-1.356-4.466-2.655l-1.013-1.058c-.421-.785-1.052-1.434-1.372-2.301-.121-.327-.102-.7-.315-.992l-.17-.207c-.138-.157-.088-.34-.07-.518l.031-.027-.001-.034c-.212-.132-.291-.351-.315-.58-.152-1.392-.205-2.785.016-4.176.354-1.022.665-2.061 1.077-3.059.24-.582.558-1.154 1.058-1.582.806-1.133 1.668-2.204 2.98-2.796l.212-.301c.264-.26.63-.351.924-.559l.002.002.639-.148.338-.136.407-.101c1.098-.357 2.218-.435 3.345-.416.503-.004 1.005.018 1.506.069l.864.054c.271.017.538.078.808.119.534.171 1.118.225 1.562.606l.215.125c.383.057.675.253.894.557l.219.162.061-.006.123.098c.147.084.291.188.475.255l.086-.038c.151-.089.188-.175.171-.261l-.024-.068-.232-.353c-.336-1.046-.677-2.09-1.02-3.134-.309-.865-.612-1.729-.893-2.601-.207-.583-.401-1.17-.59-1.759l-.869-2.443-.147-.785-.076-.236-.021-.084-.099-.032c-.286-1.131-.611-2.247-1.112-3.306-.555-1.912-1.189-3.806-1.64-5.743l-.111-.482h1.998c1.651 0 2.99-1.339 2.99-2.991v-45.324c0-1.651-1.339-2.99-2.99-2.99h-8.201c.018-.611.081-1.223.169-1.837.011-.323.018-.644.012-.967-.043-.335-.112-.668-.135-1.004-.03-.446-.025-.89.087-1.325.03-.508.063-1.018.014-1.532-.073-.691-.203-1.375-.306-2.062l-.072-.2v-.028c-.201-.423-.134-.888-.109-1.325.084-1.531-.138-3.072.089-4.597l-.001-.3c.007-.488-.034-.983.186-1.442l.176-1.986c-.006-.214-.005-.427.014-.639.003-.149.011-.298.038-.445l.02-.054c.018-.857.116-1.704.305-2.541l.005-.175c.005-.18.008-.36.046-.537l.022-.064.045-1.354c-.032-.074-.079-.143-.149-.206-.149-.203-.363-.32-.579-.434-1.032-.334-1.95.192-2.899.415-.547.128-1.059.411-1.542.72-.227.149-.511.149-.743.283-.484.084-.988.093-1.427.359l-.277.062c-.999.134-2.002.049-3.003.056-.233.002-.455.019-.668.064-.136.04-.266.096-.391.184l-.295.104-.166.13c-.334.376-.745.691-.946 1.176-.511.827-1.438 1.013-2.228 1.133-1.739.265-3.09 1.236-4.513 2.101-.415.253-.802.558-1.172.879l-.028.019c-.012.209-.275.262-.388.408-.65.76-1.524 1.31-2.042 2.192-.329.334-.615.684-.847 1.058l-.277.52c-.246.551-.373 1.157-.339 1.844l.019.309.016.244c.046.715.049 1.442-.486 2.045l-.248.522c-.475 1.338-.776 2.674-.064 4.097.155.309.289.93-.319 1.187l-.411.348c-1.445.035-2.877.014-4.196-.714-.448-.247-.753-.563-.972-1.044-.495-1.091-.812-2.24-1.17-3.372-.179-.569-.178-1.236.217-1.772.315-.429.649-.845.982-1.26.155-.216.306-.435.452-.659l.319-.364c.487-.727 1.004-1.433 1.561-2.108l.426-.641.168-.194.196-.15.764-1.139.162-.107.063-.076.869-1.125 1.141-1.645.604-.705.316-.444c.186-.274.457-.524.415-.885-.192-1.662.867-2.767 1.732-3.961l.193-.166v-.175c.191-.287.406-.55.712-.724 1.589-1.517 2.831-3.356 4.459-4.838.221-.201.399-.475.735-.517.656-.708 1.393-1.317 2.212-1.827.071-.061.143-.087.215-.076l.053-.049c.7-.617 1.468-1.14 2.267-1.618l.043-.032-.007-.103c.284-.36.63-.627 1.091-.718l.165.004.151-.143c1.017-.614 1.933-1.382 2.992-1.929l-.007-.069.04-.079c.787-.76 1.791-.972 2.819-1.044.623-.044 1.174-.244 1.537-.693.666-.821 1.52-1.411 2.302-2.091.084-.121.211-.143.345-.148l.064.02.098-.09.156-.099c1.18-.86 2.579-1.248 3.941-1.718l.761-.13.307-.04c.406-.118.821-.176 1.239-.214.893-.171 1.787-.35 2.698-.364.179-.043.349-.033.508.01l.346.029c.192.225.442.329.733.345.767.84 1.6.077 2.394.072.181-.002.36-.012.539-.028.617-.141 1.238-.282 1.864-.354.665-.16 1.329-.324 2.01-.39.226.16.457.258.694.314l.9-.104c.179-.019.361.04.54.107.275-.033.549-.067.82-.073.353-.008.257-.467.182-.769l-.111-.466c-.041-.111-.071-.222-.074-.335-.203-.955-.337-1.921-.326-2.906l-.014-.093c-.186-.489-.183-.991-.143-1.491-.014-.441.004-.884.075-1.331l.012-.104c-.003-.248-.015-.493-.033-.738-.047-.232-.126-.459-.239-.677.386-2.441.615-4.938 2.353-6.921l.241-.502c.586-.772 1.313-1.422 1.911-2.184.662-.425 1.226-1.007 2.002-1.25.409-.15.826-.274 1.242-.404l.005-.023.061.002.058-.018c.816-.163 1.632-.132 2.448-.022.344.176.751.158 1.09.351.328.13.606.38.975.42 1.004.282 1.742 1.025 2.625 1.515l.138.138c.826.496 1.486 1.159 1.991 1.979.197-.05.268.092.333.243l.044.15c.631.851.954 1.785 1.014 2.864.12 2.178-.176 4.259-1.114 6.238-.143.301-.35.619.081.871l-.008.01c.274.115.362.372.274.596-.338.864-.359 1.818-.774 2.656-.037.073-.094.11-.162.125l-.087.307-.142.274.002.092c-.23.391-.446.793-.821 1.067l-.212.191c-.394.41-.875.708-1.346 1.017l-.173.233-.062.194c-.025.196-.06.385-.2.511l-.108.219c-.044.534-.498.875-.638 1.363-.171.285-.432.51-.563.823-.253.272-.32.613.047.757.757.298 1.032 1.012 1.505 1.554l.153.202c1.164 1.49 2.703 2.534 4.242 3.579l.203.149.405.241c.415.159.762.442 1.108.727l.185.111c.162.114.302.256.447.393l.394.31.141.072.229.177c.333.241.636.515.931.798l.284.274c.324.316.65.632 1.005.913.301.496.817.845.974 1.438.196.129.319.306.343.544l-.007.227.174.331c1.185 2.91 2.709 5.646 4.272 8.362.198.345.545.576.763.91l.146.211c.041.123.1.222.172.306.513.319 1.146.462 1.55.944l.194.152c.726.081 1.011.807 1.561 1.145.568 1.085 1.915 1.153 2.647 2.03.213.256.479.467.72.699.251.016.37.22.526.37l.166.293.255.156.65.573.218.129.145.019c.642.286 1.234.048 1.832-.117l.367-.12.206-.134.306-.108.13-.061.213-.141.22-.102.313-.123c.259-.155.534-.28.812-.401l.437-.226.103-.046c.137-.09.293-.146.451-.202l.448-.197c.108-.069.203-.157.277-.282.457-.173.839-.096 1.119.33.388.067.587.419.902.596.254.171.506.343.705.58.53.527 1.264.81 1.708 1.438.551.286 1.035.659 1.466 1.103l-.009.227.175.228c.839 1.864.343 3.437-1.043 4.818-.604.434-1.13.428-1.516-.283-.225-.415-.608-.448-1.018-.471-1.081-.063-2.098.297-3.125.526-.507.114-.931.187-1.394-.057-.595-.313-1.22-.364-1.861-.152-.49.161-.598.641-.841 1.008-.404.435-.691 1.029-1.408 1.044-.295.04-.577.016-.853-.046l-.041.007c-.427-.012-.793-.147-1.063-.479l-.154-.081-.227-.023-.019-.096-.154-.079-.239-.229c-.992-.559-2.203-.274-3.244-.66l-.12-.03-.036-.005c-.154-.019-.318-.007-.467-.061l-.151-.025-.577-.136c-.418-.079-.817-.216-1.209-.374-.283-.105-.558-.224-.823-.355l-.332-.146-.921-.386c-.955-.64-1.19-1.841-2.013-2.584l-.017-.174-.098-.062c-.229-.156-.486-.209-.756-.215-.331.144-.684.066-1.028.035-.956-.085-1.909-.12-2.858-.059-.239.1-.49.091-.742.068-.42.051-.84.123-1.258.22-.301.07-.626.038-.942.044l-.112.042-.264.085c-.962.471-1.23 1.529-1.784 2.343l-.163.327c-.313.881-.773 1.69-1.231 2.501l-.168.451c-.578.93-1.053 1.914-1.534 2.893h-16.125c-1.651 0-2.99 1.339-2.99 2.99v45.323c0 1.651 1.339 2.99 2.99 2.99h1.517c-.007.535-.045 1.065-.111 1.59-.025.482-.091.964-.246 1.453l-.056.195-.039.158c-.135.606-.15 1.261-.077 1.911.061.543.238 1.159-.214 1.64-.057.915-.075 1.828.087 2.74.098.163.144.339.122.529l-.084.249-.053.137v1.439l.034.103.056.113.038.12c.096.534.092 1.084.257 1.607.036.123.052.25.059.378l.005.17c.09.215.107.438.104.663l.016.039c.054.212.113.421.189.626.04.131.053.265.061.401l.015.095c.132.174.101.416.106.636l.088.445c.149.547.326 1.088.454 1.64.101.286.212.568.339.846.184.549.562.993.816 1.505l.216.443.133.266c.077.158.15.32.21.487l.121.528c.271.759.493 1.523.421 2.377l.003.289c.022.171.066.338.126.501.154.4.412.773.61 1.162.12.196.239.392.344.588.643 1.151 1.244 2.322 1.833 3.501.343.84.74 1.66.928 2.557l.005.13-.01.363c.552.438 1.089.885 1.094 1.679l.058-.038c.161.111.298.242.369.43l.129.296c.529.634.857 1.449.958 2.26l.001.004zm8.917-72.664c.292-.212.549-.474.822-.713l.362-.192c.179-.38.407-.758.504-1.144h-4.338v3.217h1.82c.019-.404.295-.779.831-1.168zm38.918 75.013c.122.232.211.466.033.711l-.044.057c.028.117-.012.238-.039.358-.118.545-.624.682-1.001.955h-7.558c-.27-1.377-1.381-1.895-2.478-2.427l-.671-.326-.124-.04c-.302-.116-.614-.198-.928-.266-1.172-.209-2.344-.415-3.512-.649-.389-.078-.799-.174-1.101-.477l-.165-.095c-.355-.162-.632-.411-.879-.693-.23-.239-.436-.503-.616-.796-.086-.124-.163-.252-.225-.387-.127-.171-.268-.333-.367-.522-.077-.229-.199-.444-.237-.687-.018-.297-.048-.593-.086-.888-.129-.421-.221-.854-.212-1.316v-.016l-.021-.122c-.08-.457-.131-.918-.055-1.36.046-.27.075-.538.09-.805-.009-.616-.035-1.232-.086-1.845-.087-.646-.223-1.288-.367-1.93-.031-.261-.076-.517-.132-.769l-.786-2.222c-.113-.241-.232-.481-.355-.719l-.137-.227c-.188-.49-.38-.976-.592-1.453-.134-.266-.291-.52-.509-.739-.232-.621-.602-1.164-.957-1.715l-.291-.332c-.242-.31-.443-.646-.671-.966l-.008-.013h-.001c-1.32-1.44-2.215-3.155-3.08-4.879-.23-.458-.765-.821-.598-1.447l-.012-.035c-.395-.08-.449-.326-.329-.656l-.028-.044c-.211.007-.32-.144-.372-.333-.182-.656-.618-1.223-.665-1.923-.429-1.612-1.05-3.169-1.397-4.804l-.161-.224c-.136-.184-.183-.408-.279-.609-.052-.184-.12-.357-.203-.52-.159-.182-.299-.375-.412-.589l-.26-.247c-.095-.084-.17-.183-.231-.293-.114-.26-.233-.517-.442-.72-.294-.377-.488-.811-.7-1.234l-.037-.086c-.561-1.062-1.115-2.128-2.119-2.864-.282-.355-.569-.698-.877-1.003-.33-.275-.673-.538-1.028-.791l-.025-.016c-.55-.298-1.181-.449-1.941-.368l-.032.009c-.394.126-.825.08-1.25.064v-11.627h6.945c1.229 0 2.333-.752 2.783-1.896l.633-1.61c.701 1.031 1.221 2.168 1.872 3.228l-4.544 12.642c-.329.916-.192 1.936.368 2.732.56.796 1.472 1.27 2.446 1.27h8.962c.106.314.188.641.398.899.187.675.595 1.241.909 1.854.397.188.513.6.737.926l.563.548c.095.157.23.23.382.269l.149.022.289.035c.266.027.518.085.648.389l.015.025.021.049c.272.533.453 1.09.593 1.658.192.686.328 1.385.43 2.091l.092.417c.358 1.524.517 3.078.715 4.626l.002.003c.056.194.072.391.076.589.085.626.183 1.251.307 1.871l.04.192.145.643c.443.946.849 1.9.9 2.95.06.185.046.374.001.564.007.122.025.247-.021.343-.216.452-.322.903-.357 1.356 0 .564.1 1.128.121 1.691l.184.952c.03.151.042.306.053.461.139.354.064.75.12 1.12l.069.259.068.141c.052.069.09.146.113.229.065.32.067.658.257.945l.101.219c.041.315.06.639.311.882l.099.228c.055.138.122.252.201.346l.26.216c.207.113.459.149.751.127.386-.031.776-.018 1.155.094 1.011.5 1.959 1.089 2.736 1.923l.155.32c1.181.988 2.371 1.966 3.531 2.978.357.311.784.547 1.107.897l.289.167c.696.591 1.357 1.215 1.932 1.927l.298.491c.278.308.495.652.607 1.061l.111.204.105.228c.037.412.054.828.337 1.168l-.003.001zm-14.887-16.322l-.005-.019-.026.019h.031zm-107.051-28.266h14.315v-16.364h9.948l3.866-9.906h-13.814v-9.197h16.814l3.667-9.856h-34.796v45.322zm39.175-45.322h14.125v45.322h-14.15l.026-45.322zm82.679-.002h-14.691l-16.291 45.327h13.676l1.759-6.092h15.942l1.845 6.092h14.093l-16.333-45.327zm-13.027 30.52l5.451-18.872 5.646 18.872h-11.097zm-17.618-11.464l-3.894 9.906h-9.935v16.364h-14.308v-45.323h34.823l-3.694 9.856h-16.82v9.197h13.83l-.002.001z" /></svg>