<svg width="160" height="160" viewBox="0 0 160 160" xmlns="http://www.w3.org/2000/svg" fill="#fff"><path d="M31.527 33h-21.923c-5.321 0-9.604 4.283-9.604 9.604v74.122c0 5.32 4.283 9.604 9.604 9.604h21.923c5.321 0 9.604-4.284 9.604-9.604v-74.122c0-5.321-4.283-9.604-9.604-9.604zm-7.835 14.642c.586-.075 1.352-1.367 2.015-2.736.497.03.661-.467.827-.737.526-.857 1.097-1.609.362-2.12 1.67-3.022.602-5.05-.301-5.126-.375-.752-1.022-1.232-2.15-1.638h7.052c4.073 0 7.381 3.308 7.381 7.396v35.733c-.194-.541-.48-1.038-.857-1.533 0-.992-1.067-.977-1.352-1.339-.255-.331.27-.51-1.563-.931-.345-.196-.617-2.902-.617-2.902-.27-1.729-.902-2.931-1.819-4.78-.451-.931-.676-3.864-1.188-5.366.27-6.871-1.91-8.87-3.683-9.998-.676-.436-1.023-.752-1.683-1.143l-.03-.316c-.526-.497-1.563-1.007-2.42-1.398-.255-.27-.135-.857.03-1.067h-.002zm-14.191 76.398c-3.999-.09-7.231-3.367-7.231-7.381v-73.978c0-4.045 3.232-7.307 7.231-7.396h12.628c-2.405.931-2.736 1.969-2.826 5.307-.406.046-1.247-.346-.962 1.683 0 0 .15 1.352.691 1.127-.421 2.946-.087 3.684-2.044 3.894-.421.046-.933.074-1.563.105l-.196.27c-2.676.255-4.002.085-5.728 2.36-.661.872-1.367 2.104-2.24 3.864 0 0-.796 1.969-1.038 2.78-.767 1.609-2.645 5.172-3.201 7.457-.181.781-.526 1.023-.03 2.15.737 1.624-.482 2.045 3.698 1.923v.962s-1.112.962-1.352 1.533c-.225.587-.872 3.458-.842 4.826.074 3.563 2.976 6.539 3.833 10.087l1.939.27c1.053 2.42 5.652 8.945 6.72 9.996l.046.046c.24.617 1.428 1.383 2.12 2.15.421.406 2.361 2.51 4.946 4.509.95.734 1.969 1.459 3.037 2.074-.03-.015.632 1.308.962 2.39-1.323 1.067 1.247 3.022 2.03 6.254.046.436-.752.872.436 1.939-.075 4.884-1.564 7.442.931 8.794h-21.995v.003zm29.374-7.381c0 3.698-2.66 6.749-6.208 7.29l-.074.015c3.232-1.969 1.232-5.698.617-7.892l.12-.377c.166-.3-.181-1.007-.181-1.007-.406-.331-.497-2.165-.706-3.007-.345-1.367.617-3.759.617-4.57 0-.811-.617-1.925-1.729-3.338-.27-.316-1.083-7.246-1.803-9.006-1.007-2.42-1.308-2.03-2.51-4.93-.918-2.03-.196-5.022-2.27-11.967l.466-.436s-1.653-6.043-2.195-7.697c-.526-1.653-1.503-1.759-1.503-1.759l.059-.857c.076-.255 2.015-5.292 2.18-5.458.015-.105 2.796-2.015 2.841-1.729.225 1.232 1.308 7.501 1.773 8.493.466 1.007 2.075 4.073 2.811 5.983-2.872.707-5.022 3.308-5.022 6.389 0 3.637 2.946 6.599 6.585 6.599 2.78 0 5.186-1.729 6.149-4.165l-.015 33.419-.002.006zm13.32-81.418v88.696h9.586c.026-22.841.542-45.775-.863-68.348l11.052 68.348h13.755v-88.696h-9.491c-.193 23.517.641 46.704 2.236 69.65l-11.485-69.65h-14.79zm83.1-.061l-9.422 88.769h11.722l1.533-17.95h7.669l1.533 17.95h11.667l-9.145-88.769h-15.557zm7.668 25.056l2.958 35.348h-5.916l2.958-35.348zm-49.848-24.995v88.647h17.147c2.81 0 12.379-2.455 12.379-14.764v-17.705c0-1.866.016-7.714-5.094-11.149 3.194 0 5.094-6.194 5.094-11.824v-18.991c0-7.399-4.605-14.234-13.858-14.212h-15.666l-.001-.002zm10.572 11.333h5.204c2.384 0 3.177 2.632 3.177 4.655v20.647c0 3.531-1.161 3.798-3.56 3.798h-4.821v-29.101zm0 38.779h5.204c2.384 0 3.177 2.632 3.177 4.655v18.439c0 2.402-1.197 4.227-3.56 4.227l-4.821.061v-27.384.002z"/></svg>