<svg width="160" height="160" viewBox="0 0 160 160" xmlns="http://www.w3.org/2000/svg" fill="#fff"><path d="M113.803 59.25c-3.359-3.119-1.909-5.667 6.956 0-20.39-26.387-82.759-13.433-82.759-13.433v3.838s11.274.48 11.994 4.798c.719 4.318 1.44 42.939 0 50.375-1.439 7.436-11.994 8.155-11.994 8.155s0 1.68.96 3.425c15.833-2.813 29.745-1.505 36.702-.306 6.957 1.2 22.069-1.199 30.465-5.997s14.872-15.832 16.072-27.419c1.2-11.587-5.038-20.317-8.396-23.436v-.001zm-10.075 20.273c-1.679 18.354-11.274 23.626-16.792 24.585-5.517.959-17.511 1.439-17.752-3.359-.48-1.919-.24-42.459 0-46.537 11.994-3.358 36.222 6.957 34.543 25.31zm-2.939-.269c-.377 4.117-1.184 7.716-2.412 10.772-.068-3.342-.1-6.684-.1-10.026.002-3.602.043-7.203.125-10.805 1.912 3.109 2.715 6.479 2.386 10.058v.001zm-1.011-36.146c.126-1.471.259-2.941.406-4.411.272-2.753.575-5.507.92-8.26.345-2.753.731-5.507 1.168-8.26.222-1.377.453-2.753.706-4.13.126-.688.256-1.377.394-2.065.137-.688.282-1.377.439-2.065.157.688.303 1.377.439 2.065.138.688.268 1.377.395 2.065.252 1.377.484 2.753.705 4.13.437 2.753.824 5.507 1.169 8.26.345 2.754.649 5.507.919 8.26.246 2.467.459 4.934.65 7.402-2.555-1.149-5.322-2.146-8.299-2.987l-.011-.003v-.001zm-22.415-3.294c.624-9.965 1.528-19.911 2.799-29.814.447-3.34.922-6.683 1.539-10 .617 3.317 1.091 6.66 1.538 10 1.3 10.126 2.217 20.298 2.842 30.489-2.788-.321-5.697-.547-8.719-.675zm9.871 40.186c-.021 7.028-.114 14.066-.316 21.104l-.486.097c-2.097.364-4.743.582-7.08.582-1.092 0-2.037-.045-2.851-.12-.214-7.224-.311-14.448-.333-21.663.016-7.777.133-15.563.394-23.346 2.958.292 6.136 1.117 9.166 2.393.406.171.808.35 1.203.534.197 6.808.289 13.616.302 20.419zm-23.674 37.8c-.103 1.168-.211 2.336-.328 3.503-.272 2.753-.576 5.507-.922 8.26-.346 2.754-.734 5.507-1.174 8.261-.222 1.377-.455 2.753-.709 4.13-.128.688-.258 1.377-.397 2.065-.137.689-.284 1.377-.441 2.065-.158-.688-.305-1.376-.441-2.065-.139-.688-.269-1.377-.397-2.065-.254-1.377-.486-2.753-.709-4.13-.44-2.754-.828-5.507-1.174-8.261-.346-2.753-.65-5.507-.922-8.26-.12-1.197-.23-2.393-.335-3.589.915-.023 1.831-.035 2.75-.035 1.84 0 3.578.045 5.198.121zm44.664-5.509l-.054.752c-.208 2.753-.442 5.506-.717 8.26-.271 2.753-.575 5.507-.921 8.26-.346 2.754-.735 5.507-1.174 8.261-.222 1.377-.455 2.753-.709 4.13-.128.688-.259 1.377-.397 2.065-.137.689-.284 1.377-.441 2.065-.158-.688-.305-1.376-.442-2.065-.138-.688-.269-1.377-.397-2.065-.253-1.377-.486-2.753-.709-4.13-.439-2.754-.827-5.507-1.173-8.261-.346-2.753-.65-5.507-.922-8.26-.175-1.751-.332-3.502-.477-5.253 2.635-.856 5.422-1.967 7.899-3.383l.634-.376zm-22.083 6.68c-.767 12.897-2.018 25.762-4 38.529-.137.833-.284 1.667-.441 2.5-.158-.833-.305-1.667-.441-2.5-1.967-12.669-3.214-25.435-3.982-38.235.811.062 1.684.094 2.61.094h.002c1.937 0 4.051-.134 6.252-.388h-.001zm-30.341-78.584l.162-1.691c.271-2.754.575-5.507.919-8.26.345-2.753.731-5.507 1.169-8.261.221-1.377.453-2.753.705-4.13.127-.688.257-1.377.395-2.065.137-.688.282-1.377.439-2.065.156.688.303 1.377.439 2.065.138.688.268 1.377.395 2.065.252 1.377.484 2.753.705 4.13.437 2.753.823 5.507 1.169 8.261.345 2.753.649 5.507.919 8.26l.114 1.181c-2.637.125-5.162.302-7.53.511z" /></svg>