<svg width="160" height="160" viewBox="0 0 160 160" xmlns="http://www.w3.org/2000/svg" fill="#fff"><path d="M59.653 21.311l-18.967 19.178h29.668v84.678l9.776 9.63 9.775-9.63v-84.678h29.667l-9.271-9.375-9.954-9.803h-40.694zM59.632 49.652h-18.979v46.029l14.928 14.698 13.797-13.349-9.747-9.596v-37.782zM100.629 49.652v37.782l-9.751 9.596 13.801 13.349 14.923-14.698.003-46.029h-18.976zM130.233 37.175l-25.544-25.417-.756-.758h-47.868l-.755.758-25.542 25.417-.767.765v62.214l.778.757 48.413 47.323 1.81 1.766 50.223-49.089.776-.757v-62.215l-.767-.765zm-4.407 60.84l-45.825 44.793-45.827-44.793v-57.955l24.016-23.909h43.621l24.015 23.911v57.954z"/></svg>