<svg width="160" height="160" fill="none" xmlns="http://www.w3.org/2000/svg"><path d="M63.73 45.816c-1.457-1.992-4.551-5.434-8.19-3.803-3.64 1.63-2.55 91.455 1.151 93.205L45.283 152s-7.16-11.59-10.559-17.145c3.399-6.399 2.792-47.271 2.792-47.271l-3.155-2.834 3.034-3.138s-.122-29.942-.244-35.013c-.122-5.07-5.097-5.07-6.31-5.07-1.213 0-3.762 3.138-4.49 3.984-.728.846-2.063-.603-3.155-1.57-1.091-.967-1.578-1.932-.85-2.899.728-.967 3.033-3.742 5.097-3.742h13.835s.122-10.022.728-21.973C39.58 13.52 39.336 7.074 45.283 7c3.277-.041 5.744 1.61 5.866 4.748.122 3.138-1.78 3.703-1.78 3.703l.85 21.893s10.154-.04 11.65 0c1.495.041 1.578-.08 2.913 1.075.796.688 4.014 3.02 2.92 3.926-1.093.907-3.229 3.433-3.974 3.472l.002-.002Zm21.48 45.093c16.746-14.489 15.905-26.622 16.144-32.235.239-5.614-7.043-22.094-33.984-21.009l4.126 4.106-2.609 3.26s15.35 6.762 15.35 24.63c0 17.867-16.017 23.422-19.294 22.576-3.64 14.608 28.238 56.021 58.13 59.763C128.207 141.978 138 137.451 138 137.451c-45.874-14.489-52.79-46.542-52.79-46.542Z" fill="#fff"/></svg>