<svg width="160" height="160" fill="none" xmlns="http://www.w3.org/2000/svg"><path d="M143.015 51.704c-3.846-13.944-14.306-22.694-31.688-21.832-18.5.917-29.307 15.227-32.97 24.95-3.665 9.723 1.83 45.314 10.074 63.11 8.243 17.796 36.267 15.043 49.639 4.77 13.371-10.274 8.792-57.056 4.945-71v.002Zm-25.643 22.657c-5.038 2.844-6.961 8.256-6.961 8.256s3.664 3.578 9.25 5.137c5.585 1.56 10.715 7.43 7.234 11.65-4.471 5.421-18.867 7.522-20.422 7.43-1.557-.092-4.946-3.394-8.7-5.963 1.557.092 11.265-3.578 14.837-7.797 0 0-1.923-.366-6.595-3.578-4.672-3.211-5.769-6.88-5.953-10.09-.184-3.212 3.48-8.899 6.869-12.385 3.388-3.485 9.433-6.42 11.54-6.42 4.854 0 9.799 3.393 12.914 5.962-1.008 2.293-8.976 4.953-14.013 7.797v.001ZM77.99 100.504c-5.495-11.19-4.395-40.545-1.83-50.084 2.564-9.54 8.975-22.931-17.585-28.253-18.468-3.7-28.392 1.468-35.718 14.494C15.53 49.686 11.5 71.702 12.05 84.727c.55 13.026 6.777 39.628 17.218 46.598 10.44 6.972 23.079 11.925 40.48 2.385 17.402-9.541 13.738-22.015 8.242-33.207v.001Zm-14.928 1.284c-1.374 1.468-2.381 2.477-3.205 3.21-.824.734-2.93-.275-4.672-1.009-1.739-.735-17.492-10-17.95-11.008.457 6.054 2.106 13.392 2.38 14.217-2.747.825-4.946 1.743-5.861 1.743-.916 0-3.868-.513-3.938-.918-.734-4.218-2.657-20.915-2.473-24.583.184-3.67.184-13.209-.734-13.575-.915-.367-2.198.092-2.747.092-.548 0-1.163-2.239 0-3.21 1.146-.957 10.166-4.129 15.845-4.403 5.677-.274 17.218 1.101 19.965 4.403 2.746 3.302 3.114 9.723 2.198 11.741-.915 2.018-3.296 6.055-20.24 7.615 6.96 4.128 21.34 12.475 22.347 12.934 1.008.458.458 1.283-.915 2.751ZM37.602 80s.183-5.547-.366-8.94c3.754-.826 10.257-.275 17.034 1.283C48.866 77.94 37.602 80 37.602 80Z" fill="#fff"/></svg>