<svg width="160" height="160" fill="none" xmlns="http://www.w3.org/2000/svg"><path d="M13.207 88.029c-.111-.01-.194-.046-.191-.18.004-.184 0-.368 0-.552l-.002-62.67c.183-.01.366-.029.55-.029 3.15-.002 6.303-.001 9.454-.001.061 0 .124.007.184-.001.3-.04.43.074.479.388.185 1.186.403 2.369.609 3.552l1.778 10.233c.43 2.468.861 4.935 1.293 7.403.042.24.095.48.143.719.078.065-.007.188.09.246-.077-.092-.047-.167.04-.232.229-.91.313-1.844.46-2.768.449-2.86.881-5.723 1.318-8.586.427-2.802.85-5.604 1.277-8.407.114-.746.242-1.49.344-2.237.031-.225.11-.334.345-.311.101.01.205.001.307.001h9.28c.124 0 .247.004.37 0 .186-.004.25.098.248.268-.002.143 0 .286 0 .428 0 13.29-.003 26.58.012 39.869 0 .495-.153.751-.587.986-2.517 1.367-5 2.79-7.383 4.383-.066.044-.143.071-.216.106-.159-.222-.076-.475-.076-.71-.005-8.626-.007-17.251 0-25.876 0-.467-.116-.933-.006-1.397 0-.055-.002-.114.001-.17.002-.04.012-.076.011-.11-.045.03.003.073-.014.108-.018.299-.008.602-.17.872l-.933 6.724c-.306 2.2-.614 4.4-.922 6.601-.352 2.524-.706 5.047-1.059 7.57-.257 1.838-.517 3.675-.766 5.513-.029.214-.092.376-.268.516-1.102.881-2.195 1.772-3.293 2.659-.029.023-.075.026-.14.048-.183-.352-.154-.75-.207-1.12-.4-2.785-.775-5.573-1.164-8.359-.389-2.786-.788-5.57-1.177-8.356-.389-2.786-.762-5.575-1.162-8.36-.153-1.068-.25-2.145-.48-3.203-.104-.13-.038-.284-.057-.426 0-.078-.002-.156.004-.234-.013.077-.006.155-.008.233-.014.144.036.295-.045.432-.005.244-.014.489-.014.733 0 11.607-.004 23.214.012 34.82 0 .538-.17.896-.55 1.26-2.61 2.504-5.203 5.025-7.719 7.623Zm126.001-64.02c-.471 0-.472.006-.481.458-.002.123 0 .245 0 .367v21.377c-.265-.43-.354-.89-.477-1.337-1.87-6.777-3.737-13.556-5.606-20.335-.146-.53-.15-.53-.687-.531-1.946-.001-3.893-.005-5.839.002-.899.003-.782-.14-.782.77-.002 14.554-.002 29.109-.002 43.663 0 .123.013.247-.002.367-.031.26.058.405.321.5.871.314 1.657.795 2.43 1.294 1.687 1.09 3.268 2.32 4.815 3.597.126.104.22.295.478.248v-24.51c.187.158.187.326.227.478l4.161 15.975c1.283 4.93 2.564 9.862 3.843 14.794.084.322.234.586.462.838 1.701 1.881 3.265 3.874 4.8 5.89.206-.202.107-.46.107-.689.006-20.826.005-41.652.004-62.478 0-.244-.019-.488-.028-.732-2.581-.002-5.163-.006-7.744-.005v-.001ZM13.735 108.165l37.37.001c.102 0 .206-.009.306.002.299.032.479-.051.422-.396-.014-.08-.002-.163-.002-.245 0-5.063.001-10.125-.001-15.188 0-.709.1-.638-.665-.638a180220.2 180220.2 0 0 0-37.493 0c-.225 0-.451-.027-.672.04.005.225.014.449.014.673 0 4.096.002 8.193 0 12.289 0 1.142-.008 2.283-.013 3.424.241.066.489.038.734.038ZM146.43 91.701h-37.542c-.724 0-.632-.063-.633.61l-.001 15.122c0 .489.252.734.754.734l37.297-.001c.225 0 .449-.016.674-.025l.001-16.411c-.183-.01-.366-.028-.55-.028ZM121.908 48.35c.003-2.347.003-4.695.001-7.042 0-.52-.002-.523-.544-.68-1.712-.5-3.468-.793-5.223-1.082-.477-.078-.483-.073-.484-.571-.002-2.49-.002-4.98 0-7.471 0-.525.005-.53.537-.53 2.131-.002 4.261 0 6.391-.002.496 0 .502-.006.503-.503.002-1.94 0-3.878.001-5.817 0-.748.019-.642-.675-.642-4.486-.002-8.973-.002-13.459 0-.797 0-.701-.1-.701.73l-.001 36.436c0 .103.011.206-.002.306-.04.298.088.422.382.502a45.09 45.09 0 0 1 3.561 1.143c3.523 1.276 6.93 2.812 10.267 4.51.186.094.356.273.627.193 0-2.424-.001-4.83.002-7.238 0-.321-.171-.534-.401-.719-.434-.348-.923-.605-1.421-.844-1.421-.682-2.898-1.223-4.384-1.745-.819-.288-.703-.078-.705-.951-.005-2.837-.002-5.675-.002-8.512 0-.519.261-.721.782-.607 1.324.287 2.588.759 3.859 1.21.344.122.668.305 1.031.355.096-.147.058-.292.058-.43v.001ZM61.741 91.76c.114-.086.053-.208-.05-.292l-.16.151c.035.103.136.196.21.14Zm31.594.001c.113-.086.05-.208-.053-.291l-.158.152c.035.103.138.194.21.14Zm12.357-38.007c0 .357-.099.6-.372.837a442.995 442.995 0 0 0-5.287 4.674c-.299.27-.538.311-.918.187-2.539-.831-5.155-1.286-7.81-1.543a47.265 47.265 0 0 0-3.617-.229c-.448-.009-.455-.014-.455-.486-.002-3.082-.001-6.165-.001-9.248V24.672c0-.742-.069-.663.647-.663 3.974-.002 7.948.003 11.924-.008.373-.002.647.094.923.353a371.321 371.321 0 0 0 4.601 4.243c.266.242.365.487.365.842-.01 8.105-.01 16.209 0 24.314Zm-7.814-23.27c-.82.015-1.639 0-2.458.007-.773.005-.698-.11-.698.669-.002 6.47-.001 12.94-.001 19.409 0 .123.007.245-.002.367-.016.223.061.334.306.346.994.054 1.918.386 2.835.743.126.05.246.16.441.08V31.129c0-.082-.01-.165.002-.245.049-.339-.123-.406-.425-.4ZM64.965 57.816c-2.124.433-4.244.882-6.365 1.327-.22.046-.438.102-.658.15-.39.088-.397.088-.434-.313-.137-1.463-.268-2.926-.4-4.388-.026-.283-.03-.568-.15-.902-1.68.324-3.324.647-4.971.955-.32.06-.414.208-.418.529-.018 1.919-.072 3.836-.084 5.755-.003.35-.123.496-.435.616-2.404.925-4.785 1.905-7.088 3.064-.075.038-.149.069-.253.02-.028-.58.11-1.158.181-1.741.3-2.47.623-4.937.939-7.405.31-2.427.626-4.854.935-7.282.306-2.407.604-4.815.91-7.223.305-2.407.618-4.814.924-7.221.266-2.084.526-4.168.791-6.252.111-.87.236-1.738.336-2.61.027-.236.125-.309.35-.3.348.012.697.003 1.046.003H59.4c.123 0 .246.01.368-.002.282-.03.385.083.427.369.275 1.855.57 3.707.859 5.56.424 2.72.848 5.44 1.274 8.16.431 2.759.866 5.518 1.3 8.278l1.306 8.338c.11.705.2 1.414.325 2.116.048.272-.037.347-.294.4v-.001Zm-8.258-11.097c-.285-2.283-.57-4.567-.86-6.85-.31-2.445-.627-4.888-.934-7.333-.088-.701-.076-.703-.8-.697h-.062c-.481.008-.479.008-.512.507-.134 2.033-.267 4.067-.404 6.1-.184 2.724-.373 5.448-.555 8.173-.01.156-.067.326.077.475l4.009-.217c.022-.084.044-.122.039-.158h.002Zm28.146-9.703c-.01 5.244-.043 10.487-.047 15.73 0 .448-.124.77-.437 1.079-1.108 1.09-2.267 2.123-3.41 3.175-.189.173-.385.192-.617.183-.92-.04-1.84-.092-2.762-.102-3.462-.037-6.917.146-10.365.443l-.062.005c-.671.037-.604.097-.604-.544V24.605c-.003-.683-.007-.595.593-.595 3.931-.001 7.863.005 11.795-.01.385-.001.64.121.905.385a388.01 388.01 0 0 0 4.687 4.591c.239.23.287.466.288.757.011 2.428.04 4.856.036 7.284ZM77.23 49.67c-.01-.142-.001-.286-.001-.429V31.13c0-.733.011-.64-.613-.642-.798-.002-1.597 0-2.395 0-.622 0-.6-.054-.596.596v18.171c0 .123.009.246-.002.367-.021.25.059.373.338.37.983-.01 1.965-.008 2.947 0 .235.001.34-.085.323-.323h-.001Zm-4.37 73.14v-21.74c0-.736 0-.749.734-.762.276-.004.409-.061.404-.371a83.185 83.185 0 0 1 0-2.878c.007-.327-.152-.362-.413-.361-1.864.005-3.728.008-5.592-.002-.313-.002-.433.091-.425.42.02.856.006 1.714.007 2.571 0 .681-.041.614.64.615.103 0 .205.004.307.002.181-.003.259.088.255.262-.002.122.001.245.001.367v7.852c-.238-.168-.242-.387-.303-.567-.596-1.736-1.18-3.476-1.768-5.214-.687-2.027-1.384-4.052-2.054-6.085-.109-.331-.255-.443-.603-.438-1.434.02-2.868.006-4.302.009-.51.001-.516.007-.518.49-.004.858-.004 1.715 0 2.572.002.518.005.522.545.524.703.003.639-.059.642.678v14.452c0 .123-.01.246.002.367.029.29-.076.412-.383.378-.324-.037-.655-.028-.98-.057-.3-.027-.399.085-.373.385.072.854.1 1.712.189 2.564.089.853-.065.722.812.785 1.505.107 2.955.409 4.342 1.009.544.235 1.093.46 1.644.68.165.066.316.196.538.147 0-.198.014-.4-.002-.599-.065-.855-.198-1.709-.19-2.562.006-.662-.252-1.024-.85-1.21-.057-.018-.108-.061-.166-.076-.391-.105-.52-.331-.514-.753.027-2.062.012-4.124.012-6.185v-.523c.217.28.258.504.329.712.755 2.22 1.502 4.442 2.253 6.663.563 1.661 1.13 3.32 1.69 4.982.08.233.13.458.42.547 1.19.366 2.375.748 3.67 1.159v-.811.002Zm9.574 1.042c0-.947.013-.974-.848-1.364-.42-.19-.544-.43-.54-.88.02-3.286.006-6.573.016-9.859 0-.38-.175-.858.094-1.114.238-.228.703-.077 1.067-.072 1.191.013.869-.176 1.267.872.029.076.055.154.075.233.068.269.208.402.518.384.49-.029.983-.003 1.475-.01.43-.006.439-.011.441-.445.005-1.061.002-2.122.002-3.184 0-.898-.01-1.796.005-2.694.005-.296-.1-.395-.391-.385-.533.017-1.066.018-1.598-.001-.257-.009-.367.11-.435.326-.099.311-.214.618-.307.93-.073.248-.2.365-.482.349-.429-.025-.86-.002-1.29-.008-.433-.006-.442-.011-.444-.436-.005-1.062-.002-2.123-.002-3.185 0-.857-.004-1.714.002-2.571.003-.425.013-.431.449-.434.635-.006 1.27.008 1.904-.007.244-.006.37.087.456.305.202.512.43 1.014.627 1.528.078.204.192.285.407.283a90.716 90.716 0 0 1 2.15 0c.227.002.333-.062.332-.309a705.65 705.65 0 0 1 0-5.082c0-.234-.083-.338-.321-.322-.143.01-.287 0-.43 0h-8.297c-.82 0-1.639.008-2.458-.004-.286-.004-.403.092-.398.387.013.755.004 1.51.004 2.265 0 .629.307.947.922.954.354.004.533.182.537.533V120.429c0 .143-.007.286 0 .429.011.213-.082.294-.294.268-.325-.04-.653-.059-.976-.11-.305-.047-.392.072-.386.365.015.837.018 1.674-.001 2.511-.008.332.143.396.432.431.791.096 1.577.236 2.351.437 1.277.33 2.442.931 3.638 1.46.218.096.417.259.728.256v-2.625Zm6.115.337c.994-.567 1.994-1.126 2.98-1.709 2.626-1.551 5.462-2.475 8.487-2.834.326-.038.458-.152.451-.496-.02-.978-.007-1.958-.007-2.937 0-1.347.002-2.694-.001-4.04-.001-.546-.006-.549-.53-.553-.49-.004-.982-.016-1.473.004-.402.016-.914-.182-1.176.11-.229.254-.065.744-.068 1.128-.008 1.163-.003 2.326-.002 3.489 0 .205.026.406-.258.473-.97.228-1.938.471-2.907.709-.083-.248-.048-.474-.048-.696-.002-5.183.014-10.365-.02-15.547-.005-.725.119-1.215.882-1.392.29-.068.35-.283.344-.56a52.725 52.725 0 0 1 0-2.204c.007-.305-.074-.44-.409-.439-1.904.011-3.808.01-5.712 0-.304 0-.383.12-.377.401.014.755.017 1.51-.001 2.264-.007.285.076.466.352.554.097.031.182.101.279.126.478.122.59.418.589.901-.02 5.896-.013 11.793-.013 17.689 0 .102-.01.205.002.306.028.237-.086.371-.287.481-.412.227-.811.476-1.216.715-.163.097-.289.203-.288.426.008 1.241.004 2.481.004 3.732.228.055.32-.042.423-.101Zm-7.821-43.806c.26.152.427.08.56-.137.17-.277-.125-.295-.25-.363-.912-.497-1.832-.979-2.752-1.462-.427-.224-.428-.22-.737.272l1.724.914c.486.257.98.498 1.455.776Zm-1.391-2.866c.86.46 1.724.914 2.587 1.368.321.17.612.102.872-.202-.086-.156-.254-.195-.393-.27-.86-.46-1.723-.915-2.587-1.37-.32-.168-.612-.1-.874.207.085.157.256.193.395.267ZM76.66 80.42c.88.476 1.768.939 2.654 1.403.445.233.447.23.79-.317-1.07-.566-2.097-1.113-3.127-1.653-.312-.163-.402-.12-.567.191-.15.285.12.305.25.375Zm28.689-8.895c.003 15.452.002 30.904.004 46.356 0 .923-.078 1.834-.339 2.724-.477 1.625-1.429 2.922-2.774 3.936-1.587 1.196-3.391 1.964-5.26 2.589-1.614.54-3.283.838-4.954 1.15-3.12.582-5.873 1.981-8.348 3.943a35.227 35.227 0 0 0-3.523 3.234c-.14.147-.276.299-.501.543-.176-.21-.299-.373-.44-.52a40.875 40.875 0 0 0-2.57-2.459c-3.074-2.699-6.603-4.419-10.677-5.006-2.348-.339-4.56-1.122-6.688-2.149a12.28 12.28 0 0 1-2.291-1.419c-1.857-1.469-2.84-3.386-2.964-5.742a18.592 18.592 0 0 1-.023-.979V70.923c.288.003.424.203.594.328 3.431 2.515 7.277 3.605 11.505 3.164 4.225-.441 7.759-2.32 10.639-5.423 1.035-1.115 1.89-2.357 2.612-3.693.096-.178.155-.38.343-.551 2.456 4.714 6.132 7.99 11.357 9.27 5.213 1.277 9.962.11 14.213-3.136.14.24.086.446.086.641l-.001.002Zm-12.487 17.38c.499-.388.983-.797 1.466-1.205.094-.08.273-.123.2-.346-.67 0-1.342-.022-2.011.01-.377.017-.54-.122-.642-.472-.186-.627-.421-1.24-.672-1.961-.307.656-.458 1.244-.658 1.813-.213.607-.209.61-.84.61h-1.817c.047.24.19.3.294.39.418.359.829.727 1.266 1.06.281.215.376.417.236.767-.21.528-.366 1.078-.54 1.62-.039.124-.141.25.005.412.573-.423 1.154-.835 1.714-1.274.232-.181.391-.2.629.001.528.448 1.086.863 1.632 1.29.123.022.183-.021.158-.151-.198-.663-.387-1.328-.598-1.986-.082-.252-.032-.414.178-.578Zm-5.03-9.762c.344.442.728.768 1.113 1.092.538.455.697 1.022.476 1.703-.154.477-.351.945-.445 1.458.209-.035.321-.163.451-.258.462-.338.934-.666 1.376-1.028.242-.198.413-.179.628.02.21.194.445.36.67.536l1.088.853c-.07-.587-.225-1.11-.384-1.632-.193-.637-.032-1.167.485-1.59.419-.345.836-.69 1.253-1.036l-.046-.118H92.56c-.591-.001-.581-.005-.792-.584-.214-.587-.358-1.202-.676-1.834-.202.591-.369 1.115-.56 1.63-.347.938-.083.77-1.076.787-.542.01-1.084.002-1.626.002h.001Zm-14.82 11.292c.176-.164.197-.333.253-.484.806-2.162 1.731-4.272 2.828-6.305.184-.34.543-.7.506-1.015-.04-.35-.603-.401-.925-.603-.164-.104-.32-.173-.19-.42.117-.222.245-.222.442-.117.92.492 1.843.975 2.766 1.463.15.079.29.157.171.372-.104.19-.216.281-.433.155-.247-.144-.507-.266-.756-.407-.174-.098-.304-.087-.403.101-.056.108-.129.208-.192.313-1.342 2.248-2.487 4.593-3.505 7.002-.052.122-.17.241-.07.401.204.113.434.082.654.093 1.17.055 2.335-.007 3.485-.241 4.045-.824 6.938-3.096 8.559-6.889.993-2.323 1.077-4.753.6-7.212-.165-.851-.377-1.69-.76-2.546a48.441 48.441 0 0 0-3.037 2.498l1.293.713c-.388.433-.389.436-.809.217-.869-.456-1.738-.913-2.603-1.377-.114-.061-.29-.077-.292-.262.243-.331.52-.337.836-.108.114.083.262.12.377.202.225.16.395.103.595-.064a17.65 17.65 0 0 1 2.628-1.803c.108-.061.284-.065.285-.286-1.3-.083-2.58-.004-3.847.261-3.456.723-6.048 2.58-7.66 5.752-.96 1.889-1.485 3.884-1.529 5.995-.032 1.56.187 3.09.732 4.6v.001Zm-3.214-1.52c.408-.307.795-.642 1.185-.972.192-.162.43-.284.583-.588-.514 0-.959.01-1.403-.004-.385-.013-.84.15-1.138-.076-.292-.22-.284-.695-.43-1.05-.162-.398-.223-.839-.503-1.256-.157.465-.279.875-.435 1.273-.14.357-.126.838-.437 1.044-.308.205-.757.054-1.143.066-.413.013-.828-.003-1.25.063.329.351.674.635 1.008.93.289.257.724.433.834.782.12.378-.19.769-.29 1.16-.113.434-.327.843-.38 1.385.644-.476 1.228-.886 1.787-1.329.254-.2.43-.2.678.01.56.47 1.147.911 1.724 1.365l.096-.076c-.214-.718-.416-1.442-.65-2.154-.081-.251-.056-.408.163-.573Zm-4.974-9.638c.51.43 1.011.877 1.54 1.289.3.231.403.447.248.823-.209.507-.355 1.041-.514 1.568-.04.133-.153.272-.054.472.606-.448 1.19-.858 1.749-1.302.26-.207.433-.184.678.02.561.471 1.148.911 1.725 1.364l.088-.085c-.215-.72-.416-1.444-.651-2.157-.085-.256-.042-.407.171-.57.439-.335.859-.694 1.28-1.05.16-.136.364-.237.45-.45-.055-.032-.071-.049-.087-.05l-1.904-.007c-.374-.002-.624-.187-.75-.557-.158-.463-.32-.925-.475-1.388-.047-.142-.069-.294-.24-.403-.225.668-.451 1.301-.65 1.943-.092.293-.233.428-.56.413-.552-.026-1.106-.013-1.66-.003-.121.003-.284-.09-.384.13Zm-8.61-.134c.051.22.186.286.288.373.42.358.833.727 1.272 1.06.307.233.373.46.23.829-.246.64-.428 1.305-.636 1.96.632-.352 1.185-.761 1.74-1.167.469-.341.353-.357.815.004.56.437 1.118.877 1.687 1.322.079-.17.017-.282-.018-.398-.18-.585-.34-1.175-.539-1.753-.105-.31-.086-.514.205-.726.496-.359.956-.768 1.425-1.164.094-.08.278-.125.198-.34h-1.897c-.604 0-.596-.004-.801-.572-.213-.59-.361-1.204-.68-1.845-.24.705-.477 1.33-.664 1.97-.104.359-.289.472-.654.456-.644-.028-1.29-.008-1.97-.008h-.001Zm.377 8.6c.433.372.863.75 1.313 1.102.241.188.32.362.203.666-.21.55-.373 1.118-.552 1.681-.04.124-.143.25 0 .414.574-.423 1.154-.836 1.715-1.273.229-.179.388-.209.629-.004.527.45 1.086.862 1.632 1.29.123.023.183-.021.16-.151-.198-.663-.386-1.329-.599-1.987-.082-.253-.029-.413.18-.576.499-.389.983-.797 1.467-1.205.094-.079.274-.122.195-.345-.67 0-1.342-.023-2.011.01-.38.018-.537-.128-.64-.474-.186-.627-.421-1.24-.67-1.958-.308.656-.46 1.245-.66 1.814-.211.605-.206.607-.84.608h-1.817c.047.24.19.299.294.388h.001Zm46.235 6.636c0-.76.093-.697-.678-.697H57.222c-.78 0-.697-.078-.697.68-.002 4.98-.002 9.961-.002 14.943 0 2.327-.004 4.654.002 6.981.006 2.887 1.224 5.104 3.706 6.618a17.087 17.087 0 0 0 3.67 1.691c1.009.325 2.012.692 3.074.833 3.28.435 6.232 1.642 8.829 3.701a32.32 32.32 0 0 1 3.42 3.162l.474.497c.153-.178.278-.337.416-.484a33.993 33.993 0 0 1 2.285-2.225c2.432-2.151 5.166-3.739 8.39-4.36 1.487-.286 2.976-.547 4.413-1.036 1.614-.55 3.17-1.217 4.561-2.218 1.393-1.002 2.359-2.309 2.787-3.982.204-.794.278-1.606.278-2.426-.002-7.226 0-14.452-.002-21.678Zm.327-7.025c-.703 0-1.35.002-1.996 0-.584 0-.577-.004-.768-.535-.217-.603-.368-1.23-.691-1.878-.232.67-.441 1.264-.644 1.861-.214.632-.131.546-.753.551-.622.006-1.244.002-1.866.002.445.525.924.93 1.404 1.334.344.289.449.642.313 1.06-.07.214-.154.423-.211.64-.107.401-.31.779-.353 1.284.587-.433 1.11-.821 1.638-1.205.582-.424.408-.43.958-.002.532.412 1.059.83 1.632 1.28.057-.18.015-.273-.015-.37-.19-.625-.353-1.258-.573-1.87-.105-.294-.026-.446.196-.617.421-.325.828-.667 1.231-1.013.162-.138.375-.234.498-.52v-.001Zm.003-8.21h-1.588c-.992 0-.982-.005-1.322-.959-.164-.459-.256-.95-.557-1.432-.19.55-.358 1.03-.521 1.512-.199.585-.597.878-1.195.878H96.38c.076.13.089.174.117.198l1.404 1.19c.508.428.467.338.279.909-.166.504-.335 1.006-.488 1.513-.04.135-.159.273-.052.473.32-.236.614-.455.91-.67.382-.275.764-.546 1.146-.819.455.204.784.578 1.177.864.314.227.614.473.92.711a14.642 14.642 0 0 0-.568-2.238c-.085-.256-.049-.409.167-.572.407-.308.795-.642 1.184-.974.191-.162.431-.282.581-.585Z" fill="#fff"/></svg>