<svg width="160" height="160" fill="none" xmlns="http://www.w3.org/2000/svg"><path d="M98.668 43.687c-25.172 9.454-50.355 18.878-75.516 28.357-1.19.45-1.602.23-1.786-.925-.135-.845-.453-1.66-.368-2.539a2.61 2.61 0 0 0 0-1.612c.206-4.225 2.294-7.572 5.136-10.494 4.76-4.887 10.703-7.91 17.02-10.275 8.67-3.245 17.677-4.956 26.887-5.687.909-.07 1.817-.123 2.725-.183 1.092.09 2.186.262 3.265-.087 2.837-.31 5.67-.34 8.507.022.996.286 1.998.188 3.002.057 4.913.202 9.772.851 14.861 1.754-1.275.87-2.548 1.165-3.736 1.612h.002Zm-9.235 37.94C79.205 85.44 68.988 89.287 58.766 93.12c-.379.142-.771.25-1.09.354a82.125 82.125 0 0 1-7.407-1.713c-7.018-1.942-13.773-4.5-19.72-8.785-2.667-1.92-5.002-4.21-6.922-6.899-.601-.84-.527-1.17.515-1.56 17.976-6.74 35.905-13.6 53.905-20.27 9.597-3.556 19.123-7.296 28.73-10.825.483-.178.95-.281 1.465-.148 8.615 2.24 16.901 5.224 23.85 10.98 2.557 2.116 4.697 4.663 6.176 7.708.54 1.11.255 1.44-.84 1.843-16.008 5.909-32 11.858-47.99 17.82h-.005Zm13.394-10.666c5.918-1.966 11.833-3.941 17.756-5.894.579-.191 1.023-.491 1.067-1.086.124-1.664.631-3.232 1.336-5.09l-12.565 4.125c1.418-5.772 2.768-11.268 4.167-16.953-3.58 1.187-6.85 2.272-10.337 3.426 2.236 1.443 2.436 1.958 1.882 4.14-1.386 5.475-2.738 10.96-4.154 16.427-.239.919-.107 1.222.845.905h.003ZM73.649 59.628c-2.167.717-4.277 1.418-6.387 2.114-.537.177-.53.616-.642 1.072-1.072 4.356-2.186 8.704-3.328 13.207-.18-.284-.293-.42-.362-.576-1.465-3.264-2.944-6.524-4.37-9.805-.288-.66-.519-.892-1.292-.617-2.82.998-5.674 1.901-8.826 2.943 3.105 1.271 2.192 3.407 1.64 5.551-1.352 5.289-2.617 10.6-3.986 16.186 2.11-.69 3.95-1.334 5.819-1.882.853-.251 1.22-.706 1.418-1.563.898-3.843 1.874-7.67 2.824-11.5.348.08.353.328.444.53 1.281 2.852 2.579 5.697 3.844 8.556.296.674.554.99 1.407.668 1.827-.692 3.704-1.263 5.58-1.822.706-.21 1.002-.635 1.166-1.3 1.526-6.25 3.09-12.488 4.596-18.743.225-.935.716-1.855.458-3.017l-.003-.002Zm17.52 7.555c-.68 2.834-1.308 5.458-1.983 8.265 2.211-.714 4.148-1.366 6.107-1.961.697-.213.845-.712.993-1.304 1.353-5.477 2.724-10.951 4.08-16.429.428-1.737.817-3.483 1.267-5.417-2.066.682-3.893 1.337-5.753 1.88-.817.237-1.15.649-1.325 1.473-.45 2.116-1.012 4.211-1.575 6.303-.118.445-.112 1.004-.732 1.203-2.321.748-4.634 1.517-7.164 2.349l2.044-8.396c-3.57 1.178-6.905 2.283-10.62 3.51 2.64.963 2.623 2.584 2.058 4.638-1.232 4.484-2.264 9.02-3.37 13.54-.271 1.115-.748 2.195-.69 3.483 2.046-.668 3.977-1.35 5.942-1.912.826-.237 1.163-.707 1.341-1.465.497-2.111 1.037-4.214 1.542-6.325.107-.448.157-.922.672-1.091 2.319-.764 4.64-1.514 7.17-2.34l-.004-.004Zm55.305 6.544c-.67 3.939-1.054 7.924-1.877 11.838-.126-.06-.167-.163-.165-.294-.041.253-.057.504.08.739-.357 3.554-.642 7.122-1.696 10.567-.524 1.713-.754 3.491-1.204 5.229-.831 3.21-2.977 5.406-5.344 7.449-6.228 5.371-13.606 8.649-21.296 11.306-5.001 1.727-10.156 2.905-15.372 3.797-.266.047-.546.019-.82.025-.505-.254-.924.03-1.364.21-.814.158-1.613.461-2.466.305-.203-.166-.39-.193-.546.06-1.77.407-3.57.434-5.372.486-4.505.125-8.993.684-13.509.529-4.719-.164-9.443-.316-14.09-1.26.084-.208.32-.107.452-.218-.293.106-.64-.071-.914.16-5.574-.668-10.982-2.081-16.285-3.856-6.714-2.248-13.065-5.227-18.86-9.351-4.77-3.393-7.966-7.599-8.726-13.584-.563-4.421-1.652-8.775-2.132-13.218.112-.156.118-.338.101-.516-.008-.092.044-.169.041-.256-.106.074-.082.24-.208.303-.823-3.893-1.21-7.85-1.707-11.79-.748-5.948.667-11.42 4.023-16.362 3.15-4.638 7.492-7.982 12.343-10.701 7.369-4.133 15.358-6.536 23.583-8.3 4.09-.879 8.212-1.604 12.357-2.035 7.602-.789 15.218-1.331 22.895-.737 9.166.712 18.195 2.095 26.999 4.714 7.852 2.334 15.325 5.493 21.715 10.774 5.045 4.17 8.288 9.424 9.597 15.82.557 2.728.23 5.442-.233 8.167Zm-4.994-14.866c-2.008-3.297-4.757-5.938-7.887-8.188-8.431-6.07-18.009-9.356-28.091-11.446-4.585-.949-9.205-1.633-13.852-2.17-.714-.309-1.444-.18-2.173-.085-2.291-.148-4.585-.292-6.876-.44-1.36-.33-2.727-.27-4.093-.04l-7.139.482c-.73-.09-1.46-.25-2.167.101-2.425.341-4.856.658-7.276 1.026-8.96 1.361-17.665 3.62-25.869 7.531-5.852 2.79-11.201 6.29-15.237 11.459-2.736 3.5-4.302 7.438-4.055 11.953.326 5.97 3.473 10.471 7.75 14.312 5.718 5.133 12.525 8.385 19.746 10.807 12.749 4.274 25.904 5.875 39.314 5.55 8.316-.201 16.549-1.153 24.643-3.109 9.007-2.177 17.6-5.33 25.196-10.78 3.718-2.667 6.939-5.861 8.974-9.912 2.887-5.745 2.437-11.546-.91-17.045l.002-.006Zm-3.382 7.564c-24.508 9.105-49.016 18.21-73.522 27.329-.38.141-.902.125-1.127.679 1.942.18 3.844.354 5.748.529.548-.134 1.097-.243 1.626.074 1.323.447 2.706.237 4.055.33 4.87.33 9.737.215 14.596-.273.606-.385 1.251-.262 1.893-.142.5.038.996.077 1.454-.188a.296.296 0 0 0-.32-.14c.1-.06.213-.037.317-.032.253.014.522-.065.75.117.318 0 .639.028.954-.01 7.657-.933 15.183-2.46 22.42-5.17 6.79-2.542 13.197-5.744 18.143-11.224 2.79-3.093 4.546-6.65 4.494-10.916-.019-1.462-.066-1.484-1.484-.958l.003-.005Z" fill="#fff"/></svg>
