<svg width="160" height="160" fill="none" xmlns="http://www.w3.org/2000/svg"><path d="M28.782 99.861a5.841 5.841 0 0 1-5.838 5.862c-3.226 0-5.874-2.613-5.886-5.85a5.87 5.87 0 0 1 5.862-5.861c3.238 0 5.862 2.625 5.862 5.85Zm129.206-49.108v58.482c0 7.06-5.742 12.765-12.82 12.765H13.808C6.73 122 1 116.295 1 109.235V50.753C1 43.693 6.73 38 13.807 38H145.18c7.078 0 12.82 5.694 12.82 12.753h-.012Zm-35.57 25.711-26.47-34.22h-82.14c-2.275 0-4.43.886-6.031 2.504a8.432 8.432 0 0 0-2.504 6.017v58.47c0 2.265.89 4.423 2.504 6.017a8.438 8.438 0 0 0 6.03 2.505h53.337c-1.336-2.23-2.84-4.759-3.298-5.514h-6.368c0-15.714 5.38-24.452 11.724-26.13.891-.168.482-4.483-.638-5.765 0 0-3.057.084-3.695-.096-.807-.24-.253-1.043-.253-1.043l2.973-6.413-.421-1.75H56.166c-.156 0 9.088-6.34 9.088-6.34.47-16.674 17.622-17.956 28.022-11.064 6.115 4.075 6.609 12.094 6.14 17.692-.085.335-1.614.084-1.614.084s-1.059 6.089 1.686 6.089h12.049c4.911-.168 9.666 3.116 9.666 3.116l1.203-4.17.012.011Zm31.297-25.71c0-2.278-.891-4.411-2.504-6.018a8.465 8.465 0 0 0-6.043-2.505h-36.713L129.58 77.34l1.926.24 1.132 1.594v1.534l1.36.24 1.216 1.666v1.438l1.36.24s1.384 1.439 1.384 1.534v3.273s2.985 2.733 5.634 3.775c1.853.731 2.106 3.68 3.153 5.298 1.445 2.23 3.371 3.201 2.973 4.459-.962 3.464-4.501 9.218-7.788 9.553 0 0-8.233.012-13.06.012v5.538h16.298c4.707 0 8.547-3.812 8.547-8.522V50.753Z" fill="#fff"/></svg>
