<svg xmlns="http://www.w3.org/2000/svg" width="160" height="160"><path fill="#ffffff" fill-rule="evenodd" d="M62 78.06a39.79 39.79 0 0 0 12.76 24.28l-1.93 1.7-11.24 9.84-.34.17h45.48V142H13v-20.87l35.45-30.88c5.5-4.83 10.01-8.9 13.55-12.19ZM92.72 30.4c.9.87 1.75 1.77 2.55 2.68-5.08.88-9.97 2.7-14.64 5.61l-.14.1c-.87.54-1.8 1.12-2.51 1.68l-.09.06a855.27 855.27 0 0 1-13.98-15.44c-.46-.52-.73-.82-.96-1.16-.22-.32-.24-.45-.25-.48l-.03-.19c.04-.45.1-1.44-.34-2.52A5 5 0 0 0 61.17 19h.25c13.14 0 23.58 3.8 31.3 11.39Zm-64.68.69c7.13-6.55 15.83-10.44 26.09-11.66l-.36 1.03c-2.17 6.26-1.83 12.26.93 17.77l-3.8-.68 2.7 7.1c.08.18.14.36.21.55.28.73.6 1.56.98 2.43-6.21 1.77-9.83 7-10.84 15.72H14.38c.46-13.46 5.02-24.21 13.66-32.26Zm100.3 14.51-5.44 5.93-8.58 9.53-7.72 8.57-.3-1.34a47.4 47.4 0 0 1-.5-2.36c-.04-.2-.11-.38-.18-.57-.2-.52-.4-1.05.14-1.54.47-.44.87-.2 1.28.04.25.15.5.3.78.3l-.87-1.14-1.77-2.33c-.43-.56-.95-1.14-1.68-1.08-1.1.08-1.9-.42-2.75-.96l-.02-.01c-1.2-.77-2.33-.76-3.14.77 1.95.11 3.01 1.22 2.83 2.92a29.6 29.6 0 0 1-.9 4.31c-.18.67-.36 1.35-.52 2.05l-3.63-3.89c-2.32-2.49-4.59-4.91-6.85-7.35l-5.2-5.58a1175.4 1175.4 0 0 1-21.84-23.9l-.24-.26c-1-1.13-2.01-2.27-2.26-3.85-.2-.28-.16-.63-.1-.98.06-.5.13-.99-.53-1.29-2.27 6.55-1.26 12.56 3 18.05.74.94 1.47 1.9 1.54 3.16.1 1.64-.76 2.17-2.25 1.5-.29-.13-.53-.34-.8-.55-.43-.37-.9-.76-1.7-.9l.14.35c1.03 2.71 1.96 5.17 4.3 6.84a49.8 49.8 0 0 1 7.48 6.35l.22.2c.3.28.65.6.55 1.23a26.52 26.52 0 0 0-7.26-2.52c-2.58-.58-5.15-1.19-6.72-3.69.51 2.87 2.2 4.92 4.26 6.72a32.74 32.74 0 0 0 7.5 4.74c.4.18.83.37.75.94-.08.6-.63.76-1.11.86-.57.11-1.15.2-1.79.28l-.88.12c.52.26 1.02.54 1.51.82 1.34.75 2.63 1.47 4.1 1.65 3.44.41 6.37 1.9 9.16 3.78-.1.45-.5.6-1.22.43-.97-.14-1.96-.07-2.96 0-2 .12-4 .26-5.9-1.25 1.69 5.03 7.72 8.53 13.18 7.87a29.4 29.4 0 0 1 5.3-.28c.45.03.94.17 1.07.63.16.58-.36.73-.8.83-1.41.32-2.02 1.34-2.48 2.9 1-.67 1.92-.75 2.86-.64 1.3.17 2.51-.16 3.7-.6 2.89-1.07 3.15-.89 3.23 2.32.01.62.01 1.27-.14 1.86l-.08.35c-.24 1-.55 2.27-1.45 2.18-1.09-.12-1.65-1.54-1.47-2.86 0-.03-.08-.07-.16-.12a1.54 1.54 0 0 1-.1-.06c-1.9 1.36-1.39 2.93-.45 4.57l.1.18c.38.63.76 1.29.32 2.1-.33.6-.7.39-1.08.18-.29-.16-.58-.32-.85-.09 1.16 2.72 2.76 3.72 5.55 3.42-1.04-1.66-.23-2.69 1.22-3.93l.07.6a5.63 5.63 0 0 1 .05.87c-.02.44-.05.9.48.95.62.07.76-.52.87-1.01l.04-.2c.22-.87.09-1.7-.24-2.57-.5-1.26-.12-2.4 1-3.65 0 1.03.32 1.87.63 2.71.29.76.57 1.53.63 2.45 1.03-2.07 1.4-3.75.48-5.58-.94-1.88-.51-3.38 1.36-5.15l-.16 1.02c-.24 1.47-.48 2.91.5 4.12l.04.04c1.16 1.43 2.25 2.78 1.96 4.77-.05.35.21.77.63.8.38.01.5-.3.62-.6l.08-.18c.14-.3.19-.64.24-.97.08-.53.17-1.07.58-1.55.86 2.1.51 4.13.16 6.16l-.05.32c.6.03.9-.32 1.2-.66.25-.31.5-.6.95-.6.28.68.15 1.33-.16 1.97a4.54 4.54 0 0 0 4.46-3.7c-.28-.07-.55.08-.81.22-.38.2-.74.4-1.06-.05-.3-.4-.07-.81.15-1.23.09-.17.18-.34.23-.51.02-.06.05-.12.06-.19.36-1.07.7-2.15.06-3.24a9.8 9.8 0 0 1-1.16-3.13l-.22 1c-.13.67-.25 1.2-.4 1.72-.11.42-.3.91-.8.96-.47.04-.7-.38-.92-.74a1.56 1.56 0 0 0-.03-.07c-.95-1.65-.68-3.39-.31-5.12.09-.43.44-.6.86-.33 1.37.85 2.85.86 4.36.88.9 0 1.82.01 2.72.2a3.02 3.02 0 0 0-2.38-2.5c-.45-.14-.96-.3-.8-.87.16-.53.8-.55 1.32-.47.43.06.86.14 1.28.22.5.1 1.01.2 1.52.26 6.34.86 11.63-.92 15.56-6.07l.16-.19c.26-.3.56-.62.2-1.17-1.89.97-3.87.85-5.85.74-1.25-.08-2.5-.15-3.73.05 2.15-1.66 4.7-2.42 7.3-3.19 2.72-.81 5.48-1.63 7.82-3.52H137.97c-.89 0-1.87 0-2.07-1.01-.17-.87.62-1.21 1.36-1.53.19-.08.38-.16.54-.25l.37-.17.32-.14c2.62-1.3 5.08-2.83 7.01-5.05a9.9 9.9 0 0 0 2.5-5.28c-2.24 2.5-5.1 3.13-7.9 3.76-2.32.51-4.6 1.02-6.44 2.55a8.84 8.84 0 0 1 4.64-4.64c4.3-2.02 6.3-5.8 8.06-10.27a67.35 67.35 0 0 0-1.04.49c-.29.12-.58.3-.88.47-.88.5-1.79 1.04-2.54.27-.93-.96-.14-2.02.56-2.95l.37-.5c2-2.94 3.53-6.08 4.21-9.57.63-3.2.56-6.36-.98-9.36-.31 3-1.67 5.58-3.57 7.72-4.66 5.23-9.4 10.38-14.14 15.53ZM72.9 79.57c4 17.74 23.16 27.85 40.45 21.66.2-.07.38-.18.57-.28l.27-.14c9.74-3.82 15.98-10.85 18.5-20.81.8-3.14 1.96-5.5 4.75-7.1.2-.12.38-.27.56-.44.33-.3.68-.62 1.26-.72a35.95 35.95 0 0 1-7.02 21.96c-3.55 4.87-8.21 8.44-13.5 11.28a40 40 0 0 1-18.64 3.4C82.58 107.2 67.93 92.9 66.62 75.6l-.16-2.13-.1-1.22c.78.79 1.63 1.42 2.44 2.03 1.8 1.35 3.48 2.6 4.09 5.29Zm9.53-31.59c-2.97-3.44-2.97-3.44 1-5.92 7.58-4.72 15.84-6.3 24.68-5.26a38.2 38.2 0 0 1 17.04 7.2c.89.68 1.17 1.16.27 2.01a7.63 7.63 0 0 0-1.4 1.76c-.73 1.29-1.56 1.38-2.6.4-9.75-7.14-20.22-8.07-31.3-3.53a23.75 23.75 0 0 0-5.98 3.56c-.66.54-1 .6-1.63-.13l-.08-.09Z" clip-rule="evenodd"/></svg>
