<svg width="160" height="160" viewBox="0 0 160 160" fill="none" xmlns="http://www.w3.org/2000/svg">
<path d="M72.1859 28.2846C72.407 30.2683 72.628 32.251 72.8538 34.2699C73.0445 34.3145 73.257 34.3439 73.4534 34.4171C73.5644 34.4579 73.7153 34.5548 73.7352 34.6497C73.85 35.2128 73.9477 35.7797 74.0189 36.3504C74.0957 36.9705 74.147 37.5954 74.1906 38.2192C74.2987 39.7642 74.3936 41.3111 74.4999 42.8561C74.5378 43.4059 74.6469 43.9567 74.6204 44.5027C74.6023 44.8636 74.4392 45.2348 74.2741 45.5691C73.7343 46.6659 73.6659 47.831 73.6622 49.0237C73.6584 49.9591 73.5682 50.8935 73.5142 51.8279C73.4914 52.2296 73.4477 52.6312 73.4402 53.0329C73.4126 54.5513 73.406 56.0707 73.3728 57.59C73.3538 58.4295 73.2959 59.2689 73.1764 60.1179C73.1574 60.0599 73.1242 60.003 73.1233 59.945C73.0768 58.3288 73.0455 56.7117 72.9867 55.0954C72.9506 54.0879 72.8719 53.0823 72.8197 52.0748C72.8055 51.8041 72.8178 51.5326 72.7381 51.2391C72.7058 51.317 72.6669 51.393 72.6423 51.4737C72.1442 53.0852 72.2856 54.745 72.2618 56.3945C72.2353 58.268 72.1565 60.1425 72.1565 62.0161C72.1565 62.5574 72.3472 63.0977 72.4468 63.639C72.5132 63.996 72.6205 64.354 72.6271 64.7129C72.6499 65.9674 72.6432 67.2227 72.6337 68.4781C72.6243 69.7439 72.6072 71.0107 72.5778 72.2765C72.5616 72.9801 72.5133 73.6838 72.4772 74.4102C72.7988 74.7302 73.1992 74.6296 73.5635 74.5175C74.4847 74.2326 75.3651 74.3304 76.2256 74.7198C77.1705 75.148 78.1136 75.5811 79.0471 76.034C79.3374 76.1746 79.6192 76.3578 79.8602 76.5715C80.1998 76.8735 80.5565 77.089 81.0176 77.1479C82.0811 77.2846 82.8667 77.9161 83.6219 78.6207C84.1712 79.1325 84.7651 79.5988 85.358 80.0613C85.5174 80.1856 85.7442 80.2236 85.988 80.3214C85.9994 80.1515 86.0145 80.0309 86.0145 79.9112C86.0155 76.8554 86.0183 73.8006 86.0098 70.7448C86.0098 70.5368 85.9434 70.327 85.8893 70.1228C85.6142 69.0811 85.2774 68.0517 85.0753 66.9967C84.9662 66.4279 85.082 65.8164 85.0962 65.2238C85.1066 64.8032 85.1189 64.3834 85.1284 63.9628C85.1493 63.0113 85.1645 62.0598 85.1901 61.1092C85.21 60.3676 85.3362 59.6127 85.2347 58.8891C85.1654 58.3962 84.9804 57.91 84.9776 57.3944C84.9776 57.2938 84.9558 57.194 84.9539 57.0934C84.933 55.9957 84.9349 54.896 84.8894 53.7992C84.8201 52.1004 84.7186 50.4025 84.6313 48.7037C84.6133 48.3505 84.5545 47.9934 84.5896 47.6459C84.6541 47.003 84.4691 46.4418 84.0981 45.9461C83.8107 45.5625 83.8695 45.1978 84.0051 44.7923C84.1475 44.365 84.3173 43.9311 84.3552 43.4895C84.3932 43.046 84.2888 42.5902 84.2357 42.1411C84.1873 41.7337 84.0848 41.3282 84.082 40.9218C84.0801 40.6568 84.1996 40.3853 84.2926 40.127C84.47 39.6379 84.6968 39.1641 84.8476 38.6674C84.9368 38.3731 84.9605 38.0436 84.9406 37.7349C84.9074 37.2203 85.1484 36.8499 85.4605 36.49C85.9064 35.9753 86.3551 35.4626 86.7688 34.9222C86.9045 34.7447 86.9728 34.4921 87.0069 34.2642C87.2042 32.9357 87.3741 31.6034 87.5686 30.274C87.7156 29.2712 87.8873 28.2713 88.0458 27.2704C88.0733 27.0995 88.0894 26.9267 88.1947 26.7491C88.4471 28.9369 88.6994 31.1248 88.9509 33.3127L89.022 33.3241L89.7952 29.6909L89.8872 29.6881C89.9764 30.0926 90.0713 30.4962 90.1519 30.9017C90.2772 31.5284 90.392 32.157 90.5124 32.7847C90.5238 32.8417 90.5305 32.929 90.5675 32.9461C91.279 33.2937 91.9944 33.6327 92.7571 33.9964C92.9668 33.4675 93.1518 32.9993 93.3748 32.4362C93.5503 32.8635 93.6945 33.193 93.8216 33.5273C94.0218 34.0515 94.2305 34.5728 94.3984 35.1074C94.5341 35.5404 94.905 35.681 95.2475 35.7484C95.8623 35.8699 96.0027 36.2612 96.0928 36.7929C96.2845 37.9296 96.4913 39.0672 96.7645 40.1868C96.8632 40.5923 96.6478 40.8582 96.5568 41.1734C96.2266 42.3129 95.8206 43.4306 95.5122 44.5749C95.3841 45.0516 95.4126 45.5748 95.4041 46.0781C95.3718 47.9754 95.3471 49.8736 95.3405 51.7719C95.3405 51.9969 95.4733 52.222 95.5416 52.448C95.7722 53.201 96.0682 53.9417 96.2114 54.7109C96.3291 55.3442 96.2864 56.0118 96.2741 56.6632C96.2617 57.3431 96.1906 58.0211 96.1612 58.7011C96.0786 60.6249 96.0027 62.5488 95.9259 64.4736C95.8974 65.1982 95.8765 65.9237 95.849 66.6492C95.7817 68.3983 95.7124 70.1484 95.6422 71.8976C95.6099 72.7123 95.6223 73.5337 95.5198 74.3399C95.4525 74.867 95.2143 75.3731 95.053 75.8887C94.9809 75.8773 94.9079 75.865 94.8358 75.8536V63.0056L94.6916 62.9951C94.6584 63.0939 94.6109 63.1907 94.5929 63.2923C94.3434 64.6921 94.1584 66.0899 94.1907 67.5266C94.2504 70.1247 94.2191 72.7247 94.203 75.3228C94.1954 76.5933 94.2523 77.8819 94.0635 79.1287C93.8928 80.2597 93.8444 81.3783 93.8339 82.5112C93.832 82.7268 93.8852 82.8227 94.1176 82.9053C95.9762 83.5662 97.8964 83.7067 99.845 83.6298C100.039 83.6222 100.232 83.6194 100.425 83.6137C100.928 83.5994 101.155 83.7286 101.151 84.2243C101.144 85.2384 102.32 85.698 103.087 85.3514C103.407 85.2071 103.698 85.265 104.017 85.4284C104.76 85.8082 105.515 86.1425 106.375 86.2422C106.761 86.2868 107.11 86.641 107.538 86.8898C107.516 86.6714 107.485 86.4729 107.478 86.2726C107.449 85.5034 107.475 84.7295 107.393 83.9669C107.238 82.5292 107.508 81.1229 107.61 79.7042C107.731 78.0396 107.814 76.3721 107.975 74.7122C108.034 74.0921 107.931 73.5461 107.692 72.9915C107.586 72.7456 107.55 72.4692 107.481 72.2072C107.439 72.209 107.396 72.21 107.353 72.2119C107.312 72.8643 107.291 73.5185 107.227 74.1681C107.163 74.8233 107.058 75.4738 106.96 76.2078C106.889 76.0321 106.813 75.9125 106.794 75.7852C106.68 75.0028 106.598 74.2155 106.465 73.4369C106.297 72.4512 106.091 71.4722 105.906 70.4893C105.884 70.3668 105.893 70.2367 105.893 70.1104C105.893 68.0688 105.918 66.0272 105.878 63.9875C105.865 63.3208 106.126 62.7454 106.259 62.1272C106.351 61.7027 106.501 61.2783 106.513 60.8509C106.547 59.6222 106.533 58.3915 106.518 57.1618C106.516 56.9291 106.436 56.6946 106.371 56.4667C106.2 55.8637 105.935 55.273 105.865 54.6586C105.809 54.1686 105.973 53.6502 106.059 53.1478C106.206 52.296 106.349 51.4424 106.542 50.601C106.59 50.3883 106.788 50.1547 106.981 50.0408C107.655 49.6438 107.793 48.9744 107.961 48.3058C108.09 47.7988 108.236 47.2955 108.465 46.7751C108.599 47.2404 108.732 47.7066 108.866 48.1719L108.925 48.153L109.425 42.7963L109.492 42.8086C109.713 44.1685 109.924 45.5292 110.166 46.8843C110.2 47.078 110.355 47.286 110.515 47.4075C110.622 47.4892 110.944 47.0391 110.979 46.8083C111.075 46.1759 111.196 45.5482 111.295 44.9167C111.499 43.6281 111.692 42.3367 111.9 41.049C111.967 40.6303 112.067 40.2172 112.196 39.7965C112.294 40.5277 112.397 41.2579 112.489 41.9891C112.591 42.7982 112.692 43.6063 112.778 44.4172C112.837 44.968 112.938 45.5264 112.899 46.0724C112.831 46.9793 113.452 47.3838 114.054 47.7703C114.683 48.1738 115.38 48.4692 116.039 48.8281C116.15 48.8879 116.241 49.019 116.298 49.1377C116.877 50.3456 117.487 51.5421 117.997 52.7794C118.154 53.1583 118.059 53.654 118.03 54.0927C117.993 54.6643 117.714 55.2578 118.318 55.7279C118.387 55.782 118.352 56.0469 118.29 56.1799C118.074 56.6452 117.811 57.0896 117.596 57.5558C117.539 57.6783 117.541 57.8711 117.598 57.9946C117.747 58.3231 117.977 58.6175 118.107 58.9518C118.203 59.1986 118.226 59.4883 118.22 59.758C118.205 60.4512 118.146 61.1444 118.122 61.8376C118.09 62.7843 118.093 63.733 118.049 64.6788C117.958 66.6701 117.843 68.6595 117.745 70.6498C117.71 71.3297 117.706 72.0115 117.671 72.6914C117.599 74.1006 117.51 75.5098 117.437 76.919C117.403 77.5743 117.395 78.2314 117.365 78.8875C117.336 79.5542 117.296 80.2198 117.202 80.8902C117.021 77.7765 116.841 74.6628 116.659 71.5491L116.59 71.5244C116.486 71.7542 116.404 71.9963 116.274 72.2109C115.78 73.0314 115.686 73.9364 115.68 74.8632C115.659 77.8268 115.617 80.7905 115.627 83.7542C115.631 84.9203 115.272 85.9649 114.859 87.0256C114.689 87.4614 114.767 87.9904 114.708 88.4747C114.658 88.8839 114.758 89.1517 115.218 89.1973C115.35 89.2106 115.472 89.3037 115.604 89.3397C116.052 89.4641 116.485 89.5287 116.97 89.4214C117.926 89.2115 118.841 89.3939 119.705 89.8867C120.526 90.3558 121.429 90.6008 122.37 90.7062C122.65 90.7375 122.93 90.7898 123.206 90.8487C123.715 90.9569 124.134 90.8904 124.458 90.4118C124.666 90.1061 125.1 90.1203 125.291 90.4375C125.521 90.8202 125.764 91.2313 125.844 91.6606C125.951 92.2341 126.37 92.386 126.778 92.4335C127.458 92.5123 128.152 92.443 128.84 92.4658C129.176 92.4772 129.515 92.5266 129.842 92.6054C130.955 92.876 132.073 93.1305 133.167 93.4657C133.891 93.6879 134.584 94.0213 135.274 94.3413C135.488 94.441 135.654 94.6537 135.827 94.8284C136.265 95.27 136.823 95.2766 137.373 95.2291C137.727 95.1987 137.996 95.2006 138.273 95.495C138.567 95.8074 138.941 96.0629 139.319 96.2737C139.793 96.5386 140.29 96.5367 140.835 96.361C141.646 96.099 142.457 96.3069 143.226 96.6165C144.098 96.9678 144.965 97.3325 145.823 97.719C146.867 98.189 147.778 98.8404 148.501 99.7426C148.793 100.105 149.225 100.174 149.649 100.213C150.362 100.277 151.076 100.31 151.79 100.36C152.33 100.398 152.662 100.767 152.979 101.142C153.023 101.194 152.992 101.358 152.94 101.433C152.587 101.948 152.032 102.097 151.467 102.112C150.294 102.143 149.116 102.179 147.95 102.092C147.155 102.032 146.347 101.847 145.597 101.574C144.485 101.169 143.409 101.058 142.246 101.344C141.529 101.519 140.763 101.523 140.016 101.538C139.408 101.551 139.034 101.113 138.757 100.636C138.255 99.7729 137.57 99.3903 136.546 99.5137C136.092 99.5688 135.602 99.4102 135.139 99.301C133.801 98.9848 132.47 98.6448 131.136 98.3153C129.887 98.0067 128.641 97.6886 127.387 97.3999C126.829 97.2708 126.256 97.2005 125.687 97.1103C125.623 97.0998 125.553 97.134 125.433 97.1578C125.86 97.5053 126.262 97.7968 126.623 98.1339C127.205 98.6781 127.656 99.3019 127.629 100.158C127.612 100.702 127.271 100.975 126.776 100.746C126.415 100.579 126.018 100.33 125.819 100.006C125.392 99.3133 124.734 99.0028 124.04 98.773C122.877 98.3875 121.694 98.0542 120.506 97.7503C119.452 97.4816 118.383 97.2746 117.317 97.0562C116.605 96.9109 115.89 96.7874 115.174 96.6649C114.753 96.5928 114.729 96.6687 114.82 97.1017C114.963 97.7873 115.05 98.4853 115.169 99.1757C115.202 99.3722 115.298 99.564 115.302 99.7597C115.315 100.556 115.318 101.354 115.294 102.151C115.278 102.702 115.201 103.251 115.17 103.803C115.108 104.885 115.056 105.967 115.005 107.049C114.954 108.126 114.914 109.203 114.861 110.28C114.784 111.89 114.699 113.498 114.619 115.107C114.573 116.013 114.53 116.919 114.479 117.824C114.472 117.956 114.418 118.086 114.326 118.216C114.313 118.14 114.29 118.064 114.288 117.987C114.268 117.058 114.268 116.13 114.227 115.202C114.133 113.034 114.026 110.868 113.913 108.701C113.877 108.011 113.808 107.321 113.751 106.584C113.712 106.669 113.666 106.723 113.665 106.777C113.643 107.915 113.635 109.053 113.606 110.19C113.573 111.541 113.501 112.893 113.486 114.245C113.471 115.591 112.984 116.815 112.584 118.066C112.533 118.223 112.511 118.392 112.498 118.556C112.445 119.221 112.402 119.885 112.353 120.55C112.296 121.313 112.241 122.076 112.174 122.838C112.061 124.106 111.933 125.374 111.821 126.643C111.743 127.526 111.682 128.411 111.523 129.3C111.505 129.221 111.474 129.143 111.471 129.064C111.432 128.194 111.382 127.324 111.364 126.455C111.345 125.465 111.386 124.475 111.347 123.486C111.296 122.165 111.187 120.847 111.114 119.527C111.076 118.841 111.072 118.151 111.04 117.465C111.002 116.649 110.943 115.834 110.905 115.019C110.873 114.323 110.856 113.626 110.835 112.929C110.823 112.516 110.889 112.084 110.79 111.695C110.637 111.097 110.383 110.521 110.15 109.946C109.985 109.539 109.774 109.149 109.602 108.744C109.55 108.622 109.519 108.47 109.541 108.342C110.042 105.309 110.25 102.257 110.145 99.1842C110.109 98.1273 110.051 97.0713 110.004 96.0334C109.096 95.7998 108.325 96.0657 107.567 96.4047C106.825 96.7361 106.076 97.0543 105.349 97.4142C104.907 97.6326 104.481 97.8329 103.97 97.7959C103.677 97.774 103.505 97.6696 103.53 97.3638C103.554 97.0628 103.301 97.0856 103.148 97.0486C102.224 96.8254 101.283 96.6668 100.371 96.4057C99.328 96.1085 98.2996 96.1199 97.2474 96.3022C96.5701 96.419 95.8822 96.4968 95.1963 96.5434C94.7058 96.5776 94.276 96.4161 93.9345 96.0088C93.7647 95.8065 93.4981 95.6669 93.2514 95.552C92.9839 95.4276 92.815 95.4855 92.7268 95.8435C92.5095 96.7171 92.2211 97.5727 91.9706 98.4388C91.926 98.5916 91.9071 98.7569 91.9071 98.9164C91.9033 102.948 91.8909 106.979 91.9194 111.011C91.9232 111.584 91.7287 112.076 91.5314 112.559C91.1775 113.425 90.836 114.258 90.8929 115.235C90.9593 116.381 90.9413 117.536 90.8957 118.685C90.8692 119.358 90.7088 120.025 90.6253 120.696C90.484 121.829 90.3521 122.963 90.2231 124.097C90.1662 124.595 90.1273 125.095 90.0751 125.593C90.0694 125.644 90.0267 125.69 89.9204 125.725C89.9119 125.559 89.8977 125.393 89.8948 125.227C89.874 123.927 89.854 122.626 89.8351 121.325C89.8123 119.731 89.7933 118.136 89.7658 116.542C89.7468 115.456 89.7193 114.37 89.6928 113.285C89.652 111.66 89.5799 110.035 89.578 108.41C89.577 107.529 89.2763 106.816 88.6691 106.171C88.6368 106.743 88.6084 107.29 88.5752 107.836C88.5211 108.717 88.4642 109.597 88.4082 110.479C88.3598 111.239 88.2953 112 88.2668 112.762C88.2298 113.757 88.2308 114.754 88.1947 115.749C88.1871 115.967 88.0923 116.182 87.9651 116.404C87.9357 116.283 87.8921 116.163 87.8797 116.04C87.6947 114.124 87.5297 112.208 87.3266 110.294C87.1625 108.749 86.949 107.207 86.7688 105.662C86.69 104.989 86.5714 104.31 86.5952 103.639C86.617 103.022 86.8086 102.41 86.9206 101.795C87.0145 101.278 87.1625 100.762 87.1767 100.243C87.2033 99.283 87.1388 98.322 87.1302 97.36C87.1198 96.1806 87.1283 95.0022 87.1274 93.8228C87.1274 93.2977 86.7887 92.9283 86.2489 92.9216C84.9415 92.9055 83.6209 92.9235 82.3781 93.3546C81.6049 93.6224 80.8905 94.0716 80.1742 94.4818C79.8118 94.6898 79.4712 94.7448 79.1059 94.5787C78.734 94.4096 78.3659 94.2226 78.0196 94.008C77.9048 93.9367 77.8593 93.7535 77.7483 93.5664C78.1914 93.4828 78.55 93.4059 78.9124 93.3508C79.1875 93.309 79.1686 93.1077 79.1021 92.9539C78.9598 92.6225 78.7957 92.2949 78.5965 91.9948C78.346 91.6159 77.9675 91.5105 77.5339 91.6454C77.2958 91.7194 77.0643 91.8296 76.8205 91.8685C76.7 91.8875 76.5036 91.822 76.4381 91.727C76.1023 91.2456 75.7864 90.748 75.4856 90.2428C75.3442 90.0064 75.2532 89.7405 75.1365 89.4888C74.7617 88.6864 73.9003 88.563 73.0531 88.6931C72.5578 88.769 72.0626 88.8555 71.5769 88.9742C71.4507 89.0055 71.2742 89.1679 71.2638 89.2828C71.1812 90.1735 71.1471 91.068 71.0721 91.9597C71.0019 92.7982 70.8938 93.6348 70.8141 94.4723C70.7638 94.9984 70.7363 95.5254 70.6955 96.0524C70.6016 97.2651 70.5095 98.4786 70.409 99.6903C70.3027 100.977 70.1879 102.263 70.0779 103.549C70.002 104.437 69.928 105.325 69.7933 106.212C69.78 105.936 69.7544 105.659 69.7544 105.383C69.7506 103.71 69.7591 102.036 69.7506 100.363C69.743 98.8423 69.7136 97.322 69.7041 95.8027C69.6936 94.2491 69.705 92.6966 69.6879 91.143C69.6813 90.5058 69.6244 89.8687 69.521 89.2087C69.484 89.2989 69.4261 89.3863 69.4128 89.4803C69.2288 90.7755 68.9811 92.067 68.8891 93.3689C68.7753 94.9813 68.7943 96.6041 68.7525 98.2213C68.7165 99.6115 68.6728 101.002 68.6377 102.393C68.6102 103.493 68.5912 104.592 68.5656 105.691C68.5523 106.253 68.5542 106.818 68.5087 107.377C68.4869 107.648 68.3749 107.912 68.2943 108.176C68.0381 109.008 67.7687 109.836 67.5249 110.671C67.4736 110.847 67.4983 111.049 67.5059 111.238C67.5211 111.59 67.5552 111.94 67.5723 112.292C67.6311 113.491 67.7355 114.689 67.726 115.887C67.7174 116.928 67.5865 117.971 67.4954 119.011C67.3788 120.337 67.2374 121.661 67.1264 122.989C67.0315 124.119 66.9727 125.251 66.8845 126.381C66.7943 127.532 66.6833 128.682 66.5885 129.834C66.4898 131.037 66.4063 132.242 66.3038 133.445C66.2317 134.295 66.1397 135.143 65.969 136C65.9528 135.879 65.9291 135.758 65.9206 135.636C65.8153 134.108 65.7071 132.581 65.6094 131.054C65.5638 130.339 65.523 129.623 65.5069 128.907C65.4528 126.563 65.4102 124.217 65.3637 121.873C65.339 120.647 65.3219 119.421 65.2897 118.196C65.2773 117.751 65.2299 117.307 65.1303 116.861C65.0031 118.887 64.876 120.915 64.7489 122.941C64.7328 122.948 64.7166 122.955 64.7005 122.962C64.6739 122.872 64.6256 122.783 64.6227 122.691C64.5734 121.002 64.5269 119.312 64.4851 117.622C64.4624 116.712 64.4529 115.8 64.4339 114.89C64.4149 113.98 64.395 113.07 64.3713 112.159C64.3495 111.314 64.3248 110.469 64.2992 109.624C64.2556 108.198 64.2404 106.769 64.1531 105.345C64.1104 104.65 63.9311 103.964 63.8153 103.274C63.7888 103.114 63.747 102.953 63.748 102.793C63.7584 101.463 63.8134 100.133 63.7783 98.8053C63.7603 98.1102 63.6171 97.4122 63.4767 96.7276C63.1712 95.2367 62.8031 93.7601 62.9226 92.2132C62.9881 91.37 62.933 90.5172 63.0051 89.675C63.1218 88.3218 61.9634 87.4747 60.8534 87.3598C59.8383 87.2544 58.8592 87.0351 57.9076 86.6885C57.4361 86.5166 56.9684 86.3238 56.5253 86.0902C55.4855 85.5423 54.6194 84.8349 54.3234 83.6051C54.2797 83.4247 54.0435 83.2538 53.8566 83.1531C53.0321 82.7106 52.1347 82.5093 51.2106 82.3963C50.0807 82.2586 48.9545 82.0972 47.7885 81.9405C47.7658 82.0753 47.7383 82.1675 47.7373 82.2605C47.7316 82.5777 47.7041 82.8977 47.7411 83.2111C47.8417 84.0761 47.5874 84.8463 47.189 85.5926C47.1282 85.7066 47.1197 85.8595 47.1197 85.9953C47.1254 87.5023 47.1567 89.0102 47.132 90.5172C47.1263 90.8648 46.9394 91.2123 46.8199 91.5542C46.3731 92.8286 45.8987 94.0934 45.4831 95.3773C45.3845 95.683 45.4756 96.0486 45.4746 96.3867C45.4727 97.229 45.4718 98.0703 45.4632 98.9126C45.4604 99.1643 45.4319 99.4159 45.4234 99.6685C45.3807 100.964 45.3579 102.259 45.2944 103.553C45.2355 104.759 45.116 105.963 45.0572 107.169C45.0126 108.073 45.0448 108.981 45.0012 109.885C44.9073 111.833 44.7811 113.779 44.6815 115.725C44.6483 116.378 44.6729 117.032 44.6435 117.684C44.6274 118.045 44.5543 118.402 44.4822 118.762C44.4538 118.318 44.413 117.873 44.3988 117.429C44.357 116.115 44.3447 114.801 44.2849 113.49C44.2185 112.028 44.0876 110.57 44.0335 109.108C43.9918 107.984 44.025 106.856 44.025 105.731H43.857C43.857 107.23 43.8627 108.729 43.8532 110.226C43.8504 110.727 43.7935 111.226 43.7868 111.727C43.783 112.027 43.858 112.329 43.8466 112.628C43.8343 112.961 43.7992 113.301 43.7109 113.621C43.4918 114.413 43.2233 115.192 43.006 115.983C42.9444 116.207 42.988 116.46 42.9918 116.699C42.9937 116.799 43.0269 116.899 43.0288 117C43.0535 118.404 43.1132 119.808 43.0857 121.211C43.062 122.412 42.9557 123.613 42.8523 124.81C42.7575 125.91 42.6104 127.004 42.4975 128.102C42.4017 129.039 42.322 129.979 42.2338 130.916C42.1683 131.61 42.1 132.303 42.0298 132.997C42.026 133.037 41.989 133.074 41.8799 133.108C41.8268 132.67 41.7717 132.231 41.7224 131.791C41.5943 130.643 41.4625 129.495 41.3458 128.345C41.2338 127.245 41.1683 126.138 41.0298 125.04C40.7642 122.931 40.7224 120.816 40.7054 118.694C40.6968 117.648 40.4616 116.605 40.3638 115.558C40.3173 115.055 40.3382 114.544 40.3534 114.038C40.38 113.138 40.3667 112.234 40.4767 111.344C40.6143 110.227 40.2414 109.197 40.0071 108.157C39.7054 106.819 39.38 105.507 39.4426 104.115C39.4976 102.901 39.4606 101.682 39.4521 100.464C39.4407 98.793 39.4161 97.1207 39.399 95.4494C39.3838 93.9424 39.4009 92.4345 39.3449 90.9294C39.324 90.3871 39.1324 89.8497 39.01 89.3132C39.0024 89.2809 38.9132 89.2685 38.7937 89.2182C38.769 90.2077 38.7671 91.1535 38.7178 92.0964C38.6533 93.3271 38.547 94.5559 38.4692 95.7865C38.4351 96.3278 38.4199 96.871 38.4047 97.4132C38.3658 98.7531 38.3525 100.094 38.2909 101.433C38.2377 102.587 38.1277 103.738 38.0508 104.89C38.0395 105.061 38.0717 105.235 38.084 105.408C38.0508 105.414 38.0186 105.418 37.9854 105.424C37.9607 105.261 37.9171 105.097 37.9142 104.934C37.8867 103.34 37.8696 101.746 37.8431 100.152C37.8336 99.5992 37.807 99.0465 37.788 98.4938C37.7425 97.2309 37.6894 95.9689 37.6533 94.7059C37.6249 93.7316 37.6163 92.7564 37.6002 91.7821C37.5793 90.4688 37.5566 89.1565 37.5404 87.8432C37.5319 87.1747 37.5215 86.5062 37.5414 85.8386C37.5604 85.228 37.4807 84.6411 37.307 84.0533C37.2055 83.7096 37.179 83.3355 37.1666 82.9737C37.1448 82.3412 37.1609 81.7078 37.1609 81.064C36.6733 80.9491 36.1932 80.8665 35.7322 80.7212C35.0927 80.5199 34.4723 80.2578 33.8347 80.048C33.2901 79.8694 32.7247 79.7507 32.1839 79.5627C31.7494 79.4117 31.3215 79.2256 30.9202 79.0025C30.5208 78.7793 30.1328 78.9436 29.7837 79.0319C29.2894 79.1563 28.816 79.199 28.3928 78.9512C27.5931 78.4821 26.8104 77.9797 26.059 77.4366C25.2355 76.8412 24.4755 76.1575 23.6464 75.5706C23.4073 75.4006 23.0287 75.3987 22.7109 75.3759C22.2821 75.3446 21.8419 75.4187 21.4216 75.3522C21.0782 75.2971 20.6664 75.187 20.4463 74.9505C20.1029 74.5821 19.7101 74.3798 19.2538 74.3124C18.1238 74.1462 16.9873 74.0247 15.8535 73.8803C15.3441 73.8158 14.8318 73.7616 14.328 73.6629C13.5908 73.5185 12.8527 73.3685 12.1298 73.1691C10.147 72.6231 8.57397 71.5063 7.50286 69.7268C7.12717 69.1029 6.72206 68.4914 6.40804 67.8371C5.82362 66.6207 5.88149 65.4005 6.48868 64.1878C6.67463 63.8175 6.74578 63.3892 6.87006 62.9885C7.11578 62.1965 7.69925 61.6676 8.35197 61.246C9.04075 60.8016 9.79403 60.4578 10.5227 60.0742C11.0511 59.7959 11.626 59.5984 11.9761 59.0486C12.1288 58.8084 12.3717 58.6241 12.5842 58.4247C12.9571 58.0753 13.4191 58.0962 13.8688 58.1731C14.5841 58.2946 15.3014 58.419 16.0006 58.6089C16.3383 58.7011 16.6343 58.9451 16.9522 59.117C17.3222 59.3164 17.6979 59.5054 18.066 59.7095C18.5821 59.9944 19.1181 60.2527 19.601 60.5879C20.4985 61.2108 21.3675 61.8737 22.2384 62.5327C22.7327 62.9059 23.3086 62.941 23.8826 62.9505C24.5163 62.9609 25.0818 63.1395 25.5912 63.5032C26.1747 63.92 26.7098 64.429 27.3416 64.7462C28.002 65.0766 28.7401 65.2808 29.4658 65.4422C30.3918 65.6483 31.3358 65.805 32.2797 65.8914C33.3936 65.9939 34.5168 66.0044 35.6363 66.0443C36.0633 66.0595 36.4921 66.0471 36.9816 66.0471C36.8782 65.5657 36.7919 65.1384 36.6932 64.7139C36.345 63.2287 36.0519 61.7265 35.6164 60.266C35.403 59.5509 35.6695 58.9698 35.8441 58.3734C36.2587 56.9586 36.6183 55.5588 36.5519 54.0566C36.5006 52.9104 36.5367 51.75 36.6619 50.6096C36.7701 49.6191 36.5955 48.6619 36.5424 47.6915C36.5205 47.3002 36.5613 46.9593 36.753 46.6222C36.9257 46.3174 37.0528 45.9869 37.234 45.6878C37.5679 45.137 37.4873 44.5331 37.4512 43.951C37.4209 43.4715 37.6125 43.1913 37.9683 42.9226C38.8117 42.2864 39.6286 41.6169 40.4663 40.9731C40.5669 40.8961 40.731 40.8639 40.8619 40.8715C41.6873 40.918 42.5108 40.9949 43.3362 41.0253C43.4358 41.0291 43.6066 40.8278 43.6388 40.6967C43.913 39.5534 44.1635 38.4054 44.4234 37.2582C44.431 37.2241 44.4652 37.1956 44.5458 37.0816C44.8475 38.8564 45.0904 40.5714 45.4424 42.2626L45.5382 42.2379C46.0903 39.3958 46.6434 36.5527 47.1956 33.7106L47.3094 33.7172C47.6159 37.1956 47.9223 40.6739 48.2288 44.1523L48.3341 44.158C48.4707 43.4211 48.6063 42.6833 48.7591 41.8619C48.8302 42.0243 48.8976 42.1306 48.9251 42.2465C49.1357 43.1619 49.3483 44.0773 49.5427 44.9965C49.7723 46.0838 49.9867 47.1739 50.2031 48.2641C50.2182 48.341 50.2002 48.4302 50.1784 48.5091C49.9972 49.1738 49.8359 49.8461 49.6186 50.4994C49.4934 50.8754 49.3113 51.2439 49.094 51.5762C48.8464 51.9551 48.853 52.3549 48.8729 52.7661C48.8862 53.0424 48.9593 53.3178 48.9498 53.5913C48.9394 53.9075 48.8729 54.2228 48.8198 54.5371C48.7743 54.8077 48.6775 55.0746 48.669 55.3442C48.6206 56.8721 48.6007 58.401 48.5485 59.9289C48.539 60.21 48.4489 60.4958 48.3568 60.7655C48.1623 61.3352 47.929 61.8907 47.7383 62.4615C47.6567 62.7074 47.6073 62.9752 47.6054 63.2335C47.5931 64.7671 47.595 66.3016 47.6073 67.8352C47.6073 67.9463 47.7136 68.122 47.8094 68.1562C48.5864 68.4325 49.371 68.6908 50.1575 68.9377C51.4829 69.3536 52.8064 69.7762 54.1412 70.1608C55.0026 70.4086 55.8745 70.6394 56.7568 70.7932C57.8317 70.9812 58.8706 70.7657 59.8373 70.2624C60.0337 70.1598 60.1371 70.1332 60.2605 70.3355C60.4996 70.7296 60.7396 71.1256 61.0071 71.5007C61.2291 71.8121 61.5166 72.0514 61.9615 72.0514C61.9236 71.4028 61.8894 70.778 61.8496 70.1532C61.8392 69.9917 61.7984 69.8313 61.7927 69.6698C61.731 67.876 61.6788 66.0823 61.6143 64.2894C61.5925 63.6741 61.508 63.0597 61.5204 62.4453C61.5261 62.188 61.6959 61.9287 61.8126 61.6799C62.0289 61.2203 62.2699 60.7731 62.4795 60.3116C62.5374 60.1843 62.5697 60.0049 62.5251 59.8805C62.1987 58.9622 61.8458 58.0544 61.509 57.1399C61.2879 56.5407 60.9872 55.9501 60.8923 55.33C60.7785 54.5903 60.8439 53.822 60.8354 53.0671C60.8345 52.9797 60.8658 52.8933 60.8677 52.806C60.8895 51.7054 60.8734 50.6029 60.9398 49.5052C60.9853 48.7512 60.7111 48.1045 60.454 47.437C60.1485 46.6421 59.8421 45.8473 59.5508 45.0468C59.4968 44.8977 59.4949 44.723 59.4939 44.5606C59.4892 43.5341 59.4996 42.5067 59.4892 41.4801C59.4787 40.4261 59.4968 39.3682 59.4133 38.3199C59.3544 37.5802 59.6893 37.0085 59.991 36.4065C60.3117 35.7674 60.6741 35.1482 60.9692 34.4978C61.1931 34.0049 61.5109 33.7144 62.0507 33.5966C63.3201 33.3193 64.5971 33.0639 65.8039 32.5473C66.2488 32.3564 66.7251 32.2377 67.1919 32.1019C67.503 32.0108 67.6539 31.818 67.7203 31.5028C67.8911 30.6975 68.0884 29.8979 68.2753 29.0955C68.4717 28.2532 68.6595 27.409 68.8664 26.5696C69.0229 25.9372 69.2069 25.3123 69.372 24.6818C69.4308 24.4577 69.4669 24.227 69.5134 24L69.6282 24.0019C69.8075 26.4405 69.9858 28.879 70.1652 31.3176L70.2724 31.329C70.4469 30.4848 70.6215 29.6406 70.7961 28.7964L70.8928 28.8078C70.9905 30.1315 71.0883 31.4543 71.186 32.7781L71.297 32.7752C71.5636 31.2673 71.8302 29.7593 72.0968 28.2523L72.1831 28.2884L72.1859 28.2846ZM109.204 80.1629L109.12 80.161C109.075 80.5209 109.02 80.8808 108.989 81.2416C108.912 82.1361 108.854 83.0325 108.775 83.927C108.681 85.001 108.573 86.0741 108.475 87.1471C108.47 87.2013 108.481 87.2962 108.513 87.3095C108.812 87.4415 109.118 87.5612 109.477 87.7055C109.384 85.1397 109.294 82.6508 109.204 80.1619V80.1629Z" fill="white"/>
</svg>
