<svg width="160" height="160" viewBox="0 0 160 160" fill="none" xmlns="http://www.w3.org/2000/svg">
<path d="M52.3885 48.9403C52.2176 48.9807 52.0467 49.0205 51.8764 49.0609C50.3938 48.6861 50.6359 47.5263 50.6964 46.4494C52.8095 43.1315 53.9016 39.4987 53.8855 35.5659C53.8796 34.1794 54.6199 33.4401 56.0591 32.7261C54.9525 32.7326 54.3606 32.4817 54.2958 31.6089C54.1624 29.8051 53.0505 28.2366 53.0451 26.4021C53.0446 26.128 52.9653 25.9364 52.6868 25.8588C52.2101 25.7258 51.8641 25.3705 51.9589 24.9192C52.0628 24.4244 52.6466 24.4045 53.0559 24.3566C56.1362 23.9969 59.2144 23.5925 62.3055 23.3518C71.7871 22.6131 81.2842 22.0493 90.7947 22.4989C104.257 23.1354 117.524 24.9117 130.122 30.0969C132.947 31.2594 135.66 32.6373 138.259 34.2655C140.036 35.378 140.882 36.8409 140.94 38.929C141.068 43.5575 141.009 48.173 140.601 52.7891C139.715 62.8068 137.172 72.3814 133.107 81.5613C133.009 81.7832 132.934 82.0174 132.815 82.2274C132.656 82.5079 132.631 82.9677 132.235 82.9817C131.81 82.9968 131.795 82.5348 131.677 82.2425C128.271 73.8341 121.66 69.8222 113.03 68.7437C110.831 68.4691 108.576 68.7507 106.635 70.1038C105.765 70.8668 104.848 71.3497 103.725 70.5911C103.313 69.6666 104.147 69.322 104.561 68.7808C104.751 68.5762 104.982 68.4287 105.23 68.3081C105.535 68.1729 105.797 67.9662 106.08 67.7912C106.884 67.3647 107.629 66.8354 108.48 66.4871C109.371 66.1231 109.134 65.6735 108.469 65.3079C107.665 64.8658 106.785 64.6154 105.903 64.3844C105.398 64.252 104.846 64.2407 104.481 63.7787C104.148 63.1665 104.425 62.319 103.737 61.8414C102.175 59.7964 100.681 57.7034 99.2136 55.59C98.7133 54.8691 98.0743 54.266 97.3523 53.7604C96.9935 53.5095 96.6276 53.264 96.461 52.8294C95.5896 50.5513 93.5296 50.0457 91.5049 49.5121C91.0957 49.4044 90.5628 49.3446 90.3185 49.7942C90.0689 50.2535 90.5922 50.4388 90.8295 50.7139C90.9806 50.8894 91.2382 51.044 91.1177 51.3153C90.98 51.6266 90.6565 51.6303 90.3662 51.6379C90.0234 51.6465 89.6886 51.569 89.3667 51.4666C84.9505 50.0602 80.3758 49.5444 75.8026 49.0259C75.0415 48.7583 74.2338 48.8897 73.4555 48.7594C73.3645 48.7443 73.2697 48.7518 73.177 48.7497C73.2392 48.7814 73.3072 48.7599 73.3854 48.7728C74.7148 49.0808 75.9976 49.5153 77.3233 49.7905C77.9462 49.9197 78.605 50.1577 78.6821 50.9051C78.7502 51.5657 78.169 51.885 77.7164 52.2485C74.4802 54.8427 71.2097 54.0302 68.0024 52.2571C66.6371 51.5022 65.2643 51.0924 63.7217 51.1926C62.5856 51.2663 61.5235 50.9395 60.479 50.5459C58.9809 50.0107 57.636 49.1438 56.171 48.5273C55.0162 48.0411 53.9262 47.578 52.9294 48.7938C52.8095 48.9403 52.5899 48.9623 52.3906 48.9408L52.3885 48.9403ZM106.271 84.8372C102.405 86.5785 98.4418 84.9234 97.1413 80.9373C96.6823 79.5303 95.9088 78.636 94.5398 78.0523C91.8692 76.9135 89.1739 75.8108 86.7176 74.2153C85.8906 73.678 84.92 73.5681 83.935 73.4949C82.4968 73.3878 81.0271 73.3748 79.6998 72.6517C77.7705 71.6007 77.6661 71.6147 76.6746 73.6457C75.6998 75.6428 74.1958 77.1132 72.3168 78.2101C70.1668 79.4652 68.0029 79.7312 65.7147 78.4039C62.073 76.2921 59.8995 73.3991 60.0741 68.9806C60.1769 66.3778 60.0072 66.2545 57.6279 65.3956C56.69 65.2206 55.7645 65.3666 54.9653 65.8194C53.4222 66.6933 51.8191 66.9167 50.1089 66.5829C45.9342 65.0597 44.5909 63.1713 44.5646 58.783C44.5609 58.1498 44.5861 57.5166 44.5652 56.8839C44.458 53.6237 44.9508 52.9624 40.9262 54.4841C36.8951 56.0084 32.9213 56.1242 28.7975 55.2551C26.5554 54.7824 24.5565 53.7093 22.3004 52.6318C22.5634 54.4712 22.7761 56.0542 23.0182 57.6329C23.7991 62.7255 24.5742 67.8208 26.5185 72.6404C27.5185 75.1199 28.9416 77.2689 31.1318 78.8799C35.1495 81.8354 39.8271 83.083 44.5695 84.1092C51.3322 85.5727 58.1844 86.6453 64.6912 89.1523C76.6446 93.7581 87.5194 100.048 96.3411 109.53C100.067 113.535 102.99 118.001 103.704 123.613C103.792 124.309 104.175 124.413 104.706 124.004C104.974 123.797 105.223 123.56 105.463 123.321C111.847 116.967 117.836 110.277 122.714 102.662C124.57 99.7656 126.452 96.8617 127.384 93.483C127.853 91.7815 127.353 90.6486 125.788 89.9147C124.447 89.2858 123.018 89.0791 121.547 89.0484C116.91 88.9525 112.815 87.4777 109.421 84.218C109.044 83.8562 108.573 83.594 108.145 83.2854C107.227 83.4443 107.045 84.5028 106.272 84.8367L106.271 84.8372ZM39.6685 93.2132C37.8769 93.3026 37.1184 94.5217 37.7274 96.2409C37.8892 96.697 38.1099 97.1353 38.3332 97.5666C41.5448 103.779 45.6525 109.372 50.1356 114.703C58.5465 124.702 68.7062 132.459 80.319 138.337C81.0871 138.726 81.7855 139.308 82.8643 138.804C88.288 136.274 93.5076 133.406 98.2495 129.729C101.377 127.304 102.209 123.613 100.63 119.945C99.3823 117.049 97.2024 114.907 95.0342 112.741C88.8515 106.563 81.2414 102.753 73.2665 99.5776C63.786 95.8026 54.0237 93.2725 43.7457 93.1998C42.3863 93.1998 41.0247 93.1454 39.6685 93.2132V93.2132ZM34.6701 21.0166C24.9582 20.5772 19.1194 28.95 19.0021 35.5723C18.8746 42.7692 24.6245 50.0882 33.7135 50.1491C41.8646 50.204 48.8351 43.4837 48.893 35.5551C48.8298 27.9905 42.8999 21.3892 34.6701 21.0166ZM109.291 79.7592C108.883 80.5776 109.211 80.9631 109.986 81.3756C112.687 82.8138 115.622 82.9392 118.567 83.2251C121.468 83.5067 124.471 83.2838 127.186 84.7613C128.22 85.324 127.888 84.3774 127.84 83.9569C127.515 81.1317 126.181 78.8287 124.126 76.9167C119.602 72.7045 114.736 69.3381 108.082 70.4322C107.861 70.7058 107.646 70.9578 108.082 71.255C109.859 72.4632 110.213 74.252 110.07 76.2367C109.981 77.4487 108.882 78.4362 109.291 79.7592V79.7592ZM66.7212 57.2086C67.2407 57.6291 68.1309 57.4434 68.5332 58.3054C67.7731 58.5267 67.1181 58.4567 66.4726 58.3C65.5192 58.0685 64.5508 58.0314 63.5931 58.153C62.786 58.2559 62.0768 58.3555 62.1791 59.637C62.3018 61.1823 60.6017 62.2619 59.0559 61.9894C58.2144 61.8414 58.1518 61.4661 58.373 60.7871C58.7184 59.7253 59.0296 58.6522 59.4148 57.3884C58.5797 57.7901 58.1935 58.2876 57.8411 58.8778C57.1721 59.9972 56.5936 60.0031 55.7565 58.9526C55.3371 58.4266 55.0098 57.8133 54.5358 57.3465C53.719 56.5426 53.9889 57.5134 53.8561 57.816C53.374 58.5752 53.8186 59.2256 54.1619 59.8335C54.6322 60.667 54.3306 61.3347 53.8255 61.9518C53.2931 62.6022 52.6798 62.2226 52.1314 61.9383C51.5743 61.6492 50.9948 61.4532 50.3863 61.3277C49.0783 60.8932 49.0435 61.647 49.3381 62.5392C49.494 63.0119 49.8673 63.4131 50.1421 63.8465C51.998 65.6589 54.8534 66.2017 57.0977 65.1679C58.0671 64.0845 59.2701 63.6295 60.7185 63.7523C61.6371 63.8304 62.3714 63.433 63.0688 62.8294C64.8358 61.2992 66.8808 60.4 69.2402 60.2433C70.4582 60.1625 71.5632 60.8248 72.7732 60.7656C72.8964 60.1087 72.2932 59.7791 72.2525 59.2461C71.9258 58.391 71.1802 58.0992 70.3977 57.8569C69.4362 57.6437 68.651 56.9162 67.6221 56.899C67.2782 56.8742 66.816 56.5022 66.7217 57.2091L66.7212 57.2086ZM52.1174 50.1819C51.7811 50.2018 51.4447 50.2363 51.1078 50.2395C49.0135 50.2589 48.8335 50.4312 48.3365 52.5581C47.8807 54.5089 47.6305 56.4569 48.0494 58.4486C48.1367 58.8643 47.9996 59.3968 48.4849 59.5966C49.0478 59.8281 49.1024 59.0905 49.4908 58.9478C49.6466 58.8396 49.7248 58.6834 49.7586 58.4976C49.7977 58.3232 49.8298 58.1062 50.0767 58.2193C50.3842 58.3598 50.5566 58.615 50.547 58.9699C50.5416 59.0948 50.585 59.2008 50.6729 59.2897C50.9434 59.8357 51.5577 59.0824 51.8362 59.5993C51.9155 59.833 51.7939 60.0866 51.8598 60.2993C51.9728 60.6633 51.8159 61.3379 52.3858 61.2809C53.0162 61.2179 53.065 60.5863 53.0076 60.0408C52.9712 59.6908 52.7816 59.4238 52.456 59.2682C51.411 58.3323 50.9996 57.1058 51.5438 55.8673C51.931 54.9854 51.4742 54.7695 50.9991 54.3888C50.5299 54.0135 49.7141 53.8412 49.8523 53.0583C49.9894 52.2835 50.7795 52.1069 51.4126 51.9346C52.5727 51.6185 53.765 51.4209 54.9332 51.1323C55.1908 51.0687 55.8716 51.1307 55.3569 50.4894C54.3687 49.4152 53.2042 50.2126 52.1174 50.1819V50.1819ZM45.6825 50.7947C44.8282 53.4567 44.9144 56.0003 46.0205 58.5251C47.1244 55.9411 47.3879 53.3857 45.6825 50.7947V50.7947ZM108.382 80.0413C108.398 79.5061 109.05 78.7862 108.009 78.5487C107.143 78.3511 106.282 78.5676 105.915 79.3801C105.511 80.2739 105.947 81.3056 106.525 81.8914C107.064 82.4374 107.244 81.2851 107.73 81.1042C107.832 80.6783 108.08 80.3434 108.382 80.0418L108.382 80.0413ZM53.532 49.9235C54.1576 49.9272 54.7323 50.2272 55.3563 50.2374C55.8652 50.3311 56.3708 50.4759 56.8829 50.5066C57.7158 50.5561 58.5535 51.2044 59.3885 50.5168C57.9729 49.7603 56.4179 49.3769 54.9252 48.8272C54.1041 48.5246 53.7961 49.0135 53.5368 49.6338C53.5352 49.7302 53.5336 49.8265 53.5315 49.9235H53.532ZM50.103 47.564C49.9616 48.0572 49.2363 48.5607 49.8325 49.0603C50.4281 49.5595 51.1956 49.7302 51.8759 49.0609C50.8903 48.46 51.0424 47.3411 50.6959 46.4494C50.2926 46.7084 50.2176 47.1645 50.103 47.564ZM52.1174 50.1825C53.2176 50.0672 54.2942 50.204 55.3569 50.4899C55.3189 50.4059 55.3189 50.3219 55.3569 50.2374C54.8052 49.8034 54.1807 49.7921 53.5326 49.9235C53.0462 49.9272 52.5127 49.6726 52.118 50.1825H52.1174ZM50.6729 59.2902C50.6466 59.1917 50.6541 59.0964 50.6954 59.0032C50.4763 58.4648 50.104 58.2252 49.5213 58.398C49.5111 58.5811 49.5015 58.7647 49.4913 58.9478L50.6729 59.2897V59.2902ZM103.961 61.9001C103.367 62.0815 102.65 61.8823 102.188 62.474C102.807 62.6318 102.25 63.4422 102.823 63.6252C103.411 63.8153 103.964 62.1876 104.576 63.5908C104.323 63.0448 105.321 62.0401 103.96 61.9006L103.961 61.9001ZM91.9093 103.451C91.9152 103.005 91.7738 102.672 91.2955 102.71C91.0143 102.732 90.6903 103.033 90.7749 103.286C90.8852 103.617 91.2157 103.872 91.5092 104.23C91.762 103.959 91.905 103.767 91.9093 103.451V103.451ZM77.4106 57.5381C77.7261 58.0184 78.0415 58.4987 78.357 58.9795C81.7347 59.7888 85.1626 59.3608 88.5708 59.3705C89.2751 59.3726 90.0272 59.2698 90.5928 58.7173C91.8408 58.349 91.0904 57.5629 90.8793 57.0035C90.3282 55.5416 90.5333 53.4508 89.2591 52.7099C87.9586 51.9539 86.0689 52.2355 84.4417 52.0261C81.3694 51.6303 78.7737 52.5958 76.4449 54.5993C75.943 55.0311 75.9344 55.1738 76.3099 55.5594C76.5729 56.2771 76.8214 57.0029 77.4106 57.5381V57.5381ZM97.6791 65.6444C97.7074 65.5243 97.7042 65.4043 97.671 65.2853C97.5826 65.0586 97.4975 64.8303 97.2538 64.7188C96.1482 65.2023 95.4209 65.9292 95.4627 67.2565C95.4798 67.8073 95.1295 68.2618 94.7412 68.6462C94.1332 69.2482 94.3427 69.6623 95.04 69.9471C96.1124 70.3854 97.1707 70.8732 98.2725 71.2221C100.014 71.774 101.311 70.9357 102.599 69.7317C100.842 69.0064 99.2286 68.3786 97.6501 67.6727C96.8815 67.3287 96.2286 66.8279 97.2972 66.0251C97.4198 65.8937 97.5843 65.8038 97.6791 65.6444V65.6444ZM91.0652 59.9261C87.6297 59.1955 84.1691 59.5761 80.7148 59.7684C80.3677 59.7878 80.0673 59.9477 79.8391 60.2223C80.5643 61.3584 81.71 62.1569 82.3372 63.377C82.634 63.9542 82.9869 63.5569 83.2671 63.3377C85.7947 61.3589 88.7481 60.8851 91.8376 60.8269C92.5826 60.8129 93.3989 60.9583 94.107 60.2745C93.6614 60.2164 93.2907 60.1679 92.9195 60.12C92.3223 59.8734 91.6865 60.0586 91.0657 59.9267L91.0652 59.9261ZM78.1481 65.106C75.9782 62.3197 74.399 60.944 73.4106 60.9788C73.3779 61.2975 73.6644 61.3762 73.8433 61.5022C76.6232 63.4648 78.131 66.0671 77.9076 69.554C77.8889 69.8491 77.8509 70.2206 78.176 70.3149C79.4872 70.695 80.6966 71.4267 82.3249 71.6502C81.1642 69.6736 79.6822 68.2101 78.9403 66.2905C78.8 65.8119 78.6864 65.316 78.1481 65.1054V65.106ZM94.3684 55.4824C92.8429 55.2966 92.5333 55.6843 93.0636 57.1176C93.5708 58.4885 96.0475 59.8637 97.5757 59.6461C98.3314 59.5385 98.137 59.1459 97.8697 58.7421C97.1643 57.676 96.1531 56.9012 95.2586 56.0149C95.1215 55.5674 94.6324 55.7144 94.3678 55.4824H94.3684ZM73.861 71.4219C73.1128 71.4585 72.1417 71.234 71.8417 72.1579C71.5546 73.0421 71.8042 73.9483 72.4106 74.7403C73.0913 75.6293 73.6393 75.6169 74.2868 74.7043C74.9853 73.7194 75.6205 72.7136 76.0994 71.4149C75.2799 71.4149 74.5691 71.388 73.861 71.4224V71.4219ZM90.1712 72.0519C89.7508 72.4579 89.0336 72.9452 89.416 73.5816C89.7395 74.12 90.5349 73.9957 91.1638 73.9477C91.6779 73.9084 92.0716 73.6241 92.423 73.2903C93.2259 72.5273 94.0084 71.7439 94.8863 70.884C93.1081 69.911 92.1257 70.1657 90.1712 72.0524V72.0519ZM68.3425 74.0861C67.3645 75.3509 67.5166 75.8339 69.0088 76.3616C69.4073 76.5027 69.8572 76.5118 70.2857 76.55C71.2391 76.6357 71.6682 76.2259 71.3864 75.2626C71.0892 74.245 70.7512 73.2386 70.3318 71.914C69.56 72.7486 68.8937 73.3727 68.3425 74.0856V74.0861ZM71.4673 57.1903C71.6285 57.2253 71.7892 57.2608 71.9505 57.2958C73.3141 57.4498 74.6773 57.4999 76.0394 57.2732L76.0753 57.2495C76.2868 55.9766 75.1663 56.1393 74.5172 55.7941C73.4909 55.4075 72.4813 54.9504 71.3564 54.9391C70.7742 54.9331 70.1561 54.9073 69.9344 55.6337C69.6896 56.4349 70.6168 56.2206 70.823 56.6373C70.9081 56.9738 71.1561 57.1192 71.4673 57.1914V57.1903ZM96.7433 75.4268C97.1424 74.5325 97.8258 73.84 98.4327 73.0927C98.6367 72.8407 98.9469 72.5467 98.6962 72.1994C98.4321 71.8338 98.0438 71.8947 97.656 72.067C96.5178 72.5736 95.7278 73.4884 94.9308 74.3914C94.6517 74.7075 94.1863 75.0564 94.3866 75.492C94.6019 75.9604 95.1841 75.9507 95.6651 75.9685C96.1199 75.9766 96.5237 75.9179 96.7428 75.4268H96.7433ZM66.5894 74.2541C67.1218 74.5115 67.4512 73.972 67.7672 73.636C68.0961 73.2865 68.3827 72.8908 68.6489 72.4896C68.9644 72.0142 69.3179 71.5678 68.8128 70.9378C68.4046 70.429 67.9445 69.8798 67.3527 69.89C66.6237 69.9029 66.7389 70.7596 66.5428 71.2647C66.3361 71.7967 66.2402 72.3717 66.1979 72.5354C66.1647 73.4378 66.1079 74.0204 66.5905 74.2536L66.5894 74.2541ZM72.8471 69.3225C73.2975 70.0478 74.4566 69.6693 75.3013 69.6606C76.3827 69.6499 76.3833 68.9827 75.8862 68.3215C75.3136 67.5607 74.6034 66.9038 73.8219 66.0606C73.334 67.3109 72.161 68.2165 72.8471 69.3225V69.3225ZM69.4668 66.4946C69.0624 66.7461 68.3612 67.0476 68.9595 67.6975C69.3955 68.1713 69.9537 68.8358 70.681 68.286C71.598 67.5936 72.3361 66.71 72.6307 65.4382C71.3666 65.3741 70.3993 65.9142 69.4668 66.4941V66.4946ZM107.062 75.6271C106.859 75.8743 106.667 76.0391 106.34 75.8937C106.142 76.1171 106.137 76.3524 106.295 76.5985C105.713 77.4686 106.094 77.838 106.988 77.9182C108.322 78.0383 108.899 77.4632 108.992 75.9411C108.414 74.8807 107.77 74.776 107.062 75.6271H107.062ZM99.8842 63.5924C99.5548 64.1745 98.9024 64.0135 98.4161 64.2337C98.3154 64.196 98.2302 64.2186 98.1606 64.3004C97.753 64.5611 97.2532 64.7737 97.581 65.4183C97.8821 65.6433 98.1879 65.5943 98.4953 65.4339C99.0647 65.226 99.6341 65.0182 100.203 64.8104C100.601 64.1669 101.265 64.3069 101.86 64.2439C102.181 64.0377 102.502 63.8315 102.822 63.6252C102.615 63.2392 102.973 62.5392 102.187 62.474L99.8837 63.5924H99.8842ZM103.396 81.7449C103.131 82.1482 102.902 82.5731 103.406 82.9801C104.103 82.8606 105.216 83.4523 105.378 82.4325C105.524 81.5161 105.169 80.436 104 80.0623C103.999 80.6955 103.735 81.2302 103.396 81.7449ZM80.2231 65.3612C80.3078 65.3364 80.3651 65.3655 80.3961 65.4484C80.8884 65.6573 81.2981 65.6207 81.5338 65.0645C80.5541 63.65 79.1449 62.8547 77.3849 62.0621C78.0094 62.9705 78.4641 63.6328 78.9194 64.2951C79.1856 64.8583 79.5504 65.2993 80.2237 65.3617L80.2231 65.3612ZM106.538 74.5314C105.988 74.1836 105.532 74.8803 105.071 75.1991C104.992 75.2535 104.907 75.2982 104.825 75.3472C104.575 75.9222 103.858 76.5506 104.419 77.1122C105.045 77.7378 105.427 76.8413 105.891 76.5306C105.974 76.4752 106.157 76.5721 106.295 76.5985C106.31 76.3637 106.325 76.129 106.34 75.8937C106.084 75.3703 107.069 74.8669 106.538 74.5314V74.5314ZM102.766 81.122C103.066 80.6589 103.366 80.1958 103.666 79.7322C103.664 79.2606 103.997 78.7937 103.687 78.3172C102.298 78.8686 102.696 80.0456 102.766 81.122ZM101.861 64.2444C101.116 63.867 100.309 63.3054 100.204 64.8109C100.789 64.7194 101.391 64.6763 101.861 64.2444ZM66.7046 56.6475C66.5471 56.6384 66.2793 56.5555 66.2616 56.8091C66.2434 57.0735 66.471 57.1855 66.7212 57.2097C66.9172 56.8015 67.3521 57.0934 67.6216 56.8995C67.3655 56.6373 67.0238 56.6659 66.7046 56.647V56.6475ZM98.4161 64.2342C98.9994 64.2369 99.6496 64.3936 99.8842 63.5929C99.3946 63.8067 98.9056 64.0205 98.4161 64.2342ZM68.6425 54.2698C68.3795 54.6704 68.3945 55.0069 68.6821 55.7758C68.7501 55.0715 69.2006 54.763 68.6425 54.2698ZM97.2538 64.7194C97.2806 64.9913 97.317 65.2589 97.581 65.4188C97.536 64.9218 97.9694 64.6747 98.1606 64.301C97.7851 64.2811 97.5125 64.4851 97.2538 64.7194V64.7194ZM97.2972 66.0256L98.4953 65.4344L97.581 65.4183L97.2972 66.0251V66.0256Z" fill="white"/>
</svg>
