<svg width="160" height="160" fill="none" xmlns="http://www.w3.org/2000/svg"><path d="M145.068 40.7c-14.457-3.728-28.919-7.438-43.379-11.157a60086.981 60086.981 0 0 1-60.079-15.48c-.548-.141-.705-.073-.85.496-4.351 16.991-8.73 33.975-13.096 50.964-4.537 17.648-9.062 35.299-13.61 52.944-.13.502-.044.623.445.748 14.61 3.742 29.216 7.501 43.82 11.259a86744.407 86744.407 0 0 1 60.006 15.462c.532.137.702.087.85-.489 8.871-34.566 17.762-69.125 26.652-103.686l.173-.695c-.176-.332-.612-.283-.932-.365ZM92.746 72.996c-1.684 6.416-3.334 12.842-5.001 19.263-.062.243.041.692-.427.55l-7.528-1.947c-4.003-1.036-8-2.088-12.012-3.09-.595-.149-.661-.356-.522-.892 1.67-6.396 3.325-12.794 4.963-19.197.131-.51.275-.608.801-.471 6.413 1.681 12.832 3.34 19.255 4.983.51.13.612.27.472.8h-.001Z" fill="#fff"/></svg>
