<svg width="160" height="160" viewBox="0 0 160 160" fill="none" xmlns="http://www.w3.org/2000/svg">
<path d="M76.0622 96.1241H53.7654C53.4814 94.8463 53.1975 93.5753 52.9135 92.2975C51.94 87.9166 50.9665 83.5424 49.9862 79.1682C49.4385 76.6871 48.8842 74.2127 48.3298 71.7315C47.3292 67.2289 46.3219 62.7262 45.3348 58.2169C45.0779 57.0405 44.5032 56.0602 43.6582 55.2219C42.1911 53.7548 40.7308 52.2877 39.1893 50.7598H62.3515C62.2771 50.9424 62.2027 51.1114 62.1148 51.2804C61.9053 51.6996 61.6957 52.1187 61.4861 52.5446C61.1143 53.2816 60.7424 54.0185 60.3841 54.7621C59.8027 55.9723 59.6607 57.2568 59.992 58.5549C61.4117 64.2609 62.845 69.9669 64.2783 75.673C64.9949 78.526 65.7115 81.379 66.4282 84.232C66.4417 84.2928 66.462 84.3537 66.4823 84.4145C66.5025 84.4754 66.5161 84.5362 66.5363 84.5971C66.5904 84.5836 66.631 84.5836 66.6716 84.5836C68.5916 79.6415 70.5184 74.6994 72.4452 69.7438C74.8993 63.4294 77.367 57.0878 79.8549 50.699C84.2832 62.0907 88.6573 73.3405 93.0991 84.7458C93.1397 84.6174 93.1735 84.5159 93.2073 84.4213C93.2546 84.2726 93.2952 84.1644 93.3222 84.0562C95.0935 76.9981 96.858 69.9331 98.6226 62.875C98.9741 61.4688 99.3257 60.0625 99.6773 58.6563C100.015 57.2839 99.9139 55.9723 99.2919 54.6945C98.8119 53.7075 98.3251 52.7272 97.8248 51.7266C97.6626 51.4021 97.5003 51.0776 97.3381 50.7463H120.473C120.406 50.8139 120.351 50.8815 120.291 50.9491C120.216 51.0302 120.149 51.1114 120.081 51.1857C119.784 51.49 119.486 51.7942 119.189 52.1052C118.452 52.8759 117.708 53.6399 116.903 54.343C115.247 55.7762 114.47 57.5678 114.017 59.6704C112.597 66.2486 111.13 72.82 109.656 79.3846C109.156 81.6291 108.655 83.8669 108.155 86.1115C107.79 87.7611 107.418 89.4107 107.053 91.0671C106.675 92.7572 106.303 94.4406 105.931 96.1308H83.6274C82.4104 92.7437 81.2003 89.3634 79.9834 85.9763C79.9698 85.9357 79.9428 85.8884 79.909 85.8208C79.8887 85.787 79.8684 85.7396 79.8346 85.6923C79.6656 86.1588 79.5033 86.605 79.3411 87.0444C79.1248 87.6259 78.9219 88.1938 78.7191 88.7617C77.8402 91.2158 76.9546 93.6767 76.0757 96.1308L76.0622 96.1241ZM12.0249 96.1241H24.0927C23.1124 92.7775 22.4296 89.3566 22.0577 85.8681C21.6115 81.6291 21.6115 77.3969 22.1118 73.1647C23.2476 63.4496 26.6145 54.5593 32.2529 46.5614C33.0574 45.4121 33.4292 44.2898 33.3887 42.8904C33.3211 40.6255 33.3346 38.3607 33.3481 36.0621C33.3481 35.1359 33.3616 34.2096 33.3616 33.2699H33.9971C34.8625 33.2699 35.7346 33.2699 36.6 33.2699C39.2029 33.2699 41.799 33.2699 44.4018 33.2564C44.7737 33.2564 45.2064 33.1212 45.5038 32.9048C50.3242 29.4569 55.5097 26.6715 61.1345 24.7582C64.9138 23.4601 68.7809 22.5677 72.7494 22.081C76.941 21.5604 81.1394 21.486 85.3311 21.8917C95.249 22.8449 104.362 26.1171 112.55 31.7961C114.078 32.8575 115.545 33.3916 117.404 33.3037C119.452 33.2091 121.521 33.2293 123.61 33.2496C124.53 33.2564 125.449 33.2699 126.375 33.2699V33.9054C126.375 34.7708 126.375 35.6429 126.375 36.5083C126.375 39.1111 126.375 41.7073 126.389 44.3101C126.389 44.682 126.524 45.1146 126.74 45.4121C130.067 50.0635 132.771 55.0326 134.684 60.4344C137.125 67.3167 138.24 74.4087 137.977 81.7035C137.801 86.6996 137.03 91.4997 135.678 96.1038H147.665C148.523 92.5409 149.105 88.8834 149.402 85.1244C149.909 78.5936 149.51 72.1304 148.192 65.7145C146.427 57.1419 143.148 49.2049 138.382 41.8763C138.105 41.4503 137.977 41.0379 137.977 40.5309C137.99 34.4666 137.99 28.3955 137.99 22.3311V21.6077H137.233C135.698 21.6077 134.17 21.6077 132.636 21.6077C128.045 21.6077 123.455 21.6077 118.857 21.5942C118.526 21.5942 118.175 21.4657 117.891 21.3102C117.14 20.8776 116.396 20.4381 115.653 19.9919C114.233 19.1468 112.813 18.3017 111.353 17.5513C102.591 13.0757 93.2816 10.6013 83.4381 10.0943C77.6644 9.79679 71.9517 10.2024 66.2794 11.3247C57.4635 13.0757 49.3101 16.429 41.7787 21.3305C41.5015 21.5131 41.1297 21.6145 40.8119 21.6145C34.6664 21.628 28.5277 21.628 22.3823 21.628H21.6927V22.4122C21.6927 23.9402 21.6927 25.4681 21.6927 26.9892C21.6927 31.5662 21.6927 36.15 21.6792 40.727C21.6792 41.065 21.5507 41.4503 21.3817 41.7478C20.9355 42.5321 20.4757 43.3028 20.016 44.0735C19.2318 45.3918 18.4408 46.7102 17.7377 48.0758C13.181 56.8985 10.6795 66.2891 10.1657 76.2071C9.86822 81.9807 10.2806 87.6935 11.4097 93.3657C11.5922 94.2919 11.8085 95.2114 12.0249 96.1241Z" fill="#FFF"/>
<path fill-rule="evenodd" clip-rule="evenodd" d="M4.72674 120.066C6.20281 120.829 7.86132 121.21 9.70226 121.21C11.3939 121.21 12.9032 120.912 14.23 120.315C15.5568 119.718 16.6514 118.855 17.5138 117.728L13.8071 114.419C12.729 115.779 11.4603 116.459 10.0008 116.459C8.7735 116.459 7.78669 116.069 7.04036 115.29C6.29403 114.493 5.92087 113.432 5.92087 112.105C5.92087 110.778 6.29403 109.725 7.04036 108.946C7.78669 108.15 8.7735 107.752 10.0008 107.752C11.4603 107.752 12.729 108.432 13.8071 109.792L17.5138 106.483C16.6514 105.355 15.5568 104.493 14.23 103.896C12.9032 103.299 11.3939 103 9.70226 103C7.86132 103 6.20281 103.39 4.72674 104.169C3.25067 104.932 2.08972 106.01 1.24388 107.403C0.414627 108.78 0 110.347 0 112.105C0 113.863 0.414627 115.439 1.24388 116.832C2.08972 118.209 3.25067 119.287 4.72674 120.066ZM77.3674 120.066C78.8434 120.829 80.5019 121.21 82.3429 121.21C84.0346 121.21 85.5438 120.912 86.8706 120.315C88.1974 119.718 89.292 118.855 90.1544 117.728L86.4477 114.419C85.3697 115.779 84.1009 116.459 82.6414 116.459C81.4141 116.459 80.4273 116.069 79.681 115.29C78.9347 114.493 78.5615 113.432 78.5615 112.105C78.5615 110.778 78.9347 109.725 79.681 108.946C80.4273 108.15 81.4141 107.752 82.6414 107.752C84.1009 107.752 85.3697 108.432 86.4477 109.792L90.1544 106.483C89.292 105.355 88.1974 104.493 86.8706 103.896C85.5438 103.299 84.0346 103 82.3429 103C80.5019 103 78.8434 103.39 77.3674 104.169C75.8913 104.932 74.7303 106.01 73.8845 107.403C73.0553 108.78 72.6406 110.347 72.6406 112.105C72.6406 113.863 73.0553 115.439 73.8845 116.832C74.7303 118.209 75.8913 119.287 77.3674 120.066ZM129.246 121.21C127.803 121.21 126.393 121.053 125.017 120.738C123.657 120.406 122.537 119.967 121.658 119.419L123.549 115.14C124.378 115.621 125.307 116.011 126.335 116.31C127.364 116.591 128.35 116.732 129.296 116.732C130.108 116.732 130.689 116.658 131.037 116.509C131.385 116.343 131.56 116.102 131.56 115.787C131.56 115.422 131.327 115.149 130.863 114.966C130.415 114.784 129.669 114.585 128.624 114.369C127.281 114.087 126.161 113.789 125.266 113.473C124.37 113.142 123.59 112.611 122.927 111.881C122.264 111.135 121.932 110.132 121.932 108.871C121.932 107.776 122.239 106.781 122.852 105.886C123.466 104.99 124.378 104.285 125.589 103.771C126.816 103.257 128.301 103 130.042 103C131.236 103 132.405 103.133 133.55 103.398C134.711 103.647 135.731 104.02 136.61 104.518L134.843 108.772C133.135 107.909 131.518 107.478 129.992 107.478C128.483 107.478 127.728 107.843 127.728 108.573C127.728 108.921 127.952 109.186 128.4 109.369C128.848 109.535 129.586 109.717 130.614 109.916C131.941 110.165 133.061 110.455 133.973 110.787C134.885 111.102 135.673 111.624 136.336 112.354C137.016 113.084 137.356 114.079 137.356 115.339C137.356 116.434 137.049 117.429 136.436 118.325C135.822 119.204 134.902 119.908 133.674 120.439C132.464 120.953 130.987 121.21 129.246 121.21ZM154.652 120.812L154.602 112.876L150.821 119.245H148.234L144.452 113.15V120.812H139.104V103.398H143.93L149.602 112.677L155.125 103.398H159.951L160.001 120.812H154.652ZM115.803 120.812V114.493L122.371 103.398H116.699L113.116 109.418L109.559 103.398H103.364L109.932 114.419V120.812H115.803ZM91.8496 103.398H97.7207V116.26H105.582V120.812H91.8496V103.398ZM65.4038 117.777H58.7864L57.6171 120.812H51.6465L59.259 103.398H65.0306L72.6432 120.812H66.573L65.4038 117.777ZM63.7868 113.548L62.0951 109.17L60.4034 113.548H63.7868ZM36.8156 107.951H41.9155V120.812H47.7866V107.951H52.8866V103.398H36.8156V107.951ZM30.8334 117.777H24.2159L23.0467 120.812H17.076L24.6886 103.398H30.4602L38.0727 120.812H32.0026L30.8334 117.777ZM29.2163 113.548L27.5246 109.17L25.833 113.548H29.2163Z" fill="#FFF"/>
</svg>
