<svg width="160" height="160" viewBox="0 0 160 160" fill="none" xmlns="http://www.w3.org/2000/svg">
<path d="M21.3629 103.857L89.845 67.6408L81.1245 87.5345L129.344 76.3123L59.0666 118.65L68.0437 97.9912L21.3629 103.857V103.857ZM49.8329 125.918L58.2969 102.836L36.8456 105.729L29.3137 125.281L7 149L49.8329 125.918ZM99.1637 98.4154L109.252 125.918L152 149L127.036 121.54L115.415 88.6616L99.1645 98.4154H99.1637ZM93.9487 38.0542L106.261 10L29.3145 51.5726L62.6579 45.4516L44.1905 86.2588L64.2977 76.0031L79.3292 44.4311L87.2409 65.2654L94.2053 61.5198L90.1023 72.7998L93.1797 80.9032L110.877 78.0975L93.9495 38.055L93.9487 38.0542Z" fill="white"/>
</svg>
