<svg width="160" height="160" fill="none" xmlns="http://www.w3.org/2000/svg"><path d="M125.17 134.97c.61.63 1.26 1.24 1.97 1.94-6.3 0-12.3.03-18.3-.01-9.9-.07-19.79-.16-29.68-.29-2.48-.03-5.02.03-7.42-.48a15.64 15.64 0 0 1-7-3.3c-3.7-3.16-7.42-6.29-10.95-9.63a1255.15 1255.15 0 0 1-19.97-19.38c-2.37-2.35-4.83-4.65-6.54-7.64a18.97 18.97 0 0 1-2.38-9.13c-.38-16.2-.61-32.39-.9-48.58v-2.3l.37-.24c.59.54 1.18 1.06 1.76 1.61 4.9 4.7 9.8 9.42 14.74 14.1.68.66.96 1.35.98 2.32.12 11.68.3 23.36.45 35.04.04 2.8.05 5.59.15 8.38.02.52.3 1.15.66 1.53 3.42 3.5 6.87 6.97 10.34 10.43 1.62 1.63 3.27 3.23 4.92 4.84.24.22.51.4.99.57-.02-15.05-.65-30.07-.65-45.1l.44-.2c1.15 1.1 2.31 2.17 3.44 3.28l16.2 15.98c.34.35.73.65 1.09.98.54.52 1 .4 1.52-.1l19-17.9c.3-.28.62-.55 1.16-1.03.06.72.12 1.13.12 1.54.14 12.47.29 24.94.38 37.4 0 1.08.33 1.88 1.05 2.63 3.88 4 7.73 8.03 11.61 12.04 3.47 3.58 6.97 7.14 10.45 10.7ZM136 119.03c-.08-9.53-.13-19.05-.23-28.57-.08-7.07-.17-14.13-.35-21.2-.1-3.7-1.77-6.78-4.3-9.37-2.28-2.34-4.68-4.58-7.01-6.89L99.96 29c-3.96-3.93-8.62-6.04-14.3-6-15.94.1-31.88.06-47.81.08-.36 0-.72.08-1.38.16 14.27 14.93 28.95 29.03 43.5 43.17l21.9-21.74c.35.16.52.19.61.28a3393.9 3393.9 0 0 1 15.16 15.35c.34.35.56.94.6 1.44.14 1.41.18 2.84.19 4.26.12 12.51.23 25.03.32 37.55.01.97.19 1.73 1.16 2.16.3.13.57.38.81.62 4.02 3.9 8.02 7.82 12.05 11.72.99.95 2.04 1.83 3.23 2.9v-1.92Zm-110.67-7.59.71 25.16c.6.1 1.2.3 1.79.3 6.64.02 13.28.01 19.91 0 .39 0 .78-.09 1.16-.08.65 0 1.3.06 1.94.1l.73.08.15-.27-26.03-25.5-.36.21Zm109.68-88.37h-24.72l-.28.47c8.35 8.28 16.7 16.55 25.1 24.9.51-1.62.36-24.45-.1-25.37Z" fill="#fff"/></svg>