<svg width="160" height="160" fill="none" xmlns="http://www.w3.org/2000/svg"><path d="m34.42 79.4.5-.14c-.16.08-.33.13-.5.15Zm-1.47-3.14c-.1.05-.21.1-.32.17.1-.04.21-.1.32-.17ZM80.57 98.1a6.95 6.95 0 1 0 0 13.9 6.95 6.95 0 0 0 0-13.9Zm9.95-2.6 44.55 10.54-44.75 9.34L80.57 143l-10.94-28.02-45.16-9.94 46.15-9.34L80.57 18l9.94 77.5Zm1.54 9.54a11.48 11.48 0 1 0-22.97.02 11.48 11.48 0 0 0 22.97-.02ZM15.92 69.07l-7.76 1.4s4.57 4.17 11.74 3.17l-3.98-4.57ZM27.25 98.1s-1.39 1.97-1.39 2.57c0 .6 1 1.99 1 1.99l22.48-4.56s-4.58-12.34-5.97-12.34c-1.4 0-7.36 4.37-8.76 2.98-1.39-1.39-1.61-5.57-2.39-5.76-.9-.22.43-.66-.63-1.34 0 0-.43.13-1.02-.86-.6-1-.93-3.56-2.52-3.76a10.1 10.1 0 0 1-1.82-.5c-2.45-.95-2.93-2.27-1.92-3.36l.36-.36a14.08 14.08 0 0 0 3.78-8.5c-2.59-4.57-4.58-10.53-2-13.7-.95 6.24 4.78 12.32 7.97 14.7 1.69 1.69.36 9.6-1.47 10.96 4.44-2.37 4.25-1.42 4.25-1.42s-.66 3.63-2.28 4.42c9.06-2.67 14.81-9 14.81-9s2.59 6.37 16.72.8c-9.35-5.17-9.75-8.74-9.75-8.74s9.34 1.39 14.71-2.39l3.19-23.37s-15.32-23.13-44.96-7.83c-29.64 15.3-7.56 46.1-7.56 46.1S2.98 74.46 0 78.14c9.95 3.66 11.74 3.66 15.72 3.26 3.97-.4 11.93-.89 11.93-.89v2.49s-15.12-.2-18.5 2.78c5.37 2.38 8.55 2.78 10.74 1.98 2.2-.8 8.56-1.78 8.56-1.78v2.16s-12.53 1.41-13.13 3.4c7.55 1.6 10.54 0 10.54 0l-3.78 4.57 5.17 2Zm113.86-10.35c2.19.8 5.37.4 10.74-1.99-3.38-2.98-18.5-2.78-18.5-2.78v-1.54l.68-.9c2.01.13 7.98.53 11.25.85 3.98.4 5.77.4 15.72-3.27-2.64-3.24-19.3-2.75-23.15-2.6l2.2-2.87s11.93-13.12 3.58-29.02c-8.36-15.9-34.61-30.8-57.5-6.95l8.36 55.64s5.77-14.2 13.73-14.2c2.19 0-1.79 4.07-.2 10.62 3.65-8.24 13.33-15.3 14.12-16.29-3.38-4.57 3.19-15.5 3.19-15.5s-3.19 12.92 0 17.89c1.79-10.14 8.75-10.54 8.75-10.54s-3.38 5.97 1.6 10.74c-4.58 3.08-4.58 4.57-4.58 5.36 0 .8-3.26 1-2.92 1.6.33.59-1.26 3.77-1.66 5.16-.4 1.39-1.59 1.59-5.77 0-4.12-1.57-9.2 8.27-8.58 10.44l-.5.5 22.48 4.56s1-1.4 1-2c0-.59-1.4-2.56-1.4-2.56l5.17-2-3.78-4.57s2.99 1.59 10.55 0c-.6-1.99-13.13-3.4-13.13-3.4v-2.17s6.36 1 8.55 1.8ZM28.25 114.58c4.37 4.77 7.16 6.36 17.7 6.36-2.58-7.35-13.13-7.35-17.7-6.36Zm22.28 12.12c-2.2-1.59-9.15-7.55-15.92-1.98 7.96 1.59 8.36 5.16 15.92 1.98Zm-4.58-12.58c-2.11-.8 1 9.77 10.15 13.86-2.59-8.43-2.2-11.46-10.15-13.86Zm13.33 16.76s-10.74-6.16-16.71 2.58c7.96-1.2 11.54 3.58 16.7-2.58Zm-3.19-14.36c-1.19.25-2.18 14.36 9.95 13.96-2.78-4.17-4.58-11.42-9.95-13.96Zm14.53 17.59c-4.58-3.63-15.52-1.64-17.9 5.12 9.14-.4 16.7-1.9 17.9-5.12Zm3-.85c-1.41-5.16-3-10.93-9.17-14.3-.4 2.98 1.41 12.32 9.16 14.3Zm-6.98 5.97s2.5 1.55 9.15 0l-1.2-3.46c-2.38.08-7.95 3.46-7.95 3.46Zm48.76-18.29c10.54 0 13.33-1.59 17.7-6.36-4.57-.99-15.11-.99-17.7 6.36Zm-4.58 5.77c7.56 3.18 7.96-.4 15.92-1.99-6.77-5.56-13.73.4-15.92 1.99Zm4.58-12.59c-7.96 2.4-7.56 5.43-10.15 13.86 9.16-4.09 12.27-14.66 10.15-13.86Zm-13.33 16.76c5.18 6.16 8.76 1.4 16.71 2.58-5.97-8.74-16.7-2.58-16.7-2.58Zm3.19-14.36c-5.37 2.54-7.17 9.79-9.95 13.96 12.13.4 11.14-13.71 9.95-13.96Zm-14.53 17.59c1.2 3.23 8.76 4.72 17.9 5.12-2.38-6.76-13.32-8.75-17.9-5.12Zm-2.99-.85c7.75-1.98 9.56-11.32 9.16-14.3-6.17 3.37-7.76 9.14-9.16 14.3Zm-2.18 5.97c6.66 1.56 9.15 0 9.15 0s-5.57-3.38-7.95-3.45l-1.2 3.45Z" fill="#ffffff"/></svg>
