<svg width="160" height="160" fill="none" xmlns="http://www.w3.org/2000/svg"><path d="M39.05 92.33c8.02 8.6 11.7 34.41 8.62 56.53-1.23-8.29-3.7-12.9-6.47-20.59-2.77-7.68-25.57-33.8-28.04-37.48C10.7 87.1 7 66.21 7 66.21s4.32 4 8.93 2.45C42.75 54.86 51.7 22.9 38.44 6 49.83 5.7 61.82 21.91 63.7 33.9c-.07-.5-.43-3.68 4.02-5.15 4.94 22.73-14.48 28.56-21.56 30.72-7.09 2.15-15.1 12.6-18.17 17.97-3.08 5.37 3.08 6.3 11.1 14.9h-.03Zm91.2-58.16c-18.07 2.46-38.4 3.7-41.7 8 7.38-9.24 18.9-10.45 18.9-10.45s2.06-1.64-2.05-1.64c-4.39 0-26.28 8-33.27 14.75-7 6.76-7.8 10.65 0 6.55 1.84-1.23 2.46 6.14-10.89 5.95-13.35-.2-25.06 15.97-24.44 21.7.62 5.74 9.86 15.36 11.7 15.78 1.85.4 3.7.2 6.78-3.48 3.08-3.69 8.42-7.78 8.83-11.06.41-3.28-3.08-8.6-5.34-10.04-2.26-1.43-8.02-.41-13.15 6.35.18-6.14 6.37-12.7 9.45-12.7 3.08 0 13.56 9.02 18.07 16.19-7.6 6.35-25.47 16.18-20.33 73.93 7.4-32.77 26.9-55.5 34.51-62.88 1.44-14.33 6.37-23.35 6.37-23.35s-5.13 0-9.86 1.23c1.24-7.78 24.23-13.3 34.51-13.51-8.62-5.12-29.78.81-33.06 2.04 4.93-7.57 28.14-14.54 33.06-13.3 4.93 1.23 0 5.11 0 5.11s12.73-4.7 18.08-8.4c5.34-3.68 16.33-6.14 16.58-22.53-3.04 4.71-4.67 13.31-22.75 15.78v-.02Z" fill="#ffffff"/></svg>
