<svg xmlns="http://www.w3.org/2000/svg" width="160" height="160" fill="none"><path fill="#FFF" d="M68.5 42.5c-4.12-9.17-7.56-4.13-7.56-2.75 0 1.37.16 11.44-1.37 24.76-1.51 13.04 1.14 52.73 2.29 63.51C45.58 87.9 46.73 64.97 46.27 52.36c-.46-12.61-4.58-22.24-14.21-34.62C26.79 11.09 28.16 1 28.16 1c8.48 11 11.7 17.43 19.26 19.72 7.56 2.3 19.25 8.25 21.08 21.78ZM80.02 9.66v-.63s-4.46 37.83-9.96 42.41c1.15 12.15 1.6 52.28 2.75 58 1.13 5.64 6.43 40.06 7.17 49.73v.83l.03-.42.01.08v-.15c.74-9.67 6.04-44.09 7.17-49.72 1.15-5.73 1.6-45.85 2.75-58-5.22-4.36-9.5-38.64-9.92-42.13ZM131.84 1c-8.48 11-11.7 17.43-19.26 19.72-7.56 2.3-19.25 8.25-21.09 21.78 4.13-9.17 7.57-4.13 7.57-2.75 0 1.37-.16 11.44 1.37 24.76 1.51 13.04-1.14 52.73-2.29 63.51 16.28-40.12 15.13-63.05 15.59-75.66.46-12.61 4.58-22.24 14.21-34.62 5.28-6.65 3.9-16.74 3.9-16.74Z"/></svg>