<svg width="160" height="160" viewBox="0 0 160 160" fill="none" xmlns="http://www.w3.org/2000/svg">
<path d="M51.8496 123.327C50.8949 123.291 49.836 123.551 49.0964 123.649C39.7529 124.878 30.4133 126.132 21.0777 127.41C20.7498 127.454 20.4213 127.485 20.0923 127.502C20.0296 127.506 19.9989 127.476 20 127.413C20.0558 124.974 20.1059 123.297 20.1503 122.382C20.7276 110.34 21.129 98.2865 21.7472 86.2467C22.1315 78.7735 22.4185 71.3669 22.7754 63.8117C22.879 61.6061 22.8113 59.3698 22.5722 57.1027C21.8161 49.939 20.9872 41.693 20.0854 32.3647C20.0319 31.813 20.0052 31.368 20.0052 31.0294C20.0052 30.9679 20.0359 30.9371 20.0974 30.9371C34.0763 30.9496 44.5334 30.9508 51.4688 30.9405C51.6373 30.9405 51.8172 30.9172 52.0085 30.8704C52.07 30.8556 52.1007 30.8163 52.1007 30.7525L52.128 20.0821C52.128 20.0285 52.1553 20.0017 52.21 20.0017L106.647 20C106.697 20 106.721 20.0251 106.719 20.0752C106.58 23.6656 106.164 27.2663 105.844 30.8653C105.843 30.8753 105.845 30.8854 105.848 30.8949C105.851 30.9044 105.856 30.9131 105.863 30.9206C105.87 30.928 105.878 30.9339 105.887 30.9379C105.896 30.9419 105.906 30.944 105.916 30.9439H138.715C138.752 30.9438 138.789 30.9517 138.823 30.9671C138.857 30.9824 138.887 31.0049 138.912 31.0329C138.936 31.061 138.954 31.094 138.965 31.1296C138.975 31.1653 138.978 31.2029 138.973 31.2397C137.784 39.6806 136.876 48.1762 135.834 56.636C135.726 57.5079 135.697 58.5303 135.737 59.4245C135.863 62.3094 136.004 65.1937 136.16 68.0774C136.829 80.4718 137.47 92.8679 138.085 105.266C138.304 109.643 138.601 114.016 138.785 118.395C138.83 119.436 138.901 120.489 138.999 121.552C139.003 121.595 138.997 121.638 138.983 121.678C138.968 121.718 138.946 121.754 138.916 121.785C138.886 121.815 138.849 121.838 138.81 121.853C138.77 121.868 138.727 121.874 138.685 121.87C137.86 121.805 136.995 121.823 136.217 121.763C134.957 121.666 133.696 121.59 132.433 121.535C124.128 121.176 116.099 120.643 107.938 120.219C101.582 119.891 95.2272 119.557 88.8726 119.219C88.482 119.198 87.628 119.185 86.3107 119.179C86.2412 119.178 86.2065 119.213 86.2065 119.284L86.1433 133.522C86.1434 133.555 86.1319 133.586 86.111 133.612C86.0901 133.637 86.061 133.653 86.0288 133.659L52.2134 139.997C52.1497 140.009 52.1166 139.983 52.1144 139.918C52.1041 139.731 52.1024 139.435 52.1092 139.029C52.1548 136.158 52.1474 131.238 52.087 124.269C52.0836 123.987 52.0187 123.703 51.9726 123.433C51.9601 123.365 51.9191 123.329 51.8496 123.327ZM81.0844 49.108C81.0901 49.0727 81.1081 49.0406 81.1354 49.0174C81.1626 48.9942 81.1972 48.9815 81.233 48.9815H98.8247C98.8466 48.9815 98.8678 48.9727 98.8842 48.957C98.9006 48.9412 98.911 48.9195 98.9135 48.896L101.095 25.413C101.096 25.3933 101.094 25.3736 101.088 25.3549C101.081 25.3363 101.072 25.3192 101.059 25.3047C101.046 25.2902 101.03 25.2787 101.012 25.2708C100.994 25.263 100.975 25.259 100.956 25.2591C86.6984 25.258 72.4439 25.2585 58.1929 25.2608C57.947 25.2608 57.6617 25.3013 57.3372 25.3822C57.2803 25.397 57.2478 25.4341 57.2399 25.4933C57.1852 25.9094 57.1579 26.1875 57.1579 26.3277C57.1579 61.8113 57.1579 97.2949 57.1579 132.779C57.1579 133.004 57.2194 133.264 57.2604 133.485C57.2657 133.513 57.2766 133.54 57.2924 133.565C57.3082 133.589 57.3286 133.61 57.3524 133.626C57.3762 133.643 57.4029 133.654 57.4311 133.66C57.4593 133.666 57.4883 133.666 57.5166 133.661L80.876 129.272C80.9477 129.258 80.9836 129.215 80.9836 129.142V89.6729C80.9836 89.5936 81.0151 89.5175 81.0712 89.4614C81.1272 89.4053 81.2032 89.3737 81.2825 89.3737L95.8854 89.372C96.0835 89.372 96.182 89.2734 96.1808 89.0763C96.1637 82.8614 96.3909 76.65 96.5122 70.4386C96.5327 69.3592 96.523 68.2797 96.4831 67.2003C96.4661 66.7148 96.519 66.3386 95.9178 66.3574C91.2244 66.5033 86.531 66.5113 81.8376 66.3814C81.5939 66.3745 81.3639 66.3466 81.1476 66.2976C81.0982 66.2865 81.0543 66.2582 81.0235 66.2176C80.9926 66.177 80.9767 66.1267 80.9785 66.0753C81.1219 62.4576 81.0109 58.8022 80.9887 55.181C80.9802 54.0748 81.0758 52.3616 80.9939 50.9477C80.9563 50.3117 80.9865 49.6985 81.0844 49.108Z" fill="white"/>
</svg>
