<svg width="160" height="160" viewBox="0 0 160 160" fill="none" xmlns="http://www.w3.org/2000/svg">
<path fill-rule="evenodd" clip-rule="evenodd" d="M21.1718 9.39152V3.40024C21.1718 3.3701 21.1777 3.34026 21.1893 3.31242C21.2008 3.28458 21.2177 3.25928 21.239 3.23797C21.2604 3.21666 21.2857 3.19976 21.3135 3.18823C21.3414 3.1767 21.3712 3.17076 21.4014 3.17076H27.923C27.9839 3.17076 28.0423 3.14658 28.0853 3.10355C28.1284 3.06051 28.1526 3.00214 28.1526 2.94128V1.22948C28.1526 1.16862 28.1284 1.11025 28.0853 1.06721C28.0423 1.02418 27.9839 1 27.923 1H19.2296C19.1687 1 19.1103 1.02418 19.0672 1.06721C19.0242 1.11025 19 1.16862 19 1.22948V9.55898C18.9998 9.59133 19.0065 9.62334 19.0195 9.65293C19.0326 9.68252 19.0518 9.70902 19.0758 9.73069C19.0998 9.75236 19.1281 9.76871 19.1589 9.77866C19.1897 9.78862 19.2222 9.79196 19.2544 9.78846L20.967 9.621C21.0235 9.61487 21.0757 9.588 21.1136 9.54561C21.1514 9.50322 21.1721 9.44832 21.1718 9.39152ZM137.63 3.17076H131.263C131.214 3.17098 131.166 3.15264 131.129 3.11936C131.092 3.08607 131.069 3.04024 131.065 2.99089L130.891 1.21708C130.888 1.18949 130.891 1.16167 130.9 1.1354C130.909 1.10913 130.923 1.085 130.942 1.06455C130.961 1.0441 130.983 1.0278 131.009 1.01668C131.034 1.00556 131.062 0.999884 131.089 1H139.801C139.854 1 139.905 1.02092 139.942 1.05813C139.979 1.09535 140 1.14583 140 1.19847V9.59619C140 9.6239 139.994 9.65133 139.983 9.6767C139.972 9.70208 139.956 9.72485 139.935 9.74354C139.915 9.76224 139.891 9.77645 139.865 9.78525C139.838 9.79406 139.81 9.79726 139.783 9.79466L138.002 9.621C137.953 9.61636 137.907 9.59341 137.873 9.55668C137.84 9.51995 137.822 9.4721 137.822 9.42253L137.828 3.36923C137.828 3.31659 137.807 3.26611 137.77 3.22889C137.733 3.19167 137.682 3.17076 137.63 3.17076ZM118.679 37.3446C113.777 24.531 101.044 20.4872 88.4976 20.4996C72.8814 20.5161 57.2651 20.5678 41.6489 20.6546C39.1461 20.667 37.8968 21.9199 37.901 24.4131C37.9134 33.4476 37.9237 42.3829 37.932 51.2189C37.932 51.3621 37.9744 51.5022 38.0539 51.6214C38.1334 51.7406 38.2464 51.8336 38.3787 51.8887L61.5487 61.5455C62.0741 61.7605 62.3388 61.5847 62.343 61.0183L62.3926 42.3126C62.3926 41.9688 62.5293 41.6391 62.7725 41.396C63.0157 41.1529 63.3455 41.0163 63.6895 41.0163C71.6197 40.9874 79.5767 40.9936 87.5607 41.0349C95.0751 41.0721 96.6884 46.6107 96.7132 52.9431C96.7505 65.6492 96.7443 82.9388 96.6946 104.812C96.676 112.502 96.2292 118.971 87.1201 118.99C79.2933 119.002 71.5162 119.002 63.7888 118.99C63.408 118.99 63.0428 118.84 62.773 118.572C62.5032 118.305 62.3508 117.942 62.3492 117.563L62.2499 93.8959C62.2499 93.6892 62.1527 93.6251 61.9583 93.7037L38.2174 103.609C38.0478 103.679 37.963 103.807 37.963 103.993C37.9009 114.471 37.8699 124.952 37.8699 135.438C37.8658 138.084 39.1771 139.411 41.804 139.42C58.0283 139.474 74.2527 139.438 90.4771 139.314C109.775 139.159 121.093 128.132 121.093 108.607C121.097 90.1043 121.085 71.6012 121.056 53.0981C121.044 46.8898 120.677 42.5483 118.679 37.3446ZM21.4448 156.829H27.8795C27.952 156.829 28.0214 156.858 28.0726 156.909C28.1238 156.96 28.1526 157.03 28.1526 157.102V158.727C28.1526 158.799 28.1238 158.869 28.0726 158.92C28.0214 158.971 27.952 159 27.8795 159H19.273C19.2006 159 19.1312 158.971 19.08 158.92C19.0288 158.869 19 158.799 19 158.727V150.435C19 150.362 19.0288 150.293 19.08 150.242C19.1312 150.191 19.2006 150.162 19.273 150.162H20.8988C20.9712 150.162 21.0406 150.191 21.0918 150.242C21.143 150.293 21.1718 150.362 21.1718 150.435V156.556C21.1718 156.629 21.2006 156.698 21.2518 156.749C21.303 156.8 21.3724 156.829 21.4448 156.829ZM137.828 150.391V156.6C137.828 156.661 137.804 156.719 137.761 156.762C137.718 156.805 137.659 156.829 137.599 156.829H131.263C131.204 156.829 131.148 156.852 131.105 156.892C131.062 156.932 131.037 156.988 131.034 157.046L130.947 158.758C130.945 158.789 130.95 158.82 130.96 158.85C130.971 158.879 130.988 158.906 131.009 158.928C131.031 158.951 131.057 158.969 131.085 158.981C131.114 158.994 131.145 159 131.176 159H139.77C139.801 159 139.83 158.994 139.858 158.983C139.886 158.971 139.911 158.954 139.933 158.933C139.954 158.911 139.971 158.886 139.982 158.858C139.994 158.831 140 158.801 140 158.771V150.391C140 150.331 139.976 150.272 139.933 150.229C139.89 150.186 139.831 150.162 139.77 150.162H138.058C137.997 150.162 137.938 150.186 137.895 150.229C137.852 150.272 137.828 150.331 137.828 150.391Z" fill="white"/>
</svg>
