<svg width="160" height="160" viewBox="0 0 160 160" fill="none" xmlns="http://www.w3.org/2000/svg">
<path d="M28.2454 124.117C29.7808 125.727 31.5979 127.038 33.5973 128L21.8937 125.6L21.7722 125.478L12.0239 104.771C8.5664 96.4089 4.0319 92.1061 1.61828 90.646L0 89.844C0 89.844 0.0441852 89.8662 0.127032 89.8938L0.0165694 89.844C0.0883703 89.8717 0.160171 89.9049 0.231972 89.9381C1.53543 90.4082 8.37861 92.3328 20.2534 86.4261C22.9929 85.1651 25.644 83.7271 28.2233 82.1675C28.6817 84.9162 29.361 87.6262 30.2392 90.2699C25.3015 92.5153 20.5351 95.1258 15.9729 98.0736C15.9729 98.0736 21.8882 116.955 28.2398 124.117H28.2454ZM38.8553 119.234C35.199 115.114 30.7639 104.39 30.7639 104.39C30.7639 104.39 32.802 103.189 35.7182 101.752C34.724 100.491 33.7796 99.213 32.9621 97.952C26.6547 101.016 22.91 100.314 21.8993 100.026C21.8109 99.9928 21.7225 99.9541 21.6286 99.9319L21.7115 99.9707C21.6507 99.9485 21.6121 99.9375 21.6121 99.9375L22.3687 100.275C23.4678 100.933 25.6881 102.918 28.3006 108.516L33.5973 119.516L33.8735 119.798L41.4236 121.557C40.5067 120.877 39.6286 120.097 38.8443 119.234H38.8553ZM160 89.8496L159.978 89.8606H158.398V90.3086C155.631 90.8617 149.318 91.2046 139.736 86.4316C137.002 85.1485 134.345 83.7327 131.766 82.173C131.28 84.9162 130.606 87.6262 129.744 90.2754C134.682 92.5209 139.448 95.1313 144.01 98.0792C144.01 98.0792 138.117 116.983 131.744 124.123C130.208 125.738 128.386 127.049 126.37 127.983L138.073 125.583L138.195 125.461L147.943 104.755C151.378 96.3923 155.935 92.0895 158.332 90.6294L158.393 90.6017H159.972V89.8606L159.994 89.8496H160ZM137.565 100.231L137.996 100.07C137.88 100.126 137.764 100.186 137.664 100.247L138.382 99.9264C138.344 99.9319 138.305 99.9541 138.261 99.9651C137.587 100.192 133.771 101.215 127.032 97.9464C126.215 99.2074 125.27 100.485 124.276 101.746C127.193 103.184 129.231 104.384 129.231 104.384C129.231 104.384 124.795 115.125 121.139 119.228C120.338 120.091 119.46 120.849 118.499 121.507L126.049 119.748L126.331 119.472L131.622 108.466C134.257 102.847 136.438 100.883 137.554 100.225L137.565 100.231ZM125.16 70.5033C125.16 70.5033 80.9251 48.4416 79.9254 33C78.9257 48.425 34.6964 70.5089 34.6964 70.5089C34.6964 70.5089 29.361 94.617 49.5757 114.096L50.0949 113.853C39.1646 102.089 36.1876 89.0089 44.7982 80.088L79.8978 59.2651L115.019 80.0714C123.63 88.9923 120.653 102.078 109.728 113.836L110.248 114.079C130.462 94.617 125.149 70.5089 125.149 70.5089L125.16 70.5033ZM109.541 90.7068C109.541 90.7068 80.9141 76.4211 79.9144 66.3001V66.2835C78.9147 76.3824 50.2661 90.6902 50.2661 90.6902C48.6147 101.171 52.2766 111.79 60.0366 119.018L60.3735 118.858C53.2045 111.159 51.2437 102.553 56.8773 96.7131L79.9144 83.0911L102.924 96.7131C108.58 102.576 106.624 111.159 99.4277 118.858L99.7867 119.018C107.519 111.795 111.175 101.171 109.535 90.7123L109.541 90.7068ZM99.5105 105.23C99.5105 105.23 80.5496 95.7674 79.8923 89.0863C79.235 95.7674 60.2962 105.23 60.2962 105.23C59.1971 112.166 61.6162 119.19 66.7472 123.974L66.9681 123.874C62.2348 118.775 60.9369 113.095 64.6705 109.212L79.9144 100.192L95.1362 109.212C98.8698 113.073 97.5719 118.775 92.8386 123.874L93.0595 123.974C98.1905 119.19 100.61 112.166 99.5105 105.23Z" fill="white"/>
</svg>
