<svg width="160" height="160" viewBox="0 0 160 160" fill="none" xmlns="http://www.w3.org/2000/svg">
<path d="M0 57V68.2302H8.84677V65.3417H48.9435V57H0ZM53.0968 57L80.0161 104L106.935 57H97.3387C97.3387 57 81.0484 85.2453 80.0161 87.0658C78.9677 85.2453 62.7016 57 62.7016 57H53.0968ZM111.129 57V68.2302H119.919V65.3417H160V57H111.129ZM0 72.4698V80.8439H48.9435V72.4698H0ZM111.129 72.4698V80.8439H160V72.4698H111.129ZM0 85.043V96.3137H48.9435V87.9477H8.84677V85.043H0ZM111.129 85.043V96.3137H160V87.9477H119.919V85.043H111.129Z" fill="white"/>
</svg>
