<svg width="160" height="160" viewBox="0 0 160 160" fill="none" xmlns="http://www.w3.org/2000/svg">
<path d="M125.702 95.863C122.845 90.5722 118.717 86.4145 113.917 83.496C114.176 79.1834 113.602 74.8138 112.007 70.6642C111.902 70.3952 111.781 70.1343 111.675 69.8653C113.683 67.6968 115.455 65.3326 116.92 62.7972C115.123 64.8761 113.197 66.8082 111.141 68.5691C105.548 56.2509 93.4318 49.3867 81.1291 49.191C80.9106 41.3648 80.6273 33.5467 80.2792 25.7449C83.2659 25.6308 85.775 23.6905 86.7624 21.0003C93.6342 20.5519 100.287 19.4513 106.358 17.7883C114.848 15.4159 123.234 11.7637 130 6C122.481 10.6061 114.193 13.4349 105.759 15.31C99.8422 16.541 93.5856 17.3806 87.1914 17.7638C86.8353 14.0871 83.7596 11.2175 80.0121 11.2175C76.2647 11.2175 73.1647 14.1197 72.8329 17.829C57.584 17.0464 42.4403 13.4186 30 6.0163C41.4124 15.4241 57.2845 20.0709 73.2456 21.041C74.2412 23.715 76.7422 25.6308 79.7127 25.7531C79.3646 33.563 79.0813 41.3892 78.8628 49.2318C70.5747 49.6557 62.3836 53.1449 56.2161 60.0743C53.6099 62.9195 51.5702 66.1641 50.0648 69.6289C47.5314 67.5989 45.1841 65.3244 43.0716 62.8054C44.8523 65.9033 47.0053 68.675 49.4496 71.1126C47.9603 74.9849 47.1429 79.0937 46.9729 83.2106C44.2776 84.8411 41.7523 86.8955 39.5022 89.4227C37.5921 91.5097 35.9814 93.8087 34.6621 96.2462C33.0271 94.6076 31.4731 92.8874 30.0081 91.0776C31.295 93.1972 32.7195 95.1864 34.2493 97.0777C25.5565 114.238 31.0765 137.913 50.1052 145.429C59.1623 149.138 69.3039 147.687 77.6892 143.057C78.28 143.416 78.8871 143.758 79.5103 144.084C79.6641 147.728 79.826 151.364 80.004 155C80.174 151.535 80.3278 148.054 80.4735 144.581C81.1048 144.883 81.7442 145.16 82.3998 145.421C94.8887 150.533 109.425 145.853 118.596 136.543C127.928 127.323 132.469 112.673 127.596 100.013C127.151 98.8386 126.641 97.7218 126.091 96.6375C127.507 94.8603 128.81 93.0097 129.992 91.0776C128.64 92.7489 127.208 94.3386 125.702 95.863ZM121.995 99.3522C119.389 101.627 116.613 103.697 113.707 105.532C114.306 100.893 113.95 96.1484 112.428 91.6238C112.671 90.8412 112.89 90.0423 113.076 89.2434C116.71 91.9255 119.794 95.3739 122.003 99.3522H121.995ZM48.4703 103.812C48.4055 101.57 48.6159 99.393 49.0611 97.2979C51.0927 103.004 54.5569 108.132 59.4537 111.907C55.7386 110.611 52.1449 108.964 48.7212 107.007C48.5836 105.964 48.4945 104.896 48.4703 103.812ZM107.653 92.2679C108.252 93.5722 108.762 94.9092 109.191 96.2707C107.879 100.167 105.726 103.795 102.659 106.852C100.983 108.548 99.1704 109.958 97.2683 111.108C97.2926 107.366 96.6775 103.608 95.2934 100.021C92.9219 93.719 88.9073 88.7053 84.0024 85.102C87.6609 83.7324 91.5864 83.0313 95.5767 83.1536C97.8673 83.1943 100.125 83.5204 102.319 84.0911C104.496 86.5205 106.325 89.2678 107.653 92.2842V92.2679ZM64.1967 109.779C65.1437 100.485 70.7042 92.6103 78.3205 87.8819C78.3205 96.8739 78.4176 105.874 78.5957 114.858C73.5532 114.247 68.5917 112.477 64.1967 109.787V109.779ZM94.0146 116.978C93.8041 123.304 91.7159 129.491 87.5233 134.472C85.3217 134.839 83.0716 134.953 80.8296 134.839C81.0158 129.426 81.1696 124.005 81.2991 118.584C85.5645 118.51 89.83 117.972 94.0146 116.978ZM81.3719 115.062C81.5419 106.681 81.6309 98.2924 81.6471 89.8955C85.6212 93.0423 88.8669 97.1267 90.9389 101.822C92.5415 105.312 93.537 109.054 93.8932 112.828C89.9191 114.524 85.6455 115.217 81.3719 115.062ZM91.554 78.8573C90.0324 79.0693 88.5269 79.3872 87.0376 79.8111C85.2408 80.0965 83.4359 80.2595 81.6309 80.3247C81.6228 78.1073 81.5985 75.898 81.5743 73.6806C86.2687 74.0311 90.7932 75.523 94.8078 77.9035C93.7394 78.2622 92.6467 78.5801 91.5459 78.8573H91.554ZM78.3448 80.3166C76.5803 80.2513 74.8159 80.072 73.0757 79.803C71.5378 79.3709 69.9757 79.0448 68.3893 78.8328C66.9486 78.4578 65.5241 78.0176 64.1238 77.5122C68.4541 75.1154 73.3509 73.7132 78.3934 73.5909C78.3691 75.8328 78.3529 78.0747 78.3367 80.3247L78.3448 80.3166ZM56.1109 83.8058C58.4419 83.3085 60.8458 83.0721 63.274 83.1454C67.4747 83.2188 71.5702 84.246 75.3339 86.0069C74.0955 87.0341 72.9138 88.1673 71.7968 89.4146C66.7867 94.8848 63.8405 101.79 62.8774 108.931C57.2036 105.116 52.6143 99.7191 50.2428 93.2869C51.5702 89.757 53.5937 86.5531 56.119 83.8058H56.1109ZM49.4577 90.8494C49.0692 89.4146 48.7859 87.939 48.624 86.4227C49.8624 85.8031 51.1412 85.2732 52.4444 84.8248C51.2546 86.7406 50.259 88.7624 49.4496 90.8494H49.4577ZM62.5698 115.967C62.8207 121.176 64.1319 126.296 66.4792 130.853C58.2639 126.597 51.6107 119.236 49.3282 110.113C53.4885 112.592 57.9482 114.564 62.5698 115.967ZM64.3019 116.448C68.9883 117.719 73.8203 118.437 78.6847 118.567C78.8062 123.948 78.9599 129.32 79.1461 134.693C76.9446 134.464 74.7511 134.008 72.6143 133.356C68.2274 128.774 65.1599 122.986 64.3019 116.448ZM79.2513 137.921C79.2594 138.214 79.2756 138.516 79.2837 138.809C78.8547 138.532 78.4257 138.247 78.0049 137.953C78.4176 137.953 78.8304 137.937 79.2513 137.913V137.921ZM80.6596 139.641C80.6839 139.03 80.7082 138.426 80.7325 137.815C82.157 137.676 83.5734 137.448 84.9737 137.122C83.8001 138.206 82.5617 139.16 81.2829 139.992C81.0724 139.877 80.8701 139.755 80.6596 139.641ZM96.8231 116.228C100.902 115.037 104.885 113.399 108.681 111.263C109.296 110.92 109.911 110.57 110.51 110.211C109.757 116.293 107.208 122.089 102.651 126.638C98.5067 130.82 93.5532 133.29 88.3408 134.318C92.7034 129.222 95.7305 122.864 96.8151 116.228H96.8231ZM97.1955 112.958C97.2197 112.624 97.2359 112.29 97.244 111.956C99.3242 110.554 101.259 108.956 102.999 107.187C105.67 104.553 107.936 101.472 109.717 98.1212C110.478 101.129 110.826 104.219 110.728 107.284C106.439 109.681 101.898 111.589 97.1874 112.95L97.1955 112.958ZM105.508 79.8356C104.634 78.8818 103.711 77.985 102.748 77.1535C104.609 76.0121 106.39 74.7485 108.041 73.3463C109.166 75.9958 109.951 78.7839 110.38 81.6128C108.802 80.8954 107.167 80.3084 105.508 79.8356ZM107.232 71.5936C105.144 73.061 102.95 74.3735 100.66 75.4904C95.0749 71.4142 88.3488 69.1805 81.5257 68.993C81.4609 63.9467 81.3638 58.9004 81.2424 53.8623C92.2663 54.5471 102.432 61.607 107.224 71.5936H107.232ZM78.7333 53.7808C78.6119 58.8597 78.5148 63.9467 78.45 69.0419C72.0397 69.4495 65.7183 71.6996 60.3521 75.9551C57.2278 74.5203 54.2412 72.7594 51.465 70.6968C56.5156 60.7021 67.2805 53.9357 78.7333 53.7808ZM50.7204 72.3028C53.0271 74.4143 55.5605 76.2323 58.2558 77.7649C57.7378 78.254 57.2278 78.7676 56.726 79.3057C53.8851 79.9253 51.1089 80.928 48.4703 82.3302C48.5836 78.7758 49.3768 75.4007 50.7123 72.3028H50.7204ZM47.0214 87.2786C47.1833 89.7651 47.588 92.219 48.2355 94.6076C47.2481 98.3087 46.8353 102.157 46.9729 105.956C43.0959 103.575 39.4537 100.795 36.1109 97.6484C38.8142 93.3684 42.6022 89.7977 47.0214 87.2786ZM31.7645 113.374C31.6107 107.977 33.019 102.964 35.5281 98.6185C38.9599 102.564 42.8855 105.956 47.1671 108.776C48.446 120.41 55.0506 131.228 66.811 135.875C68.0898 136.396 69.3849 136.812 70.6961 137.138C72.412 139.119 74.3869 140.905 76.637 142.413C57.6163 150.027 32.242 135.345 31.7645 113.382V113.374ZM123.25 101.831C128.438 113.138 127.321 127.152 118.248 136.209C108.26 146.31 93.5047 146.416 81.9142 140.342C83.3387 139.29 84.6823 138.133 85.9369 136.902C92.3634 135.231 98.3691 131.709 103.007 127.005C108.033 122.04 111.667 115.494 113.189 108.54C116.621 106.233 119.794 103.559 122.635 100.591C122.837 101.007 123.055 101.415 123.242 101.839L123.25 101.831ZM39.8907 38.2995V30.9869C39.8907 30.5385 39.8907 30.0738 39.8745 29.601C39.8584 29.1281 39.8341 28.6798 39.8017 28.2477C39.7693 27.8156 39.7046 27.4406 39.6155 27.1064C39.5265 26.764 39.4132 26.5275 39.2594 26.3727C38.8871 25.9732 38.4905 25.7123 38.0696 25.6063C37.6487 25.4922 37.0983 25.3862 36.4346 25.2884V24.9134H56.9931L59.5265 31.101L59.1542 31.2885C57.1388 28.7613 55.2529 27.0656 53.4885 26.1851C53.0676 25.9813 52.2825 25.8101 51.1412 25.6634C50 25.5167 48.6078 25.4351 46.9729 25.4351C46.4549 25.4351 45.9126 25.4514 45.3541 25.4922C44.7956 25.533 44.3909 25.5737 44.14 25.6226C44.0915 26.0221 44.051 26.8455 44.0105 28.1009C43.9701 29.3564 43.9539 30.7994 43.9539 32.4543V34.8511C43.9539 35.5033 43.9539 36.0332 43.9701 36.4489C43.9862 36.8647 43.9862 37.1826 43.9862 37.4027V37.8185H44.7309C45.1032 37.8185 45.5322 37.8104 46.0178 37.7778C46.5034 37.7533 46.9891 37.7207 47.4666 37.6799C47.9522 37.6392 48.3569 37.5821 48.6807 37.5087C49.4253 37.3375 50.0486 37.093 50.5423 36.7995C51.036 36.4978 51.4407 36.1391 51.7564 35.7152C52.0639 35.2913 52.3149 34.794 52.501 34.2315C52.6872 33.669 52.8571 33.0413 53.0028 32.3402H53.448V44.161H53.0028C52.8005 43.3621 52.501 42.5387 52.0882 41.6827C51.6754 40.8267 51.2465 40.1908 50.8013 39.7669C50.4047 39.4164 49.9272 39.131 49.3687 38.9028C48.8102 38.6745 48.1546 38.5441 47.41 38.487C47.0376 38.4625 46.7301 38.4462 46.4792 38.4299C46.2282 38.4136 45.9854 38.4136 45.7345 38.4136H44.0186C43.9701 38.7642 43.9458 39.2778 43.9458 39.9544V44.4545C43.9458 44.854 43.9458 45.2371 43.962 45.5958C43.9781 45.9627 43.9781 46.2643 43.9781 46.517C44.0024 47.316 44.0429 48.0741 44.1076 48.7834C44.1724 49.5008 44.31 50.0307 44.5366 50.3812C44.7633 50.7318 45.2975 50.9845 46.1392 51.1313C46.981 51.278 47.9037 51.3595 48.8992 51.3595C49.3201 51.3595 49.8624 51.3514 50.518 51.3188C51.1736 51.2943 51.8616 51.2291 52.5819 51.1313C53.3752 51.0334 54.1117 50.8378 54.7754 50.5524C55.4472 50.2671 56.0947 49.8595 56.7098 49.3296C57.3331 48.8078 57.932 48.1638 58.5148 47.3975C59.0975 46.6312 59.6965 45.7181 60.3197 44.642L60.7325 44.7561L58.8709 51.922H36.0947V51.547C36.7179 51.4492 37.2926 51.2862 37.8268 51.0579C38.361 50.8296 38.7981 50.5198 39.1461 50.1204C39.2675 49.9736 39.3727 49.7535 39.4456 49.46C39.5184 49.1747 39.5913 48.8405 39.6479 48.4654C39.7127 48.0904 39.7531 47.6991 39.7774 47.2834C39.8017 46.8676 39.8179 46.4681 39.8179 46.0605C39.8179 45.71 39.8179 45.2371 39.8341 44.6339C39.8422 44.0306 39.8584 43.3784 39.8745 42.661C39.8826 41.9517 39.8907 41.218 39.8907 40.468V38.2913V38.2995ZM108.98 39.237C109.231 39.237 109.587 39.2859 110.057 39.3838C110.704 39.506 111.319 39.824 111.902 40.3213C112.485 40.8186 113.027 41.3566 113.521 41.9354C114.12 42.6365 114.63 43.2643 115.067 43.8268C115.504 44.3893 115.909 44.9436 116.281 45.498C116.653 46.0442 117.017 46.6067 117.382 47.1692C117.738 47.7317 118.159 48.3676 118.628 49.0606C119.025 49.6394 119.316 50.0715 119.502 50.3568C119.688 50.6421 119.842 50.8622 119.972 51.0171C120.093 51.1639 120.206 51.2943 120.304 51.4084C120.401 51.5226 120.563 51.6856 120.789 51.9139H128.422V51.5389C127.256 51.3677 126.236 50.9764 125.37 50.3731C124.504 49.7698 123.606 48.8241 122.691 47.5198C122.092 46.6719 121.42 45.6937 120.66 44.5931C119.899 43.4925 119.203 42.4653 118.555 41.5197C118.183 40.9979 117.794 40.5169 117.398 40.093C117.001 39.6691 116.588 39.343 116.168 39.1147V39.0006C116.985 38.7234 117.77 38.3892 118.515 37.9897C119.259 37.5902 119.915 37.1093 120.473 36.5468C121.032 35.9842 121.477 35.3321 121.817 34.5983C122.149 33.8646 122.319 33.0331 122.319 32.1037C122.319 30.6037 121.987 29.3564 121.315 28.37C120.643 27.3835 119.761 26.6009 118.669 26.0221C117.6 25.4433 116.418 25.109 115.132 25.0112C113.836 24.9134 112.363 24.8645 110.696 24.8645H108.09C107.021 24.8645 105.953 24.8645 104.885 24.8808C103.816 24.8971 102.861 24.8971 102.019 24.8971H100.49V25.2721C101.161 25.3699 101.728 25.4922 102.181 25.6308C102.643 25.7694 103.055 26.0384 103.428 26.4379C103.573 26.5846 103.695 26.8292 103.784 27.1716C103.873 27.514 103.93 27.8808 103.97 28.2966C104.011 28.7124 104.035 29.1444 104.043 29.6091C104.051 30.0738 104.059 30.5303 104.059 30.9787V40.468C104.059 41.218 104.059 41.9517 104.043 42.661C104.027 43.3784 104.019 44.0306 104.002 44.6339C103.986 45.2371 103.986 45.71 103.986 46.0605C103.986 46.46 103.97 46.8757 103.946 47.2997C103.921 47.7236 103.889 48.123 103.849 48.4981C103.808 48.8731 103.76 49.2073 103.679 49.5089C103.606 49.8106 103.509 50.0307 103.379 50.1856C103.055 50.5851 102.61 50.8867 102.036 51.0823C101.461 51.2861 100.87 51.4329 100.247 51.5307V51.9057H112.169V51.5307C111.149 51.4818 110.356 51.2861 109.781 50.9519C109.207 50.6177 108.826 50.2834 108.624 49.9573C108.373 49.5823 108.236 49.1095 108.211 48.5307C108.187 47.9519 108.163 47.2671 108.138 46.4681C108.114 45.6447 108.098 44.6339 108.098 43.4273V39.1881C108.446 39.2126 108.729 39.2289 108.956 39.2289L108.98 39.237ZM108.122 37.2886V34.5902C108.122 33.563 108.122 32.5032 108.138 31.4026C108.155 30.3021 108.171 29.3156 108.195 28.4352C108.219 27.8564 108.236 27.4162 108.252 27.1064C108.26 26.7966 108.276 26.552 108.292 26.3727C108.3 26.2015 108.325 26.0547 108.349 25.9406C108.373 25.8264 108.397 25.696 108.422 25.5493C108.592 25.5248 108.843 25.5004 109.166 25.4759C109.49 25.4514 109.911 25.4351 110.429 25.4351C111.149 25.4351 111.837 25.5004 112.493 25.6226C113.149 25.7449 113.78 25.9487 114.371 26.2259C115.56 26.8047 116.467 27.5792 117.09 28.5493C117.713 29.5194 118.021 30.6363 118.021 31.8918C118.021 32.5684 117.932 33.2206 117.762 33.8402C117.584 34.4679 117.317 35.0467 116.961 35.5848C116.605 36.1228 116.135 36.6038 115.56 37.0277C114.986 37.4517 114.306 37.7941 113.513 38.0386C112.695 38.3158 111.845 38.4952 110.963 38.5848C110.081 38.6745 109.134 38.7153 108.114 38.7153V37.2886H108.122Z" fill="white"/>
</svg>
