<svg xmlns="http://www.w3.org/2000/svg" width="160" height="160" fill="none">
<path fill="#fff" d="M126.3 91.9s.3 0 .1.4c-.2.4-.2.6-.6.9l-.4.4 3.2-2.5c1-1 3.6-2.9 5.4-4.7 1.8-1.8 2.5-2.2 3.3-3.3.9-1 1.7-2 1.7-1.8.1.1.3.4.3 1l-.2 1.4 1-1.5.5-1.2c.2-.3.4-.7.6-1.6.3-.9.7-1.3.7-1.3s-.3-.1.2-.7c.4-.7.7-1 .9-1.1l.1-.2-.2.2-1.4 1.2-1.4 1.2-.7.5-1.3 1.3-2 2.2-1.9 2c-.4.4-2 2.2-3.2 3.2l-3 2.7c-1 .5-1.7 1.3-1.7 1.3ZM54 100.6h.2l.4-.2.5-.3.5-.3.3-.3.4-.3.2-.2-.3.2c-.2 0-.3.1-.5.3l-.6.3-.3.2.2-.1-.9.5v.2m68.7-8.7.3.1s1.3-.7 2-1.4c.5-.7 1.1-1.3 1.4-1.4.2 0 .4-.2 1-1l1-1c-.3.2-1.6 1-1.8 1.3-.2.3-1.7 1.2-2.2 1.5-.5.4-.2.3-1 .6l-1 .2-2 .7v.1l.8.2 1.5.1m-75-72.8.5-.1.5-.3 1.6-.6h.3l.5-.5.6-.4c.3-.3.5-.4.6-.7l.2-.3-.2-.1h-.9v.2l-.1.3-.5.6-.6.5-.7.3-.8.4-1.5.5v.1l.2.2.2-.1M146 128.4l-.4.2-.7.2-1.3.6-1 .5c-.3 0-.6.3-1 .4l-3 1.3-3 1.3a182.9 182.9 0 0 1-9.2 3.3l-.6.1-.2-.1.2-.3-.2.1-.4.1-1 .3h-1.4l-.4-.1-.4.1h-.2l-.2.1-.6.1-.8.2h-.3l-.8.2h-1c-.2 0-.2.1-.4 0h-1.2c-.1-.2-.2-.2-.3-.2l-.3-.1h-.3c-.1-.1-.1-.2-.3-.2h-.8l-.4.1h-.7l-.5.1-.4.1h-1.3l-.3.1h-.4l-.3.1h-.8l-.6.1h-.3l-.3.1h-.5v-.3l-.2-.4-.2-.4c-.1-.1-.1-.2-.3-.2h-.4l-.2-.2h-.3c-.2-.1 0 0-.4 0h-.6l-.6.1-.5.1-.5.1-.8.1-.5.2h-.7v-.6c0-.2 0-.3-.2-.4l-.2-.3-.1-.1v-.2l-.3-.1-.2-.1-.8-.1H99s-.5 0-.9.2l-1 .3-.4.2c-.1 0 0 0 0-.2l.1-.1v-.2l.1-.3c0-.2 0-.2-.2-.2l-.1-.2v-.1l-.4-.1h-.3l-.3.1-.3.1c-.2.1-.3 0-.4 0l.2-.2.2-.2h.2l.6-.4.5-.1.3-.1.4-.2.1-.2h.2l.2-.2v-.1h.3v-.2h.3v-.1h.2c0-.1 0 0 .1 0l.2-.2.2-.1h.1l.2-.2h.2l.2-.2h.2l.1-.2c.2 0 .2 0 .3-.2h.2l.2-.2h.3l.2-.2h.2l.2-.2h.2c.1-.2 0-.2.2-.2l.2-.1.2-.2.4-.2.8-.6 1.6-1.2 1-.7c.4-.4 1-1 1.5-1.3a7 7 0 0 1 1.2-.9l.5-.2.2.2.2.6.1.7.2-.3 1.2-1.8.6-1.5.5-1.2c0-.2.1-.2.2-.3l-.4.2-1.3 1.1-2 1.7a301.6 301.6 0 0 1-3.3 2.6l-1.4.8-1.7 1-1.7 1-1.3.7h-.3v-.2h.1l.5-.4c.2 0 .5-.3.8-.5l.6-.4.3-.1v-.1l.2-.2.2-.1.3-.2.4-.2.2-.2.6-.4.2-.2.5-.3 2.2-1.6 1.1-.9.5-.4c.2 0 .2 0 .3-.2l.5-.3h.2l.1-.2.4-.3c.2 0 .3-.2.5-.3l.3-.2.6-.5.3-.2.2-.1.2-.2.3-.3 1.4-1.1.5-.4.5-.4.5-.5c.2 0 .3-.2.3-.3l.4-.1.5-.3.5-.3.7-.6a15 15 0 0 0 2-2l.8-.8.3-.2c0-.1 0-.2.3-.4l.5-.6.2-.4.2-.1.2-.3.3-.4c.2-.1.2 0 .2-.2l.2-.2.3-.3.3-.3.3-.4.5-.4.1-.2.2-.2.4-.4.4-.5.2-.2.5-.5.6-.6.1-.2v-.3l.2-.3.8-.8.7-.7.4-.3.5-.5.4-.5c.2-.3.2-.3.4-.3l.6-.8.6-.8 1.3-1.4 1.2-1.5.7-.8 1-1.2.6-.7.5-.5.2-.3.2-.3.8-1 .6-.7.7-.9.6-1 .5-.8c.2-.2.2-.4.3-.7.1-.2 0-.3.2-.5l.1-.3-.3.4-.5.7-1 1.3-.9 1.5c-.2.5-.8 1.2-1 1.5l-.7 1-1 1.1-1.5 2-1.5 1.5-1.5 1.6-2 2-1.5 1.5-1.8 1.5-1.2 1-.6.4-.5.4-1 1-1.3 1.2-.6.6-.3.3-1 1.1c-.2.3-.5.5-.6.5l-.3.2-.3.2-.7.7-.8.7-.9.5-1.2.8-1.1.8-1.2.8-1 .8-1 .5-.7.6-2.7 2a41.9 41.9 0 0 1-7.8 4.5l-1.6.9-2.2 1.1-1.5.9-2.6 1.2-2.2 1-.8.3c-.3 0-.5.2-.5.2-.1 0-.3 0-.4.2h-.3c-.2 0-.3 0-.2-.1 0-.2.2-.1.2-.2l.3-.1.4-.2c.2 0 .3-.2.3-.2l.3-.2h.1l.2-.1.2-.1.2-.2h.2l.1-.2.2-.1.3-.2-.5.2a3 3 0 0 1-.6.3l-.5.3-3.4 1.5-4 1.8-2.5 1-3.2 1.1c-.7.3-2.5 1-3.3 1.1l-2.4.8-3 .9-2.8.8-2.5.6c-1.1.4-3 .8-4 1-.8.4-1.8.6-2 .7l-.4-.1.3-.2 2-.6c1.2-.5 2.1-.6 3.5-1l3.5-1 2.6-.8a60.5 60.5 0 0 1 5.8-1.8l3-1 2.8-1 2.3-.9.4-.2h.3l.2-.1v-.1h.3v-.2h.3l.2-.1.2-.1.2-.1h.2l.2-.2h.2c0-.1 0-.2.2-.2h.2l.2-.2h.2l.5-.2 2.2-1 1-.5h.2l.4-.2.2-.2h.3l.3-.2c.1 0 1-.6 1.5-.7l1-.6 1-.4.5-.3c.3-.3.5-.3.7-.4.3 0 .5-.1 1-.4l1.2-.6.4-.2 1-.6 1-.4 1.2-.8 1-.6.3-.3h-.2v-.3l.3-.2.2-.1.2-.1h.2l.1-.1.2-.2.3-.1.4-.3c.3 0 .3-.1.4-.2l.4-.2c0-.1 0-.2.3-.3l.5-.3.2-.1.3-.3.2-.1.3-.2c.2 0 0 0 0 0h-.2l.2-.2.5-.2.3-.3.4-.3.8-.6c.2 0 .4-.3.4-.3l-.5.2-1 .4a10.6 10.6 0 0 1-2.8.4v.5l-.3.5-.2.1.1.1-.2.6-.6.7-1 .7a15.5 15.5 0 0 0-1.2.5 12.1 12.1 0 0 1-4.1 1l-.7.3-.8.1h-.7s-.1.2-.3.2l-.4.1a30.5 30.5 0 0 0-1.2 0v-.2l.2-.2.3-.3 1.7-1.7 1.2-1.2.5-.6.3-.1.7-.4 1.2-.9 1.3-1 1.4-1 1-.7.7-.5c.2-.1 0 0 0 .1l-.4.4-.2.2-.2.2.4-.2a7 7 0 0 0 1-.5l1-.7.8-.6 1.2-1 1.2-1.4c.1-.3.2-.3.7-.7l.5-.5.7-.8 1.3-1 1-1 1-1 .8-1 .8-.7.6-.7.5-.8.5-.7.3-.3c.1-.1 0-.2.2-.2V103.3c.1-.1 0 0 0-.1v-.3l.2-.2v-.1l.2-.2-.2.1-.2.2-.3.2c-.1.2-.3.2-.4.3l-.3.2-.2.2-.3.3h-.2v-.1l.1-.1.1-.2.2-.3.3-.4.2-.4h.2v-.2l.2-.2.4-.5.3-.2c.2-.1.3 0 .5-.2l.8-.5 1.4-1 1.3-.8h.3l.7-.6 1-.8 1.2-1.1.7-.7.4-.4-.1.1-.6.4c-.2.1-.3.3-.6.3l-.7.1-.3.1-.4.5-1 .9-1.4 1a49.5 49.5 0 0 1-4.2 2.7l-.4.2h-.3c0-.2 0-.1.3-.3l.6-.4.3-.4.6-.4.6-.5c.1-.1 0-.2.5-.6l.6-.6.3-.3 1-1 1.3-1.2.7-.7c.4-.2.5-.4.8-.7l.5-.5.1-.2.2-.3c0-.1 0-.1-.1 0l-.3.2a13.6 13.6 0 0 1-1.6 1.3l-1 .7-.4.5-1 1-1.3 1c-.2.3-1.2 1-1.7 1.3-.4.3-.5.3-.5.2v-.2l.2-.3.5-.5.7-.6.5-.5c.1 0 .1 0 0 0l-.7.4-.5.4-.5.5-.3.2-.4.4-.3.2-1 .8-1 .7-.8.5-.4.3-.4.4-2 1.3a32.9 32.9 0 0 1-6.4 3.4c-1.2.5-1.2.5-1.3.4-.2 0 .2-.1.4-.3l.5-.3s.2 0 .3-.2l.1-.1c.2 0 .5-.4 1-.6l.7-.5h.2s.1-.2.4-.3l.6-.4.3-.1.5-.4.3-.2-.1-.2h-.2l-.7.2-.5.4-.5.3-.8.5-1 .5-.6.4-.8.4-1 .6-.8.6-.4.4-.2.1-.3.2c-.2 0-.3.3-.4.4-.1 0-.1.1 0 .2h.8l.6.2c.1 0 0 .2-.2.3l-.5.4-1 .5-1.4 1-1.3.7-1.5.9a8 8 0 0 1-1.4.6l-.8.1-.7.3-1 .4.2.1c.3 0 .3.3.3.3l-.4.6a5 5 0 0 1-.3.4l-.2.3c0 .2-.8.8-1 1l-1.5 1.3c-.5.5-2.1 1.4-2.8 1.8l-2 1a92.6 92.6 0 0 1-8.7 7.8l-2.7 2-1.1.8-1.3.8-1.4 1c-.2.2-.5.3-.6.2H65c-.2 0-.1-.1 0-.2l.6-.4.6-.4.6-.4 2.3-1.8 4.1-3.4 3.1-2.8 2.4-2.4.7-.8-.7.4-1 .6h-.3c0-.1 0-.2.4-.6l1.3-1.3 1.2-1.3.8-.6 1.7-1.3c.6-.6.8-.6.8-.6v-.6c.2-.2.2-.4.7-.8 0 0 1-.7 1.4-.8l.5-.5 1.3-.9 1.4-1 .6-.2 1-.5c.2-.1-.7 0-1.2.2a53.4 53.4 0 0 1-2.5 1.4c-.6.4-1.4 1-1.6 1l-1.3.8c-.3 0-1 .5-1.4.7l-1.8.8-.9.5-.3-.1.2-.3s0-.2.3-.4l.6-.3c.2-.2-.2 0-.3 0l-.7.2-.8.1-1.1.2-.5.1-.7.5-.8.6.2-.4c.2-.3.5-.4.7-.5l.2-.2.1-.2.5-.2v-.3l2-1 2.6-1.7a6 6 0 0 1 1.5-.6h.5l.4-.3.6-.3h1l.3-.5c.2-.6.9-1.3 1.4-1.8l1.4-1.4 1-1 .4-.6.3-.6.6-.9 1.6-1 1.9-1.6 1.3-1 1-.8.3-.3c.1 0 .2-.1 0-.1l-.7.4-1.6 1-1.7 1-1.4 1-1.6 1.3-1 .9c-.3.1-.2-.1 0-.3.3 0 .3-.2.4-.2 0 0-.8.2-1.3.5l-1.6.7-1.5.8c-.1.1-.3.2-.4 0l.6-.4 1.1-.7 1.3-1 .5-.1 1.3-.6 1.4-.7 1.5-1 .7-.5.3-.3.3-.3-.9.3-1.3 1-1.4.7-.7.4c-.3 0-.2 0 0-.3l.5-.3c.2 0 .3-.2.4-.3l-.8.4-1.7.9-1.4.7-.3.1h.3c.1 0 0 .1 0 .2l-.3.1c-.2.1-.3.2-.4.5l-1.2 1-1.9 1.2-1.5.8a7.3 7.3 0 0 1-2.8.9H78l.1-.3c.2-.1.1-.2.1-.2H78s-.1 0 0-.2c0-.2-.1-.1 0-.2l-.7.4-.7.3c-.2 0-.2-.1-.4 0-.1 0 .1-.2.4-.3l.6-.4.2-.2v-.2c0-.1 0-.1-.2 0l-1 .4-1.4.6-1.2.6H73c-.3 0-.5.2-.8.3l-.6.1-1.5.6-2.7.9-2.3.5h-1l-.1.1-.6.3c-.2 0-.8 0-1.2.2l-1.5.3c-.4 0-.8.2-1.1.3l-.8.2.3.1.5.3-.5-.1c-.2-.1-.4-.2-.7-.1l-1.3.1-1 .2-1.2.2c-.3 0 0 .2.1.3h.2v.1h.3l1 .4c.2 0 .3.2.2.2v.3c0 .2 0 .7-.9 1.4l-.9.8s-.2.4-.7.7l-2 1.6-2.5 1.7-.6.6v.4c-.2.1-.4 0-.6-.1l-.4-.1-.2-.3h-.2a1 1 0 0 1-.2-.4l-.2-.2c0-.1-.3-.3-.1-.5l.2-.1v-1c0-.1 0-.3.2-.5l.2-.6.8-1c.2-.5.6-.9.8-1.1l.9-1.2 1.4-1.9c.4-.4.5-.4.5-.6l.4-.4.1-.1-.8.2-.9.3c-.2 0-.2.2-.4.3-.2.1-.6.3-.7.2 0 0-1 .2-2.6.8l-2.3.7-1.6.7-2.2 1a62.6 62.6 0 0 0-3.3 1.5l-1.7 1-1.8.8c-.1 0-.2-.1 0-.3l1.2-.6 1.4-.8c.3-.2.7-.6 1.1-.7l1-.7 1-.5 1-.6.6-.4.3-.1 1.5-.7.8-.5 1.2-.7h.2l.9-.5 1.2-.4s.3 0 .5-.3l.3-.2s-.3 0-.2-.2l.4-.7 1.6-.8 2-1.2 1-.7 2-1 2.3-1 1.3-.4.8-.4c.1 0 0-.1-.4 0l-2 .4-1.5.5-.5.2-2.9.8-.6.3h-.3l-1.5.1c-.5.2-1-.1-1-.1l-1.3.5-1.7.7-.9.5-.7.2-.5.2c-.3 0-.7.3-.7.3l-.4.1-.4.1-.2.3s-1 .5-1.1.4c-.2 0 .4-.6.7-.8l.6-.3.4-.2.2-.1.4-.3 1-1 1.5-.8.2-.1.6-.5.6-.3.5-.3h-.1l-.4-.1-.4-.2h-.2c-.2-.1-.4-.1-.8 0l-4 1.9-1 .4c-2.2 1-4.8 2.2-3.9 1.2a68.5 68.5 0 0 1 10.8-6.5h-.3l-.5.1H47c0-.1 0-.2.7-.7l2.6-1.5 3.1-1.7 2.6-1.2 2.6-1.3 1.2-.6.5-.1c.2 0 .4-.3.7-.5l.6-.3c.2-.1.3-.3.5-.3l.2-.2.2-.2c.1 0 .2 0 .5-.3l1.3-.8 1.6-1 .8-.3c.2 0 0-.1-.2-.2l-.5-.1c-.3 0-.5-.2-.7-.3-.2-.1-.1-.1 0-.2l.2-.1h.4c0-.2.3-.2.3-.2l.2-.1v-.5l.3-.3.5-.3 1-.3 1.8-.4 2.3-.5c.9-.2.9-.3 1-.4h-.1a4 4 0 0 0-.7 0c-.3.2-1 .4-1.5.4l-2.2.4-3.2 1-2 .5a44 44 0 0 0-4 1.8H60.6l.3.1h.3l.4-.1.6-.1H63v.1l-.1.5a9 9 0 0 1-2 1.7 9 9 0 0 1-2 1.2l-1.3.6h-.8l.2-.1c.2 0 .1-.1.2-.2l-.3.1-1.2.8-1.5.8-.4.2-1.5.8-1.7.9-.4.1-2.2 1-2 1.1-1.4.8c-.1.2-.3.1-.8.4l-1.5.8c-.2.1-.4 0-.4 0l-1 .5-.8.4-1.2.6c-.2 0-.5.2-1 .6-.6.3-2 1-2.5 1.4l-1.4.8.8-.8a20 20 0 0 1 4-2.5l2-1 1.5-.9c.6-.3.7-.5.3-.3l-1.3.6-.4.1-1.5.8-3.2 1.9-2.6 1.7-2.8 1.8-1 1-1 1.3-.1.6-1 .8-1.4 1L25 116l-1.3 1.2-1.5 1.2-.3.4.2-.2.4-.2.7-.3 2.2-.8 1.5-.7h.3l-.2.4-1.2 1.4c-.3.6-.6.8-.9 1.2l-2.3 2.4-1.3 1.5H20.7l-.7.1-.3.1-.5.3-.3.8-1.1 2.9-1.6 3.1-1.4 2.1c-.2.3-.2.3-.1.4V134h.2l.1-.2h.1l.2-.1.1-.1V133l.5-.7.3-.5.1-.1.1-.2.1-.1.1-.1v-.2l.2-.1v-.2h.1c0-.2.1-.2.2-.3l.1-.3.2-.2c0-.1 0-.3.2-.4l.6-.8a54.4 54.4 0 0 1 5.9-7c.9-.8 1.3-1 1.8-1.3l1-.7c.2 0 0 0 .3-.2l1-.8a35 35 0 0 1 2-1.2h.1c.1 0 .2 0 .2.2s-.1.1-.2.2l-.5.5-1 1-.7.6-.1.2-.2.3-.1.2-.1.2h-.2v.3l-.3.1-.8 1a40.5 40.5 0 0 0-4.7 5.5l-.4.7-.2.2c0 .2-.2.3-.3.4 0 .2-.2.3-.2.3l-.2.3c0 .2 0 .3-.2.3 0 0-.1 0 0 0l-.2.4-.2.3-.1.1-.1.3-.2.3-.2.2-.1.3-.2.2v.3c-.1 0-.1 0 0 .2l-.2.3c0 .2 0 .4-.2.6l-.4 1-.3 1c0 .1-.3.2-.2.3h.3l.3-.1a6 6 0 0 1 1-.4c.5 0 1.2-.4 1.8-.5l1-.4h.8l1-.3 1-.2c.3 0 .1.3-.1.3l-1.7.4-1.9.7-1.1.7-.7.4h-.1l.1-.3c.1 0 0-.1 0 0-.1 0-.3 0-1 .5l-1.3.8-1 1-1 1.1c-.3.3-.3.6-.4.8v.7h-.3c-.1 0-.2 0-.3.2h-.3c0 .2.2.1.5 0H16.2l-.8.6c-.4.3-.4.6-.5.7l-.3.4v.5l-.2.3-.6.4-.4.7s-.2.4 0 .8c0 .4.7 1 1 1.4l.8.8.6.2.2-.1-.2-.4a14 14 0 0 0-.4-.5c-.2-.2-.4-.3-.3-.5l.2-.4c.2-.1.3-.4.5-.7l.2-.4v-.6l.8-.9 1.3-1 1-.8.4-.2.3-.2h-.1l-.3-.2-.3-.3-.1-.3v-1c0-.3.2-.3.3-.5v-.3l.8-.7.5-.4 1.4-1a29.4 29.4 0 0 1 4.3-2.3c-.1-.1-.2 0-.5-.4l-.3-.4c-.1 0-.2-.3 0-.9.2-.5 1.9-1 2.6-1.2l1.8-.4c.6 0 .6-.2.8-.4h.4l-.2.2-.1.2-.2.2-.2.4c-.2.1-1 .4-1.3.7-.5.2-.9.4-1 .8-.2.3 0 .6 0 .6l.4.5c.3.2 0 .3-.3.3h-.8l-.8.4c-.4.1-1.3.6-1.6.9l-1.3 1.2-.5.4c-.2.1-.5.4-.9 1l-.7 1.2v.5l-.2.2h.5a12.2 12.2 0 0 0 1.1 0h1.1c.2 0 .2.1.1.1H24l-.4.1H23l-.6.2-.8.5-.6.3c-.2 0-.6.4-.7.7-.2.3 0 .7 0 .7l.3.3c.2.1.2.3.2.5 0 .1-.2.6 0 1.1 0 .6.6 1.6 1 2 .2.3 1 1 1.3 1.1l.6.4.3.2.4.4-.1-.2s0-.2-.2-.3v-.4c.1-.3-.2-.6-.5-1.1l-.6-.8v-.5l.2-.7c.1-.5.4-1 .9-1.4.4-.5 0 0 .6-.5.5-.6 1-.8 1-.9l.3-.2.3-.1.4-.2.3-.2h.3l.2-.2.2-.1c.2 0 .2-.1.5-.3l.4-.2.5-.2h.3l.6-.1.1-.2h-2.8l-.1-.3s0-.2.3-.5l.5-.7.5-.4 1-.8 2-.7 1.5-.4 1.9-.2h1.7l.4-.1 1.5-.8c.8-.4 1.2-.5 1.8-.6l2-.6 2.1-.3 1.3-.3.3-.1c.1-.1 0-.2 0-.2h-.3l-.1-.2v-.5l-.2-.5v-.5c-.3-.5-.6-.7-1-1a3 3 0 0 0-1-.4l-1-.2-.4-.2c0-.1 0-.2.3-.2h.9l1.4.4 1 .2 1 .3c.4 0 .7.3 1 .5l.8.5c.2 0 .3.2.4.4l.1.3c.1.1.3.2.3.4v.2l.4.1-.1.1-1.8.4-2.8.7-2.5.6-1.9.7-1.6.8-1.2.6-1 .2-1.3.1-1.1.4-1.2.3-1.1.4-.4.3-.5.3-.6.3c-.2.1-.2.2-.2.3l-.1.1c-.1 0 0 .1 0 0 .2 0 .1.1.2.2 0 0 .1.1.2 0h.9l.5.1h1.4c.5 0 .5 0 .8.2l.7.2c.1 0 .1.2 0 .2l-.1.3c-.2.2-.3.1-.3 0l.1-.1v-.1l-.2-.1c-.2 0-.2-.2-.6-.1h-1.5l-.4.2-.5.1-.7.1-.5.2-.4.1-.4.2-.5.5c-.2.2 0 .4 0 .5.1 0 0 0 0 .2s.1.2.2.3l.2.3c0 .2-.2.2-.5.6l-.7 1.2c-.2.2-.1.6 0 .8 0 .3 0 .4.1.3l.4-.2 1.4-.8 1-.5a26.5 26.5 0 0 0 1.1-.6c.2 0 .2-.2.4-.3l.4-.1.6-.3.5-.3.6-.2.6-.1 1-.1h.8l.3-.1.3-.1.2-.1.4-.1.8-.1 1.2-.1h2.5l1.7.2h2.4c.1.1 0 0 0 0l-.1-.3-.3-.5-.8-.6-1-.8c-.3 0-.5-.2-.5-.3h.1l.2-.1h.6l.5-.1h.7l.4-.1h.3l.6-.3.3-.3c.1-.7-.2-1-.3-1.1l-.5-.5a4 4 0 0 0-.9-.4c-.2 0-.1-.1-.3-.2-.1 0 0 0 0 0l.4-.1h1c.5 0 .8.2 1.4.3.5.2 1 .5 1.4.9.3.4.5 1 .5 1.2 0 .3-.2.3-.7.6-.4.2-.5.3-.9.3l-1.3.2H47c-.2 0 .1.2.4.4.4.2 1 .6 1.3 1 .4.4.5.6.4.8v.3h.6a22.3 22.3 0 0 0 .9-.1h.6l.3.1 1 .1v.3l-.7.1-.4.3-.4.1-.6.1-.6.3-.5.2c-.3 0-.4 0-.5.2-.2 0-.4.2-.5.3H48c-.2 0-.5.1-.7.3l-.6.4c-.1.1-.3 0-.5.2l-.7.4-.6.3-1 .4c-.3.2.2 0 1 0l3.2-.3 2.4-.1.1-.2h1.6l6-.3 8-.3 13.5-.3a118 118 0 0 0 10-.7l2.8-.3 3.8-.4 2-.3h2.7l3.5-.6 3.2-.5 3.2-.7 2.7-.5 2.8-.8 2.3-.6 2.3-.6 2.3-.7a208 208 0 0 0 7.4-2.6c1.6-.7 2.3-1 3.1-1.2l2.2-1c.4 0 .6-.2.6-.2H138.8l.7.7.3.3s.1.2.2 0l1.5-1.3 1.5-1.4.8-.8.6-.5.5-.6.7-.6c.2 0 .3-.2.3-.2l.1-.1m-54-6.3-.5.2c-.3.4-.4 0-.2-.1l.4-.2h.2v.2Zm7.7-9.4 1.1-.7.7-.4v-.1l.3-.3.9-.5.8-.4c.5-.3.3 0 0 .3l-.2.5-.6.4-1.1.6-.8.4-.7.2-.6.2c-.3 0-.2 0 .2-.3M89 122.3l1-.9.6-.4.4-.3.4-.3c.2 0 .4-.3.7-.5l.7-.5.5-.4 1.6-1.3L97 116l2.1-1.3.3-.1 1-.8 1.4-.8s0-.3.2-.4l.9-.6.7-.4.7-.4-.1.5-.9 1.2-.6 1c-.2.3-.2.6-1 1.2l-1 1.1-.5.6-1.5.9-2.3 1.6-.6.3s-.3.4-.5.4l-.2-.2-.2-.2s.2 0 .3-.3c0-.3 0-.4-.1-.3l-.8.3-.8.6-.9.5-.6.5-1 .5c-1 .5-1.4.7-1.7 1-.4.1-.7 0-.4-.2m-5.7 7.2c-.2 0-.2-.3.2-.7l1-.8 1.9-.5c1-.2 1.6-.5 2-.4.4 0-.1.4-.2.5a56.8 56.8 0 0 0-1.8 1.2l-1 .4-.6.3-.4.3-.7.2H83l.3-.3-.1-.1m1-19.6c.5-.3.3-.3.7-.3.3 0-.5.4-.8.7l-.6.2.7-.6Zm-3.7 1.8.4-.3.6-.4h.4s.2-.3.5-.4c.2-.1 0 .1-.2.3l-.5.2-.7.4c-.5.4-.5.3-.5.2m-6.4 3.3c.2 0 .3 0 .7-.3.4-.1.8-.5.8-.5s.7-.2 1.1-.5l.8-.5.7-.3.7-.5c.2-.2.2 0 0 .3l-.4.3c-.2.2-.9.8-1.6 1.2l-1.5 1-1.5.6c-.3 0 .3-.8.3-.8m-4.6 2.6 1-.5c.8-.4 1.1-.2 1.1 0l-.1.7c0 .2-.5.3-.8.5l-.7.4-.7.1c-.2.1-.2 0-.2-.4 0-.2 0-.5.4-.8m-7.1 17.7c0-.2.4-.4 1.7-1 1.3-.7.6 0-.5.6l-.8.4c-.4 0-.5.2-.4 0ZM38 108l.8-.4.6-.3c.2 0-.3.3-.4.5-.1.2-.3.2-.6.4l-1 .7c-.2 0-.3.2-.6 0-.2 0 .2-.2 1.2-.9ZM92.2 136l-.2.3-.7.5c-.3.2-.3 0-.3 0l-.5.2-.6.1v-.2l-.3-.2.1-.5c.1-.2.3-.4.7-.6l.7-.3h.7c.5-.1.5 0 .5.2v.5m10.7 1.8c-.4 0-.2-.2.3-.2 1.1 0 .2.2-.3.2ZM72.8 86.9h-1l-1 .2-.8.5c-.2.2-1.3.5-1.9.6a27 27 0 0 0-4.3 1.5l1-.3 1.1-.3c.2 0 .4 0 .7-.2l.9-.4 1.2-.3 1.4-.4.6-.1.9-.2a6 6 0 0 1 1-.2l.8-.2.5-.2h-1.1m40-16.1h-.6l-.6.3c-.1 0 0-.1 0-.2h-1.9c0 .2-.2.4-.5.8l-.4.6-.3.5-.7.7-.8.6-.8.5c.2 0 0 .1 0 0h.3l.6-.3 1.2-.7.6-.3.2-.3.7-.5.9-.6.4-.1c.1-.2.4-.3.8-.5l.9-.6m-8.5 15.1-.3.2-1 .2c-.3 0-.3.2-.5.2h-1c-.3.2-.6.2-1 .2l-.9.1-1.1.5-.6.4-.6.7-.6.5-.4.3-.4.4-.3.1.1.1.4-.1.2-.2h.4l.8-.4 1-.5.6-.4.4-.1.4-.1.7-.3c.3 0 .8-.3 1.5-.6l1.8-.8.4-.1c.2 0 .5 0 .2-.1-.2-.1 0-.2-.2-.2m-11.7 15c-.1.3-.5.5-.3.4l.7-.3.6-.6.5-.4c.2-.2.4-.4 0-.2l-1 .7-.5.3M114 64.2l.4-.7c.2-.5.3-.4.4-.5l.4-.1.5-.2c.2 0 .3-.2.2-.2h-.4l-.5.2-1 .3-.8.3h-.6v.2h-.3l-.3 1-1.1 1.7c-.2.3-.3.3-.2.4 0 0 0 .1.2 0h.2l.3-.2.7-.6.6-.5 1.1-.8c.2-.1.1-.1.2-.3M13.7 136.6l.1-.2h.2l.2-.5c.1-.1-.2 0 0-.2l.1-.5.2-.2.3-.1.1-.3h-.2l-1 1-.5.8c-.3.2-.2.3-.2.3l.3-.1h.4m93.2-57.4 1.2-1.1.3-.1h.4l.4-.2c.2 0 .4 0 .7-.2l.3-.1.4-.1h.4l.5-.2c.2 0 .2 0 0 0h-1.1l-.9.1H106.1l-.9.1-.2.2-1 1-1.1 1.3-.6.5h.1l.3-.1c.1-.2.2-.2.4-.2l.4-.1c.1-.2.2-.1.4-.2l.5-.2h.2l-.5.3-1.1.7-.7.5-.8.6.9-.2 2.4-1 2.2-1.3m-89-9.8 1.3.4 1.1.3 1.6.5 1.7.5 1 .2h4.4l1.5-.3h1.7c0 .2-.3.2-.6.3l-1.4.5-1.6.2c-.6 0-1.4.4-2.2.4l-3.2-.6-2.5-.4-1.4-.2H19l.7.2 1.7.2c.6 0 1.4.3 2.3.4l1.7.3.7.1H30c.4-.1 1.9-.3 2.8-.6a28.8 28.8 0 0 0 3.1-1.2l1.8-.8 1.3-.5 1-.5.7-.5c.2-.1.3 0 .4-.2l.8-.6.8-.6.5-.5.5-.4 1.1-1.1.6-.6.3-.4.8-.9c.3-.2.4-.4.5-.6l.3-.4c.1-.1.1-.4.3-.5.2 0 .5-.4.6-.5l.2-.2.8-1.2 1-1.8c0-.3.3-.9.4-1l.1-.3s0-.4.2-.6c0-.2.1-.5.1 0v.5l.3 1c0 .2.2.4.1.5l.1.3c0 .1.2.2.1.4l-.3.7-.2.3v.3h.4l.4-.2h.2c0 .1.3.6.3 1v.8l-.5.6-.4.2c-.2.2-.3.4-.6.5-.2 0-.3.2-.3.2h.2l.3.2h.5l.7-.2.5-.2v.9l-.1.3-.1.4-.5.5-.5.4-.5.5c-.2.1-.2.2-.2.3l-.3.3-.4.3h1.1l.3-.2 1.1-.3.8-.2h.1v.2s.2.6.1.8l-.1.4c-.2 0-1.4.9-1.8 1-.4.3-1.9.8-2.4 1l-.6.3c-.1 0 0 0 0 0l2 .1 2.7-.1 1.5-.1 1-.4 1.6-.4 1-.5s.1-.1 0-.4v-.7l.4-.2.4-.1s.3-.2.4-.1l.2-.1.5-.1a10.3 10.3 0 0 1 1.3-.3h1.7V66l.2.1.7.2 1 .7.6 1v.5c.1.1.2.2.3.1 0 0 .3 0 .5-.2l.4-.2.2-.1c-.1 0-.5-.6-1-.9L64 66.1l-1-.4-.4-.1-.4-.1-.3-.3s-.1-.1 0-.2h.4l.3.1h.3l-.1-.1-.6-.5-.6-.5s-.2 0-.5-.3l-1-.7s-.4 0-.6-.2c-.1 0-.3 0-.4-.4l-.2-.3-.2-.2v-2.5s0-.6.2-.9l.8-1.8.6-1.4.7-1.5.3-.5.5-1c0-.2-.8-1.3-.5-1.6l.6-.8c0-.2.3-.3.3-.4l.1-.1-.4-.5-.3-.3.5.4.9.8.4.5h.2c.1.1 0 .2 0 .2l.5.5.6.7.6.5.9.5.7.5h.3l.2-.2 1.7-.6 2-.7s.2 0 .4-.3l1.1-1 .9-.7c.3-.2.5-.3.3-.4l-1.4.1-1.7.3-1.5.2c-.4 0-1 .3-1.1.3h-.6l.6-.5.3-.2 1.4-.3 1.2-.2 1-.3.8-.4c.2 0 .9-.6 1.1-.8l1.4-1 .6-.6h1.2l.6.1h.2l-.7-.6c-.2-.2-.6-.6-.9-.7-.2-.2-.7-.9-1.9-1.5-1.1-.5-3.8-1.9-4.4-2h-.8l-2 .7-1.2.2-.4.2-1.2-.2a37 37 0 0 1-2.2-.5l1 .1H65l.8.2c.2 0 .2 0 .2-.2l-.1-.4c-.1-.2 0-.3-.2-.5l-.2-.6v-.1l.7-.4.5-.1.4-.3.4-.1.4.1.5.2.7.1h3.2l-.4-.2-.5-.3-1.4-.5-.5-.2-.7-.4-.9-.5-.4-.1v-.2H70.4c.2 0 .2 0 0-.1l-.7-.3-1-.5-.9-.5-.5-.2h-.3v-.8a13 13 0 0 0-4 .8l.4-.5 1.1-.5c2.5-1 4.9-1 6.3-.8h.7l1 .1 1.2.3 1.1.3.4.3 1.7.9a17.2 17.2 0 0 1 2.3 1.7h-2.3l.4.1c.3.2 1.4 1 1.6 1l.8.8 1 .8c.6.5 1.5 1.5 1.6 1.8v.6l.2.3v.3h-.2l-.7-.7-.8-.4-.7-.3-.6-.3-.3-.1.7 1.2 1.5 2.3c.4.5 1.4 2 1.7 3.2.4 1.4.4 2.4.4 2.4h.5l.6.4-.4.2-.6.2-.2 1.6v2l-.1 1v.6l.3-.4c.1 0 .5 0 .5.3v.9l-.1.7-.2.7-.4.9-.2.5c0 .2.2-.4.4-.6l.5-1 .6-1.4.3-1.7c0-.4.1-.7 0-.8V54s.3 0 .4.3v3.2l-.1.2v.7l-.3.7-1.2 2.8a19 19 0 0 1-1.5 2.4l-1 1.2c-.2.2-.2.2 0 .2l.6-.4.7-.2h1.6l-.1.2H84.3l.2.1c.1 0 .2.3 0 .5l-1 1c-.4.5-.6.7-.8.6-.2 0-.1-.2-.1-.3 0-.1.1-.3 0 0l-.7.8-.7.8c-.1.2-.7 1-1 1.2-.3.3-.3.5-.5.5s-.3-.1-.3-.3v-.4c.1 0 0-.1 0 0l-.5.8-.6.6-.2.4-.8 1-1 1-.3.2v.3l-.7.2-.4.2-.3.2c0 .1 0 0 .1 0l.2.2.2.2v.6c0 .1 0 .2-.3.4l-.9.6-1 .5-.4.4-1.2.6A50 50 0 0 0 68 80l-1.8 1.2-1.7 1.2c-.3.2-.2.2 0 0l1.1-.6c.3 0 .5-.2.7-.3l1.6-.6 1.8-.8 2-.9 1.3-.6.5-.2.4-.2c.3 0 .5-.2.7-.3l1-.3.7-.3 1.6-.5 1.9-.6 1.6-.6 1.4-.4 1.4-.4c.2 0 .1.2 0 .2l-1.4.5-2 .7-2 .6-1.7.7a2 2 0 0 0-.7.3l-.5.3-2.3 1.2-3.8 2-3.1 1.6c-.6.3-1.2.7-1.5.7a2.9 2.9 0 0 0-1.4.7l-1 .5c-.2.3-.5.4-1.1.7l-1.3.8-1 .7-.7.5v.2h.3l.3-.1.4-.3h.3l.4-.2.4-.1.5-.4.7-.3.1-.1c0-.1-.1-.1 0-.2l.6-.2.7-.4h.4l.4-.1-.3.3c-.2 0-.3.1-.6.4l-.7.4a3 3 0 0 1-.3.3v.2c-.1 0-.3 0-.4.2l-.9.6-1.1.8c-.3.2-.1.2 0 0l.5-.2.5-.2a9.8 9.8 0 0 1 1.4-.8l.6-.2h.5l.3-.3h.7l.5-.1 1.3-.1 2-.2c1.2 0 1.7 0 2-.2l.6-.2s.1-.1-.2 0h-.5l.3-.3.2-.1-.2-.1-.3-.5s-.1.1-.1 0c0 0 0-.2.2-.2l.2-.2s-.2-.2 0-.2l.6-.3.8-.2.5-.1h1.8l1.4-.2c.5 0 .8-.2 1-.3h.6s-.1.2-.7.5l-1.4 1-1 .4-1 .5c-.3 0-.5.2-.7.3l-.8.5-.2.1.5-.2h.4l.2-.2h.3c.1-.1.2-.2.4-.1.2 0 .5 0 .7-.2.1-.2.2-.3.4-.3l.5-.2.3-.1.6-.3.5-.1.4-.1.5-.1h.5l.6-.3h1.6l.5-.2 1-.5 1-.5.5-.2c.2 0 .5 0 .7-.2l1-.1 1.3-.3 1.4-.4 1.8-.5 2-.4 1.5-.2.8-.1c.2 0 .2-.1.3-.2 0 0 .1-.1 0-.1h-3l-1.6.1h-2.2c-.3 0-.2-.1-.4-.2l-.6-.1c-.3 0-.6-.2-.3-.4.2-.2.4-.5.7-.6l1.9-.8c.8-.3 1.2-.3 1.4-.5l.8-.2c.1 0 .4-.2.4 0l.1.3.2.2.3.3.3.2h.3l.3-.1s0-.2.2-.3c.2 0 .3-.1.3-.2l.6-.3 1.3-.8 1.4-.7c.6-.2 1-.6 1.3-.6l2-.8 1.2-.6.6-.2h-.5c-.4.2-2.4.5-3.7.8l-2.6.4c-.2.1-.4 0-.4 0l1-.6 2-.7 2.1-.7c.5-.1.6-.1.7-.3l.6-.2.9-.3.4-.2s.1 0 0 0l-.4-.2h-.3V72s0-.2-.2-.2h-2.5l-.6.1-1.1.1h-2l-1 .2-1.3.2c-.5 0-1.2.2-1.2 0h.5l.6-.2.6-.2.4-.1c.1 0 0-.1 0-.1h.2l1.6-.1 1.7-.2 1.2-.1h.6l1-.1.9-.1h.7c.2 0 .2-.1.3-.2l.1-.1s.2 0 .5-.3l.4-.4c.1 0 0-.3.2-.4.1-.1.1-.2.4-.3l.5-.1.4-.3.6-.3 1.1-.6.8-.4.5-.4.2-.2-.1-.3v-.4l.1-.2.1-.2.2-.4a8.2 8.2 0 0 1 2.7-2.2l.7-.3h.2c.1-.1.4-.3.2-.3h-.3c-.2 0-.1.1-.2 0h-1.1l-.3-.1h-1l-.1-.1-.1-.2h-.2l-.9-.1h-1.4c-.3-.2-.8-.1-1.2-.2h-1l.5-.3.3-.2.4-.1h.4l.6-.1h.5c0-.1.1-.2.2-.1h.7l.3-.2h.7l.2-.1V61H106l-.4-.2v-.3l.1-.2s.2-.3.8-.5l1.4-.4a25.7 25.7 0 0 1 1.3-.3l-.2.3-.5.8.8.4.7.2h1l.6.2h1.5-.3l-.4-.1-.4-.2c-.3 0-.4.1-.4 0l-.1-.1-.1-.3c-.2 0-.7-.4-.8-.5l.3-.8.7-.3 1-.5.6-.2.2-.1-.2-.1h.2l.4-.3.8-.4.5-.2.3-.1c0-.1.1-.1.2 0 0 0 0-.2-.5-.2H112l-.2.1h-2.5l.4-.3.5-.3.7-.3.6-.3h1c0-.1.1 0 .2 0l-.1-.2c-.2 0 0-.1.1-.1h.3l.1-.2v-.2c-.2 0-.6-.3-.7-.6-.2-.2-.2-.4 0-.6l.7-.3h.6l.1-.2.4-.4.5-.3.4-.1.3-.1h.2c.2-.1.2-.2-.2-.2h-1.8l-.6-.1H110.4l-.4.3c-.2 0-.3 0-.5.2-.3.2-.3.3-.5.3s-.5-.3-.7-.6c-.3-.3-.7-1-.7-1.3h.6l.3.2h.2v.1c-.2 0-.3-.2-.3-.2h-.1v-.5l-.3-.2.2-.4s.3 0 .2-.1h.3l.2-.1h1l.3.1h.6c.2 0 .2-.2.3-.3l.4-.5.8-.3h.6l.5-.2h.5l-.3-.2h-.8l-.7-.1c-.1-.1-.6-.1-.8 0h-1c-.4 0-.7-.1-.7-.2l.5-.3v-.2s.6 0 .8-.2l1.2-.3.5-.1 1.1-.1 1-.1.5-.1h.5l.7-.1s.1-.1-.2 0l-1-.2-1.2-.4-1.1-.1-1.2-.8c-.4-.3-.7-.3-.7-.3 0-.1 0-.1-.2 0-.2 0-.4 0-1 .3l-1.8.4-1.1.1h-1.3l-.8-.3c-.1-.1-.2-.2-.1-.3v-.2l.2-.4H106.5l.2-.1H107.3l-.3-.2.5-.1h.3l.5-.2v-1l-.3-.6v-.7s.1-.3.3-.3h.5l.5-.1h.2l-.3-.2-.4-.1V40.4h1.1l-.2-.1-.6-.1h-.5l-.5.2h-.6c-.5 0-.9-.2-1-.3h-.5l-.4-.1-.5-.1h-.6l-.3-.2-.3-.2h-.5l-.3-.1-.3-.1h-.5l-.5-.1-.3-.1h-1.1c0-.1.1-.2.3-.2h.5l.4-.1h.3l.3.1h.7l.5.1h1c.4 0 .5.1.8 0h2.4c.2 0 .2-.1.1-.1h-.6l-.1-.1h-.4l-.2-.1-.4-.3c-.2-.1-.3-.3-.3-.4l.1-.2h.5l.2-.1h.1l-.2-.1h-1.1c-.3 0-1.1-.7-1.6-1a4 4 0 0 1-1-1.2V35s.1 0 0-.1v-.1c-.2 0 0-.2.1-.2l.5-.3.3-.1s.2-.2 0-.2h-.8l-.1.2h-.5l-.2-.1h-.8l-.8-.1H99.5l-1.2-1a4 4 0 0 1-.6-1 4 4 0 0 1 0-1.3l.7-.6h1l1 .2.7.2.5.2.2.1h.2l-.2-.1-.4-.3-.7-.2-.8-.3-1.9-.4-2-.3-1.6-.3h-2.2l-.3-.1-.4-.2-.7-.2h-.4l-.3-.1-.4-.2h-.6.1l-.5-.2.4-.1.6-.1H93.7l.4.2h.4l.4-.1h1.5l.7.1c.2 0 .1.1.2 0l-1-.3-.7-.3-2-.7-.9-.4-1.3-.3-1.6-.4-1-.1-.5-.3c-.2-.2 0-.2.1-.2l.4-.2.2-.1h-1l-.6-.2c-.1 0-.3-.2-.3-.4l.5-.2.6-.2.6-.2.6-.2c.1 0 .5 0 .7-.2h.8c.4-.1 0-.2 0-.2h-2.7l-.4.1h-.6l-1.2.2-1.5.2c-.8 0-2.2.4-2.8.5a8 8 0 0 0-1.1.3 4 4 0 0 1-.7.2l-.6.2h-.5l-.1-.1h.2l.3-.3.3-.2.5-.3.6-.2.6-.2.6-.1.5-.2h.2l.6-.3h.6c.1-.2.3-.2.7-.2l.6-.3h.3l.4-.2h.3l.2-.1v-.1H86l-.9-.1h-4.4c.2-.1 0-.2-.4-.2l-.8.1-1 .1a4 4 0 0 0-.8.2l-.7.2h-.4c0-.1 0-.2.2-.2l-.2-.2.2-.2.3-.2.1-.2.3-.1.2-.1h.2l.6-.4.6-.2.5-.3h.3l.6-.3h.5l1-.1c.3 0 .2 0 .2-.1h-3l-2 .4-2 .7-2.2.4h-1l-.2.1.2.3s-.4.4-.9.5l-1.6.1-1.3.2h-.6l-.6.4-1.4 1-1.6 1.1-1.7 1.3c-.3.2-.5.3-.6.2l.4-.4.7-.6.9-.8 1-.8 1.2-.8 1.2-.8.7-.6.4-.2.4-.1.6-.4.6-.2h-.6l-2 .9-2.2.8c-.6.2-1.3.7-1.6.9l-.4.2-1 .8-.3.2a3 3 0 0 1-.6.5v-.5c0-.3.4-.7.7-.9.3-.3 1-.6 1.2-.7.2-.1 0-.1 0-.2l.1-.3.6-.5 1-.7.1-.2-.4.1h-.2l-.6.4-1.2.8-1 .6-1 .6-1.2.8-1 .7-.3.2-.1-.2-.3.2-.8.4-.5.4-.2.3-.7.8-.6 1c0 .1-.1.2-.3.2-.2 0-.2-.1-.3-.2H54v-.5h.1-.2V27l.4-.5.6-.8v-.3l.5-.6.5-.5-.7.4c-.3.1-.4.4-.5.4h-.3c0 .1 0 0-.1 0l.2-.5a21.9 21.9 0 0 1 3.4-3v.2l.5-.3c.1-.2 1-.7 1.4-1l1-.7-1.5.7a346.3 346.3 0 0 0-1.4.8l-1.5.8-1.5.9-1.6 1c-.1 0-.1.2-.3.2-.2 0-.3.3-.8.6l-2 2c-.6.7-1 1.6-1 1.7l-.8.6c-.4.4-1 1-1.3 1l-.3.1s0-.4.3-.9c.2-.5.7-1.4 1-1.6l1.3-2a26.1 26.1 0 0 1 2.5-2.6l.1-.1-.2-.1c-.1-.2 0-.5.3-.7l1.2-1 1.3-.9.6-.3.5-.2.8-.4 1.3-.5.4-.2 2-.9c.6-.2 1.3-.7 1.3-.7l.6-.2 2.1-.7 1.5-.5a23.9 23.9 0 0 0 3.6-2l.3-.3.5-.5.2-.5.3-.7.2-.5V11l-.4.1a1 1 0 0 1-.5 0l-.4.1-.9.1v.7l.1.4-.5 1c-.2.2-.6 1.1-.8 1.2l-1 .6-2.3.8-.8.2-2.4.6-3 .8-2 .5-1.1.4-2 .7-1.7.8-.9.4c-.2 0 1-.7 1.6-1l1.4-.8 1-.4h-.5l-1 .4-.7.5-2 1a13.4 13.4 0 0 0-3.5 3L45 24.5c-.4.3-.7 1-.8 1l-.5.3c-.2 0-.4.4-.5.5-.1 0-.1-.1 0-.2v-.5s-.1-.2 0-.4l.2-.5-.9 1.4-1.3 2.2-.6.6.2-.6-.2-.6-.2-.3s-.2 0-.2.2l-.3.6c-.2.1-.5 1-.7 1.1l-1 1 .8-1.7a354.6 354.6 0 0 1 1.7-3.3v-.6l.5-.8c0-.3.4-.6.6-.8l1-1 .3-.4 1.6-1.1c.5-.4.3-.4 0-.2l-.7.5-.7.5-2.2 1.5a6 6 0 0 0-1.3 1.3l-.8.6c-.3.2-.3.8-.4 1l-1 1.3c0 .3-.3.6-.8 1.4l-1 1.4-.6 2.1c-.2.8-.3 3.6-.4 3.7l-.5.9-.6 1.1H33c-.3 0-.8-.5-.8-.5s-.1.1-.2 0c-.2 0-.2-.5-.2-.5l-.2-.2v-.8l.2-2.5.2-1.4-.5 1.4-.7 2.6-.3 1.6-.2 1.2v1s.2 0 .3.2l.3.4h.2v.2h.3c.2 0 .2.2.2.2l-.4.9v.3l.3.1.4.1c.2.1.2.3 0 .4l-.7.8-.2.4.2.1.6.2-.2.1-.7-.1-.3.2h.2l.5.3c-.3.5-1.9 1.4-2 1.5l-.6.7-.4.4.2.3v1.2l-.5.5-.2.6-.8.9-.3-.4V50l-.1.3c0 .2-.3.4-.7 1l-.8.9s0 .2-.2.2l-.5-1.3a74 74 0 0 0-.5-1.6l-.1-.2-.2-.4v.4l-.1.4c-.1 0-.2 0-.2.2l-.5 2.3-.4 2.3-.2.2c-.1.2-.3.3-.5.3l-.2-.2c-.2-.5-.3-.5-.4-.6V54H21l-.1-.2a5.7 5.7 0 0 1-.6-1.4V52l-.2.2v.5l-.1.5v.3l-.1.4h-.2l-.9-2.5a19 19 0 0 1-.6-1.8l-.2-.1-.1-.3-.2-.9-.3-1.5v-.7c-.1-.2-.1-.6-.2-.2v5.7L17 54v.5l.4.8.1.9.3.7s-.1.1-.2 0c-.1-.2-.2-.3-.2 0v.4l.3.7-.1.6-.3.2v.3c0 .2 0 .3.2.5l.1.5c0 .2 0 .3.2.4l.5 1 .4.5.5.5.1.2.3.4.2.2-.2.1c-.1 0-.2 0 0 .1l.6.2 2 .6 2.4.6 1.8.4 1.3.2h.6c-.1-.2-.7-.5-1.3-.9l-1-.5c-.2 0-.4-.4-.6-.6l-.4-.4s0-.1.2 0l1.1.2a16980.3 16980.3 0 0 0 3 .3l.2-.1-.5-.2c-.5-.2-.4-.2-.3-.2l-.3-.1-1-.6h-.3l-.4-.8.1-.1 1.3.1a57.8 57.8 0 0 0 2.4-.2l-.6-.2h-.3l-.5-.4c-.1 0-.1-.2-.2-.1v-.2c.2 0 .5-.3.6-.4l.4.1h1.6l.4-.1v-.3l-.1-.5h-.1l.4-.4c.3 0 .5-.2.5-.2V58l.2-.3h.2c.2-.1.3 0 .4 0H35.2l.8.2.5-.1-.3-.5-.1-.7s-.5 0-.3-.1l.9-.5.4-.1.6-.3.5.2.8.3.6.1.4.3.2-.3-.4-.8-.9-1.5s1-.4 1.8-.5c.2 0 0-.4 0-.7v-.5l.8-.3 1.8-.6.7-.1s.2-.2.6-.2c.4 0 1-.2 1 0l-.5.3c-.3 0-.4.2-.8.5l-.6.4.4.6.3 1.2v1l-.2 1.2-.1 1-.2 1.1-.5 1.7-.2 1-.2.6a11.3 11.3 0 0 1-1.3 3.1 8 8 0 0 1-1.2 1.4l-.4.5-.9.6a25.4 25.4 0 0 1-3.3 1.8l-.6.3c-.2.2-1 .3-2.2.6a27 27 0 0 1-2.7.7h-1c-.5.2-1.2.4-2 .4h-2.1L24 71l-1.4-.4-2.7-.8-2.5-.6c-.6 0-1.2-.2-.7 0 .5 0 1.1.2 1.3.3m46.3-24.6h.7l.8.2-.1.3-.5-.2c-.5 0-1-.3-.9-.3Zm-2.3.2 1.2.5.6.1.6.3c.3 0 .4 0 .3.2h-.6l-1.8-.9c-.4 0-.6-.3-.3-.2ZM81 81.7l-.8.4s-.2.1 0 0c.2-.3 0-.4.2-.6l-.6.5a2 2 0 0 1-.8.3l-1.2.2-1.2.2H76c-.2-.1.4-.3 1-.5l1.5-.7c.5-.2.9-.2 1.2-.2H81c.3-.1.6-.1.8 0l-.6.4M108.8 46h.4c.2.2-.3.1-.5 0h.1Zm-.3 11.5-.3.1-.6.3-.7.2-1 .4-.8.4a28.4 28.4 0 0 1 .8-1.2v-.1l.1-.3h.2l.4-.1h1.1l1 .1c.2 0 0 .1-.2.2m-.8-3.7.8.1c.2.2-.1.2-.5.2-.3 0-.4 0-.6.2-.2 0-.4 0-.3.2l.2.4h-.6c-.1-.2-.2-.2-.5-.3l-.4-.1c-.3 0 0-.3 0-.4.1 0 .5-.3 1-.2h.9m-2-8c.2.1 1.3 0 1 .1l-.7.1-1 .1c-.5 0 .3-.3.6-.2m-1.2 1.1.9-.1.2-.2h1c.2 0 .1.1 0 .2l-.4.4-.2.5.1.2s0 .2-.2.1h-.8l-.6-.1c-.3 0-.4-.4-.4-.5 0-.2.3-.4.4-.5m.5-9.2.1.4-.6-.5.5.1Zm-4.7.6h.2v.1h-.5l.3-.1m-1.3 28 1.1-.8.7-.6.4-.6c0-.3.2-.2.8-.3h1.5c.3 0 .3 0 0 .2-.3 0-.3.1-.6.4-.3.2-.3 0-.6.1-.3 0-.3.1-.5.3l-.6.4-.8.4c-.5.1-.8.2-.7.3l-.1.5h-.8c-.3 0 0-.1.2-.4Zm-3.5-37h.7c0 .1 0 .3-.1.2l-.6.3c-.3.1-.3.3-.6.2-.3-.1-.6-.3-.7-.5 0-.2-.2-.2-.2-.2v-.2s1.2 0 1.5.2Zm-2.3-.3.5.1v.3l-.7-.2c-.2-.1 0-.1.2-.2Zm-6.9 44.2c.3 0 .5-.2.8-.4l.6-.3h.4c0 .3.5 0 0 .3l-1.4.6-.6.2c-.3 0 0-.3.2-.4Zm-.6-20.6-.2.3s-.4 0-.4-.3.6 0 .6 0Zm-25.8-18H59c-.5-.3-.3-.2.6-.4h.5l-.3.3ZM79 32c.3 0 .5.3.5.3l-1.4-.1c-.4-.1 0-.2.9-.2Zm-6-9.7c.3-.4.6-.5.6-.5h.5l1-.2c.4-.1-.4.3-.4.3l-.4.1c-.4.1-.8.4-1 .6-.3.1-.5.1-.7.3l.3-.6m-2.5 8.3h.5l3.4.4c1.2.1 2.5.6 2.5.6a39 39 0 0 0 .1.2h-2c-.9 0-2.5 0-3.9.2-1.3 0-2.9.2-4.3.5l-2.8.7s.5-.7 1.4-1.2l2-1 .4-.1.8-.1 1-.3c.5 0 .9.2.9 0m-9.8-.1 1-.9.4-.3 3.7-1.7 2-1 1.2-.3.5-.1-.2.2c-.2 0-.3 0-.5.2s-.3.1-.7.3c-.4.1-1.5.8-2 1.1l-1 .6c0 .2-.3.2-.5.3-.2 0-.3.2-.4.3l-.5.5-.4.3c-.2 0-.6.5-.8.7-.2.2-.5.6-.7.6H61l-.2-.1h-1l.8-.7Zm-2.3-4c0-.2.2-.3.4-.5l.5-.4.4-.2.3-.1s0 .2-.3.4l-.5.4-.3.4-.5.3c-.2 0 0-.3 0-.4m-.7.4.3-.4v.5c0 .2-.4 0-.3-.1ZM26.3 56l-.3.1-.5.3-.6.4-.5.4-.4.6c0 .3-.2.6-.3.8-.2.2-.3.5-.3.8 0 .2-.2.4-.3.3L23 59v-1l.5-.4.7-.5h.2l.4-.4.8-.6.6-.2c.3-.1.3 0 0 .2M49 53c0 1.8 0 1.9-.3 2.7-.2.9-.5 1.5-1 2.8l-.7 1.3.4-1.3 1-2.5.1-1c.1-.6.2-1.8.1-2a4 4 0 0 1 0-1.2v-1l.2-.3.1-.2s.2.8.1 2.7m6.2 11.2-.3.2-.4.3-.4.3-.7.1-.5.1h-.8l.1-.1h.2v-.2l.4-.1.4-.3 1-.8.8-.6.4-.2V64l-.2.1m.1-3-.3.1-.2.2-.4.2h-.3l-.4.2h-.6l.1-.2.4-.1.2-.2.4-.3.9-.8c.2-.2.2-.3.3-.2v.8c.1 0 0 .1 0 .2m0-4v.7h-.2v-.3l-.2.1s0 .1-.2 0l-.7.2-.7.2.3-.5.4-.6.6-.6.6-.5c.1 0 0 0 0 .4l.1.8Zm.3-5.2-.3.1-.6.1-.5.2c-.2 0-.4.3-.4.3-.2.2 0-.3 0-.3l.3-.2.6-.7 1-1-.1 1.5Zm1-16c.2 0 .2.2 0 .4h-.6c-.2-.1 0-.3.5-.4Zm-6.5-6.8.4-.5.3-.4s.3-.6.6-.8c.3-.2.5-.3.3 0l-.3.5v.5l-.2.3V29.3l-.8.8-.7.4h-.1V30l.5-.9m.5 20s.7 0 1.8-.3c1-.2 1.2-.4 1.4-.5.2 0 0 0 0-.2l.1-.3v-.5l.1-.6v-.5H54l.3-2 .2-.7.5-.7.2-.2c.2 0 .1-.3.1-.3l-1.4.2-2.1.3h-.4l.4-1 .5-1 .2-.8.7-.8s.4-.7.8-.9c.3-.1.3-.2.7-.6l.7-.8c.2-.2.4 0 .4 0l-.4.4-.6.6-.3.7c0 .3-.4.9-.6 1 0 .3-.5 1-.5 1.3v.8l-.2.4h.7l1.9-.2H57l-.2.3c-.2 0-.2 0-.3.3-.1.2-.8 1.3-1 2.6v3.6l-.3.1c-.2 0-.8 0-1.5.2l-2.6.4-1 .2-3.2.7c-.4.1 0-.1 0-.1l3.8-1M41 35.5l.3-.8v-.4l.4-.5.3-.7.6-1.4.5-1.2 1.2-2 .9-1.3v.2l-.2.5-.2.6c0 .2-.4.4-.8 1.2-.4.6-.7 1-.9 1.7l-.4 2.3.1.7.2.1-.2.5c-.2.3-.4.3-.4.3l-.2.1v.5l-.2-.1-.4.4-.8 1s0-1 .2-1.7m4.6 4.4-.3.4-.2.5-.3.3-.3.3-.2.4v.2l-.8.4-1 .5-.2.1-1 .4-1.6.5.2-.6c.2-.4.3-.3.3-.3l.1-.4.3-.4.2-.3.9-.6.7-.5.5-.2 2-1 .8-.6.2-.2.2-.2.3-.4.5-.1-.4.5-.5.5-.1.2-.1.2-.2.4m23.7 38.7s.1-.2.8-.6c.7-.4 1.1-.7 2-1.5l-1.6.8-1.8.9c-.7.4-1.4.6-.7.6l1.3-.2Zm13 28.5-.7.3c-.4 0-.5 0-.8.2-.3 0-.3.1-.4.3-.1.4 0 .3.3.2.3 0 .5-.2.8-.3l.5-.3.4-.2.7-.5c.1-.1.2-.2 0 0l-.8.3m-31-11.5-.3.1-.6.3c-.2 0-.6.2-.7.4l-.7.3-.6.1-.4.3-.5.2-.3.3-.3.4h.2l.7-.3 1.4-.6.6-.3s0-.2.3-.3l.9-.5.8-.5.5-.3.2-.2-.8.4-.4.2m1.7-2.2c.1 0 .2-.2 0-.1l-.7.4-1 .5-1 .6-.9.4-.5.3c-.2.3-.2.3 0 .2l.5-.2.3-.1s.2 0 .3-.2l.6-.3.7-.3.4-.3.4-.2.5-.4c.2 0 .2-.2.4-.3m25.4-7.6-.3.1.6-.1c.1 0 0 0 0 0h-.3M74.8 87l.8-.3.7-.2.7-.3.6-.2h-.4c-.2.2-.5.2-.8.3-.3.2-.6.2-1 .3l-.7.2-.2.1v.2h.3"/>
</svg>
