<svg width="160" height="160" viewBox="0 0 160 160" xmlns="http://www.w3.org/2000/svg">
<path d="M79.5 12C41.6677 12 11 42.6677 11 80.5C11 118.332 41.6677 149 79.5 149C117.332 149 148 118.332 148 80.5C148 42.6677 117.332 12 79.5 12ZM61.7277 26.4592C61.7277 26.4592 43.9414 35.9578 43.9414 49.424C43.9414 62.8901 53.6118 71.1777 58.099 74.4583C62.5861 77.739 61.723 80.5 61.723 98.4579C43.25 99.4927 33.2316 80.3283 33.2316 61.3356C33.2316 42.3429 51.1989 30.4312 61.7323 26.4592H61.7277ZM30.3083 54.2591C25.4731 84.4767 44.4658 97.9429 49.301 99.3257C54.1362 100.708 63.1151 100.36 63.4585 110.894C54.4795 114.866 40.8417 114.003 30.3083 98.5043C19.7748 83.0058 25.6448 64.2775 30.3083 54.2638V54.2591ZM78.4791 137.654C61.904 135.928 63.2868 135.58 49.8161 128.332C59.3147 126.606 60.6929 121.079 60.6929 121.079C60.6929 121.079 54.9946 124.703 48.2616 124.703C41.5285 124.703 30.1319 109.163 28.4057 103.293C28.4057 103.293 40.1457 114.17 45.1526 115.381C50.1594 116.588 59.6581 114.175 63.4539 115.209C67.2543 116.244 68.4607 124.708 70.8783 124.708C73.2959 124.708 78.4745 81.7158 74.6787 71.5303C70.8783 61.3449 64.317 59.9621 64.317 59.9621C64.317 59.9621 63.4539 50.2917 71.9131 42.1758C67.2496 47.5261 69.3238 53.2244 71.05 56.8531C72.7762 60.4818 78.4745 60.1338 78.4745 64.1059V137.659L78.4791 137.654ZM80.8086 57.4517L78.4791 52.1432L71.876 51.8833L76.3446 49.8091L71.876 47.8648L78.4791 47.3451L80.8086 42.1665V57.447V57.4517ZM104.72 73.4236L104.377 87.7528L130.45 98.9777L130.97 88.1008H134.594V110.031L115.773 120.736L113.875 117.284L122.683 111.414L100.409 95.0102L88.1495 101.915L90.3954 130.406L99.7178 125.056L102.307 128.165L83.486 139.562V21.4523L102.307 32.6771L100.233 36.1295L91.0822 30.0879L87.8015 58.5793L100.576 65.832L122.678 49.2569L113.699 43.9067L115.597 40.4543L134.59 50.8161V72.5697H130.965V62.0363L104.72 73.4328V73.4236Z" fill="#fff"/>
</svg>
