<svg xmlns="http://www.w3.org/2000/svg" width="160" height="160" fill="none">
  <path fill="#fff" fill-rule="evenodd" d="M71.28 64.48c-.06-5.16.04-15.9.94-17.54a10.38 10.38 0 0 0-5.82 0c-6.5-.56-21.42-1.46-29.07-.56a19.26 19.26 0 0 1-6.38 1.76l-.75.1c-.47.1-.95.52-1.44.97-.49.44-1 .9-1.56 1.09-1.13.37-4.32 2.42-5.63 4.29-1.31 1.86-2.81 3.36-4.13 3.36-1.3 0-5.62 10.07-6.19 13.8-.45 2.99-7.69 5.1-11.25 5.79v.74c2.81.13 8.9 1.16 10.7 4.3.5.87.76 2.33 1.1 4.16 1.17 6.37 3.18 17.26 18.77 23.63 16.06 6.57 33.2 2.74 39.77 0-.63-4.1-1.69-13.58-.94-18.65.75-5.08 2.07-11.57 2.63-14.18a22.36 22.36 0 0 0-8.44-.94c-3.9.3-17.76.13-24.2 0 .69 1.31 1.2 4.33-2.25 5.97 6.19-1.11 18.2-.74 20.26 3.55 2.06 4.3 2.06 17.35 0 17.72 2.81.19 3.75 3.55 3.19 4.67-.57 1.12-3.76 3.73-12.95 1.86-9.19-1.86-16.88-8.2-17.63-12.12-2.4-2.24-3.37-3.55-3.56-3.92l-.38-2.24c-.43-.5-1.35-2.13-1.5-4.66-.03-.47-.1-1.18-.19-2.08-.52-5.27-1.67-16.89 1.7-20.87 2.28-2.71 2.67-4.1 2.92-5 .19-.66.3-1.06 1.01-1.53.35-.23.81-.62 1.4-1.1 2.26-1.9 6.24-5.21 11.17-5.8 6.19-.75 17.07-1.87 21.95 4.66 2.25 3.43 2.18 7.9 1.87 9.7l3 1.3 1.88-2.23m8.06-16.23 3.2-1.5 7.87.56a7.24 7.24 0 0 0 5.82.94c1.05-.31 1.7-.62 2.29-.9 1.18-.57 2.14-1.03 5.77-1.16 4.35-.15 14.2.31 18.57.56 12.76.56 25.32 13.06 26.82 24.44.9 5.08 7.26 6.6 10.32 6.72v.93c-3.06.19-9.3 1.35-9.75 4.48l-.06.43c-.67 4.88-3.48 25.58-30.9 27.74-5.43.38-27.94.38-28.5.38-.29 0-1.32-.52-2.49-1.1-1.17-.58-2.49-1.24-3.33-1.52 3.41-2.62 2.98-9.83 2.73-14.04-.06-.88-.1-1.64-.1-2.19v-37.5c0-2.98-4.88-8.02-8.26-7.27m22.7 2.42c-3 .37-3.19 2.05-3.19 2.99 0 .24-.04.65-.08 1.14-.14 1.41-.33 3.54.08 4.64.56 1.5 1.13 3.54.56 4.66-.45.9-.56 4.98-.56 6.9v32.47c-.06.69-.37 2.2-1.12 2.8-.94.75 1.87 1.68 4.87 1.5.95-.07 2.8-.09 4.99-.11 4.75-.06 11.03-.13 12.83-.64l.36-.1c3.35-.91 16.52-4.48 16.52-25.28 0-21.64-12.94-30.97-20.63-30.97h-14.63" clip-rule="evenodd"/>
</svg>
