<svg xmlns="http://www.w3.org/2000/svg" width="160" height="160" fill="none">
  <path fill="#fff" fill-rule="evenodd" d="M149 80a69 69 0 1 1-138 0 69 69 0 0 1 138 0m-11.09 0A57.91 57.91 0 1 1 22.1 80a57.91 57.91 0 0 1 115.82 0M94.03 37.31H55.15v8.19L60.7 49l6.14 1.18 2.34 4.1 9.94-4.1 7.31 4.97 4.39 1.17 3.8-2.05h3.21l5.56 5.85h10.23v-22.8h-11.7v3.21l-2.33.58-2.63-2.04-2.93 1.46v-3.22m3.8 20.18 1.76 2.63H77.66v13.74h20.17v21.93H77.66v30.4h-6.14l-.88-2.92h-4.38l-1.17-2.34-4.39-1.46-.87-2.92-4.68-2.34v-31h3.21l-1.17-2.63 2.64-.87-2.64-3.51-2.04-2.34V50.18l4.68 2.04 4.09.88 3.8 7.02 11.4-5.85 7.31 4.1h4.39l3.8-.88h3.21m-42.68 59.06v9.64h14.03v-1.46h-2.92l-2.93-2.04-3.5-1.76h-2.64l-2.04-4.38" clip-rule="evenodd"/>
</svg>
