<svg xmlns="http://www.w3.org/2000/svg" width="160" height="160" fill="none">
  <path fill="#fff" fill-rule="evenodd" d="M26 34.1c3.07 8.44 9.97 19.2 13.8 23.42 2.92 3.69 7.04 15.34 6.72 17.06 4.4-13.63 36.82-30.88 66.73-11.9a217.72 217.72 0 0 1-.01-28.4v-.18c.16-2.46.07-16.39 0-23.04-1.01 8.38-3.67 25.07-6.13 24.76-2.93-.36-4.25-12.04-5.2-20.45-.48-4.23-.87-7.64-1.32-8.35-.49-.35-.47 3.12-.44 7.76.05 8.07.12 19.7-2.43 21.04-4.03 2.12-14.58 3.65-16.3-3.07a2795.8 2795.8 0 0 0-6.9-25.73c-.45.07-1.35.58-1.35 2.12 0 .49.18 2.3.41 4.76.7 7.22 1.93 20.06.93 21.92-1.34 2.5-7.86 8.26-11.7 7.88-3.83-.39-10.16-4.8-19.36-27.27-.77.3-.32 2.56 0 3.65 2.05 6.85 6.06 21.16 5.75 23.62-.38 3.07-4.4 6.14-8.43 3.07-3.23-2.46-10.55-13.7-13.81-19.01l11.31 25.15L26 34.1m14.57 66.98c-.76-17.28 12.85-43 46.4-43 26.47 1.14 39.13 24.38 39.13 45.69 0 17.05-13.55 30.01-20.33 34.36 1.09.26 4.53 1.5 9.59 4.42 8.28 4.15 15.21 3.78 17.64 3.07-.45 2.05-3.72 6.38-13.23 7.3-6.89.67-12.94-2.92-18.23-6.06-3.84-2.27-7.28-4.3-10.34-4.3-36.82 5.18-49.86-24.2-50.63-41.48Zm12.47 0c-2.3-20.93 15.15-36.86 30.68-37.06 24.35 0 30.1 27.65 30.49 37.06.38 9.4-3.07 22.27-17.07 32.26-8.63-4.8-14.96-3.08-21.86 1.72-11.7-4.22-19.94-13.05-22.24-33.98" clip-rule="evenodd"/>
</svg>
