<svg xmlns="http://www.w3.org/2000/svg" width="160" height="160" fill="none"><path fill="#ffffff" d="M76.06 96.12h-22.3l-.85-3.82L50 79.17l-1.66-7.44-3-13.51a5.92 5.92 0 0 0-1.67-3l-4.47-4.46h23.16c-.07.18-.15.35-.24.52l-.62 1.26c-.38.74-.75 1.48-1.1 2.22a5.46 5.46 0 0 0-.4 3.8l4.29 17.11 2.15 8.56.05.18.06.19c.05-.02.1-.02.13-.02l5.78-14.84 7.4-19.04L93.1 84.75l.1-.33c.05-.15.1-.26.12-.36l5.3-21.19 1.06-4.21a5.66 5.66 0 0 0-.39-3.97c-.48-.98-.96-1.96-1.47-2.96l-.48-.98h23.13l-.18.2-.2.24-.9.92a35.6 35.6 0 0 1-2.29 2.23c-1.65 1.44-2.43 3.23-2.88 5.33a2441.3 2441.3 0 0 1-4.36 19.71l-1.5 6.73-1.1 4.96c-.39 1.69-.76 3.37-1.13 5.06h-22.3l-3.65-10.15-.07-.16-.08-.13a237.77 237.77 0 0 1-1.11 3.07l-2.64 7.37h-.02Zm-64.04 0H24.1a58.48 58.48 0 0 1-1.98-22.96 56.97 56.97 0 0 1 10.14-26.6 5.75 5.75 0 0 0 1.14-3.67c-.07-2.26-.06-4.53-.04-6.83l.01-2.79h3.24l7.8-.01a2 2 0 0 0 1.1-.36 60.1 60.1 0 0 1 15.63-8.14 57 57 0 0 1 11.62-2.68c4.2-.52 8.39-.6 12.58-.19a56.51 56.51 0 0 1 27.22 9.9c1.53 1.07 3 1.6 4.85 1.51 2.05-.1 4.12-.07 6.21-.05l2.77.02v11.04c0 .37.14.8.36 1.1a60.43 60.43 0 0 1 7.94 15.02 58.18 58.18 0 0 1 1 35.67h11.99a69.29 69.29 0 0 0-9.28-54.23c-.29-.42-.41-.83-.41-1.34l.01-18.2v-.72H132.63c-4.59 0-9.17 0-13.77-.02-.33 0-.69-.12-.97-.28-.75-.43-1.5-.87-2.24-1.32a79.83 79.83 0 0 0-4.3-2.44 68.43 68.43 0 0 0-27.91-7.46 69.57 69.57 0 0 0-41.66 11.24c-.28.18-.65.28-.97.28-6.14.02-12.28.02-18.43.02h-.69v5.36l-.01 13.74c0 .34-.13.72-.3 1.02-.44.78-.9 1.55-1.36 2.32-.79 1.32-1.58 2.64-2.28 4a68.33 68.33 0 0 0-7.57 28.14 69.25 69.25 0 0 0 1.85 19.91ZM153.16 143.91v6.47h-6v-6.54l-6.72-11.27h6.34l3.63 6.15 3.67-6.15h5.8l-6.72 11.34ZM131.5 145.9h-1.63v4.48h-6v-17.81h8.57c1.65 0 3.08.27 4.3.81a6.33 6.33 0 0 1 2.83 2.34 6.4 6.4 0 0 1 .99 3.56 6.3 6.3 0 0 1-.87 3.34c-.57.95-1.4 1.7-2.49 2.26l3.74 5.5h-6.41l-3.03-4.48Zm3-6.62c0-.66-.2-1.17-.6-1.52-.41-.38-1.02-.56-1.84-.56h-2.19v4.17h2.2c.8 0 1.42-.18 1.82-.53a2 2 0 0 0 .62-1.56ZM121.56 145.85v4.53h-14.81v-17.81h14.48v4.53h-8.58v2.08h7.53v4.33h-7.53v2.34h8.9ZM106.15 132.57l-7.53 17.8h-5.9l-7.53-17.8h6.46l4.25 10.4 4.35-10.4h5.9ZM75.54 150.78a11 11 0 0 1-5.17-1.2 9.02 9.02 0 0 1-3.59-3.3 9.08 9.08 0 0 1-1.3-4.8 8.95 8.95 0 0 1 4.9-8.13 11 11 0 0 1 5.16-1.2 11 11 0 0 1 5.16 1.2 8.95 8.95 0 0 1 4.89 8.12c0 1.78-.43 3.39-1.3 4.81a9.02 9.02 0 0 1-3.59 3.3 11 11 0 0 1-5.16 1.2Zm0-4.86a3.83 3.83 0 0 0 3.46-2.08c.35-.68.53-1.47.53-2.37 0-.9-.18-1.68-.53-2.34a3.77 3.77 0 0 0-1.45-1.55 3.7 3.7 0 0 0-2.01-.56 3.83 3.83 0 0 0-3.46 2.11 4.87 4.87 0 0 0-.54 2.34c0 .9.18 1.69.54 2.37.35.66.83 1.18 1.42 1.55.61.36 1.3.53 2.04.53ZM56.85 150.78c-1.88 0-3.58-.39-5.09-1.17a9.06 9.06 0 0 1-3.56-3.3 9.27 9.27 0 0 1-1.27-4.84 8.81 8.81 0 0 1 4.83-8.12c1.51-.8 3.2-1.2 5.09-1.2 1.73 0 3.27.31 4.63.92a8.6 8.6 0 0 1 3.36 2.65l-3.8 3.38c-1.1-1.38-2.4-2.08-3.89-2.08-1.25 0-2.26.4-3.02 1.22a4.48 4.48 0 0 0-1.15 3.23c0 1.36.38 2.44 1.15 3.26a4 4 0 0 0 3.02 1.2c1.5 0 2.8-.7 3.9-2.1l3.79 3.4a8.6 8.6 0 0 1-3.36 2.64c-1.36.6-2.9.91-4.63.91ZM37.56 150.78c-1.48 0-2.92-.16-4.33-.48a11.8 11.8 0 0 1-3.43-1.35l1.93-4.37c.85.49 1.8.89 2.85 1.2 1.05.28 2.06.42 3.03.42.83 0 1.42-.07 1.78-.22.35-.17.53-.42.53-.74 0-.38-.23-.66-.71-.84-.46-.19-1.22-.4-2.29-.61-1.37-.3-2.52-.6-3.43-.92a6.02 6.02 0 0 1-2.4-1.63 4.47 4.47 0 0 1-1.01-3.08c0-1.12.31-2.13.94-3.05a6.23 6.23 0 0 1 2.8-2.16c1.25-.53 2.77-.8 4.55-.8 1.22 0 2.42.14 3.59.42 1.19.25 2.23.63 3.13 1.14l-1.8 4.35a11.04 11.04 0 0 0-4.97-1.32c-1.54 0-2.32.37-2.32 1.12 0 .35.23.63.7.81a16 16 0 0 0 2.26.56c1.35.26 2.5.55 3.43.9.93.31 1.74.85 2.42 1.6a4.3 4.3 0 0 1 1.04 3.05c0 1.12-.31 2.14-.94 3.05a6.45 6.45 0 0 1-2.82 2.16c-1.24.53-2.75.8-4.53.8ZM22.02 132.57h6v17.8h-6v-17.8ZM1 132.57h8.78c1.98 0 3.73.36 5.24 1.1a8.05 8.05 0 0 1 3.54 3.07 8.66 8.66 0 0 1 1.27 4.73c0 1.82-.43 3.4-1.27 4.73a8.21 8.21 0 0 1-3.54 3.1 12.14 12.14 0 0 1-5.24 1.08H1v-17.81Zm8.52 13.13c1.3 0 2.32-.37 3.08-1.1a4.12 4.12 0 0 0 1.17-3.13c0-1.34-.39-2.37-1.17-3.1a4.21 4.21 0 0 0-3.08-1.12H7v8.44h2.52ZM151.35 111.68v3.08h7.48v4.55h-7.48v5.74h-6.04v-17.92h14.57v4.55h-8.53ZM133 125.46c-1.93 0-3.66-.4-5.2-1.2a9.07 9.07 0 0 1-3.6-3.33 9.14 9.14 0 0 1-1.31-4.84 9 9 0 0 1 4.91-8.17c1.54-.8 3.27-1.2 5.2-1.2 1.93 0 3.66.4 5.2 1.2a9.01 9.01 0 0 1 4.92 8.17c0 1.79-.44 3.4-1.31 4.84a9.07 9.07 0 0 1-3.61 3.33c-1.54.8-3.27 1.2-5.2 1.2Zm0-4.9a3.86 3.86 0 0 0 3.48-2.1c.36-.67.54-1.47.54-2.37 0-.9-.18-1.7-.54-2.36a3.8 3.8 0 0 0-1.45-1.56 3.72 3.72 0 0 0-2.03-.56 3.85 3.85 0 0 0-3.48 2.12 4.9 4.9 0 0 0-.54 2.36c0 .9.18 1.7.54 2.38.36.67.84 1.19 1.43 1.56a4 4 0 0 0 2.05.54ZM113.02 107.13v17.92h-4.97l-6.81-8.14v8.14h-5.9v-17.92h4.97l6.82 8.14v-8.14h5.89ZM83.04 125.46c-1.93 0-3.66-.4-5.2-1.2a9.07 9.07 0 0 1-3.6-3.33 9.14 9.14 0 0 1-1.31-4.84 9 9 0 0 1 4.91-8.17c1.54-.8 3.27-1.2 5.2-1.2 1.93 0 3.66.4 5.2 1.2a9.02 9.02 0 0 1 4.92 8.17c0 1.79-.44 3.4-1.3 4.84a9.07 9.07 0 0 1-3.62 3.33c-1.54.8-3.27 1.2-5.2 1.2Zm0-4.9a3.86 3.86 0 0 0 3.48-2.1c.36-.67.54-1.47.54-2.37 0-.9-.18-1.7-.54-2.36a3.8 3.8 0 0 0-1.46-1.56 3.72 3.72 0 0 0-2.02-.56 3.85 3.85 0 0 0-3.48 2.12 4.9 4.9 0 0 0-.54 2.36c0 .9.18 1.7.54 2.38a4.1 4.1 0 0 0 1.43 1.56 4 4 0 0 0 2.05.54ZM63.5 125.46c-1.49 0-2.94-.16-4.36-.49a11.9 11.9 0 0 1-3.45-1.35l1.94-4.4c.86.49 1.81.89 2.87 1.2 1.06.28 2.08.43 3.05.43.84 0 1.43-.08 1.8-.23.35-.17.53-.42.53-.74 0-.38-.24-.66-.72-.85a14.6 14.6 0 0 0-2.3-.61 28.1 28.1 0 0 1-3.46-.92 6.07 6.07 0 0 1-2.4-1.64 4.5 4.5 0 0 1-1.03-3.1c0-1.13.31-2.15.95-3.07a6.26 6.26 0 0 1 2.81-2.18c1.27-.53 2.8-.8 4.59-.8 1.23 0 2.43.14 3.6.42 1.2.25 2.25.64 3.16 1.15l-1.82 4.38a11.12 11.12 0 0 0-5-1.33c-1.55 0-2.32.37-2.32 1.12 0 .36.23.63.69.82.46.17 1.22.36 2.28.56 1.36.26 2.51.56 3.45.9a5.8 5.8 0 0 1 2.44 1.61c.7.75 1.04 1.78 1.04 3.08 0 1.12-.31 2.15-.94 3.07a6.49 6.49 0 0 1-2.84 2.18c-1.25.52-2.77.79-4.56.79ZM48.4 121.93h-6.81l-1.2 3.12h-6.15l7.83-17.92h5.95l7.83 17.92H49.6l-1.2-3.12Zm-1.67-4.36-1.74-4.5-1.74 4.5h3.48ZM33.86 120.5v4.55h-14.9v-17.92h14.57v4.55H24.9v2.1h7.58v4.36H24.9v2.35h8.96ZM8.81 125.46c-1.49 0-2.94-.16-4.35-.49A11.9 11.9 0 0 1 1 123.62l1.95-4.4c.85.49 1.8.89 2.86 1.2 1.06.28 2.08.43 3.05.43.84 0 1.43-.08 1.8-.23.35-.17.53-.42.53-.74 0-.38-.24-.66-.72-.85a14.6 14.6 0 0 0-2.3-.61 28.1 28.1 0 0 1-3.46-.92 6.07 6.07 0 0 1-2.4-1.64 4.5 4.5 0 0 1-1.03-3.1c0-1.13.32-2.15.95-3.07a6.26 6.26 0 0 1 2.82-2.18c1.26-.53 2.79-.8 4.58-.8 1.23 0 2.43.14 3.61.42 1.2.25 2.24.64 3.15 1.15l-1.82 4.38a11.12 11.12 0 0 0-5-1.33c-1.55 0-2.32.37-2.32 1.12 0 .36.23.63.69.82.46.17 1.22.36 2.28.56 1.36.26 2.52.56 3.45.9a5.8 5.8 0 0 1 2.44 1.61c.7.75 1.05 1.78 1.05 3.08 0 1.12-.32 2.15-.95 3.07a6.49 6.49 0 0 1-2.84 2.18c-1.25.52-2.77.79-4.56.79Z"/></svg>
