<svg width="160" height="160" viewBox="0 0 160 160" fill="white" xmlns="http://www.w3.org/2000/svg">
<path d="M57.9912 98.0443C57.9729 98.0184 57.9487 97.9972 57.9206 97.9826C57.8925 97.968 57.8614 97.9604 57.8297 97.9604C57.7981 97.9604 57.7669 97.968 57.7389 97.9826C57.7108 97.9972 57.6865 98.0184 57.6683 98.0443L35.3739 129.707C35.3145 129.792 35.2357 129.862 35.1441 129.91C35.0526 129.959 34.9509 129.984 34.8478 129.984L0.296835 130C-0.0122294 130 -0.0799455 129.873 0.0936863 129.618C1.6529 127.33 3.23989 125.04 4.85467 122.749C23.6555 96.0795 42.446 69.4018 61.226 42.7153C66.5912 35.1023 73.7223 30.2767 83.2026 31.0888C90.7868 31.7333 96.2926 35.8987 100.512 42.0237C120.65 71.2531 140.784 100.463 160.915 129.654C161.071 129.881 161.012 129.995 160.738 129.995L124.661 129.99C124.555 129.99 124.452 129.963 124.359 129.913C124.266 129.863 124.187 129.79 124.129 129.701L80.921 65.6852C80.8956 65.6471 80.8613 65.6158 80.8212 65.5939C80.7811 65.5721 80.7362 65.5604 80.6906 65.5599C80.645 65.5594 80.5999 65.5701 80.5593 65.591C80.5187 65.6119 80.4837 65.6424 80.4574 65.68L76.7799 70.9142C76.7447 70.9634 76.7253 71.022 76.7244 71.082C76.7235 71.1421 76.741 71.2006 76.7747 71.2496L116.352 129.696C116.372 129.725 116.383 129.758 116.385 129.793C116.387 129.827 116.38 129.861 116.364 129.892C116.349 129.922 116.325 129.947 116.297 129.964C116.268 129.982 116.235 129.99 116.201 129.99H80.2751C80.1047 129.989 79.937 129.948 79.7864 129.869C79.6357 129.789 79.5067 129.674 79.4104 129.534L57.9912 98.0443Z" fill="#FFF"/>
</svg>
