<svg width="160" height="160" viewBox="0 0 160 160" fill="none" xmlns="http://www.w3.org/2000/svg">
<path fill-rule="evenodd" clip-rule="evenodd" d="M32.7832 45.1749L32.7021 126.626C32.7021 126.655 32.6963 126.684 32.6851 126.711C32.6739 126.738 32.6575 126.763 32.6368 126.783C32.6161 126.804 32.5915 126.821 32.5644 126.832C32.5373 126.843 32.5083 126.849 32.479 126.849L16.3835 126.692C16.3244 126.692 16.2676 126.668 16.2258 126.626C16.184 126.584 16.1605 126.528 16.1605 126.469L16.1047 45.1749C16.1047 45.1456 16.099 45.1166 16.0877 45.0896C16.0765 45.0625 16.0601 45.0379 16.0394 45.0172C16.0187 44.9965 15.9941 44.9801 15.967 44.9688C15.94 44.9576 15.911 44.9519 15.8817 44.9519L7.23321 44.9671C7.20391 44.9671 7.1749 44.9613 7.14784 44.9501C7.12078 44.9389 7.09618 44.9225 7.07547 44.9018C7.05475 44.881 7.03835 44.8564 7.02714 44.8294C7.01593 44.8023 7.01015 44.7733 7.01015 44.744L7 32.3492C7 32.2901 7.02352 32.2333 7.06535 32.1915C7.10718 32.1497 7.1639 32.1262 7.22306 32.1262L41.6547 32.1008C41.7139 32.1008 41.7706 32.1243 41.8125 32.1662C41.8543 32.208 41.8778 32.2647 41.8778 32.3239L41.8981 44.739C41.8981 44.7981 41.8746 44.8548 41.8327 44.8967C41.7909 44.9385 41.7342 44.962 41.675 44.962L33.0063 44.9519C32.9471 44.9519 32.8904 44.9754 32.8485 45.0172C32.8067 45.059 32.7832 45.1158 32.7832 45.1749ZM21.6152 95.5601C20.9461 95.9251 20.2549 96.2378 19.5418 96.498C19.3796 96.5555 19.2174 96.5588 19.0552 96.5081C18.2136 96.2445 17.487 96.4608 16.8753 97.157C16.7806 97.2652 16.8043 97.3159 16.9463 97.3091C18.6496 97.2179 20.2211 96.7515 21.6608 95.9099C21.796 95.8288 21.9397 95.7714 22.0918 95.7376C22.352 95.6767 22.5852 95.5855 22.7913 95.4638C23.0887 95.2847 23.0634 95.1951 22.7153 95.1951H21.8434C21.796 95.1951 21.7741 95.2188 21.7774 95.2661C21.7774 95.3202 21.769 95.3709 21.7521 95.4182C21.7318 95.4757 21.6862 95.523 21.6152 95.5601ZM29.6554 109.356C29.7337 109.385 29.8227 109.374 29.9028 109.326C29.9829 109.278 30.0476 109.198 30.0825 109.102C30.0998 109.054 30.1093 109.004 30.1105 108.955C30.1116 108.906 30.1044 108.858 30.0892 108.814C30.074 108.771 30.0511 108.732 30.0219 108.701C29.9927 108.67 29.9577 108.646 29.9189 108.632C29.8406 108.604 29.7516 108.614 29.6715 108.662C29.5914 108.71 29.5268 108.791 29.4918 108.887C29.4745 108.934 29.465 108.984 29.4639 109.033C29.4627 109.083 29.47 109.131 29.4851 109.174C29.5003 109.218 29.5232 109.256 29.5524 109.288C29.5816 109.319 29.6166 109.342 29.6554 109.356ZM22.0309 110.905C21.9566 110.899 21.894 110.915 21.8434 110.956C21.769 111.02 21.7808 111.047 21.8788 111.037C22.2595 110.994 22.523 111.117 22.7865 111.239C22.9582 111.319 23.1298 111.399 23.3338 111.433C23.7697 111.51 24.0705 111.553 24.2361 111.559C24.351 111.566 24.4135 111.514 24.4237 111.402C24.4372 111.233 24.373 111.196 24.231 111.291C23.8289 111.551 23.4994 111.468 23.2425 111.042C23.1648 110.91 23.0499 110.826 22.8978 110.789C22.6342 110.725 22.3841 110.755 22.1475 110.88C22.1103 110.897 22.0715 110.905 22.0309 110.905ZM19.4252 111.686C19.3272 111.639 19.2917 111.667 19.3187 111.772C19.3931 112.066 19.6314 112.183 20.0336 112.122C20.1958 112.098 20.2025 112.053 20.0538 111.985L19.4252 111.686ZM21.9143 112.543C21.8827 112.534 21.8496 112.533 21.8174 112.539C21.7853 112.546 21.7549 112.559 21.7287 112.578C21.7024 112.598 21.6808 112.623 21.6655 112.652C21.6503 112.681 21.6418 112.713 21.6406 112.746V112.872C21.6473 112.994 21.7098 113.063 21.8281 113.08C21.9937 113.107 22.161 113.107 22.33 113.08C22.5362 113.046 22.5632 112.957 22.4111 112.811C22.2726 112.683 22.1069 112.593 21.9143 112.543ZM22.3401 114.444C22.1374 114.336 21.9228 114.224 21.6963 114.109C21.6733 114.096 21.6469 114.091 21.6208 114.094C21.5947 114.098 21.5703 114.109 21.5508 114.128C21.5313 114.146 21.5178 114.17 21.5121 114.197C21.5063 114.224 21.5087 114.251 21.5189 114.277C21.6761 114.672 22.2033 114.819 22.5531 114.662C22.6511 114.618 22.6561 114.564 22.5683 114.5C22.5041 114.449 22.428 114.43 22.3401 114.444ZM59.4479 113.197C59.4788 113.242 59.5249 113.274 59.5778 113.288C59.6306 113.302 59.6867 113.296 59.7358 113.273C59.7849 113.249 59.8238 113.208 59.8453 113.158C59.8669 113.107 59.8698 113.051 59.8534 112.999C59.6946 112.594 59.4141 112.281 59.0119 112.061C58.7652 111.926 58.7263 111.747 58.8953 111.524C60.1534 109.875 59.7626 108.825 59.3138 107.62C59.0934 107.029 58.8591 106.4 58.799 105.643C58.7111 104.515 58.7094 103.387 58.7939 102.262C58.8953 100.954 58.9088 99.8337 58.8345 98.901C58.6756 96.7921 58.6672 95.1986 58.8091 94.1205C58.9918 92.7379 58.9416 91.2921 58.8929 89.8868C58.8727 89.303 58.8527 88.7262 58.8497 88.1639C58.7821 69.5759 58.7449 50.9964 58.7381 32.4253C58.7375 32.3843 58.7451 32.3436 58.7606 32.3055C58.7761 32.2674 58.7991 32.2327 58.8284 32.2034C58.8577 32.1742 58.8925 32.1509 58.931 32.1351C58.9695 32.1192 59.0108 32.111 59.0525 32.111C67.6401 32.0941 76.243 32.1347 84.861 32.2327C93.5399 32.329 97.3673 38.0676 97.3572 46.341C97.3234 68.4336 97.3065 90.5279 97.3065 112.624C97.3065 121.141 94.2902 126.666 84.9877 126.727C76.3021 126.778 67.6604 126.796 59.0626 126.783C58.8294 126.783 58.7145 126.665 58.7179 126.428L58.8852 113.283C58.8854 113.237 58.8978 113.192 58.921 113.152C58.9442 113.112 58.9775 113.078 59.0178 113.055C59.058 113.032 59.1038 113.019 59.1507 113.018C59.1976 113.017 59.2441 113.028 59.2857 113.05C59.3566 113.087 59.4107 113.136 59.4479 113.197ZM75.2899 111.94C75.2933 112.383 75.2232 112.799 75.152 113.223L75.1519 113.224C75.1156 113.439 75.079 113.657 75.0516 113.881C75.0425 113.958 75.0488 114.036 75.0704 114.11C75.0919 114.185 75.1282 114.254 75.177 114.313C75.2259 114.373 75.2862 114.422 75.3544 114.458C75.4226 114.493 75.4972 114.514 75.5738 114.52L75.6092 114.523C77.5738 114.68 80.3099 114.899 80.5114 112.117C80.6162 110.681 80.6669 109.244 80.6635 107.808C80.6162 87.4896 80.5942 67.1696 80.5976 46.8479C80.5976 44.0344 77.4951 44.1611 75.5586 44.2726C75.4833 44.2765 75.4123 44.3092 75.3604 44.3639C75.3085 44.4187 75.2796 44.4912 75.2797 44.5666C75.3642 62.864 75.3474 81.1224 75.2291 99.342C75.227 99.5803 75.1966 99.8328 75.1653 100.093L75.1653 100.093V100.094C75.1193 100.476 75.0712 100.876 75.1074 101.273C75.3374 103.789 75.3176 106.389 75.298 108.962V108.962V108.962C75.2904 109.961 75.2828 110.956 75.2899 111.94ZM61.1056 89.634C61.1563 89.7286 61.1816 89.8317 61.1816 89.9433C61.1816 90.2238 61.2712 90.2542 61.4503 90.0345C61.5213 89.9466 61.5433 89.83 61.5162 89.6847C61.4757 89.4752 61.3895 89.3721 61.2577 89.3755C61.2277 89.3764 61.1985 89.3849 61.1728 89.4002C61.1471 89.4155 61.1256 89.4371 61.1104 89.4629C61.0952 89.4887 61.0868 89.5179 61.086 89.5478C61.0851 89.5777 61.0919 89.6074 61.1056 89.634ZM72.7248 90.7645L71.9846 92.1231C71.9272 92.2211 71.9542 92.2853 72.0657 92.3158L72.3141 92.3867C72.3817 92.407 72.4291 92.385 72.4561 92.3208C72.6656 91.8139 72.9698 91.3695 73.3686 90.9876C73.4632 90.8963 73.4497 90.8287 73.328 90.7848L72.9935 90.6631C72.944 90.6446 72.8895 90.6447 72.84 90.6633C72.7906 90.682 72.7497 90.7179 72.7248 90.7645ZM61.9118 91.9198C61.9331 91.8675 61.893 91.7928 61.8006 91.7122C61.7082 91.6316 61.5708 91.5516 61.4189 91.4899C61.2669 91.4282 61.1127 91.3898 60.9902 91.3831C60.8678 91.3765 60.787 91.4021 60.7657 91.4545C60.7445 91.5068 60.7845 91.5815 60.877 91.6621C60.9694 91.7427 61.1067 91.8227 61.2587 91.8844C61.4107 91.9461 61.5648 91.9845 61.6873 91.9911C61.8098 91.9978 61.8906 91.9721 61.9118 91.9198ZM62.9509 91.7987C63.5761 92.0995 64.1557 92.4645 64.6897 92.8937C64.7176 92.9164 64.7471 92.935 64.7717 92.9454C64.7964 92.9559 64.8143 92.9573 64.8215 92.9494H64.8265C64.8671 92.9089 64.8688 92.8666 64.8316 92.8227C64.3314 92.2583 63.7282 91.8342 63.0218 91.5503C63.0208 91.5492 63.0198 91.5485 63.0187 91.5481C63.0179 91.5478 63.0171 91.5477 63.0163 91.5478C63.0154 91.5478 63.0145 91.5482 63.0136 91.5487C63.0129 91.5491 63.0123 91.5496 63.0117 91.5503L62.9255 91.7328C62.912 91.7632 62.9205 91.7852 62.9509 91.7987ZM74.0682 93.7149L74.3115 92.9951C74.3244 92.9562 74.3291 92.9152 74.3253 92.8743C74.3215 92.8335 74.3092 92.7938 74.2893 92.7577C74.2693 92.7216 74.2421 92.6898 74.2093 92.6644C74.1765 92.6389 74.1388 92.6204 74.0986 92.6098C73.7234 92.5151 73.4886 92.5946 73.3939 92.848C73.1878 93.4057 73.2959 93.7538 73.7184 93.8923C73.7891 93.9137 73.8652 93.9071 73.9305 93.874C73.9959 93.8409 74.0452 93.7838 74.0682 93.7149ZM62.4215 93.5422C62.4488 93.5409 62.4753 93.5294 62.4996 93.5081C62.5239 93.4869 62.5454 93.4564 62.563 93.4183C62.5806 93.3803 62.5939 93.3355 62.6022 93.2865C62.6104 93.2375 62.6134 93.1852 62.611 93.1326C62.6062 93.0265 62.5797 92.9258 62.5373 92.8525C62.495 92.7793 62.4403 92.7395 62.3852 92.742C62.3579 92.7432 62.3314 92.7548 62.3071 92.776C62.2829 92.7973 62.2613 92.8278 62.2437 92.8658C62.2261 92.9038 62.2128 92.9487 62.2046 92.9977C62.1963 93.0467 62.1933 93.099 62.1957 93.1515C62.2005 93.2576 62.227 93.3584 62.2694 93.4316C62.3117 93.5049 62.3664 93.5446 62.4215 93.5422ZM67.3055 92.9241C67.2699 92.9079 67.2301 92.9033 67.1917 92.9109C67.1533 92.9184 67.1182 92.9378 67.0914 92.9663C67.0645 92.9948 67.0473 93.031 67.0421 93.0698C67.0368 93.1086 67.0439 93.148 67.0622 93.1826C67.1805 93.4057 67.3579 93.4817 67.5945 93.4108C67.6304 93.399 67.6623 93.3768 67.6858 93.347C67.7093 93.3172 67.7234 93.2812 67.7261 93.2439C67.7289 93.2065 67.7201 93.1695 67.7012 93.1377C67.6822 93.106 67.6538 93.081 67.6198 93.066L67.3055 92.9241ZM69.3842 95.2446C69.4612 95.2093 69.51 95.1206 69.5197 94.998C69.5294 94.8754 69.4994 94.7289 69.4361 94.5908C69.3729 94.4526 69.2816 94.3342 69.1824 94.2614C69.0832 94.1887 68.9843 94.1676 68.9073 94.2029C68.8302 94.2382 68.7815 94.3269 68.7718 94.4495C68.762 94.5721 68.7921 94.7186 68.8553 94.8567C68.9186 94.9948 69.0099 95.1133 69.109 95.1861C69.2082 95.2588 69.3072 95.2798 69.3842 95.2446ZM63.2195 95.5856L62.4895 95.9607C62.4587 95.9757 62.434 96.0009 62.4198 96.0322C62.4056 96.0634 62.4028 96.0986 62.4118 96.1317C62.4209 96.1647 62.4412 96.1936 62.4692 96.2133C62.4973 96.233 62.5314 96.2423 62.5656 96.2395C63.2111 96.2023 63.7637 95.959 64.2233 95.5095C64.4294 95.3067 64.4768 95.1006 64.3652 94.891C64.3469 94.8548 64.3211 94.8228 64.2896 94.7972C64.2581 94.7716 64.2215 94.753 64.1823 94.7424C64.1431 94.7319 64.1021 94.7298 64.062 94.7362C64.0219 94.7426 63.9836 94.7573 63.9495 94.7795C63.7941 94.8775 63.6775 95.0144 63.5998 95.1901C63.5186 95.3659 63.3919 95.4977 63.2195 95.5856ZM64.9888 97.953C65.0204 97.9858 65.0447 98.0249 65.0601 98.0678C65.0756 98.1106 65.0818 98.1563 65.0785 98.2017C65.0751 98.2471 65.0623 98.2913 65.0407 98.3315C65.0191 98.3716 64.9893 98.4067 64.9533 98.4346C64.6863 98.6407 64.4717 98.8925 64.3095 99.1899C64.287 99.2319 64.2772 99.2795 64.2815 99.327C64.2858 99.3744 64.3039 99.4195 64.3336 99.4567C64.3632 99.494 64.4032 99.5217 64.4485 99.5365C64.4938 99.5512 64.5424 99.5523 64.5883 99.5397C64.9398 99.4417 65.1105 99.2001 65.1003 98.8148C65.0969 98.6526 65.1747 98.5495 65.3335 98.5055C65.5599 98.4447 65.7526 98.5258 65.9114 98.7489C66.1784 99.1274 66.5333 99.3927 66.976 99.5448C67.3207 99.6631 67.3731 99.587 67.1332 99.3167C66.9034 99.0564 66.6313 98.8351 66.317 98.6526C66.1378 98.5478 66.0094 98.3991 65.9317 98.2065L65.6225 97.4105C65.5447 97.2078 65.396 97.0895 65.1763 97.0557C64.764 96.9881 64.3771 96.8512 64.0155 96.6451C63.8667 96.5572 63.7637 96.5961 63.7062 96.7617L63.6403 96.9442C63.5761 97.1267 63.4494 97.223 63.2601 97.2331C62.4524 97.2838 61.8001 97.5576 61.3033 98.0544C61.1884 98.1693 61.1614 98.3028 61.2222 98.4548C61.2763 98.6036 61.3422 98.6086 61.4199 98.4701C61.5348 98.2605 61.6582 98.1422 61.79 98.1152C61.9629 98.0788 62.1678 98.0228 62.3902 97.962C63.2825 97.7181 64.4572 97.397 64.9888 97.953ZM69.1305 97.152C69.2319 97.9057 69.0967 98.5039 68.725 98.9466C68.7013 98.9736 68.6929 98.9922 68.6996 99.0024C68.7334 99.0328 68.7655 99.0632 68.7959 99.0936C68.8196 99.1206 68.845 99.1223 68.872 99.0987C69.6087 98.4971 69.7575 97.8262 69.3181 97.0861C69.1525 96.8056 69.09 96.8276 69.1305 97.152ZM63.2407 98.843C63.2199 98.8188 63.1894 98.8032 63.1511 98.7972C63.1127 98.7912 63.0672 98.7948 63.0171 98.808C62.967 98.8212 62.9133 98.8436 62.8591 98.8739C62.8049 98.9043 62.7513 98.942 62.7012 98.9849C62.6512 99.0278 62.6057 99.075 62.5675 99.1239C62.5292 99.1728 62.4988 99.2225 62.4782 99.27C62.4575 99.3174 62.4469 99.3619 62.4469 99.4007C62.447 99.4395 62.4578 99.472 62.4786 99.4963C62.4994 99.5205 62.5298 99.5361 62.5681 99.5421C62.6065 99.5481 62.6521 99.5444 62.7021 99.5313C62.7522 99.5181 62.8059 99.4957 62.8601 99.4654C62.9143 99.435 62.9679 99.3973 63.018 99.3544C63.068 99.3115 63.1135 99.2643 63.1518 99.2154C63.1901 99.1664 63.2204 99.1168 63.2411 99.0693C63.2618 99.0218 63.2724 98.9774 63.2723 98.9386C63.2722 98.8998 63.2615 98.8673 63.2407 98.843ZM73.0391 99.7273C72.9782 99.7712 72.9343 99.8236 72.9072 99.8844C72.843 100.02 72.8853 100.084 73.034 100.077C73.2908 100.06 73.4615 99.9284 73.546 99.6817C73.5573 99.6498 73.5568 99.6151 73.5446 99.5842C73.5325 99.5533 73.5095 99.5284 73.4801 99.5144C73.4125 99.4772 73.3432 99.4873 73.2723 99.5448C73.2185 99.5884 73.17 99.6272 73.1299 99.6586C73.0898 99.69 73.0588 99.7134 73.0391 99.7273ZM64.7708 101.867V101.912V101.917L64.7759 101.912C64.8232 101.544 64.7235 101.252 64.4768 101.035C64.3314 100.91 64.301 100.932 64.3855 101.101C64.5106 101.355 64.6373 101.6 64.7657 101.836C64.7691 101.846 64.7708 101.856 64.7708 101.867ZM65.1508 104.379C65.1515 104.349 65.1373 104.319 65.1089 104.291C65.0805 104.262 65.0385 104.236 64.9853 104.214C64.9321 104.191 64.8688 104.173 64.799 104.16C64.7291 104.147 64.6541 104.139 64.5782 104.138C64.425 104.134 64.2775 104.155 64.1682 104.195C64.0589 104.236 63.9967 104.292 63.9953 104.353C63.9946 104.383 64.0089 104.413 64.0373 104.441C64.0657 104.469 64.1077 104.495 64.1609 104.518C64.214 104.54 64.2774 104.558 64.3472 104.572C64.417 104.585 64.492 104.592 64.5679 104.594C64.7211 104.597 64.8686 104.577 64.9779 104.536C65.0873 104.496 65.1495 104.439 65.1508 104.379ZM64.5072 106.541L64.5173 106.672C64.5207 106.716 64.5427 106.737 64.5832 106.733C64.7252 106.723 64.8299 106.647 64.8975 106.505C64.9888 106.309 64.9736 106.14 64.8519 105.998C64.8317 105.973 64.805 105.955 64.7748 105.944C64.7446 105.934 64.7119 105.932 64.6803 105.939C64.6486 105.945 64.6191 105.961 64.5949 105.983C64.5707 106.005 64.5526 106.033 64.5427 106.064C64.4953 106.203 64.4835 106.361 64.5072 106.541ZM63.5085 106.895C63.5085 106.588 63.4071 106.334 63.2044 106.135C63.1813 106.111 63.1502 106.096 63.1169 106.093C63.0835 106.09 63.0504 106.1 63.0236 106.12C62.9967 106.14 62.9782 106.169 62.9713 106.201C62.9645 106.234 62.9698 106.268 62.9863 106.297L63.3108 106.946C63.4392 107.206 63.5051 107.19 63.5085 106.895ZM73.0777 108.179C73.0937 108.161 73.0987 108.133 73.0925 108.098C73.0862 108.063 73.0688 108.02 73.0412 107.973C73.0136 107.925 72.9764 107.874 72.9318 107.821C72.8871 107.769 72.8357 107.716 72.7807 107.667C72.7257 107.618 72.6681 107.572 72.6112 107.534C72.5542 107.495 72.4991 107.463 72.4489 107.441C72.3986 107.419 72.3544 107.406 72.3185 107.404C72.2827 107.401 72.256 107.409 72.24 107.427C72.224 107.445 72.219 107.472 72.2252 107.508C72.2315 107.543 72.2489 107.586 72.2765 107.633C72.3041 107.681 72.3413 107.732 72.386 107.785C72.4307 107.837 72.482 107.889 72.537 107.939C72.592 107.988 72.6496 108.033 72.7066 108.072C72.7635 108.111 72.8186 108.142 72.8689 108.165C72.9191 108.187 72.9633 108.2 72.9992 108.202C73.035 108.204 73.0617 108.197 73.0777 108.179ZM61.4097 107.879L62.1803 108.122C62.4811 108.22 62.5217 108.154 62.302 107.925C62.0654 107.674 61.7832 107.553 61.4554 107.56C61.4154 107.558 61.3762 107.572 61.3455 107.597C61.3148 107.623 61.2946 107.659 61.289 107.699C61.2833 107.738 61.2925 107.779 61.3148 107.812C61.3371 107.845 61.3709 107.869 61.4097 107.879ZM71.319 107.931C71.2621 107.858 71.1004 107.871 70.8694 107.967C70.6384 108.063 70.357 108.235 70.0872 108.444C69.9536 108.548 69.8268 108.658 69.7141 108.767C69.6015 108.877 69.5051 108.984 69.4305 109.083C69.356 109.182 69.3046 109.271 69.2795 109.344C69.2544 109.417 69.256 109.473 69.2841 109.51C69.341 109.583 69.5027 109.57 69.7337 109.474C69.9647 109.378 70.2461 109.206 70.5159 108.997C70.6496 108.893 70.7763 108.783 70.889 108.674C71.0017 108.564 71.098 108.457 71.1726 108.358C71.2472 108.259 71.2985 108.17 71.3236 108.097C71.3487 108.024 71.3471 107.968 71.319 107.931ZM64.5731 109.628L64.1777 109.902C64.0526 109.993 64.0205 110.11 64.0814 110.251C64.105 110.309 64.1354 110.361 64.1726 110.409C64.2537 110.513 64.3703 110.561 64.5224 110.551C64.8097 110.534 64.9888 110.393 65.0598 110.13C65.1003 109.981 65.0716 109.846 64.9736 109.724C64.9432 109.684 64.9178 109.636 64.8975 109.582C64.8536 109.461 64.8874 109.366 64.9989 109.298C65.4523 109.021 65.848 109.034 66.2283 109.045C66.6688 109.059 67.0887 109.072 67.5539 108.634C67.6316 108.563 67.6181 108.528 67.5134 108.528L65.1003 108.573C64.9901 108.574 64.8842 108.617 64.8035 108.693C64.7228 108.769 64.6732 108.873 64.6643 108.984C64.6576 109.072 64.6694 109.162 64.6998 109.253C64.7505 109.408 64.7083 109.533 64.5731 109.628ZM71.6906 110.774C71.8258 110.804 71.9255 110.757 71.9897 110.632C72.0786 110.461 72.2637 110.286 72.4595 110.102C72.8216 109.76 73.2204 109.384 73.1151 108.933C73.0746 108.761 72.9968 108.742 72.8819 108.878L72.1468 109.729C72.0218 109.875 71.8697 109.981 71.6906 110.049L70.19 110.637C70.1675 110.645 70.1471 110.659 70.1304 110.676C70.1138 110.693 70.1013 110.714 70.0939 110.736C70.0866 110.759 70.0846 110.783 70.0881 110.806C70.0895 110.816 70.0919 110.825 70.0951 110.834C70.0997 110.847 70.106 110.859 70.114 110.87L70.2306 111.032C70.2442 111.053 70.2622 111.07 70.2834 111.084C70.3047 111.097 70.3286 111.105 70.3536 111.108C70.3612 111.109 70.3689 111.109 70.3765 111.109C70.3788 111.109 70.3811 111.109 70.3834 111.109C70.3986 111.108 70.4138 111.105 70.4285 111.1C70.4527 111.092 70.4751 111.08 70.4942 111.063C70.8321 110.762 71.231 110.665 71.6906 110.774ZM61.1411 110.226C61.3912 109.75 61.7359 109.554 62.1752 109.638C62.307 109.662 62.4186 109.603 62.5098 109.461C62.6281 109.285 62.5842 109.219 62.378 109.263C62.0401 109.331 61.7122 109.31 61.3946 109.202C61.3517 109.187 61.3062 109.181 61.2609 109.185C61.2156 109.188 61.1715 109.2 61.1312 109.221C61.0909 109.242 61.0553 109.271 61.0264 109.306C60.9976 109.341 60.9763 109.382 60.9636 109.425C60.8927 109.679 60.8893 109.939 60.9535 110.206C60.9589 110.225 60.97 110.243 60.9855 110.256C61.001 110.269 61.0202 110.278 61.0404 110.28C61.0606 110.282 61.081 110.278 61.099 110.268C61.117 110.259 61.1316 110.244 61.1411 110.226ZM62.7177 110.789C62.302 110.701 62.0113 110.789 61.8457 111.052C61.8283 111.08 61.8199 111.112 61.8215 111.144C61.8231 111.177 61.8347 111.208 61.8547 111.233C61.8747 111.259 61.9021 111.278 61.9332 111.287C61.9643 111.296 61.9975 111.296 62.0282 111.286C62.2175 111.225 62.3898 111.135 62.5453 111.017C62.6906 110.905 62.836 110.907 62.9813 111.022C63.0894 111.113 63.1756 111.221 63.2398 111.346C63.2554 111.378 63.2801 111.405 63.3107 111.423C63.3413 111.441 63.3765 111.45 63.4121 111.449C63.4477 111.447 63.482 111.435 63.5108 111.414C63.5397 111.393 63.5618 111.365 63.5744 111.331L63.6606 111.118C63.7383 110.916 63.6724 110.791 63.4629 110.743C63.3142 110.709 63.1688 110.718 63.0269 110.769C62.9255 110.802 62.8224 110.809 62.7177 110.789ZM125.61 125.447L125.584 125.339C125.534 125.142 125.558 125.132 125.656 125.309L125.745 125.47C125.803 125.58 125.782 125.671 125.679 125.743C125.433 125.916 125.279 126.157 125.218 126.468C125.21 126.508 125.211 126.55 125.222 126.589C125.232 126.629 125.25 126.666 125.276 126.698C125.302 126.729 125.335 126.755 125.372 126.773C125.408 126.79 125.449 126.799 125.489 126.8C126.163 126.8 126.839 126.811 127.518 126.832C127.71 126.838 127.908 126.814 128.111 126.79C128.37 126.758 128.638 126.726 128.911 126.754C129.535 126.819 129.877 126.852 129.938 126.852C131.01 126.844 132.091 126.859 133.174 126.874C135.327 126.903 137.488 126.933 139.608 126.787C139.864 126.769 140.114 126.753 140.359 126.738C142.074 126.631 143.59 126.537 145.696 125.822C152.203 123.603 152.87 117.232 152.919 111.255C152.958 106.13 152.972 101.006 152.961 95.8834C152.961 95.5059 152.961 95.123 152.962 94.7361C152.973 87.8189 152.986 79.6104 144.594 77.8634C144.151 77.7715 144.151 77.6774 144.594 77.5812C153.053 75.7333 153.022 67.3177 152.997 60.4978C152.995 60.1099 152.994 59.7272 152.994 59.3511C152.996 55.0841 152.993 50.8171 152.984 46.55C152.975 40.8191 151.555 35.1275 145.578 33.0794C143.705 32.436 141.996 32.1133 140.452 32.1111C131.871 32.1002 123.273 32.098 114.658 32.1045C114.534 32.1045 114.472 32.1669 114.472 32.2916L114.531 88.636C114.531 88.7454 114.584 88.787 114.691 88.7608C115.151 88.6448 115.603 88.67 116.045 88.8363C116.065 88.8433 116.082 88.8555 116.095 88.8716C116.108 88.8877 116.117 88.907 116.12 88.9275C116.123 88.9481 116.12 88.9691 116.112 88.9882C116.104 89.0074 116.091 89.0241 116.075 89.0365L115.924 89.1481C115.785 89.2531 115.628 89.2969 115.453 89.2794L114.717 89.2072C114.599 89.194 114.541 89.2466 114.541 89.3647L114.55 103.479C114.553 103.617 114.622 103.682 114.76 103.676L115.352 103.656C116.065 103.628 116.152 103.819 115.614 104.23C115.463 104.346 115.21 104.266 114.855 103.991C114.825 103.968 114.79 103.954 114.754 103.95C114.717 103.946 114.68 103.953 114.646 103.969C114.613 103.986 114.585 104.011 114.566 104.043C114.547 104.075 114.537 104.111 114.537 104.148L114.599 126.626C114.602 126.79 114.684 126.869 114.848 126.862L118.685 126.704C118.86 126.698 118.91 126.616 118.836 126.458C118.781 126.34 118.764 126.225 118.783 126.114C118.803 125.998 118.86 125.975 118.953 126.045C119.101 126.158 119.186 126.274 119.262 126.378C119.406 126.576 119.519 126.731 119.974 126.737C120.234 126.741 120.496 126.764 120.76 126.787C121.411 126.845 122.068 126.903 122.699 126.672C122.804 126.634 122.912 126.626 123.023 126.645L124.338 126.892C124.4 126.903 124.463 126.902 124.524 126.888C124.586 126.874 124.643 126.847 124.694 126.809C124.744 126.772 124.786 126.724 124.817 126.669C124.848 126.614 124.868 126.554 124.874 126.491C124.916 126.064 125.133 125.772 125.525 125.615C125.602 125.582 125.63 125.526 125.61 125.447ZM131.296 71.648L131.214 71.6434C131.173 71.6417 131.134 71.6237 131.105 71.5931C131.076 71.5625 131.06 71.5217 131.06 71.4793L131.073 44.3279C131.073 44.2966 131.086 44.2665 131.108 44.2444C131.13 44.2222 131.16 44.2097 131.191 44.2097C131.439 44.2091 131.688 44.2042 131.936 44.1993C134.204 44.1546 136.352 44.1124 136.366 47.3706C136.414 57.3095 136.417 64.4759 136.373 68.8699C136.341 71.9338 133.333 71.7635 131.296 71.648ZM116.909 83.7323C117.046 83.7366 117.182 83.7104 117.315 83.6535C117.441 83.5988 117.475 83.509 117.416 83.3843L116.978 82.4817C116.965 82.4532 116.972 82.4423 117.001 82.4489C117.031 82.4554 117.054 82.4707 117.069 82.4948C117.287 82.8624 117.598 83.1195 118.002 83.2661C118.028 83.275 118.05 83.2915 118.067 83.3135C118.084 83.3356 118.093 83.3621 118.095 83.3897C118.096 83.4173 118.089 83.4447 118.075 83.4683C118.061 83.4919 118.04 83.5107 118.015 83.5222C117.912 83.5725 117.804 83.5988 117.691 83.601C117.645 83.6012 117.601 83.6179 117.566 83.6479C117.531 83.678 117.508 83.7195 117.501 83.7651C117.447 84.1261 117.37 84.4653 117.272 84.7826C117.289 84.8198 117.294 84.8504 117.285 84.8745C117.283 84.8823 117.278 84.889 117.271 84.893C117.264 84.897 117.255 84.898 117.248 84.8958C117.24 84.8937 117.233 84.8884 117.229 84.8814C117.225 84.8743 117.224 84.8659 117.226 84.8581C117.3 84.4576 117.15 84.2476 116.775 84.2279C116.666 84.2213 116.627 84.1655 116.657 84.0605L116.706 83.8799C116.737 83.7793 116.804 83.7301 116.909 83.7323ZM116.645 83.3547C116.647 83.3756 116.644 83.3929 116.634 83.4053C116.614 83.4305 116.57 83.4348 116.512 83.4173C116.453 83.3997 116.385 83.3618 116.323 83.3118C116.292 83.2871 116.264 83.2601 116.239 83.2325C116.214 83.2049 116.194 83.1771 116.179 83.1508C116.164 83.1245 116.155 83.1002 116.152 83.0792C116.15 83.0582 116.154 83.041 116.163 83.0285C116.183 83.0033 116.227 82.9991 116.286 83.0166C116.344 83.0341 116.412 83.072 116.474 83.122C116.505 83.1467 116.534 83.1737 116.558 83.2013C116.583 83.2289 116.604 83.2567 116.618 83.283C116.633 83.3093 116.642 83.3337 116.645 83.3547ZM136.478 111.113C136.648 114.117 135.084 115.019 132.303 114.806C131.885 114.773 131.613 114.868 131.26 115.033C131.245 115.04 131.229 115.045 131.212 115.047C131.198 115.05 131.184 115.05 131.17 115.05C131.138 115.048 131.108 115.038 131.082 115.021C131.056 115.004 131.034 114.981 131.019 114.954C131.004 114.927 130.995 114.896 130.995 114.865L131.044 84.1786C131.044 84.1528 131.049 84.1272 131.059 84.1034C131.07 84.0797 131.084 84.0582 131.103 84.0404C131.122 84.0226 131.144 84.0088 131.168 83.9998C131.192 83.9909 131.218 83.9869 131.244 83.9883C131.593 84.0064 131.955 84.0011 132.32 83.9959C133.803 83.9745 135.314 83.9527 136.036 85.5047C136.263 85.9927 136.379 86.9533 136.386 88.3866C136.392 90.0204 136.401 91.6546 136.411 93.2889C136.438 98.0968 136.466 102.906 136.402 107.71C136.387 108.845 136.412 109.98 136.478 111.113ZM116.529 86.4566C116.608 86.3669 116.708 86.3329 116.83 86.3548C116.912 86.3716 116.973 86.3806 117.028 86.389C117.082 86.397 117.131 86.4043 117.19 86.4172C117.317 86.4435 117.332 86.5003 117.236 86.5879C117.055 86.752 116.846 86.7979 116.608 86.7257C116.581 86.7177 116.557 86.7031 116.538 86.6833C116.518 86.6636 116.504 86.6392 116.496 86.6125C116.488 86.5858 116.487 86.5575 116.493 86.5303C116.499 86.5031 116.511 86.4777 116.529 86.4566ZM116.018 93.3616C115.993 93.4002 115.957 93.4303 115.914 93.4479C115.393 93.6668 115.046 93.658 114.874 93.4217C114.776 93.286 114.799 93.1744 114.943 93.0869C115.224 92.9206 115.544 92.8998 115.901 93.0245C115.945 93.0395 115.983 93.0673 116.01 93.1043C116.037 93.1413 116.052 93.1857 116.054 93.2317C116.055 93.2776 116.043 93.323 116.018 93.3616ZM137.596 94.9841C137.527 95.3867 137.517 95.7904 137.567 96.1952C137.571 96.2281 137.584 96.2576 137.606 96.2839C137.626 96.3079 137.619 96.3243 137.587 96.3331C137.545 96.3418 137.514 96.3353 137.492 96.3134C137.474 96.2959 137.463 96.2707 137.459 96.2379C137.391 95.82 137.412 95.4075 137.521 95.0005C137.528 94.9764 137.543 94.9644 137.567 94.9644H137.587C137.595 94.9644 137.599 94.9682 137.598 94.9759C137.598 94.9782 137.597 94.981 137.596 94.9841ZM138.205 96.3232C138.277 96.3101 138.453 96.2751 138.735 96.2182C138.955 96.1723 138.964 96.1985 138.761 96.297C138.545 96.402 138.364 96.4556 138.218 96.4578C137.633 96.4666 137.629 96.4217 138.205 96.3232ZM117.034 99.0829C116.957 99.1309 116.901 99.1451 116.877 99.1226C116.865 99.1114 116.861 99.0915 116.866 99.0641C116.871 99.0366 116.884 99.0022 116.905 98.9626C116.926 98.923 116.954 98.8792 116.988 98.8336C117.022 98.7879 117.061 98.7414 117.103 98.6966C117.187 98.6062 117.277 98.5285 117.353 98.4805C117.43 98.4326 117.486 98.4183 117.51 98.4408C117.522 98.452 117.526 98.4719 117.521 98.4993C117.516 98.5268 117.503 98.5613 117.482 98.6008C117.461 98.6404 117.433 98.6842 117.399 98.7299C117.365 98.7755 117.326 98.822 117.284 98.8668C117.2 98.9572 117.11 99.0349 117.034 99.0829ZM121.846 100.886C121.852 100.87 121.862 100.857 121.875 100.846C122.075 100.673 122.223 100.66 122.316 100.807C122.34 100.844 122.35 100.888 122.346 100.931C122.342 100.975 122.324 101.016 122.295 101.048C122.266 101.08 122.227 101.102 122.184 101.11C122.141 101.118 122.097 101.112 122.058 101.092L121.894 101.01C121.88 101.003 121.867 100.992 121.857 100.979C121.848 100.966 121.842 100.95 121.84 100.934C121.838 100.917 121.84 100.901 121.846 100.886ZM117.922 102.022C117.986 102.061 118.02 102.11 118.017 102.159C118.016 102.183 118.005 102.206 117.986 102.227C117.967 102.248 117.94 102.267 117.906 102.282C117.872 102.297 117.832 102.308 117.789 102.314C117.746 102.321 117.699 102.323 117.653 102.32C117.56 102.314 117.471 102.289 117.407 102.25C117.343 102.212 117.309 102.163 117.312 102.114C117.314 102.09 117.324 102.067 117.343 102.045C117.362 102.024 117.39 102.006 117.423 101.991C117.457 101.976 117.497 101.965 117.54 101.958C117.584 101.952 117.63 101.95 117.676 101.953C117.77 101.959 117.858 101.984 117.922 102.022ZM138.964 110.519C139.402 110.377 139.804 110.158 140.171 109.863C140.236 109.81 140.253 109.747 140.22 109.672C140.085 109.344 139.838 109.209 139.481 109.265C139.441 109.272 139.423 109.255 139.425 109.213L139.435 109.101C139.435 109.088 139.441 109.079 139.454 109.075C139.738 108.998 140.003 109.017 140.249 109.131C140.304 109.157 140.353 109.194 140.393 109.241C140.433 109.287 140.463 109.341 140.482 109.4C140.547 109.614 140.679 109.784 140.877 109.909C140.913 109.931 140.942 109.963 140.96 110C140.978 110.038 140.986 110.08 140.981 110.121C140.977 110.163 140.961 110.202 140.935 110.234C140.909 110.266 140.874 110.29 140.835 110.303L139.039 110.92C138.921 110.959 138.854 110.918 138.836 110.795C138.83 110.738 138.835 110.682 138.853 110.628C138.872 110.573 138.909 110.537 138.964 110.519ZM137.757 109.823L137.721 110.027C137.703 110.136 137.719 110.24 137.766 110.339C137.897 110.61 137.928 110.827 137.858 110.989C137.832 111.048 137.8 111.051 137.763 110.999C137.486 110.618 137.406 110.209 137.521 109.771C137.53 109.742 137.55 109.717 137.576 109.702C137.602 109.686 137.633 109.682 137.663 109.688C137.693 109.695 137.719 109.712 137.736 109.737C137.754 109.763 137.761 109.793 137.757 109.823ZM142.363 110.437C142.225 110.645 142.02 110.756 141.748 110.769C141.721 110.802 141.689 110.823 141.649 110.834C141.564 110.858 141.55 110.831 141.607 110.752C141.768 110.529 141.988 110.378 142.264 110.299C142.421 110.256 142.454 110.302 142.363 110.437ZM139.88 112.282C139.895 112.258 139.902 112.229 139.899 112.197C139.878 111.726 140.089 111.484 140.534 111.471C140.669 111.467 140.683 111.506 140.576 111.589C140.332 111.78 140.147 112.011 140.02 112.282C139.999 112.33 139.956 112.344 139.893 112.325C139.869 112.318 139.864 112.304 139.88 112.282ZM138.831 112.192C138.807 112.203 138.782 112.207 138.757 112.203C138.747 112.201 138.737 112.198 138.727 112.194C138.714 112.188 138.702 112.18 138.691 112.17C138.67 112.152 138.654 112.127 138.641 112.098C138.628 112.069 138.619 112.035 138.616 111.999C138.612 111.963 138.613 111.925 138.619 111.888C138.625 111.85 138.636 111.814 138.651 111.781C138.666 111.748 138.684 111.719 138.706 111.695C138.727 111.671 138.751 111.653 138.776 111.643C138.8 111.632 138.825 111.629 138.85 111.632C138.874 111.636 138.896 111.648 138.916 111.666C138.936 111.684 138.953 111.708 138.966 111.737C138.979 111.766 138.987 111.8 138.991 111.836C138.995 111.872 138.994 111.91 138.988 111.947C138.982 111.985 138.971 112.021 138.956 112.054C138.947 112.074 138.936 112.093 138.925 112.11C138.917 112.121 138.909 112.131 138.901 112.14C138.88 112.164 138.856 112.182 138.831 112.192ZM138.627 113.306C138.219 113.391 138.207 113.354 138.591 113.194L139.798 112.696C139.855 112.671 139.893 112.689 139.912 112.748L139.942 112.837C139.951 112.863 139.943 112.881 139.919 112.892C139.507 113.076 139.076 113.214 138.627 113.306ZM120.962 113.487C121.08 113.371 121.201 113.317 121.325 113.326C121.41 113.33 121.422 113.362 121.361 113.421C121.254 113.524 121.132 113.573 120.995 113.569C120.923 113.566 120.912 113.539 120.962 113.487ZM122.15 113.549C122.161 113.611 122.147 113.662 122.112 113.691C122.095 113.705 122.074 113.714 122.049 113.716C122.023 113.719 121.995 113.714 121.966 113.704C121.937 113.694 121.907 113.678 121.878 113.656C121.849 113.635 121.821 113.609 121.797 113.58C121.748 113.521 121.714 113.454 121.704 113.392C121.694 113.33 121.707 113.278 121.742 113.249C121.759 113.235 121.78 113.226 121.806 113.224C121.831 113.222 121.859 113.226 121.888 113.236C121.917 113.246 121.947 113.263 121.976 113.284C122.005 113.305 122.033 113.331 122.057 113.36C122.106 113.419 122.14 113.487 122.15 113.549ZM151.951 113.795L152.147 113.441C152.154 113.428 152.163 113.418 152.174 113.41C152.186 113.402 152.199 113.397 152.212 113.395C152.226 113.393 152.24 113.395 152.253 113.399C152.266 113.404 152.278 113.411 152.288 113.421C152.388 113.522 152.4 113.663 152.324 113.844C152.278 113.956 152.199 114.014 152.088 114.018C151.909 114.025 151.863 113.95 151.951 113.795ZM116.14 113.943C116.107 114 116.055 114.032 115.983 114.041C115.924 114.05 115.878 114.08 115.846 114.13C115.811 114.18 115.756 114.215 115.682 114.235C115.554 114.272 115.474 114.225 115.443 114.094C115.428 114.035 115.425 113.977 115.434 113.92C115.455 113.793 115.53 113.727 115.656 113.723L116.006 113.716C116.185 113.712 116.23 113.787 116.14 113.943ZM125.732 114.301C125.461 114.11 125.162 113.996 124.835 113.959C124.829 113.959 124.823 113.956 124.817 113.953C124.812 113.95 124.807 113.945 124.804 113.94C124.8 113.935 124.798 113.929 124.797 113.922C124.797 113.919 124.797 113.915 124.797 113.911C124.798 113.909 124.798 113.906 124.799 113.903L124.845 113.766C124.858 113.724 124.885 113.711 124.927 113.726L125.918 114.12C125.983 114.146 125.988 114.181 125.931 114.225L125.836 114.301C125.801 114.327 125.766 114.327 125.732 114.301ZM137.659 113.956L138.172 114.248C138.205 114.266 138.203 114.279 138.166 114.287C137.9 114.357 137.708 114.269 137.59 114.022C137.546 113.927 137.569 113.906 137.659 113.956ZM148.354 113.86C148.374 113.869 148.39 113.882 148.399 113.899C148.409 113.916 148.412 113.936 148.409 113.958C148.406 113.98 148.397 114.004 148.382 114.029C148.372 114.045 148.36 114.061 148.345 114.077C148.338 114.085 148.33 114.092 148.322 114.099C148.297 114.122 148.269 114.143 148.238 114.16C148.208 114.177 148.175 114.191 148.143 114.201C148.111 114.211 148.08 114.216 148.052 114.216C148.024 114.216 147.998 114.212 147.978 114.203C147.957 114.194 147.942 114.181 147.932 114.164C147.928 114.156 147.925 114.147 147.923 114.137C147.921 114.127 147.921 114.116 147.922 114.105C147.924 114.092 147.928 114.078 147.934 114.064C147.938 114.054 147.943 114.044 147.949 114.034C147.964 114.01 147.985 113.986 148.01 113.963C148.034 113.941 148.063 113.92 148.093 113.903C148.106 113.896 148.119 113.889 148.132 113.883C148.15 113.875 148.169 113.868 148.188 113.862C148.22 113.852 148.251 113.847 148.28 113.847C148.308 113.846 148.333 113.851 148.354 113.86ZM139.094 114.372C139.097 114.349 139.106 114.326 139.121 114.307C139.177 114.233 139.246 114.174 139.327 114.13C139.351 114.117 139.379 114.111 139.406 114.113C139.422 114.114 139.437 114.118 139.451 114.124C139.462 114.128 139.473 114.134 139.482 114.141C139.504 114.158 139.521 114.18 139.53 114.206C139.54 114.232 139.542 114.26 139.536 114.287C139.493 114.482 139.382 114.563 139.206 114.53C139.182 114.526 139.161 114.515 139.143 114.5C139.124 114.484 139.11 114.465 139.102 114.442C139.093 114.42 139.091 114.396 139.094 114.372ZM120.076 114.872L120.03 114.744C120.012 114.698 120.025 114.665 120.069 114.645C120.455 114.483 120.849 114.476 121.25 114.622C121.291 114.638 121.307 114.651 121.296 114.662L121.214 114.763C121.186 114.798 121.15 114.809 121.106 114.796C120.757 114.7 120.426 114.729 120.111 114.885C120.1 114.891 120.091 114.891 120.084 114.885C120.08 114.882 120.078 114.877 120.076 114.872ZM124.08 114.534C124.128 114.545 124.165 114.571 124.191 114.612C124.217 114.654 124.25 114.688 124.289 114.714L124.914 115.118C124.999 115.173 124.991 115.201 124.891 115.203C124.747 115.208 124.613 115.169 124.488 115.088C124.436 115.053 124.379 115.028 124.318 115.013C124.105 114.965 123.987 114.84 123.965 114.639C123.956 114.551 123.994 114.516 124.08 114.534ZM123.042 115.02C123.074 115.025 123.098 115.037 123.113 115.056C123.128 115.076 123.133 115.102 123.129 115.134C123.125 115.166 123.112 115.202 123.089 115.241C123.067 115.281 123.036 115.322 122.999 115.363C122.962 115.404 122.919 115.443 122.872 115.479C122.825 115.515 122.776 115.547 122.728 115.573C122.679 115.599 122.631 115.619 122.588 115.63C122.544 115.642 122.506 115.646 122.474 115.642C122.442 115.638 122.418 115.626 122.403 115.606C122.388 115.587 122.383 115.56 122.387 115.529C122.391 115.497 122.404 115.46 122.427 115.421C122.449 115.382 122.48 115.34 122.517 115.3C122.554 115.259 122.597 115.219 122.644 115.183C122.69 115.147 122.74 115.115 122.788 115.089C122.837 115.063 122.885 115.044 122.928 115.032C122.972 115.02 123.01 115.016 123.042 115.02ZM121.959 116.583C121.956 116.621 121.947 116.644 121.932 116.649C121.916 116.655 121.895 116.643 121.869 116.616C121.843 116.588 121.813 116.544 121.781 116.487C121.748 116.43 121.714 116.361 121.679 116.284C121.645 116.206 121.612 116.122 121.581 116.036C121.55 115.95 121.523 115.864 121.5 115.782C121.478 115.701 121.461 115.625 121.45 115.561C121.439 115.496 121.435 115.443 121.437 115.405C121.44 115.367 121.449 115.345 121.464 115.339C121.48 115.334 121.501 115.345 121.527 115.373C121.553 115.401 121.583 115.444 121.616 115.501C121.648 115.558 121.682 115.627 121.717 115.705C121.751 115.782 121.784 115.866 121.815 115.952C121.846 116.038 121.873 116.125 121.896 116.206C121.918 116.288 121.935 116.363 121.946 116.428C121.957 116.493 121.961 116.545 121.959 116.583ZM117.055 117.017C117.122 116.989 117.169 116.986 117.186 117.008C117.191 117.013 117.193 117.02 117.193 117.027C117.194 117.036 117.192 117.046 117.189 117.057C117.182 117.079 117.167 117.105 117.146 117.134C117.125 117.163 117.097 117.194 117.065 117.227C117.032 117.259 116.996 117.291 116.957 117.321C116.879 117.382 116.798 117.432 116.73 117.46C116.663 117.487 116.616 117.491 116.599 117.469C116.59 117.458 116.589 117.441 116.596 117.419C116.603 117.398 116.618 117.372 116.639 117.343C116.66 117.314 116.688 117.282 116.721 117.25C116.753 117.218 116.79 117.186 116.828 117.155C116.906 117.094 116.988 117.044 117.055 117.017ZM116.145 117.131C116.162 117.148 116.17 117.166 116.169 117.184C116.168 117.202 116.158 117.219 116.139 117.234C116.12 117.249 116.092 117.262 116.058 117.273C116.024 117.283 115.984 117.291 115.94 117.295C115.896 117.299 115.849 117.3 115.802 117.297C115.755 117.294 115.708 117.288 115.665 117.279C115.636 117.272 115.61 117.265 115.585 117.256C115.573 117.252 115.561 117.247 115.55 117.243C115.518 117.228 115.492 117.212 115.475 117.194C115.458 117.177 115.45 117.159 115.451 117.141C115.452 117.124 115.462 117.107 115.481 117.092C115.5 117.076 115.527 117.063 115.561 117.053C115.595 117.042 115.636 117.035 115.68 117.03C115.724 117.026 115.771 117.026 115.818 117.028C115.865 117.031 115.911 117.037 115.955 117.047C115.998 117.056 116.037 117.068 116.069 117.083C116.102 117.097 116.128 117.114 116.145 117.131ZM125.177 117.399C125.195 117.414 125.204 117.43 125.205 117.446C125.205 117.463 125.197 117.479 125.18 117.495C125.162 117.51 125.137 117.525 125.105 117.537C125.073 117.549 125.035 117.56 124.994 117.567C124.952 117.574 124.907 117.578 124.861 117.58C124.835 117.58 124.809 117.58 124.784 117.578C124.765 117.577 124.746 117.576 124.728 117.573C124.708 117.571 124.689 117.568 124.671 117.564C124.651 117.56 124.632 117.555 124.615 117.549C124.583 117.538 124.557 117.525 124.539 117.51C124.521 117.496 124.512 117.48 124.511 117.463C124.511 117.447 124.52 117.431 124.537 117.415C124.554 117.399 124.579 117.385 124.611 117.373C124.643 117.36 124.681 117.35 124.723 117.343C124.765 117.336 124.81 117.331 124.855 117.33C124.883 117.329 124.912 117.33 124.939 117.332C124.956 117.333 124.972 117.334 124.988 117.336C125.03 117.342 125.069 117.35 125.101 117.361C125.134 117.371 125.159 117.385 125.177 117.399ZM120.985 117.383L121.031 117.54C121.037 117.564 121.049 117.585 121.067 117.603C121.158 117.694 121.231 117.798 121.286 117.914C121.332 118.011 121.308 118.034 121.214 117.983C121.046 117.891 120.9 117.778 120.776 117.642C120.754 117.618 120.739 117.588 120.733 117.553C120.713 117.409 120.77 117.333 120.903 117.327C120.921 117.326 120.939 117.331 120.953 117.341C120.968 117.351 120.979 117.366 120.985 117.383ZM118.595 117.803C118.603 117.79 118.614 117.778 118.626 117.77C118.738 117.696 118.856 117.674 118.983 117.704C119.006 117.709 119.027 117.721 119.045 117.737C119.062 117.754 119.074 117.774 119.081 117.797C119.087 117.82 119.087 117.844 119.081 117.867C119.075 117.89 119.062 117.911 119.045 117.928C118.91 118.059 118.767 118.059 118.617 117.928C118.612 117.924 118.609 117.92 118.605 117.916C118.599 117.909 118.594 117.9 118.59 117.891C118.584 117.877 118.581 117.862 118.582 117.846C118.583 117.831 118.588 117.816 118.595 117.803ZM136.06 119.185C136.047 119.222 136.028 119.245 136.006 119.25C135.983 119.255 135.957 119.243 135.929 119.215C135.9 119.187 135.87 119.143 135.84 119.086C135.81 119.028 135.781 118.959 135.754 118.881C135.727 118.804 135.704 118.72 135.684 118.633C135.664 118.547 135.649 118.461 135.64 118.379C135.63 118.298 135.626 118.223 135.628 118.158C135.631 118.093 135.638 118.041 135.652 118.003C135.665 117.965 135.684 117.943 135.706 117.938C135.729 117.933 135.755 117.945 135.784 117.973C135.812 118.001 135.842 118.045 135.872 118.102C135.902 118.159 135.931 118.229 135.958 118.306C135.985 118.384 136.009 118.468 136.028 118.554C136.048 118.64 136.063 118.727 136.072 118.808C136.082 118.89 136.086 118.965 136.084 119.03C136.082 119.094 136.074 119.147 136.06 119.185ZM123.73 118.128C123.795 118.167 123.841 118.211 123.867 118.259C123.882 118.287 123.906 118.306 123.939 118.315L124.488 118.433C124.752 118.49 124.751 118.536 124.485 118.571C124.086 118.626 123.803 118.511 123.635 118.226C123.63 118.218 123.627 118.209 123.626 118.199C123.625 118.193 123.625 118.187 123.626 118.18C123.627 118.169 123.631 118.159 123.636 118.149C123.639 118.145 123.642 118.141 123.645 118.138C123.656 118.127 123.671 118.119 123.686 118.118C123.701 118.116 123.716 118.119 123.73 118.128ZM142.353 118.597C142.163 118.934 141.991 118.951 141.836 118.646C141.792 118.561 141.803 118.482 141.869 118.41C141.919 118.353 141.991 118.308 142.085 118.275C142.127 118.26 142.174 118.258 142.218 118.27C142.262 118.282 142.302 118.307 142.331 118.342C142.36 118.377 142.378 118.421 142.382 118.466C142.386 118.512 142.376 118.557 142.353 118.597ZM120.778 119.485C120.773 119.32 120.768 119.156 120.779 118.994C120.783 118.935 120.815 118.909 120.874 118.915C120.913 118.92 120.936 118.937 120.942 118.968C121.062 119.627 121.053 120.284 120.913 120.941C120.891 121.039 120.832 121.105 120.736 121.138C120.664 121.162 120.59 121.173 120.514 121.17C120.489 121.17 120.464 121.162 120.443 121.149C120.422 121.135 120.405 121.115 120.394 121.092C120.384 121.069 120.38 121.044 120.383 121.019C120.386 120.994 120.396 120.97 120.412 120.951C120.809 120.469 120.793 119.974 120.778 119.485ZM123.788 119.769L123.219 119.526C123.179 119.508 123.134 119.504 123.091 119.515C123.049 119.525 123.011 119.55 122.984 119.585L122.882 119.72C122.821 119.796 122.755 119.802 122.683 119.736C122.648 119.708 122.622 119.674 122.604 119.634C122.591 119.604 122.59 119.57 122.601 119.533C122.658 119.329 122.785 119.228 122.984 119.231C123.099 119.233 123.202 119.198 123.291 119.126C123.468 118.981 123.641 118.996 123.811 119.172C123.86 119.22 123.898 119.279 123.922 119.343C123.947 119.408 123.958 119.477 123.955 119.546L123.952 119.664C123.951 119.683 123.946 119.702 123.937 119.718C123.927 119.735 123.914 119.749 123.898 119.76C123.89 119.765 123.882 119.769 123.873 119.772C123.864 119.775 123.854 119.777 123.844 119.778C123.825 119.779 123.806 119.776 123.788 119.769ZM116.804 119.867L117.334 120.16C117.39 120.19 117.453 120.206 117.517 120.206C117.581 120.205 117.644 120.188 117.699 120.157C117.755 120.125 117.802 120.08 117.835 120.025C117.869 119.971 117.888 119.908 117.89 119.844C117.901 119.612 117.969 119.393 118.093 119.185C118.104 119.166 118.12 119.152 118.14 119.144C118.16 119.136 118.182 119.135 118.202 119.141C118.222 119.147 118.24 119.16 118.252 119.178C118.265 119.195 118.271 119.216 118.27 119.237C118.265 119.39 118.22 119.529 118.132 119.654C118.065 119.75 118.028 119.859 118.021 119.979C118.01 120.196 117.935 120.387 117.795 120.553C117.715 120.65 117.633 120.65 117.55 120.553C117.358 120.337 117.117 120.28 116.827 120.383C116.804 120.391 116.779 120.394 116.755 120.391C116.73 120.387 116.707 120.378 116.687 120.364C116.667 120.35 116.65 120.331 116.639 120.309C116.627 120.287 116.621 120.263 116.621 120.238V119.976C116.621 119.836 116.682 119.8 116.804 119.867ZM120.121 119.254C119.958 119.558 119.873 119.887 119.866 120.242C119.865 120.289 119.863 120.32 119.86 120.336C119.859 120.342 119.858 120.346 119.856 120.347H119.853C119.823 120.351 119.804 120.341 119.797 120.317C119.708 120.004 119.708 119.687 119.797 119.365C119.824 119.273 119.884 119.222 119.977 119.211L120.085 119.198C120.133 119.191 120.145 119.21 120.121 119.254ZM131.859 120.265C131.837 120.144 131.871 120.017 131.96 119.884C132.005 119.818 132.041 119.752 132.074 119.691C132.181 119.493 132.269 119.331 132.598 119.296C132.639 119.292 132.662 119.31 132.667 119.352L132.676 119.447C132.681 119.513 132.651 119.554 132.588 119.572C132.294 119.649 132.079 119.882 131.944 120.271C131.907 120.381 131.878 120.378 131.859 120.265ZM135.532 119.838C135.438 119.726 135.465 119.664 135.611 119.651C135.894 119.624 136.153 119.572 136.399 119.523C137.058 119.392 137.624 119.28 138.303 119.71C138.349 119.74 138.357 119.779 138.329 119.825L138.28 119.897C138.267 119.914 138.252 119.917 138.234 119.903C137.992 119.715 137.728 119.587 137.443 119.519C137.343 119.494 137.236 119.501 137.138 119.539C136.772 119.677 136.405 119.802 136.036 119.913C135.803 119.983 135.635 119.958 135.532 119.838ZM122.061 120.003C122.123 119.984 122.177 119.991 122.211 120.023C122.244 120.054 122.255 120.108 122.239 120.172C122.224 120.236 122.184 120.305 122.128 120.364C122.073 120.423 122.007 120.467 121.944 120.486C121.881 120.506 121.827 120.499 121.794 120.467C121.76 120.435 121.75 120.382 121.766 120.318C121.781 120.254 121.821 120.184 121.876 120.126C121.931 120.067 121.998 120.023 122.061 120.003ZM125.47 120.742C125.412 120.805 125.353 120.831 125.305 120.816C125.257 120.801 125.225 120.745 125.214 120.66C125.204 120.575 125.217 120.469 125.25 120.364C125.283 120.26 125.334 120.166 125.391 120.103C125.449 120.04 125.508 120.013 125.556 120.028C125.604 120.043 125.637 120.1 125.647 120.184C125.657 120.269 125.645 120.375 125.611 120.48C125.578 120.584 125.527 120.679 125.47 120.742ZM130.498 120.786C130.28 120.843 130.057 120.855 129.83 120.823C129.706 120.803 129.697 120.761 129.804 120.698C129.992 120.588 130.224 120.584 130.501 120.685C130.61 120.722 130.609 120.756 130.498 120.786ZM136.321 120.724L136.801 121.108C136.821 121.121 136.834 121.141 136.838 121.163C136.843 121.185 136.838 121.208 136.825 121.228C136.813 121.247 136.793 121.261 136.77 121.267C136.748 121.273 136.724 121.27 136.703 121.259L136.141 120.996C136.082 120.968 136.069 120.925 136.101 120.868L136.17 120.75C136.177 120.738 136.187 120.727 136.199 120.719C136.21 120.71 136.224 120.705 136.238 120.702C136.252 120.7 136.267 120.7 136.282 120.704C136.29 120.706 136.298 120.71 136.306 120.714C136.311 120.717 136.316 120.72 136.321 120.724ZM135.28 122.434C135.071 122.021 134.833 121.622 134.567 121.239C134.541 121.202 134.506 121.173 134.463 121.151C134.417 121.127 134.384 121.085 134.364 121.026C134.358 121.007 134.357 120.986 134.361 120.965C134.366 120.945 134.376 120.927 134.39 120.912C134.404 120.897 134.423 120.885 134.443 120.88C134.463 120.874 134.485 120.873 134.505 120.878C134.673 120.918 134.791 121.012 134.858 121.161C135.05 121.581 135.251 121.995 135.46 122.405C135.462 122.411 135.461 122.416 135.457 122.418L135.369 122.464C135.329 122.483 135.3 122.474 135.28 122.434ZM121.358 121.525C121.423 121.387 121.512 121.279 121.623 121.2C121.642 121.123 121.677 121.065 121.728 121.026C121.744 121.014 121.764 121.007 121.784 121.006C121.805 121.005 121.825 121.01 121.843 121.021C121.86 121.032 121.874 121.049 121.882 121.068C121.888 121.081 121.89 121.096 121.89 121.111C121.89 121.117 121.889 121.122 121.888 121.128C121.838 121.36 121.706 121.534 121.492 121.65C121.474 121.659 121.453 121.662 121.433 121.66C121.412 121.657 121.393 121.648 121.379 121.634C121.364 121.62 121.354 121.602 121.35 121.583C121.346 121.563 121.349 121.543 121.358 121.525ZM117.007 121.2C117.055 121.327 117.034 121.43 116.945 121.509C116.901 121.646 116.914 121.79 116.984 121.939C117.034 122.046 117.004 122.08 116.893 122.04L116.598 121.942C116.577 121.935 116.558 121.922 116.543 121.906C116.529 121.889 116.518 121.869 116.513 121.847C116.452 121.564 116.526 121.327 116.736 121.134C116.756 121.116 116.781 121.103 116.807 121.096C116.834 121.09 116.862 121.09 116.888 121.096C116.915 121.102 116.94 121.115 116.96 121.133C116.981 121.151 116.997 121.174 117.007 121.2ZM123.605 121.417C123.738 121.598 123.724 121.746 123.563 121.86C123.447 121.941 123.384 121.91 123.373 121.768C123.366 121.661 123.376 121.557 123.402 121.456C123.442 121.303 123.509 121.29 123.605 121.417ZM125.414 121.788C125.379 121.89 125.307 121.935 125.198 121.922C125.096 121.909 125.002 121.872 124.917 121.811C124.747 121.686 124.766 121.611 124.976 121.587L125.336 121.545C125.354 121.543 125.372 121.545 125.388 121.552C125.405 121.559 125.42 121.57 125.431 121.584C125.443 121.598 125.45 121.615 125.454 121.632C125.457 121.65 125.456 121.669 125.45 121.686L125.414 121.788ZM134.247 122.428C133.789 122.397 133.363 122.27 132.971 122.047C132.951 122.036 132.928 122.031 132.905 122.033C132.882 122.035 132.861 122.044 132.843 122.058C132.826 122.072 132.813 122.091 132.806 122.113C132.8 122.134 132.8 122.157 132.807 122.178C132.829 122.257 132.806 122.293 132.739 122.286C132.68 122.282 132.658 122.251 132.673 122.195C132.721 122.009 132.805 121.843 132.925 121.699C132.951 121.669 132.985 121.647 133.024 121.636C133.062 121.625 133.103 121.625 133.141 121.637C133.248 121.669 133.321 121.732 133.36 121.824C133.393 121.905 133.452 121.936 133.537 121.919C133.879 121.847 134.153 121.949 134.358 122.227C134.467 122.374 134.43 122.441 134.247 122.428ZM131.371 122.378C131.271 122.192 131.213 122.001 131.198 121.804C131.185 121.653 131.234 121.629 131.345 121.732C131.515 121.885 131.56 122.096 131.479 122.365C131.451 122.455 131.415 122.459 131.371 122.378ZM129.863 121.745C130.07 122.071 130.243 122.416 130.38 122.779C130.485 123.055 130.448 123.075 130.269 122.841C130.053 122.559 129.861 122.266 129.693 121.961C129.654 121.894 129.648 121.827 129.677 121.761C129.684 121.743 129.696 121.727 129.711 121.716C129.727 121.704 129.745 121.697 129.765 121.695C129.784 121.694 129.804 121.697 129.821 121.706C129.838 121.715 129.853 121.728 129.863 121.745ZM123.87 122.07C123.851 122.019 123.866 121.986 123.916 121.968L124.161 121.873C124.227 121.849 124.269 121.871 124.289 121.939C124.378 122.238 124.279 122.448 123.991 122.569C123.974 122.576 123.955 122.578 123.937 122.576C123.919 122.574 123.901 122.567 123.887 122.556L123.811 122.503C123.746 122.459 123.744 122.411 123.805 122.359C123.894 122.282 123.916 122.186 123.87 122.07ZM141.659 122.067C141.633 122.099 141.609 122.133 141.587 122.168C141.578 122.182 141.571 122.199 141.564 122.22C141.56 122.23 141.557 122.242 141.555 122.254C141.522 122.398 141.43 122.492 141.28 122.536C141.153 122.573 141.113 122.53 141.159 122.408C141.237 122.198 141.382 122.053 141.594 121.975C141.723 121.929 141.744 121.959 141.659 122.067ZM136.667 122.435C136.687 122.53 136.669 122.618 136.615 122.678C136.588 122.708 136.553 122.73 136.513 122.743C136.472 122.757 136.427 122.761 136.379 122.756C136.331 122.75 136.281 122.736 136.233 122.713C136.185 122.69 136.139 122.659 136.097 122.622C136.014 122.546 135.956 122.45 135.935 122.355C135.915 122.259 135.933 122.172 135.987 122.111C136.014 122.082 136.049 122.059 136.089 122.046C136.13 122.033 136.175 122.029 136.223 122.034C136.271 122.039 136.321 122.054 136.369 122.077C136.417 122.1 136.463 122.131 136.505 122.168C136.588 122.243 136.646 122.339 136.667 122.435ZM117.37 122.539C117.396 122.283 117.463 122.272 117.57 122.506C117.666 122.714 117.686 122.926 117.632 123.143C117.61 123.226 117.557 123.262 117.472 123.251C117.428 123.247 117.391 123.228 117.36 123.196C117.344 123.179 117.331 123.16 117.323 123.138C117.316 123.117 117.313 123.094 117.315 123.071L117.37 122.539ZM118.41 123.432C118.395 123.379 118.38 123.32 118.365 123.255C118.347 123.174 118.314 123.097 118.267 123.025C118.208 122.935 118.183 122.837 118.191 122.73C118.2 122.646 118.224 122.642 118.263 122.716C118.385 122.955 118.438 123.193 118.42 123.432C118.42 123.441 118.419 123.446 118.418 123.445C118.416 123.445 118.414 123.44 118.41 123.432ZM125.378 122.798C125.226 122.967 125.124 123.157 125.074 123.37C125.05 123.47 125.074 123.559 125.146 123.635L125.31 123.809C125.51 124.022 125.484 124.056 125.231 123.911L125.022 123.793C124.921 123.736 124.872 123.65 124.874 123.534C124.879 123.203 124.992 122.92 125.215 122.684C125.263 122.633 125.303 122.64 125.336 122.703L125.381 122.785C125.384 122.79 125.383 122.794 125.378 122.798ZM132.477 123.389L132.359 123.274C132.343 123.258 132.33 123.238 132.322 123.216C132.314 123.194 132.311 123.171 132.313 123.148C132.315 123.124 132.323 123.102 132.335 123.082C132.346 123.062 132.363 123.045 132.382 123.032C132.504 122.948 132.631 122.948 132.761 123.032C132.84 123.084 132.926 123.117 133.02 123.13L134.06 123.288C134.108 123.294 134.126 123.321 134.112 123.37L134.083 123.481C134.075 123.508 134.058 123.53 134.034 123.544C134.01 123.558 133.982 123.563 133.955 123.557C133.543 123.46 133.128 123.432 132.709 123.471C132.62 123.48 132.542 123.453 132.477 123.389ZM124.083 123.803C123.865 123.774 123.749 123.639 123.736 123.396C123.692 123.363 123.674 123.317 123.68 123.258C123.683 123.237 123.69 123.217 123.701 123.199C123.713 123.182 123.729 123.167 123.747 123.157C123.765 123.146 123.786 123.14 123.808 123.139C123.829 123.138 123.85 123.141 123.87 123.15C124.097 123.248 124.213 123.427 124.217 123.685C124.217 123.774 124.172 123.814 124.083 123.803ZM136.507 123.491C136.509 123.382 136.555 123.356 136.644 123.416C136.821 123.529 136.945 123.68 137.017 123.869C137.05 123.956 137.021 123.992 136.929 123.977C136.646 123.929 136.505 123.767 136.507 123.491ZM121.433 124.059C121.525 123.969 121.625 123.893 121.734 123.829C121.745 123.819 121.773 123.792 121.812 123.753C121.832 123.732 121.854 123.709 121.878 123.685C121.901 123.661 121.925 123.635 121.95 123.609C121.98 123.576 122.02 123.555 122.068 123.544C122.177 123.522 122.208 123.561 122.163 123.662C122.034 123.951 121.818 124.132 121.515 124.207C121.308 124.257 121.28 124.208 121.433 124.059ZM132.65 124.325C132.563 124.417 132.49 124.407 132.431 124.295C132.305 124.061 132.37 123.91 132.627 123.842C132.719 123.818 132.769 123.854 132.778 123.951C132.791 124.099 132.748 124.224 132.65 124.325ZM117.631 124.297C117.662 124.305 117.682 124.32 117.691 124.34C117.709 124.379 117.677 124.439 117.603 124.505C117.53 124.571 117.42 124.638 117.299 124.692C117.238 124.718 117.177 124.741 117.118 124.757C117.059 124.774 117.004 124.786 116.955 124.79C116.907 124.795 116.866 124.793 116.835 124.785C116.804 124.777 116.783 124.763 116.774 124.743C116.757 124.703 116.789 124.644 116.862 124.578C116.936 124.512 117.046 124.445 117.167 124.391C117.227 124.365 117.289 124.342 117.347 124.325C117.406 124.308 117.462 124.297 117.51 124.292C117.559 124.288 117.6 124.289 117.631 124.297ZM123.889 124.764C123.892 124.77 123.895 124.777 123.896 124.784L124.227 126.209C124.23 126.223 124.229 126.237 124.226 126.251C124.223 126.265 124.216 126.278 124.207 126.289C124.198 126.3 124.186 126.309 124.173 126.315C124.16 126.321 124.146 126.324 124.132 126.324L123.864 126.314C123.843 126.313 123.823 126.305 123.807 126.291C123.791 126.278 123.78 126.259 123.775 126.238L123.497 124.981C123.494 124.964 123.495 124.945 123.501 124.928C123.508 124.912 123.519 124.897 123.533 124.886L123.749 124.728C123.762 124.719 123.777 124.714 123.792 124.712C123.807 124.71 123.823 124.712 123.838 124.717C123.852 124.723 123.865 124.732 123.875 124.743C123.881 124.75 123.885 124.756 123.889 124.764ZM124.645 125.142C124.573 125.1 124.492 125.037 124.4 124.952C124.386 124.939 124.375 124.923 124.37 124.905C124.365 124.887 124.366 124.867 124.372 124.849C124.378 124.831 124.389 124.815 124.404 124.804C124.419 124.792 124.437 124.785 124.456 124.784C124.608 124.773 124.758 124.797 124.904 124.857C124.972 124.885 124.992 124.934 124.966 125.004C124.944 125.059 124.909 125.103 124.861 125.135C124.792 125.184 124.72 125.186 124.645 125.142ZM136.535 126.37C136.509 126.382 136.484 126.386 136.461 126.38C136.413 126.369 136.376 126.323 136.358 126.251C136.339 126.18 136.34 126.089 136.361 125.999C136.372 125.955 136.387 125.912 136.405 125.873C136.424 125.834 136.446 125.8 136.47 125.772C136.494 125.745 136.519 125.724 136.545 125.712C136.57 125.7 136.596 125.697 136.619 125.703C136.666 125.714 136.703 125.76 136.722 125.832C136.74 125.903 136.739 125.994 136.718 126.083C136.708 126.128 136.693 126.171 136.674 126.21C136.656 126.249 136.634 126.283 136.61 126.311C136.586 126.338 136.56 126.359 136.535 126.37ZM122.941 126.486C122.91 126.559 122.872 126.598 122.835 126.595C122.816 126.594 122.799 126.583 122.783 126.562C122.767 126.541 122.753 126.511 122.743 126.474C122.732 126.437 122.724 126.393 122.72 126.345C122.716 126.296 122.716 126.245 122.719 126.193C122.725 126.089 122.747 125.99 122.778 125.918C122.808 125.846 122.847 125.807 122.884 125.809C122.902 125.81 122.92 125.822 122.936 125.842C122.952 125.863 122.965 125.893 122.976 125.931C122.987 125.968 122.994 126.012 122.999 126.06C123.003 126.108 123.003 126.16 123 126.211C122.993 126.315 122.972 126.414 122.941 126.486Z" fill="#FFF"/>
</svg>
