<svg xmlns="http://www.w3.org/2000/svg" width="17" height="16"><path fill="#FF5E29" fill-rule="evenodd" d="M8.286 0c1.093 0 2.084.576 2.668 1.561l5.2 9.742c.55.975.558 2.142.014 3.116A3.041 3.041 0 0113.492 16H3.081a3.041 3.041 0 01-2.676-1.581 3.15 3.15 0 01.009-3.105l5.226-9.79A3.069 3.069 0 018.286 0zm0 1.714c-.446 0-.847.233-1.065.6L1.9 12.297a1.344 1.344 0 00-.013 1.337c.23.413.63.65 1.09.65h10.618c.46 0 .86-.237 1.091-.65.234-.419.23-.911-.013-1.337l-.013-.023L9.371 2.35a1.251 1.251 0 00-1.085-.636zm0 9.143a.858.858 0 11-.857.857c0-.472.384-.857.857-.857zm0-6.286c.472 0 .857.367.857.817v4.081c0 .45-.385.817-.857.817-.473 0-.857-.367-.857-.817V5.388c0-.45.384-.817.857-.817z"/></svg>