<svg width="64" height="24" fill="none" xmlns="http://www.w3.org/2000/svg"><path d="M18.04 5.32c-.516.609-1.341 1.088-2.166 1.02-.103-.822.3-1.696.773-2.235.516-.625 1.418-1.07 2.149-1.105.086.856-.25 1.696-.756 2.32zm.747 1.182c-1.194-.068-2.217.677-2.784.677-.576 0-1.444-.642-2.39-.625-1.229.017-2.372.71-3 1.815-1.288 2.21-.334 5.48.912 7.279.61.89 1.34 1.867 2.303 1.832.911-.034 1.272-.59 2.372-.59 1.11 0 1.427.59 2.39.573.997-.017 1.624-.89 2.234-1.78.696-1.011.98-1.996.997-2.047-.017-.018-1.925-.745-1.942-2.938-.017-1.832 1.504-2.706 1.573-2.757-.86-1.267-2.2-1.404-2.665-1.439zM25.69 4.02v13.35h2.08v-4.564h2.88c2.63 0 4.477-1.798 4.477-4.402 0-2.603-1.813-4.384-4.41-4.384H25.69zm2.08 1.747h2.398c1.805 0 2.836.959 2.836 2.646 0 1.687-1.031 2.655-2.845 2.655h-2.39V5.766zm11.156 11.706c1.306 0 2.518-.66 3.068-1.704h.043v1.601h1.925v-6.645c0-1.927-1.547-3.168-3.927-3.168-2.21 0-3.842 1.258-3.902 2.988h1.873c.155-.822.92-1.361 1.968-1.361 1.272 0 1.986.59 1.986 1.678v.736l-2.596.155c-2.415.145-3.721 1.13-3.721 2.843 0 1.73 1.349 2.877 3.283 2.877zm.559-1.584c-1.11 0-1.814-.531-1.814-1.345 0-.839.679-1.327 1.977-1.404l2.312-.146v.754c0 1.25-1.066 2.14-2.476 2.14zM46.53 21c2.029 0 2.983-.77 3.816-3.108L54 7.684h-2.114l-2.45 7.887h-.043l-2.45-7.887H44.77l3.524 9.72-.189.59c-.318 1.002-.834 1.387-1.753 1.387-.164 0-.482-.017-.61-.034v1.602c.12.034.636.051.79.051z" fill="#fff"/></svg>