<svg xmlns="http://www.w3.org/2000/svg" fill="none" viewBox="0 0 64 24"><g fill="#fff" clip-path="url(#clip0_4161_2754)"><path fill-rule="evenodd" d="M5.905 17.822c3.468.801 6.98-1.155 7.845-4.37.865-3.214-1.246-6.47-4.714-7.271-3.467-.802-6.979 1.155-7.843 4.37-.865 3.213 1.245 6.47 4.712 7.27zm2.997-8.19c.897.286 1.553.716 1.424 1.514-.093.584-.443.867-.907.966.637.308.962.78.653 1.597-.384 1.015-1.294 1.101-2.505.889l-.294 1.091-.71-.164.29-1.077a29.295 29.295 0 0 1-.566-.136l-.292 1.082-.709-.164.294-1.094-.2-.048-.306-.073-.925-.213.353-.754s.523.13.516.12c.201.046.29-.076.326-.157l.464-1.726.051.012.024.005a.626.626 0 0 0-.074-.021l.332-1.232c.008-.14-.044-.317-.331-.383.01-.007-.516-.12-.516-.12l.189-.702.98.226-.001.004c.147.034.298.066.453.099l.291-1.082.71.164-.285 1.06c.19.04.382.081.569.125l.283-1.053.71.164-.29 1.081zm-2.246 3.921c.58.142 1.846.452 2.047-.298.207-.767-1.022-1.022-1.621-1.147l-.175-.037-.39 1.449.139.033zm.546-2.117c.483.12 1.537.38 1.72-.302.188-.697-.836-.907-1.336-1.01a6.11 6.11 0 0 1-.147-.031l-.353 1.314.116.029z" clip-rule="evenodd"/><path d="M19.969 9.63c.525 0 .978.088 1.36.26.382.172.698.405.952.698.25.294.436.638.556 1.033.12.395.18.82.18 1.275a4.79 4.79 0 0 1-.418 1.982 5.12 5.12 0 0 1-1.139 1.625 5.385 5.385 0 0 1-1.704 1.093 5.555 5.555 0 0 1-2.128.402c-.099 0-.272-.002-.518-.007a8.17 8.17 0 0 1-.842-.068 10.587 10.587 0 0 1-1.008-.183 5.318 5.318 0 0 1-1.008-.334l2.834-11.039 2.539-.364L18.61 9.92a4.16 4.16 0 0 1 .655-.212c.218-.05.453-.077.704-.077zm-2.13 6.502c.383 0 .743-.088 1.082-.259.339-.171.632-.402.877-.69.246-.29.44-.616.581-.98a3.12 3.12 0 0 0 .213-1.14c0-.486-.087-.865-.262-1.139-.174-.273-.497-.41-.966-.41-.154 0-.352.027-.598.076a1.536 1.536 0 0 0-.664.32l-1.08 4.16c.064.01.122.02.171.03a1.922 1.922 0 0 0 .352.031h.294zM25.65 17.787h-2.425L25.272 9.8h2.442l-2.065 7.987zm1.18-8.96c-.34 0-.646-.093-.918-.28-.275-.186-.41-.473-.41-.859 0-.212.046-.41.138-.599.094-.187.216-.349.37-.486a1.83 1.83 0 0 1 .531-.327c.203-.08.419-.12.649-.12.338 0 .643.093.916.28.273.188.41.474.41.858 0 .213-.047.413-.14.6a1.588 1.588 0 0 1-.368.487c-.152.136-.33.244-.532.325-.203.082-.418.121-.647.121zM29.838 7.81l2.54-.364-.624 2.354h2.72l-.491 1.852h-2.704l-.72 2.794c-.066.233-.104.45-.114.652-.012.203.015.378.081.524.065.148.182.261.352.341.17.082.412.123.73.123.26 0 .515-.023.762-.069.245-.045.493-.107.744-.19l.181 1.732a9.262 9.262 0 0 1-1.065.288 6.602 6.602 0 0 1-1.36.121c-.753 0-1.337-.104-1.753-.31-.416-.208-.71-.492-.885-.852-.174-.358-.251-.77-.23-1.236.023-.467.099-.957.23-1.473l1.606-6.287zM34.367 14.598c0-.688.12-1.337.36-1.944.24-.608.586-1.14 1.034-1.596.446-.454.99-.813 1.63-1.077.637-.263 1.35-.395 2.137-.395.492 0 .932.043 1.319.13.388.087.74.2 1.057.34l-.836 1.763a8.25 8.25 0 0 0-.68-.22 3.18 3.18 0 0 0-.86-.1c-.81 0-1.449.26-1.925.775-.474.516-.713 1.21-.713 2.08 0 .517.12.934.36 1.254.24.319.684.478 1.328.478a4.787 4.787 0 0 0 1.704-.318l.181 1.806c-.307.11-.645.21-1.016.297A6.08 6.08 0 0 1 38.12 18c-.677 0-1.25-.092-1.72-.273a3.295 3.295 0 0 1-1.162-.736 2.732 2.732 0 0 1-.664-1.087 4.157 4.157 0 0 1-.206-1.305zM45.139 17.999c-.58 0-1.082-.082-1.508-.244a2.795 2.795 0 0 1-1.056-.683 2.902 2.902 0 0 1-.63-1.04 3.92 3.92 0 0 1-.213-1.327c0-.609.106-1.217.319-1.823a5.05 5.05 0 0 1 .943-1.64 4.956 4.956 0 0 1 1.522-1.194c.6-.307 1.289-.462 2.063-.462.569 0 1.069.082 1.5.243.431.162.785.39 1.066.684.277.294.487.64.629 1.04.143.4.213.843.213 1.328 0 .607-.104 1.215-.31 1.824a5.141 5.141 0 0 1-.918 1.64 4.734 4.734 0 0 1-1.515 1.19c-.606.31-1.308.464-2.105.464zm1.212-6.5c-.36 0-.678.098-.95.289a2.55 2.55 0 0 0-.687.73 3.458 3.458 0 0 0-.42.963c-.092.35-.138.68-.138.995 0 .506.089.901.262 1.185.176.283.492.425.95.425.361 0 .677-.096.951-.29.271-.191.501-.434.687-.728.186-.293.326-.615.42-.964.091-.349.138-.681.138-.995 0-.505-.088-.9-.263-1.184-.175-.283-.492-.425-.95-.425zM52.63 17.787h-2.427L52.251 9.8h2.442l-2.063 7.987zm1.178-8.96c-.338 0-.645-.093-.917-.28-.273-.186-.41-.473-.41-.859 0-.212.047-.41.14-.599.092-.187.215-.349.369-.486.152-.136.33-.245.532-.327.202-.08.417-.12.646-.12.34 0 .645.093.918.28.273.188.41.474.41.858 0 .213-.048.413-.14.6a1.58 1.58 0 0 1-.367.487c-.154.136-.331.244-.532.325-.204.082-.419.121-.649.121zM56.44 10.163c.184-.05.39-.11.614-.175a9.7 9.7 0 0 1 1.688-.318 11.31 11.31 0 0 1 1.17-.054c1.279 0 2.16.345 2.647 1.034.486.688.57 1.63.255 2.824l-1.115 4.312h-2.441l1.08-4.221c.067-.264.119-.519.157-.768a1.69 1.69 0 0 0-.009-.652.775.775 0 0 0-.302-.457c-.16-.116-.402-.174-.73-.174-.316 0-.638.032-.966.092l-1.59 6.18h-2.441l1.983-7.623z"/></g><defs><clipPath id="clip0_4161_2754"><path fill="#fff" d="M0 0h62v12H0z" transform="translate(1 6)"/></clipPath></defs></svg>