<svg xmlns="http://www.w3.org/2000/svg" fill="none" viewBox="0 0 16 16"><path fill="#fff" fill-rule="evenodd" d="M8 14.667a6.626 6.626 0 0 0 3.283-.867l2.506.835a.666.666 0 0 0 .843-.846l-.832-2.506A6.662 6.662 0 1 0 8 14.667zm0-12a5.326 5.326 0 0 1 4.505 8.179.668.668 0 0 0-.067.567l.51 1.534-1.533-.511a.66.66 0 0 0-.567.067 5.331 5.331 0 0 1-7.981-3.02A5.333 5.333 0 0 1 8 2.667zM5.333 7h5.334a.667.667 0 1 0 0-1.333H5.333a.667.667 0 0 0 0 1.333zM8 10.333H5.333a.667.667 0 0 1 0-1.333H8a.667.667 0 0 1 0 1.333z" clip-rule="evenodd"/></svg>