<svg xmlns="http://www.w3.org/2000/svg" width="92" height="24" fill="none">
  <path fill="#fff" d="m88.66 11.23-4.34 6.25a5.67 5.67 0 0 1-2.29 1.96c-1.5.75-3.17.74-3.17.74l1.01-1.57s.7-.16 1.58-.75c.95-.64 1.02-1.18 1.02-1.18l-.7-.33.03-5.15s1.63.11 1.77 1.3l.28 2.35 2.82-3.21c.55-.62 2-.4 2-.4ZM79.08 11.22c2.48.08 2.06 1.21 2.06 1.21l-2 5.2h-1.72l.04-.58s-.83.58-2.19.58c-1.35 0-1.78-.68-1.35-1.8.93-2.5 4.82-2.1 4.82-2.1l.12-.46.02-.24-.01-.15a.21.21 0 0 0-.08-.11.63.63 0 0 0-.16-.1l-.21-.09-.21-.04-.2-.01-.35.01a11.63 11.63 0 0 0-1.63.27l-.07-1.04c.02-.01.86-.55 3.12-.55Zm-.94 4.17.24-.65s-.86-.07-1.64.43c-.8.5-.38 1.23.6 1.03.49-.11.64-.46.8-.81ZM71.93 11.22c1.78 0 2.72.96 2.04 2.83-1.42 3.97-5.05 3.6-5.05 3.6l-.58 1.52c-.4 1.08-2.8 1.01-2.8 1.01l3.26-8.49c.02-.01 1.35-.47 3.13-.47Zm-.24 3c.84-2.37-1.12-1.44-1.12-1.44l-1.11 3.12s1.47.45 2.23-1.67ZM66.6 11.22c.9 0 1.2.4.88 1.23l-1.8 4.68a.78.78 0 0 1-.72.49h-1.61l1.64-4.26a.37.37 0 0 0-.23-.47.43.43 0 0 0-.13-.03h-.07c-.48 0-.92.29-1.07.72l-1.37 3.55a.78.78 0 0 1-.72.49h-1.6l1.63-4.26a.37.37 0 0 0-.23-.47.43.43 0 0 0-.12-.03h-.13c-.48 0-.92.29-1.07.72l-1.37 3.55a.78.78 0 0 1-.72.49h-1.61l2.46-6.39h2.15l-.22.57c.69-.4 1.5-.6 2.3-.58.7 0 1.07.19 1.11.58.8-.4 1.71-.6 2.63-.58ZM56.2 11.22c.88 0 1.18.4.86 1.23l-1.8 4.68a.78.78 0 0 1-.72.49h-1.6l1.63-4.26a.37.37 0 0 0-.22-.47.43.43 0 0 0-.13-.03h-.07c-.48 0-.92.29-1.07.72l-1.37 3.55a.78.78 0 0 1-.72.49h-1.61l1.64-4.26a.37.37 0 0 0-.23-.47c-.04-.01-.08-.03-.13-.03h-.12c-.48 0-.92.29-1.08.72l-1.36 3.55a.78.78 0 0 1-.72.49h-1.61l2.45-6.39h2.16l-.22.57c.69-.4 1.5-.6 2.3-.58.7 0 1.07.19 1.11.58.8-.4 1.7-.6 2.62-.58ZM44.31 11.2c1.56 0 2.61 1.12 1.78 3.18-.83 2.03-2.28 3.22-4.4 3.22-2.12 0-2.64-1.01-1.7-3.44a4.31 4.31 0 0 1 4.32-2.96Zm-1.24 4.63c.6-.68 1.14-2.05 1.06-2.74-.08-.68-.79-.68-1.4 0-.6.7-1.14 2.06-1.06 2.74.09.7.8.7 1.4 0ZM40.7 11.68l-1.03 1.05s-.79-.51-1.57 0c-.39.26-.71.93-1.05 1.78-1 2.47 1.55 1.26 1.55 1.26l.32 1.32s-1.04.53-2.62.53-2.08-1.12-1.27-3.46a4.1 4.1 0 0 1 4-2.93c1.36-.01 1.67.45 1.67.45ZM32.9 11.2c1.93 0 1.75 1.53 1.62 2.16-.13.64-.44 1.45-.44 1.45h-3.62s-.41 1.25.5 1.47c.9.22 2.07-.47 2.07-.47l.12 1.23s-.69.59-2.5.59c-1.82 0-2.54-1.05-1.75-3.24.78-2.19 2.07-3.19 4-3.19Zm-.21 2.5s.4-1.2-.47-1.2S31 13.7 31 13.7h1.7ZM24.91 10.25a.8.8 0 0 1 .21 1.13l-5.36 7.38c-.5.7-1.34 1.12-2.24 1.12H4l6.3-8.68 1.46 2-3.19 4.4h8.52c.12 0 .22-.05.29-.13l5.34-7.36h1.7c.17-.01.34.04.5.14Z"/>
  <path fill="#fff" d="M24.6 4.15c.03.05.02.12 0 .17-.06.24-.2.43-.34.62-.38.51-.75 1.03-1.11 1.55l-6.54 9.03a.8.8 0 0 1-1.3-.01l-2.82-4.09c-.3-.44-.49-.71-.53-.93-.04-.22.08-.4.3-.53.2-.13.53-.24 3.52.95 1.9-1.66 3.81-3.3 5.63-5.08.51-.48 1-.98 1.61-1.35.2-.12.41-.24.64-.33.2-.1.43-.18.69-.14.11.03.22.05.25.14Z"/>
</svg>
