<svg width="64" height="24" fill="none" xmlns="http://www.w3.org/2000/svg"><path d="M19.935 14.642c2.08 0 3.984-.034 5.886.018.718.019.9-.205.867-.889-.108-2.22-1.25-3.903-3.157-4.539a4.528 4.528 0 00-5.01 1.492c-1.136 1.44-1.346 3.053-.58 4.718.76 1.648 2.065 2.635 3.924 2.693 1.827.058 3.657.015 5.485.029.215.001.513-.133.63.149.098.238-.099.447-.236.631-.34.458-.814.652-1.381.652-2.861-.003-5.722.012-8.582-.01-1.023-.007-1.74-.682-1.754-1.72a342.206 342.206 0 01-.001-8.543c.013-1.036.705-1.718 1.746-1.73 2.86-.031 5.722-.03 8.582-.001 1.037.01 1.738.694 1.76 1.72.04 1.996.003 3.993.02 5.99.005.423-.143.56-.562.557-1.917-.018-3.834 0-5.752-.02-.784-.007-1.353-.408-1.885-1.197zM36.95 18.156c.85-.61 1.382-1.187 1.709-1.917.188-.42.527-.39.885-.39 1.709.004 3.418.007 5.127-.002.422-.003 1.006.118 1.017-.528.01-.704-.603-.58-1.056-.588-.766-.014-1.532.012-2.298-.007-1.696-.041-2.982-1.275-2.99-2.848-.006-1.585 1.26-2.819 2.968-2.854 1.208-.025 2.418.022 3.624-.016.607-.02.829.16.806.79-.063 1.735.202 1.42-1.442 1.447-.943.015-1.886.003-2.83.004-.423 0-.815.127-.815.602s.395.604.816.605c.855.003 1.71-.005 2.564.003 1.71.017 2.96 1.213 2.966 2.827.007 1.626-1.235 2.858-2.925 2.866-2.622.015-5.243.006-8.126.006zM25.93 5.026c.007 1.03-.628 1.45-1.618 1.095-.26-.093-.27-.274-.277-.48-.012-.323.008-.649-.034-.968-.14-1.073-.946-1.757-1.994-1.722-1.056.037-1.775.766-1.842 1.868-.006.118.012.238-.008.352-.057.32.197.81-.272.91-.476.102-.996.042-1.491-.007-.182-.018-.168-.273-.19-.45-.281-2.42 1.345-4.475 3.658-4.617C24.115.87 25.915 2.65 25.93 5.026z" fill="#fff"/><path d="M24.15 12.419h-4.045c.777-1.642 2.83-1.692 4.045 0zM34.173 9.03c-2.346-.206-4.51 1.502-4.811 3.85-.215 1.665-.021 3.344-.084 4.712v3.915c0 1.67 0 1.654 1.664 1.587.445-.018.64-.132.62-.605-.031-.733-.008-1.467-.008-2.202 0-2.124 0-2.124 2.089-2.131.118-.001.236.001.354-.002 2.357-.056 4.341-2.053 4.402-4.43.065-2.44-1.77-4.478-4.226-4.694zm1.792 5.35c-.359.89-1.028 1.41-2.017 1.46-.294.015-.59.002-.883.002-1.513.01-1.513.01-1.511-1.539.002-1.704.48-2.57 1.598-2.902.905-.267 1.697-.074 2.335.616.63.683.83 1.488.478 2.362z" fill="#fff"/></svg>