<svg width="24" height="24" fill="none" xmlns="http://www.w3.org/2000/svg"><g clip-path="url(#clip0)"><path d="M12 0v24c6.628 0 12-5.373 12-12 0-6.628-5.372-12-12-12z" fill="#214391"/><path d="M12 0C5.373 0 0 5.372 0 12c0 6.627 5.373 12 12 12s6.627-24 0-24z" fill="#2B479D"/><path d="M11.98 2.081l.292.9h.947l-.766.558.293.9-.767-.557-.766.557.293-.9-.767-.557h.948l.292-.9zM11.98 19.086l.292.9h.947l-.766.558.293.9-.767-.556-.766.556.293-.9-.767-.557h.948l.292-.901zM16.646 3.588l.293.901h.947l-.766.557.292.901-.766-.557-.766.557.292-.9-.766-.558h.948l.292-.9zM19.83 6.73l.293.9h.947l-.766.557.293.901-.767-.557-.766.557.293-.9-.767-.557h.948l.293-.901zM19.906 14.667l.293.901h.947l-.766.557.293.9-.767-.556-.766.556.293-.9-.767-.557h.947l.293-.901zM4.243 6.73l.293.9h.947l-.766.557.292.901-.766-.557-.766.557.293-.9-.767-.557h.948l.292-.901zM20.568 10.515l.293.9h.947l-.766.558.292.9-.766-.556-.766.556.293-.9-.767-.557h.947l.293-.9zM3.52 10.515l.292.9h.948l-.767.558.293.9-.766-.556-.767.556.293-.9-.766-.557h.947l.293-.9zM4.141 14.667l.293.901h.947l-.767.557.293.9-.766-.556-.766.556.292-.9-.766-.557h.947l.293-.901zM16.784 17.942l.292.901h.947l-.766.557.293.9-.767-.556-.766.557.293-.9-.766-.558h.947l.293-.9zM7.464 3.588l.292.901h.947l-.766.557.293.901-.766-.557-.767.557.293-.9-.766-.558h.947l.293-.9zM7.118 17.885l.293.9h.947l-.766.557.292.901-.766-.556-.766.556.292-.9-.766-.557h.947l.293-.901z" fill="#F8D12E"/></g><defs><clipPath id="clip0"><path fill="#fff" d="M0 0h24v24H0z"/></clipPath></defs></svg>