<svg width="16" height="16" viewBox="0 0 16 16" fill="none" xmlns="http://www.w3.org/2000/svg">
<path fill-rule="evenodd" clip-rule="evenodd" d="M2.66669 2.66669C2.2985 3.03488 2.2985 3.63183 2.66669 4.00002L6.667 7.9994L2.66669 12C2.3248 12.3419 2.30038 12.881 2.59342 13.2511L2.66669 13.3333C3.03487 13.7015 3.63183 13.7015 4.00002 13.3333L8 9.3324L12 13.3333C12.3419 13.6752 12.881 13.6996 13.2511 13.4066L13.3333 13.3333C13.7015 12.9651 13.7015 12.3682 13.3333 12L9.333 7.9994L13.3333 4.00002C13.6752 3.65813 13.6996 3.11899 13.4066 2.74892L13.3333 2.66669C12.9651 2.2985 12.3682 2.2985 12 2.66669L8 6.66641L4.00002 2.66669C3.65813 2.3248 3.11899 2.30038 2.74892 2.59343L2.66669 2.66669Z" fill="white"/>
</svg>
