<svg width="64" height="24" fill="none" xmlns="http://www.w3.org/2000/svg"><path d="M35.929 10.843c-.49.558-.461 1.606.06 2.132.51.517 1.32.41 1.678-.221.147-.26.202-.542.21-.784.022-.38-.06-.731-.216-.983a1.075 1.075 0 00-1.732-.144z" fill="#fff"/><path d="M43.998 4.96c0-.48-.075-.949-.245-1.401C43.166 1.99 41.713 1 39.99 1h-9.074c-7.1 0 .234 0-6.866.001-.198 0-.397.002-.592.028-2.022.27-3.454 1.888-3.456 3.918-.004 4.635 0 9.269-.002 13.903 0 .342.036.679.123 1.01.131.495.347.944.632 1.333h3.38c-1.019-.007-1.779-.454-2.265-1.355-.194-.358-.258-.75-.258-1.159.004-1.976.002-3.953.002-5.929 0-2.558-.002-5.117.001-7.675.001-1.206.787-2.17 1.966-2.424.177-.038.357-.051.54-.051 7.412 0 .39.001 7.803-.002.128 0 .163.03.163.16-.003 6.089-.004 12.178.002 18.266 0 .162-.06.171-.19.171l-6.995-.002h-4.149c.731.999 1.917 1.602 3.28 1.602l15.925.001c.226 0 .451-.008.674-.044 1.98-.315 3.361-1.92 3.363-3.922.005-4.623.002-9.247.001-13.87zm-4.592 8.598c-.665 1.232-2.048 1.398-2.985 1.02a1.864 1.864 0 01-.841-.688v.176c0 .873-.003 1.746.003 2.618.001.125-.032.155-.155.153a65.793 65.793 0 00-1.614 0c-.11.002-.135-.032-.135-.138.003-2.47.004-4.94 0-7.41 0-.122.04-.142.15-.14.488.005.977.005 1.465 0 .107-.002.14.026.137.135-.008.273-.003.548-.003.831.02-.01.04-.014.045-.024.405-.723 1.062-1.023 1.851-1.061 1.01-.05 1.792.438 2.213 1.392.467 1.06.416 2.121-.131 3.136z" fill="#fff"/><path d="M28.902 10.105c-.017-.021-.033-.043-.048-.065-.48-.715-1.143-1.07-2.01-1.012-.907.06-1.602.46-1.967 1.313a3.66 3.66 0 00-.077 2.777c.682 1.859 3.133 1.936 4.02.628.01-.015.022-.04.049-.026 0 .18.013.362-.003.54-.06.69-.458 1.125-1.138 1.262-.377.076-.753.058-1.13.01-.434-.055-.837-.21-1.25-.41-.03.46-.052.899-.09 1.336-.01.12.019.172.137.208a6.646 6.646 0 003.334.16c.964-.201 1.589-.773 1.81-1.751.07-.312.108-.628.109-.947.003-1.614.001-3.228.005-4.842 0-.104-.023-.14-.134-.138-.483.006-.966.006-1.45 0-.108-.001-.138.03-.135.137.007.275.002.551.002.836-.025-.011-.031-.012-.034-.016zm-.354 2.573c-.266.367-.63.55-1.082.482-.47-.07-.735-.387-.862-.824a1.82 1.82 0 01.022-1.085c.15-.465.478-.748.898-.775.517-.032.935.2 1.148.636.102.21.149.434.143.661.001.334-.073.64-.267.905z" fill="#fff"/></svg>