<svg width="64" height="24" fill="none" xmlns="http://www.w3.org/2000/svg"><path d="M30.987 11.793v5.303h-1.683V4h4.462a4.035 4.035 0 012.89 1.134 3.645 3.645 0 011.206 2.763 3.628 3.628 0 01-1.206 2.78c-.78.744-1.744 1.116-2.89 1.115h-2.78v.001zm0-6.18v4.57h2.821a2.223 2.223 0 001.665-.676 2.232 2.232 0 000-3.201 2.195 2.195 0 00-1.665-.695h-2.821v.001zM41.74 7.843c1.243 0 2.224.332 2.944.997.72.665 1.08 1.576 1.079 2.734v5.522h-1.61v-1.243h-.073c-.697 1.024-1.623 1.536-2.78 1.536-.987 0-1.813-.293-2.477-.878a2.804 2.804 0 01-.997-2.194c0-.928.35-1.665 1.051-2.213.701-.547 1.637-.821 2.807-.823.999 0 1.822.183 2.468.549v-.385a1.916 1.916 0 00-.695-1.489 2.383 2.383 0 00-1.624-.613c-.94 0-1.683.396-2.23 1.189l-1.482-.933c.815-1.17 2.02-1.756 3.618-1.756zm-2.177 6.51a1.345 1.345 0 00.558 1.098c.372.292.834.447 1.307.438a2.682 2.682 0 001.892-.785c.558-.525.836-1.14.836-1.847-.524-.418-1.256-.627-2.194-.627-.684 0-1.253.165-1.71.494-.46.335-.69.741-.69 1.23zM55 8.136l-5.618 12.91h-1.736l2.084-4.517-3.694-8.393h1.83l2.669 6.437h.037l2.596-6.437H55zM24.188 10.65c0-.513-.043-1.025-.13-1.53h-7.095v2.898h4.064a3.483 3.483 0 01-1.503 2.286v1.881h2.426c1.42-1.31 2.238-3.245 2.238-5.535z" fill="#fff"/><path d="M16.963 18.002c2.03 0 3.74-.666 4.987-1.816l-2.426-1.88c-.675.457-1.544.718-2.561.718-1.962 0-3.628-1.323-4.224-3.105h-2.498v1.938a7.524 7.524 0 006.722 4.145z" fill="#fff"/><path d="M12.74 11.919a4.508 4.508 0 010-2.88V7.1h-2.5a7.524 7.524 0 000 6.757l2.5-1.938z" fill="#fff"/><path d="M16.963 5.933a4.085 4.085 0 012.886 1.129l2.148-2.148a7.23 7.23 0 00-5.034-1.96A7.524 7.524 0 0010.241 7.1l2.498 1.939c.596-1.783 2.262-3.106 4.224-3.106z" fill="#fff"/></svg>