<svg width="64" height="24" fill="none" xmlns="http://www.w3.org/2000/svg"><path d="M35.816 10.156l-1.434 3.806h.843l.3-.844h1.425l.29.844h.873l-1.425-3.806h-.872zm-.066 2.335l.497-1.397h.01l.478 1.397h-.985zM29.938 10.615a1.538 1.538 0 00-.553-.347 2.055 2.055 0 00-.684-.112v-.01h-1.623v3.807h1.64c.291 0 .544-.056.76-.15a1.55 1.55 0 00.534-.403c.14-.17.244-.375.319-.61.066-.234.103-.487.103-.768 0-.32-.047-.591-.131-.825a1.9 1.9 0 00-.365-.582zm-.423 2.035c-.056.15-.131.263-.215.357a.698.698 0 01-.3.197 1.177 1.177 0 01-.357.056v.01h-.74v-2.4h.6c.206 0 .375.027.515.084.141.056.254.15.338.253.084.103.15.243.187.393.038.15.057.329.057.516 0 .216-.029.385-.085.534zM31.813 12.322h1.847v-.647h-1.847v-.816h2.006v-.713h-2.84v3.808h2.887v-.704h-2.053v-.928zM39.472 13.26v-3.104h-.834v3.807h2.69v-.703h-1.856z" fill="#fff"/><path d="M32.394 2H21.2c-.666 0-1.2.534-1.2 1.2v18.253c0 .666.534 1.2 1.2 1.2h11.194c7.481 0 11.607-3.675 11.607-10.35C44 3.34 36.725 2 32.394 2zm-7.932 18.881h-.009a2.65 2.65 0 01-2.653-2.653v-2.071a1.33 1.33 0 112.662 0v4.724zm-1.33-7.068a1.753 1.753 0 110-3.506 1.753 1.753 0 010 3.506zM33.19 20.88h-6.929V4.962c0-.656.535-1.2 1.2-1.2h5.728c6.29 0 9.019 3.732 9.019 8.54 0 5.026-2.728 8.58-9.018 8.58z" fill="#fff"/></svg>