<svg xmlns="http://www.w3.org/2000/svg" width="19" height="20"><path fill="#FFF" fill-rule="evenodd" d="M.458 17.346l3.909-4.114c-.942-1.432-1.413-3.027-1.413-4.787 0-1.143.21-2.237.632-3.28a8.484 8.484 0 011.71-2.7A8.006 8.006 0 017.86.665 7.546 7.546 0 0110.977 0c1.086 0 2.125.222 3.117.666a8.005 8.005 0 012.564 1.8c.718.755 1.288 1.655 1.71 2.698A8.677 8.677 0 0119 8.445c0 1.144-.21 2.237-.633 3.281a8.484 8.484 0 01-1.709 2.7 8.008 8.008 0 01-2.564 1.799 7.546 7.546 0 01-3.117.666 7.537 7.537 0 01-4.547-1.488l-3.91 4.102a1.322 1.322 0 01-1.025.456c-.395 0-.737-.152-1.025-.456a1.515 1.515 0 01-.433-1.08c0-.423.14-.783.421-1.079zm6.912-5.104c.999 1.052 2.201 1.577 3.607 1.577 1.405 0 2.608-.526 3.607-1.577.999-1.052 1.498-2.317 1.498-3.797s-.5-2.745-1.498-3.796c-1-1.052-2.202-1.578-3.607-1.578-1.406 0-2.608.526-3.607 1.578-1 1.051-1.499 2.317-1.499 3.796 0 1.48.5 2.745 1.499 3.797z"/></svg>
