<svg xmlns="http://www.w3.org/2000/svg" fill="none" viewBox="0 0 64 24"><path fill="#fff" fill-rule="evenodd" d="M17.455 21.535c1.713 0 3.572.585 5.63 2.399.206.181.48-.044.3-.27-2.022-2.54-3.892-3.024-5.756-3.432-2.282-.5-3.455-1.778-4.273-3.18-.162-.279-.236-.23-.25.129a7.876 7.876 0 0 0 .111 1.59c-.092.004-.185.003-.278.003-3.263 0-5.91-2.633-5.91-5.88s2.647-5.88 5.91-5.88c3.264 0 5.91 2.633 5.91 5.88 0 .231-.012.46-.038.684-.432-.078-1.281-.086-1.877-.035-.224.02-.192.123-.023.153 1.954.352 3.295 1.556 3.602 3.742.007.05.074.065.1.022a8.819 8.819 0 0 0 1.265-4.566C21.878 7.983 17.876 4 12.94 4S4 7.982 4 12.894s4.002 8.895 8.94 8.895c1.309 0 2.609-.254 4.515-.254zm.666-3.229c.397.334.518.732.308 1.013-.117.154-.306.239-.534.239a.95.95 0 0 1-.608-.22c-.362-.314-.468-.824-.232-1.113.092-.114.242-.176.422-.176.218 0 .447.091.644.257zm1.835-.85c.058.39-.065.552-.19.552-.136 0-.306-.158-.506-.47-.2-.308-.272-.66-.173-.84.064-.117.2-.169.372-.104.332.124.461.63.497.862zm12.39-2.036l-1.03-1.234a.198.198 0 0 1 .154-.325h2.156c.102-.304.16-.629.16-.966 0-1.545-1.155-2.877-2.741-2.877s-2.742 1.332-2.742 2.877c0 1.544 1.156 2.858 2.742 2.858.48 0 .92-.122 1.302-.334v.001zm4.664 2.084c.112.123.02.321-.149.321H34.51a.323.323 0 0 1-.248-.115l-.398-.477a5.18 5.18 0 0 1-2.818.83c-2.864 0-5.194-2.319-5.194-5.168 0-2.85 2.33-5.168 5.194-5.168s5.194 2.318 5.194 5.168a5.116 5.116 0 0 1-.826 2.79l1.597 1.819zm21.735-9.538h-1.921a.256.256 0 0 0-.255.254v9.351c0 .14.114.254.255.254h1.92a.255.255 0 0 0 .256-.254V8.22a.254.254 0 0 0-.255-.255v.002zm-3.232 0h-2.148a.256.256 0 0 0-.244.178l-1.7 5.527-1.869-5.533a.254.254 0 0 0-.242-.173H47.81a.256.256 0 0 0-.243.173L45.7 13.67 44 8.144a.254.254 0 0 0-.244-.18h-2.148a.257.257 0 0 0-.253.215.25.25 0 0 0 .01.118l3.156 9.357a.255.255 0 0 0 .242.173h1.705c.11 0 .207-.07.242-.173l1.85-5.466 1.85 5.466a.255.255 0 0 0 .243.173h1.705c.11 0 .208-.07.242-.173l3.156-9.357a.25.25 0 0 0-.126-.304.257.257 0 0 0-.116-.028h-.001zm-14.961.254v9.351c0 .14-.114.254-.255.254h-1.92a.256.256 0 0 1-.256-.254V8.22c0-.14.114-.255.256-.255h1.92c.14 0 .255.114.255.255z" clip-rule="evenodd"/></svg>