<svg width="16" height="16" viewBox="0 0 16 16" fill="none" xmlns="http://www.w3.org/2000/svg">
<path fill-rule="evenodd" clip-rule="evenodd" d="M1.62965 12.92L4.37804 10.1717C3.7157 9.21557 3.38437 8.14967 3.38437 6.97457C3.38437 6.21068 3.53266 5.48011 3.82926 4.78302C4.12565 4.08581 4.52634 3.48488 5.03115 2.98006C5.53595 2.47525 6.1368 2.07456 6.83385 1.77813C7.53113 1.48162 8.26164 1.33337 9.02552 1.33337C9.78934 1.33337 10.5199 1.48162 11.217 1.77813C11.9142 2.07456 12.5151 2.47525 13.0199 2.98006C13.5248 3.48488 13.9254 4.08593 14.2219 4.78302C14.5183 5.48019 14.6666 6.21068 14.6666 6.97457C14.6666 7.7384 14.5183 8.46872 14.2219 9.16601C13.9254 9.8631 13.5248 10.4639 13.0199 10.9687C12.5151 11.4737 11.9141 11.8742 11.217 12.1708C10.5198 12.4673 9.78934 12.6155 9.02552 12.6155C7.85018 12.6155 6.78446 12.2841 5.82828 11.6219L3.07989 14.3622C2.88758 14.5651 2.64752 14.6667 2.35881 14.6667C2.08105 14.6667 1.84053 14.5652 1.6377 14.3622C1.43479 14.1593 1.33325 13.9189 1.33325 13.6411C1.33325 13.3582 1.43199 13.1177 1.62965 12.92ZM6.48944 9.5104C7.19188 10.2129 8.03718 10.5642 9.02552 10.5642C10.0137 10.5642 10.859 10.2129 11.5615 9.5104C12.264 8.80795 12.6152 7.96276 12.6152 6.9744C12.6152 5.98621 12.2639 5.14077 11.5615 4.4384C10.8591 3.73587 10.0137 3.38465 9.02552 3.38465C8.03729 3.38465 7.19199 3.73601 6.48944 4.4384C5.78688 5.14077 5.43565 5.98621 5.43565 6.9744C5.43565 7.96276 5.787 8.80795 6.48944 9.5104Z" fill="white"/>
</svg>
