<svg width="64" height="24" fill="none" xmlns="http://www.w3.org/2000/svg"><path fill-rule="evenodd" clip-rule="evenodd" d="M40.732 8.282A1.641 1.641 0 1 0 40.733 5a1.641 1.641 0 0 0 0 3.282Zm-12.574.886c-.074.187-.607 1.693-1.897 3.254V5.747l-3.436.68v12.098h3.436v-3.74c.995 1.493 1.487 3.74 1.487 3.74h4.115c-.407-1.693-2.188-4.813-2.188-4.813a15.078 15.078 0 0 0 2.412-4.544h-3.93Zm9.033-.126c-3.078.099-4.64 1.48-4.64 4.225v5.258h3.358v-4.288c0-1.644.215-2.348 2.165-2.415V9.09c-.328-.07-.883-.048-.883-.048Zm-20.129 1.459c-.42-.028-1.395-.091-1.395-.968 0-1.059 1.403-1.059 1.93-1.059.924 0 2.122.274 2.978.53 0 0 .477.168.884.34l.037.01V6.457l-.051-.016c-1.01-.353-2.184-.693-4.361-.693C13.33 5.747 12 7.934 12 9.807c0 1.08.463 3.621 4.762 3.914.364.023 1.331.079 1.331.985 0 .748-.792 1.19-2.123 1.19-1.46 0-2.876-.373-3.735-.725v2.985c1.287.338 2.738.506 4.439.506 3.67 0 5.314-2.069 5.314-4.119 0-2.325-1.84-3.836-4.926-4.042Zm22.006 8.024h3.33V9.179h-3.33v9.346Zm9.601-12.182v12.182H52V5.747l-3.33.596Zm-4.86 0 3.328-.596v12.778h-3.328V6.343Z" fill="#fff"/></svg>