<svg width="182" height="52" fill="none" xmlns="http://www.w3.org/2000/svg"><g clip-path="url(#a)"><path fill-rule="evenodd" clip-rule="evenodd" d="m41.31 26.87-21.34-6v-1.72a43.83 43.83 0 0 1 16.26 0v4.36h5.5c.07-.87.1-1.74.1-2.61v-6.55a55.1 55.1 0 0 0-31.83 0v6.55c0 1.55.1 3.1.31 4.62l29.62 6.68c.6-1.73 1.06-3.51 1.38-5.33Z" fill="#5F73FA"/><path fill-rule="evenodd" clip-rule="evenodd" d="M26.03 42.6a21.97 21.97 0 0 1-7.1-7.53l9.44-.98-17.4-4.77c1.03 4.4 3.55 11.96 10.15 18.25a33.74 33.74 0 0 0 4.91 3.88 34.15 34.15 0 0 0 12.91-15.51l-5.81-.85a21.97 21.97 0 0 1-7.1 7.51Z" fill="#4EB80D"/><path d="M60.75 32.87c3.7 0 6.15-1.85 6.15-4.96 0-2.89-2.17-4.02-5.67-4.78-2.1-.48-2.63-.78-2.63-1.48 0-.58.5-1.02 1.52-1.02 1.35 0 2.87.52 4.26 1.5l2.1-2.98a9.56 9.56 0 0 0-6.25-2.02c-3.65 0-5.88 2.04-5.88 4.87 0 3.17 2.5 4.09 5.73 4.83 2.06.47 2.56.82 2.56 1.45 0 .7-.6 1.09-1.73 1.09a7.83 7.83 0 0 1-4.93-1.83l-2.35 2.8a10.61 10.61 0 0 0 7.12 2.53Zm12.4-.26v-3.94l1.55-1.71 3.82 5.65h5.06l-5.95-8.68 5.75-6.54h-5l-5.23 6.18v-6.18h-4.21v15.22h4.21Zm20.27 0v-5.76l5.77-9.46h-4.71l-3.15 5.54-3.13-5.54h-4.8l5.78 9.52v5.7h4.24Zm14.4.3c3.36 0 5.3-1.45 6.73-3.43l-3.17-2.26c-.92 1.1-1.85 1.85-3.44 1.85-2.12 0-3.62-1.79-3.62-4.07 0-2.26 1.5-4.07 3.63-4.07 1.45 0 2.47.68 3.34 1.77l3.08-2.4A7.35 7.35 0 0 0 108 17.1 7.81 7.81 0 0 0 99.97 25c0 4.59 3.5 7.91 7.84 7.91Zm16.17 0c4.7 0 8.21-3.54 8.21-7.91 0-4.41-3.47-7.91-8.16-7.91-4.7 0-8.21 3.54-8.21 7.91 0 4.41 3.47 7.91 8.16 7.91Zm.05-3.8c-2.3 0-3.89-1.91-3.89-4.11 0-2.24 1.54-4.1 3.84-4.1 2.33 0 3.91 1.9 3.91 4.1 0 2.24-1.54 4.1-3.86 4.1Zm13.57 3.5 1.09-2.72h5.86l1.1 2.72h4.52l-6.47-15.33h-4.06l-6.47 15.33h4.43Zm5.73-6h-3.4l1.71-4.33 1.7 4.33Zm15.64 6.3c3.37 0 5.3-1.45 6.73-3.43l-3.17-2.26c-.91 1.1-1.84 1.85-3.43 1.85-2.13 0-3.63-1.79-3.63-4.07 0-2.26 1.5-4.07 3.63-4.07 1.45 0 2.48.68 3.34 1.77l3.09-2.4a7.35 7.35 0 0 0-6.39-3.21 7.81 7.81 0 0 0-8.01 7.91c0 4.59 3.5 7.91 7.84 7.91Zm12.75-.3v-5.78h5.4v5.78h4.22V17.39h-4.22v5.7h-5.4v-5.7h-4.22v15.22h4.22Z" fill="#fff"/><path d="m57.66 47.84 1.88-5.51 1.88 5.5h1.16l2.68-7.72h-1.42l-1.82 5.69-1.89-5.7H59l-1.88 5.7-1.83-5.69h-1.45l2.67 7.73h1.16Zm19.29-.06v-1.2h-4.4v-2.06h3.85v-1.2h-3.84v-2h4.33v-1.2h-5.68v7.66h5.74Zm17.27 0v-6.42h2.43v-1.25h-6.21v1.25h2.43v6.42h1.35Zm9.78 0v-2.67h1.66l1.9 2.67h1.6l-2.07-2.9c1.07-.3 1.82-1.06 1.82-2.32 0-1.48-1.05-2.45-2.84-2.45h-3.42v7.67H104Zm1.97-3.87H104v-2.57h1.96c1 0 1.59.45 1.59 1.27 0 .8-.62 1.3-1.58 1.3Zm12.51 3.87v-3.05l3.05-4.62h-1.55l-2.17 3.4-2.14-3.4h-1.59l3.05 4.65v3.02h1.35Zm18.01 0v-3.23h3.66v3.23h1.34v-7.67h-1.34v3.2h-3.66v-3.2h-1.34v7.67h1.34Zm12.27 0 .8-1.85h3.61l.78 1.85h1.42L152 40.06h-1.25l-3.37 7.72h1.38Zm3.92-3.04h-2.64l1.32-3.07 1.32 3.07Zm9.93 3.04v-2.67h1.66l1.9 2.67h1.6l-2.07-2.9c1.07-.3 1.83-1.06 1.83-2.32 0-1.48-1.06-2.45-2.85-2.45h-3.42v7.67h1.35Zm1.97-3.87h-1.97v-2.57h1.96c1 0 1.59.45 1.59 1.27 0 .8-.62 1.3-1.58 1.3Zm12.03 3.87c2.41 0 4.07-1.67 4.07-3.83 0-2.18-1.66-3.84-4.07-3.84h-2.86v7.67h2.86Zm0-1.22h-1.5v-5.22h1.5c1.61 0 2.66 1.1 2.66 2.6 0 1.53-1.05 2.62-2.66 2.62Z" fill="#475C7F"/></g><path d="M7.63 6.07C8.33 5.6 22.67-.12 26.12.33c3.73.48-4.02 9.01-7.94 10.6-3.92 1.59-10.55-4.85-10.55-4.85Z" fill="#BD0C34"/><path d="m8.37 5.72.6.97s6.14-1.32 11.06-4.94A102.93 102.93 0 0 0 8.37 5.72Z" fill="url(#b)"/><path d="M39.35 11.06s-.42-4.11-4.37-7.32C31.03.54 26.38-.06 24.61.42c-1.7.45-6.84 3.03-12.15 10.3-5.3 7.27-1.7 5.86-1.7 5.86s9.19-5.46 16.49-5.85c7.3-.38 12.1.33 12.1.33Z" fill="url(#c)"/><path d="M31 10.62c5.15-.04 8.35.44 8.35.44s-.42-4.11-4.37-7.32a15.68 15.68 0 0 0-7.84-3.4c1.7 1.4 2.66 3.87 3.86 10.28Z" fill="#3DFFFF" style="mix-blend-mode:soft-light" opacity=".36"/><path d="M9.28 25c-.92-2.35-1.99-7.56.14-10.28C12.07 11.36 22 4.44 26.56 4.7c4.57.26 11 1.9 13.54 6 2.53 4.1 1.96 6.69 1.96 6.69-1.42-1.62-6.38-4.3-13.1-4a21.53 21.53 0 0 0-14.28 5.8c-3.26 2.96-3.91 6.52-3.91 6.52l-1.5-.7Z" fill="#D1CFE5"/><path d="M28.95 13.39c6.72-.3 11.69 2.38 13.11 4 0 0 .57-2.6-1.96-6.7a9.42 9.42 0 0 0-2.78-2.78c1.1 2.28 2.27 6.46-.66 5.6-2.5-.72-8.8-1.34-13.44.27-4.64 1.27-9.78 4.14-12.94 10.11-.17-.68-.3-1.52-.35-2.25-.31-4.46 1.26-7.62 1.92-9.19-1.06.9-2.15 1.98-2.7 2.67l-.06.1c-1.47 2.46-.88 6.4-.14 8.84.1.35.23.75.33.94.73 1.4 1.5.71 1.5.71s.64-3.57 3.9-6.52a21.51 21.51 0 0 1 14.27-5.8Z" fill="#AEA9CA"/><path d="M35.23 11.96c-1.06-1.7-3.92-5.68-8.12-7.22l-.55-.04c-2.52-.15-6.66 1.9-10.32 4.32-2.93 3.47-4.97 7.49-5.56 11.88.11.3.22.52.32.68.58.9.92-4.6 12.43-8.2 5.53-1.73 9.8-1 11.72-.78.32.04.25-.37.08-.63Z" fill="url(#d)"/><path d="M2.76 14.64a1.87 1.87 0 0 1-.39-2.1A3.19 3.19 0 0 1 .84 9.36a3.28 3.28 0 0 1 2.49-2.55c-.3-.98.18-2.11 1.1-2.63.93-.5 2.2-.34 2.97.38.36-.79 1.4-1.23 2.26-.97.87.27 1.45 1.2 1.27 2.04a.99.99 0 0 1 1.2.03c.32.28.39.79.14 1.13 1.02.16 1.4 1.66.58 2.24a2.8 2.8 0 0 1 1.33 3.08 2.96 2.96 0 0 1-2.74 2.07 3.61 3.61 0 0 1-3.05 2.4c-1.31.14-1.93-.5-2.98-1.04-.82-.42-1.93-.2-2.65-.9Z" fill="url(#e)"/><path d="M4.49 13.38c.49.82 1.47 1.41 2.45 1.27.97-.15 1.75-1.18 1.4-2.06.64.93 2.24 1.04 3.02.23.77-.82.49-2.31-.54-2.83.66-.07 1.33-.47 1.48-1.08.15-.62-.47-1.35-1.11-1.18.1-.43-.12-.9-.51-1.15-.4-.23-.95-.2-1.31.07.49-.45.54-1.26.13-1.77-.33-.4-.91-.57-1.43-.48-.1.12-.2.24-.26.38a.27.27 0 0 1-.2.15.29.29 0 0 1-.24-.07 2.28 2.28 0 0 0-1.47-.6 2.2 2.2 0 0 0-1.17.26 2.1 2.1 0 0 0-1.05 1.73c0 .2.01.4.08.6.02.07 0 .15-.03.2-.04.07-.1.11-.17.13-.57.13-1.1.43-1.5.85a2.83 2.83 0 0 0-.82 1.8 2.96 2.96 0 0 0 1.44 2.6c.12.08.16.22.1.34a1.5 1.5 0 0 0-.09 1.04c.63.15 1.33 0 1.8-.43Z" fill="url(#f)"/><path d="M14.24 10.11a3.22 3.22 0 0 0-.9-1.05l-.05-.04-.04-.02.04-.05.02-.03a1.58 1.58 0 0 0 .21-.57 1.58 1.58 0 0 0-.6-1.45c-.24-.17-.36-.17-.44-.2a.37.37 0 0 0 .05-.15c.01-.08.02-.18 0-.27a.91.91 0 0 0-.13-.4c-.13-.19-.26-.23-.27-.21-.02.02.05.1.12.28.03.1.05.2.05.34a.8.8 0 0 1-.04.21c-.03.1-.14.25-.23.38.1.04.27.07.37.12.15.06.2.1.27.16a1.2 1.2 0 0 1 .37 1.12.9.9 0 0 1-.12.3l-.02.04c0 .02 0 .02-.04.05l-.13.13-.31.26.29.2a3.16 3.16 0 0 1 .55.45c.17.19.32.4.43.64.23.47.32 1.04.19 1.59a2.44 2.44 0 0 1-1 1.42c-.27.18-.56.32-.87.4-.08.02-.16.05-.24.05l-.12.02-.12.01-.13.01h-.14l-.06.01c-.03 0-.02.04-.03.05l-.08.23c-.07.19-.1.22-.13.3a3.3 3.3 0 0 1-3.49 1.79c-.62-.14-1.18-.55-1.78-.85a2.76 2.76 0 0 0-.96-.32l-.85-.14a2.45 2.45 0 0 1-.68-.22c-.19-.1-.34-.23-.46-.38-.25-.3-.36-.63-.4-.9-.07-.55.09-.86.03-.88-.02 0-.08.05-.15.2-.07.15-.15.38-.14.7a1.96 1.96 0 0 0 .9 1.62c.23.15.5.24.79.32.56.14 1.15.17 1.65.48.27.15.54.33.85.5.3.18.65.36 1.05.46a3.9 3.9 0 0 0 4.28-2.1l.09-.2.02-.03h.03l.16-.03.3-.07c.4-.1.77-.29 1.09-.51a3.01 3.01 0 0 0 1.23-1.81c.15-.7 0-1.4-.29-1.96Z" fill="url(#g)"/><path opacity=".33" d="M22.37 1.9c-.85.63-5.01 3.86-6.8 5.5-1.01.9 1.4-1.97 3.69-3.72 2.67-2.04 4.35-2.68 3.1-1.77Z" fill="#fff"/><defs><linearGradient id="b" x1="11.83" y1="4.93" x2="18.77" y2="3.1" gradientUnits="userSpaceOnUse"><stop offset=".4" stop-color="#FF1C30"/><stop offset="1" stop-color="#E30040"/></linearGradient><linearGradient id="c" x1="8.95" y1="14.65" x2="36.81" y2="3.85" gradientUnits="userSpaceOnUse"><stop offset=".4" stop-color="#FF1C30"/><stop offset="1" stop-color="#E30040"/></linearGradient><linearGradient id="e" x1="3.83" y1="7.21" x2="10.78" y2="12.57" gradientUnits="userSpaceOnUse"><stop stop-color="#E5E7F1"/><stop offset="1" stop-color="#CFD3E5"/></linearGradient><linearGradient id="f" x1="6.01" y1="6.98" x2="9.39" y2="17.86" gradientUnits="userSpaceOnUse"><stop offset=".28" stop-color="#fff"/><stop offset=".84" stop-color="#E5E1EF"/></linearGradient><linearGradient id="g" x1="6.94" y1="7.87" x2="9.12" y2="14.96" gradientUnits="userSpaceOnUse"><stop stop-color="#D1CFE5"/><stop offset=".63" stop-color="#A3AACE"/><stop offset=".99" stop-color="#9DA5C2"/></linearGradient><radialGradient id="d" cx="0" cy="0" r="1" gradientUnits="userSpaceOnUse" gradientTransform="matrix(11 -4 4 11 20.47 10.3)"><stop offset=".2" stop-color="#fff"/><stop offset="1" stop-color="#E1E5EF"/></radialGradient><clipPath id="a"><path fill="#fff" d="M10 12h172v40H10z"/></clipPath></defs></svg>