<svg width="198" height="46" xmlns="http://www.w3.org/2000/svg"><g fill="none" fill-rule="evenodd"><path d="M36.048 17.096l-24.576-6.898V8.225a50.457 50.457 0 0118.722 0v5.011h6.337c.076-.995.115-1.998.115-3.006V2.701A63.5 63.5 0 000 2.701v7.53c0 1.79.122 3.564.358 5.312l34.095 7.691a39.685 39.685 0 001.595-6.138" fill="#5F73FA"/><path d="M18.453 35.193a25.277 25.277 0 01-8.18-8.663l10.87-1.122L1.11 19.915c1.195 5.07 4.092 13.754 11.694 20.991a38.833 38.833 0 005.649 4.456 39.28 39.28 0 0014.862-17.834l-6.693-.98a25.275 25.275 0 01-8.17 8.645" fill="#4EB80D"/><path d="M58.425 25.15c4.25 0 7.075-2.125 7.075-5.7 0-3.325-2.5-4.625-6.525-5.5-2.425-.55-3.025-.9-3.025-1.7 0-.675.575-1.175 1.75-1.175 1.55 0 3.3.6 4.9 1.725l2.425-3.425c-1.9-1.525-4.225-2.325-7.2-2.325-4.2 0-6.775 2.35-6.775 5.6 0 3.65 2.875 4.7 6.6 5.55 2.375.55 2.95.95 2.95 1.675 0 .8-.7 1.25-2 1.25-2.025 0-3.95-.725-5.675-2.1l-2.7 3.225c2.15 1.925 5.1 2.9 8.2 2.9zm14.275-.3v-4.525l1.775-1.975 4.4 6.5H84.7l-6.85-9.975 6.625-7.525h-5.75l-6.025 7.1v-7.1h-4.85v17.5h4.85zm23.325 0v-6.625l6.65-10.875H97.25l-3.625 6.375-3.6-6.375H84.5l6.65 10.95v6.55h4.875zm16.575.35c3.875 0 6.1-1.675 7.75-3.95l-3.65-2.6c-1.05 1.275-2.125 2.125-3.95 2.125-2.45 0-4.175-2.05-4.175-4.675 0-2.6 1.725-4.675 4.175-4.675 1.675 0 2.85.775 3.85 2.025l3.55-2.75C118.6 8.55 116.375 7 112.8 7c-5.3 0-9.225 4-9.225 9.1 0 5.275 4.025 9.1 9.025 9.1zm18.625 0c5.4 0 9.45-4.075 9.45-9.1 0-5.075-4-9.1-9.4-9.1s-9.45 4.075-9.45 9.1c0 5.075 4 9.1 9.4 9.1zm.05-4.375c-2.65 0-4.475-2.2-4.475-4.725 0-2.575 1.775-4.725 4.425-4.725 2.675 0 4.5 2.2 4.5 4.725 0 2.575-1.775 4.725-4.45 4.725zM146.9 24.85l1.25-3.125h6.75l1.275 3.125h5.2l-7.45-17.625h-4.675L141.8 24.85h5.1zm6.6-6.9h-3.925l1.975-4.975 1.95 4.975zm18 7.25c3.875 0 6.1-1.675 7.75-3.95l-3.65-2.6c-1.05 1.275-2.125 2.125-3.95 2.125-2.45 0-4.175-2.05-4.175-4.675 0-2.6 1.725-4.675 4.175-4.675 1.675 0 2.85.775 3.85 2.025l3.55-2.75C177.5 8.55 175.275 7 171.7 7c-5.3 0-9.225 4-9.225 9.1 0 5.275 4.025 9.1 9.025 9.1zm14.675-.35V18.2h6.225v6.65h4.85V7.35h-4.85v6.55h-6.225V7.35h-4.85v17.5h4.85z" fill="#FFF" fill-rule="nonzero"/><path d="M54.864 40.063l2.167-6.338 2.167 6.338h1.336l3.074-8.883h-1.625l-2.105 6.54-2.167-6.565h-1.31l-2.167 6.564-2.105-6.539h-1.675l3.074 8.883h1.336zM77.067 40v-1.386h-5.053v-2.369h4.423V34.86h-4.423v-2.293h4.99V31.18h-6.54V40h6.603zm19.887 0v-7.384h2.798V31.18h-7.157v1.436h2.797V40h1.562zm11.255 0v-3.074h1.915L112.316 40h1.827l-2.381-3.339c1.235-.353 2.104-1.222 2.104-2.671 0-1.701-1.21-2.81-3.276-2.81h-3.931V40h1.55zm2.268-4.448h-2.268v-2.96h2.255c1.147 0 1.827.516 1.827 1.46 0 .92-.706 1.5-1.814 1.5zM124.88 40v-3.515l3.502-5.305h-1.776l-2.495 3.906-2.47-3.906h-1.827l3.503 5.342V40h1.563zm20.731 0v-3.717h4.209V40h1.55v-8.82h-1.55v3.667h-4.209V31.18h-1.55V40h1.55zm14.127 0l.907-2.13h4.17l.896 2.13h1.638l-3.881-8.883h-1.437L158.152 40h1.587zm4.51-3.503h-3.036l1.512-3.528 1.525 3.528zM175.68 40v-3.074h1.916L179.788 40h1.827l-2.381-3.339c1.234-.353 2.104-1.222 2.104-2.671 0-1.701-1.21-2.81-3.276-2.81h-3.931V40h1.55zm2.268-4.448h-2.268v-2.96h2.256c1.146 0 1.827.516 1.827 1.46 0 .92-.706 1.5-1.815 1.5zM191.798 40c2.772 0 4.687-1.928 4.687-4.41 0-2.507-1.915-4.41-4.687-4.41h-3.288V40h3.288zm0-1.411h-1.739V32.59h1.74c1.851 0 3.06 1.273 3.06 2.999 0 1.751-1.209 2.999-3.06 2.999z" fill="#475C7F" fill-rule="nonzero"/></g></svg>