<svg width="32" height="40" xmlns="http://www.w3.org/2000/svg"><g fill="none" fill-rule="evenodd"><path d="M31.314 14.866L9.965 8.868V7.152a43.789 43.789 0 0116.263 0v4.358h5.506c.066-.866.1-1.738.1-2.614V2.349A55.108 55.108 0 000 2.349v6.547c0 1.557.106 3.1.311 4.62l29.618 6.688a34.537 34.537 0 001.385-5.338" fill="#5F73FA"/><path d="M16.03 30.603a21.97 21.97 0 01-7.106-7.533l9.442-.976L.965 17.317c1.037 4.409 3.554 11.96 10.158 18.254a33.739 33.739 0 004.907 3.874 34.148 34.148 0 0012.91-15.508l-5.814-.852a21.97 21.97 0 01-7.096 7.518" fill="#4EB80D"/></g></svg>
