<svg width="24" height="24" fill="none" xmlns="http://www.w3.org/2000/svg"><path d="M23.946 13.122H.054h23.892zM22.701 6.572H1.298h21.403zM23.552 8.755H.447h23.105zM5.157 21.856h13.686H5.157zM12 0c-.236 0-.47.009-.702.022H12.7A12.29 12.29 0 0012 0zM23.95 10.939H.05h23.9z" fill="#C42126"/><path d="M15.547 4.388h5.73a12.06 12.06 0 00-2.348-2.183h-4.303c.356.627.662 1.366.92 2.183z" fill="#E7E7E7"/><path d="M14.626 2.205h4.303A11.934 11.934 0 0012.702.022h-.37c1.089.137 1.589.942 2.294 2.183z" fill="#DC3027"/><path d="M23.553 8.755c-.214-.76-.5-1.491-.851-2.183h-6.593c.134.701.24 1.433.317 2.183h7.127z" fill="#E7E7E7"/><path d="M15.738 6.572h6.963a12.008 12.008 0 00-1.424-2.184h-6.083c.215.68.397 1.412.544 2.184z" fill="#DC3027"/><path d="M16.679 13.122h7.267c.034-.37.054-.744.054-1.122 0-.358-.019-.711-.05-1.061h-7.27c.024.726.024 1.457-.001 2.183z" fill="#E7E7E7"/><path d="M23.95 10.938c-.065-.75-.2-1.479-.397-2.183H16.12c.075.715.124 1.447.148 2.183h7.683z" fill="#DC3027"/><path d="M15.984 17.489h6.686c.357-.692.647-1.422.865-2.184h-7.228c-.08.752-.188 1.483-.323 2.184z" fill="#E7E7E7"/><path d="M23.535 15.305c.202-.703.342-1.433.411-2.183h-7.494a30.668 30.668 0 01-.152 2.183h7.235z" fill="#DC3027"/><path d="M18.843 21.855a12.068 12.068 0 002.383-2.183h-5.63c-.263.821-.576 1.559-.938 2.183h4.185z" fill="#E7E7E7"/><path d="M15.384 19.672h5.842a12.012 12.012 0 001.444-2.183h-6.735c-.15.772-.334 1.505-.551 2.183zM11.565 23.991l-.073-.002.073.002zM12 24c2.544 0 4.901-.794 6.843-2.144H14.5C13.729 23.184 13.22 24 12 24z" fill="#DC3027"/><path d="M12 24z" fill="#C42126"/><path d="M15.023 2.205H5.071a12.062 12.062 0 00-2.348 2.183h13.22c-.258-.817-.564-1.556-.92-2.183z" fill="#F3F4F5"/><path d="M5.071 2.205h9.952C14.318.965 13.421.16 12.333.022h-1.035a11.932 11.932 0 00-6.227 2.183z" fill="#E73625"/><path d="M.448 8.755h16.357a26.167 26.167 0 00-.317-2.183H1.298a11.918 11.918 0 00-.85 2.183z" fill="#F3F4F5"/><path d="M2.723 4.388c-.55.67-1.028 1.403-1.424 2.184h15.188a19.238 19.238 0 00-.543-2.184H2.724z" fill="#E73625"/><path d="M0 12c0 .378.02.753.054 1.122h16.897c.025-.726.026-1.457.002-2.183H.049C.02 11.289 0 11.642 0 12z" fill="#F3F4F5"/><path d="M.05 10.938h16.903a30.772 30.772 0 00-.148-2.183H.447a11.937 11.937 0 00-.398 2.183z" fill="#E73625"/><path d="M16.799 15.305H.465c.218.762.509 1.492.865 2.183h15.146c.135-.7.243-1.431.323-2.183z" fill="#F3F4F5"/><path d="M.465 15.305h16.334c.076-.714.127-1.446.152-2.183H.054c.07.75.21 1.48.411 2.183z" fill="#E73625"/><path d="M5.157 21.855h9.83c.363-.624.675-1.362.938-2.183H2.775c.69.83 1.493 1.565 2.382 2.183z" fill="#F3F4F5"/><path d="M1.33 17.489c.403.78.887 1.513 1.444 2.183h13.15c.218-.678.402-1.41.551-2.183H1.33zM11.492 23.989l.073.002c.144.006.289.009.434.009 1.22 0 2.216-.816 2.987-2.144H5.157a11.937 11.937 0 006.335 2.133z" fill="#E73625"/><path d="M11.752.006C5.602.131.59 4.88.05 10.92h11.7V.006z" fill="#283991"/><path d="M2.401 6.799l.183.563h.592l-.479.348.183.563-.479-.348-.479.348.183-.563-.479-.348h.592l.183-.563zM2.401 8.788l.183.563h.592l-.479.348.183.563-.479-.348-.479.348.183-.563-.479-.348h.592l.183-.563zM4.39 3.815l.183.563h.592l-.479.348.183.563-.479-.348-.479.348.183-.563-.48-.348h.593l.183-.563zM4.39 5.804l.183.563h.592l-.479.348.183.563-.479-.347-.479.347.183-.563-.48-.348h.593l.183-.563zM4.39 7.793l.183.564h.592l-.479.347.183.564-.479-.349-.479.349.183-.564-.48-.347h.593l.183-.564zM.89 9.268l-.182-.564.479-.348H.595l-.013-.04c-.065.2-.124.404-.178.61l.008-.007.479.349zM1.923 6.284l.478-.348.48.348-.184-.563.48-.348h-.593l-.183-.563-.183.563H2l-.12.185.225.163-.182.563zM4.39 2.952l.479.348-.183-.563.479-.348h-.342c-.29.217-.57.447-.84.69L3.91 3.3l.48-.348zM5.9 2.306l.48-.348.478.348-.183-.563.48-.348h-.593l-.025-.076c-.2.102-.399.21-.593.323l.14.1-.184.564zM6.38 2.82l.182.563h.592l-.479.349.183.563-.479-.348-.479.348.183-.563-.479-.349h.592l.183-.562zM6.38 4.81l.182.563h.592l-.479.348.183.563-.479-.348-.479.348.183-.563-.479-.348h.592l.183-.563zM6.38 6.799l.182.563h.592l-.479.348.183.563-.479-.348-.479.348.183-.563-.479-.348h.592l.183-.563zM6.38 8.788l.182.563h.592l-.479.348.183.563-.479-.348-.479.348.183-.563-.479-.348h.592l.183-.563zM8.368 1.826l.183.563h.592l-.479.348.183.563-.479-.348-.48.348.184-.563-.48-.348h.593l.183-.563zM8.368 3.815l.183.563h.592l-.479.348.183.563-.479-.348-.48.348.184-.563-.48-.348h.593l.183-.563zM8.368 5.804l.183.563h.592l-.479.348.183.563-.479-.347-.48.347.184-.563-.48-.348h.593l.183-.563zM8.368 7.793l.183.564h.592l-.479.347.183.564-.479-.349-.48.349.184-.564-.48-.347h.593l.183-.564zM10.357.832l.183.563h.592l-.479.348.183.563-.479-.348-.479.348.183-.563-.479-.348h.592l.183-.563zM10.357 2.82l.183.563h.592l-.479.349.183.563-.479-.348-.479.348.183-.563-.479-.349h.592l.183-.562zM10.357 4.81l.183.563h.592l-.479.348.183.563-.479-.348-.479.348.183-.563-.479-.348h.592l.183-.563zM10.357 6.799l.183.563h.592l-.479.348.183.563-.479-.348-.479.348.183-.563-.479-.348h.592l.183-.563zM10.357 8.788l.183.563h.592l-.479.348.183.563-.479-.348-.479.348.183-.563-.479-.348h.592l.183-.563z" fill="#EFEFEF"/></svg>