<svg width="67" height="24" fill="none" xmlns="http://www.w3.org/2000/svg"><path d="M15.627 16.178h-2.734l1.71-10.575h2.734l-1.71 10.575zM25.54 5.861a6.739 6.739 0 00-2.453-.45c-2.7 0-4.602 1.44-4.614 3.499-.022 1.518 1.362 2.362 2.397 2.869 1.058.517 1.417.855 1.417 1.316-.01.709-.854 1.035-1.642 1.035-1.091 0-1.676-.168-2.565-.562l-.36-.17-.383 2.375c.641.292 1.823.551 3.05.562 2.869 0 4.737-1.417 4.759-3.611.01-1.204-.72-2.126-2.296-2.88-.956-.484-1.542-.81-1.542-1.305.012-.45.496-.911 1.575-.911a4.646 4.646 0 012.037.405l.247.112.372-2.284zM29.174 12.431c.225-.607 1.091-2.958 1.091-2.958-.011.022.225-.62.36-1.013l.191.911s.518 2.532.63 3.06h-2.272zm3.375-6.828h-2.115c-.652 0-1.148.19-1.43.877l-4.06 9.698h2.868l.574-1.587h3.51c.08.372.327 1.587.327 1.587h2.532L32.549 5.603zM10.609 5.603l-2.678 7.21c-.495-1.687-1.966-4.146-3.7-5.058l2.08 8.412h2.891L13.5 5.603H10.61z" fill="#fff"/><path d="M5.444 5.603H1.045L1 5.816c3.432.878 5.705 2.993 6.638 5.536l-.956-4.86c-.157-.676-.641-.867-1.238-.89zM45.926 21.095v-1.203a.714.714 0 00-.754-.762.741.741 0 00-.673.34.703.703 0 00-.634-.34.633.633 0 00-.561.285v-.237h-.417v1.916h.421V20.04a.447.447 0 01.47-.51c.276 0 .416.181.416.506v1.066h.421V20.04a.45.45 0 01.47-.51c.284 0 .42.181.42.506v1.066l.421-.008zm6.229-1.917h-.686v-.581h-.42v.581h-.382v.38h.39v.883c0 .445.171.71.665.71.184 0 .365-.051.52-.149l-.12-.357a.77.77 0 01-.368.109c-.2 0-.277-.129-.277-.321v-.874h.682l-.004-.381zm3.556-.048a.565.565 0 00-.505.28v-.232h-.413v1.916h.417V20.02c0-.317.136-.493.4-.493a.68.68 0 01.261.048l.129-.401a.894.894 0 00-.297-.052l.008.008zm-5.377.2a1.433 1.433 0 00-.781-.2c-.485 0-.802.232-.802.613 0 .313.232.506.661.566l.2.028c.23.032.337.092.337.2 0 .149-.152.233-.436.233a1.02 1.02 0 01-.638-.2l-.2.324c.242.17.533.257.83.249.553 0 .874-.261.874-.626s-.253-.513-.67-.573l-.2-.028c-.18-.024-.325-.06-.325-.189 0-.128.136-.224.365-.224.21.002.418.059.601.164l.184-.337zm11.169-.2a.565.565 0 00-.505.28v-.232h-.413v1.916H61V20.02c0-.317.137-.493.401-.493a.68.68 0 01.261.048l.128-.401a.893.893 0 00-.296-.052l.008.008zm-5.373 1.002a.967.967 0 001.023 1.003c.25.012.496-.07.69-.229l-.201-.337a.842.842 0 01-.502.173.616.616 0 010-1.227.842.842 0 01.502.172l.2-.337a1.002 1.002 0 00-.69-.228.969.969 0 00-1.022 1.002v.008zm3.905 0v-.954h-.417v.232a.727.727 0 00-.601-.28 1.002 1.002 0 100 2.005.728.728 0 00.601-.281v.233h.417v-.955zm-1.551 0a.578.578 0 111.155.068.578.578 0 01-1.155-.068zm-5.032-1.002a1.002 1.002 0 10.028 2.005c.288.014.572-.079.796-.261l-.2-.309a.912.912 0 01-.558.2.531.531 0 01-.573-.468h1.423v-.16c0-.602-.373-1.003-.91-1.003l-.006-.004zm0 .373a.477.477 0 01.485.465h-1.002a.493.493 0 01.509-.465h.008zm10.446.633v-1.728h-.4v1.002a.729.729 0 00-.602-.28 1.002 1.002 0 100 2.005.728.728 0 00.601-.281v.233h.401v-.95zm.696.68a.2.2 0 01.138.054.187.187 0 01-.062.309.188.188 0 01-.076.016.201.201 0 01-.18-.117.189.189 0 01.042-.208.2.2 0 01.144-.054h-.006zm0 .339a.144.144 0 00.104-.045.149.149 0 000-.2.149.149 0 00-.104-.044c-.02 0-.04.004-.058.012a.147.147 0 00-.048.032.149.149 0 000 .2.148.148 0 00.112.044h-.006zm.012-.239a.08.08 0 01.052.016.05.05 0 01.018.042.048.048 0 01-.014.036.07.07 0 01-.042.018l.058.067h-.046l-.054-.067h-.018v.067h-.038v-.177l.084-.002zm-.044.034v.048h.044a.043.043 0 00.024 0 .02.02 0 00.002-.009.02.02 0 00-.002-.009.02.02 0 00.002-.009.02.02 0 00-.002-.009.04.04 0 00-.024 0l-.044-.012zm-2.205-.814a.578.578 0 111.155.068.578.578 0 01-1.155-.068zm-14.08 0v-.958h-.416v.232a.727.727 0 00-.602-.28 1.002 1.002 0 100 2.005.729.729 0 00.602-.281v.233h.417v-.95zm-1.551 0a.578.578 0 11.581.614.577.577 0 01-.585-.614h.004z" fill="#fff"/><path fill-rule="evenodd" clip-rule="evenodd" d="M63.9 14.048a7.218 7.218 0 001.1-3.83v-.001a7.218 7.218 0 00-11.677-5.674 7.217 7.217 0 010 11.35A7.218 7.218 0 0063.9 14.047zM51.29 7.064a7.204 7.204 0 00-.724 3.155 7.205 7.205 0 002.756 5.673 7.217 7.217 0 110-11.348 7.205 7.205 0 00-2.032 2.52z" fill="#fff"/><path d="M55.278 10.217c0 2.325-2.005 4.21-2.005 4.21s-2.004-1.885-2.004-4.21 2.005-4.21 2.005-4.21 2.004 1.885 2.004 4.21z" fill="#fff"/></svg>