<svg width="67" height="24" fill="none" xmlns="http://www.w3.org/2000/svg"><path fill-rule="evenodd" clip-rule="evenodd" d="M58.117 18.885l1.959-1.806 1.695 1.937c-.337.26-.705.508-1.109.736a8.36 8.36 0 01-4.152 1.098c-4.64 0-8.426-3.784-8.426-8.424C48.084 7.784 51.869 4 56.51 4c1.321 0 2.576.308 3.693.854.176.084.349.176.522.276l-.775.694-1.162-1.204-1.967 1.755-1.164-1.276-3.668 3.303 2.35 2.59-.925.81 2.316 2.593-.92.81 3.307 3.68zm3.414-12.987l-1 .902.901 1 1.001-.901-.902-1.001zm-2.812.248L57.215 7.5l1.353 1.503 1.504-1.353-1.353-1.504zm4.379 6.616l1-.902.902 1-1 .902-.902-1zm-1.709-.424l-1.502 1.357 1.356 1.5 1.502-1.356-1.356-1.501zm-2.993 1.22l-2.003 1.804 1.804 2.004 2.003-1.803-1.804-2.004zm3.423-3.786l.998-.902.903 1-.998.902-.903-1zM7.713 8.954l-.981 5.087h-.068L5.327 8.954h-.856l-1.25 5.087h-.067L2.078 8.954H1l1.557 6.818h1.04l1.268-4.8h.068l1.308 4.8H7.28l1.558-6.818H7.713zm47.256 2.938l2.005-1.805 1.804 2.004-2.005 1.805-1.804-2.004zm.573-5.22l-2.004 1.804 1.804 2.004 2.004-1.804-1.804-2.004zm3.058 3.852l1.5-1.354 1.356 1.503-1.5 1.353-1.356-1.502zM43.98 14.553l1.092-3.542h1.03l-1.738 4.808c-.481 1.328-1.068 2.02-2.172 2.02v-.787c.654 0 1.057-.518 1.288-1.23l-1.845-4.81h1.057l1.23 3.54h.058zm-30.74-1.355c.001-1.571-.739-2.348-1.94-2.348-1.443 0-2.183 1.056-2.183 2.519 0 1.52.664 2.52 2.278 2.52.692 0 1.269-.193 1.701-.446v-.727c-.528.314-1.01.499-1.527.499-.99 0-1.462-.508-1.462-1.664h3.133v-.353zm-3.114-.292c.106-.96.559-1.413 1.145-1.413.52 0 1.01.402 1.057 1.413h-2.202zm51.083 3.823l1.503-1.354 1.355 1.504-1.503 1.354-1.355-1.504zM41.332 13.2c.002-1.572-.739-2.348-1.94-2.348-1.443 0-2.182 1.055-2.182 2.518 0 1.52.663 2.52 2.277 2.52a3.36 3.36 0 001.7-.446v-.727c-.527.314-1.008.499-1.527.499-.989 0-1.462-.508-1.462-1.664h3.134v-.353zm-3.115-.293c.108-.96.56-1.413 1.147-1.413.517 0 1.01.402 1.057 1.413h-2.204zM16.415 10.85c-.52 0-1.01.202-1.3.356v-2.74l-.999.24v6.71c.577.307 1.365.471 1.876.471 1.394 0 2.259-.876 2.259-2.675 0-1.535-.644-2.361-1.836-2.361zm-.423 4.364c-.242 0-.576-.018-.884-.153v-3.144c.384-.212.664-.317 1.046-.317.645 0 1.088.395 1.088 1.614 0 1.557-.538 2-1.25 2zm16.287-3.655c.432-.26 1.345-.711 2.451-.711 1.152.002 1.586.454 1.586 1.443v3.48h-1v-3.26c0-.76-.373-.895-.867-.895-.383 0-.874.174-1.172.347v3.806h-.998v-4.21zm-7.547-2.605l-2.055 5.374h-.05l-2.153-5.374h-1.162v6.818h.864v-4.828h.086l1.962 4.828h.614l1.962-4.945h.086v4.945h1.038V8.954h-1.192zm2.248 4.415c0-1.682.924-2.518 2.193-2.518 1.269 0 2.192.835 2.192 2.518 0 1.643-.875 2.52-2.192 2.52-1.316 0-2.192-.877-2.192-2.52zm1.01 0c0 1.319.5 1.845 1.183 1.845.682 0 1.183-.528 1.183-1.845 0-1.299-.529-1.846-1.183-1.846-.634 0-1.183.547-1.183 1.846z" fill="#fff"/></svg>